<?xml version="1.0" encoding="utf-8"?>
<!-- Generator: Adobe Illustrator 16.0.0, SVG Export Plug-In . SVG Version: 6.00 Build 0)  -->
<!DOCTYPE svg PUBLIC "-//W3C//DTD SVG 1.1//EN" "http://www.w3.org/Graphics/SVG/1.1/DTD/svg11.dtd">
<svg version="1.1" id="Calque_7" xmlns="http://www.w3.org/2000/svg" xmlns:xlink="http://www.w3.org/1999/xlink" x="0px" y="0px"
	 width="420.119px" height="359.597px" viewBox="0 0 420.119 359.597" enable-background="new 0 0 420.119 359.597"
	 xml:space="preserve">
<path opacity="0.5" fill="#F6F9FA" d="M170.295,244.746c0,0-43.574-12.343-45.952,64.653
	c-5.545,51.334,114.479,66.528,140.228,30.412c26.29-36.873,57.044-33.264,57.044-64.634c0-31.368-9.708-37.072-25.752-34.221
	C279.821,243.81,201.193,259.005,170.295,244.746z"/>
<rect x="164.314" y="240.705" transform="matrix(0.9981 -0.0623 0.0623 0.9981 -17.2764 14.0367)" fill="#EBEBEB" stroke="#EBEBEB" stroke-miterlimit="10" width="104.597" height="87.108"/>
<ellipse transform="matrix(-0.0214 -0.9998 0.9998 -0.0214 -74.188 465.6517)" fill="#FFFFFF" stroke="#000000" stroke-linecap="round" stroke-linejoin="round" stroke-miterlimit="10" cx="190.792" cy="269.133" rx="32.405" ry="13.661"/>
<ellipse transform="matrix(-0.0214 -0.9998 0.9998 -0.0214 -20.17 518.5232)" fill="#FFFFFF" stroke="#000000" stroke-linecap="round" stroke-linejoin="round" stroke-miterlimit="10" cx="243.68" cy="269.133" rx="32.405" ry="13.66"/>
<path fill="#EBEBEB" d="M408.557,252.729c0,0.639-0.692,1.157-1.547,1.157H23.294c-0.855,0-1.547-0.519-1.547-1.157V70.047
	c0-0.639,0.692-1.156,1.547-1.156H407.01c0.854,0,1.547,0.517,1.547,1.156V252.729z"/>
<polygon fill="#DDDDDD" points="399.224,260.108 31.08,259.59 22.265,253.887 408.557,253.887 "/>
<path fill-rule="evenodd" clip-rule="evenodd" fill="none" stroke="#DDDDDD" stroke-miterlimit="10" d="M302.087,155.713
	c0,0,3.457-20.741,26.271-8.296s10.901,18.477,22.902,23.249c13.914,5.532,5.273,10.887,2.678,15.467
	c-4.752,8.384-1.382,15.643-1.382,15.643"/>
<rect x="126.832" y="120.802" fill-rule="evenodd" clip-rule="evenodd" fill="#DDDDDD" width="179.751" height="118.22"/>
<rect x="130.979" y="125.642" fill="#FFFFFF" stroke="#DDDDDD" stroke-miterlimit="10" width="171.456" height="108.541"/>
<circle fill="#DDDDDD" cx="136.683" cy="226.75" r="1.901"/>
<circle fill="#DDDDDD" cx="136.683" cy="216.38" r="1.901"/>
<circle fill="#DDDDDD" cx="136.683" cy="206.01" r="1.901"/>
<circle fill="#DDDDDD" cx="136.683" cy="195.64" r="1.901"/>
<circle fill="#DDDDDD" cx="136.683" cy="185.27" r="1.901"/>
<circle fill="#DDDDDD" cx="136.683" cy="174.899" r="1.901"/>
<circle fill="#DDDDDD" cx="136.683" cy="164.529" r="1.901"/>
<circle fill="#DDDDDD" cx="136.683" cy="154.159" r="1.901"/>
<circle fill="#DDDDDD" cx="136.683" cy="143.789" r="1.901"/>
<circle fill="#DDDDDD" cx="136.683" cy="133.418" r="1.901"/>
<g>
	
		<line fill="none" stroke="#DDDDDD" stroke-width="2" stroke-linecap="round" stroke-linejoin="round" stroke-miterlimit="10" x1="275.473" y1="133.246" x2="289.989" y2="133.246"/>
	
		<line fill="none" stroke="#DDDDDD" stroke-width="2" stroke-linecap="round" stroke-linejoin="round" stroke-miterlimit="10" x1="244.706" y1="133.246" x2="270.286" y2="133.246"/>
	
		<line fill="none" stroke="#DDDDDD" stroke-width="2" stroke-linecap="round" stroke-linejoin="round" stroke-miterlimit="10" x1="225.349" y1="133.246" x2="238.83" y2="133.246"/>
	
		<line fill="none" stroke="#DDDDDD" stroke-width="2" stroke-linecap="round" stroke-linejoin="round" stroke-miterlimit="10" x1="190.436" y1="133.246" x2="220.51" y2="133.246"/>
	
		<line fill="none" stroke="#DDDDDD" stroke-width="2" stroke-linecap="round" stroke-linejoin="round" stroke-miterlimit="10" x1="174.881" y1="133.246" x2="185.596" y2="133.246"/>
	
		<line fill="none" stroke="#DDDDDD" stroke-width="2" stroke-linecap="round" stroke-linejoin="round" stroke-miterlimit="10" x1="144.461" y1="133.246" x2="169.35" y2="133.246"/>
</g>
<g>
	
		<line fill="none" stroke="#DDDDDD" stroke-width="2" stroke-linecap="round" stroke-linejoin="round" stroke-miterlimit="10" x1="241.941" y1="143.616" x2="289.989" y2="143.616"/>
	
		<line fill="none" stroke="#DDDDDD" stroke-width="2" stroke-linecap="round" stroke-linejoin="round" stroke-miterlimit="10" x1="197.695" y1="143.616" x2="237.793" y2="143.616"/>
	
		<line fill="none" stroke="#DDDDDD" stroke-width="2" stroke-linecap="round" stroke-linejoin="round" stroke-miterlimit="10" x1="144.461" y1="143.616" x2="193.547" y2="143.616"/>
</g>
<line fill="none" stroke="#DDDDDD" stroke-width="2" stroke-linecap="round" stroke-linejoin="round" stroke-miterlimit="10" x1="144.461" y1="153.987" x2="289.989" y2="153.987"/>
<g>
	
		<line fill="none" stroke="#DDDDDD" stroke-width="2" stroke-linecap="round" stroke-linejoin="round" stroke-miterlimit="10" x1="275.473" y1="216.208" x2="289.989" y2="216.208"/>
	
		<line fill="none" stroke="#DDDDDD" stroke-width="2" stroke-linecap="round" stroke-linejoin="round" stroke-miterlimit="10" x1="244.706" y1="216.208" x2="270.286" y2="216.208"/>
	
		<line fill="none" stroke="#DDDDDD" stroke-width="2" stroke-linecap="round" stroke-linejoin="round" stroke-miterlimit="10" x1="225.349" y1="216.208" x2="238.83" y2="216.208"/>
	
		<line fill="none" stroke="#DDDDDD" stroke-width="2" stroke-linecap="round" stroke-linejoin="round" stroke-miterlimit="10" x1="190.436" y1="216.208" x2="220.51" y2="216.208"/>
	
		<line fill="none" stroke="#DDDDDD" stroke-width="2" stroke-linecap="round" stroke-linejoin="round" stroke-miterlimit="10" x1="174.881" y1="216.208" x2="185.596" y2="216.208"/>
	
		<line fill="none" stroke="#DDDDDD" stroke-width="2" stroke-linecap="round" stroke-linejoin="round" stroke-miterlimit="10" x1="144.461" y1="216.208" x2="169.35" y2="216.208"/>
</g>
<g>
	
		<line fill="none" stroke="#DDDDDD" stroke-width="2" stroke-linecap="round" stroke-linejoin="round" stroke-miterlimit="10" x1="241.941" y1="226.578" x2="289.989" y2="226.578"/>
	
		<line fill="none" stroke="#DDDDDD" stroke-width="2" stroke-linecap="round" stroke-linejoin="round" stroke-miterlimit="10" x1="197.695" y1="226.578" x2="237.793" y2="226.578"/>
	
		<line fill="none" stroke="#DDDDDD" stroke-width="2" stroke-linecap="round" stroke-linejoin="round" stroke-miterlimit="10" x1="144.461" y1="226.578" x2="193.547" y2="226.578"/>
</g>
<g>
	
		<line fill="none" stroke="#DDDDDD" stroke-width="2" stroke-linecap="round" stroke-linejoin="round" stroke-miterlimit="10" x1="158.979" y1="164.357" x2="144.461" y2="164.357"/>
	
		<line fill="none" stroke="#DDDDDD" stroke-width="2" stroke-linecap="round" stroke-linejoin="round" stroke-miterlimit="10" x1="189.745" y1="164.357" x2="164.165" y2="164.357"/>
	
		<line fill="none" stroke="#DDDDDD" stroke-width="2" stroke-linecap="round" stroke-linejoin="round" stroke-miterlimit="10" x1="209.102" y1="164.357" x2="195.621" y2="164.357"/>
	
		<line fill="none" stroke="#DDDDDD" stroke-width="2" stroke-linecap="round" stroke-linejoin="round" stroke-miterlimit="10" x1="244.016" y1="164.357" x2="213.942" y2="164.357"/>
	
		<line fill="none" stroke="#DDDDDD" stroke-width="2" stroke-linecap="round" stroke-linejoin="round" stroke-miterlimit="10" x1="259.571" y1="164.357" x2="248.854" y2="164.357"/>
	
		<line fill="none" stroke="#DDDDDD" stroke-width="2" stroke-linecap="round" stroke-linejoin="round" stroke-miterlimit="10" x1="289.989" y1="164.357" x2="265.101" y2="164.357"/>
</g>
<g>
	
		<line fill="none" stroke="#DDDDDD" stroke-width="2" stroke-linecap="round" stroke-linejoin="round" stroke-miterlimit="10" x1="192.51" y1="174.727" x2="144.461" y2="174.727"/>
	
		<line fill="none" stroke="#DDDDDD" stroke-width="2" stroke-linecap="round" stroke-linejoin="round" stroke-miterlimit="10" x1="236.756" y1="174.727" x2="196.658" y2="174.727"/>
	
		<line fill="none" stroke="#DDDDDD" stroke-width="2" stroke-linecap="round" stroke-linejoin="round" stroke-miterlimit="10" x1="289.989" y1="174.727" x2="240.904" y2="174.727"/>
</g>
<line fill="none" stroke="#DDDDDD" stroke-width="2" stroke-linecap="round" stroke-linejoin="round" stroke-miterlimit="10" x1="289.989" y1="185.097" x2="144.461" y2="185.097"/>
<g>
	
		<line fill="none" stroke="#DDDDDD" stroke-width="2" stroke-linecap="round" stroke-linejoin="round" stroke-miterlimit="10" x1="241.941" y1="195.467" x2="289.989" y2="195.467"/>
	
		<line fill="none" stroke="#DDDDDD" stroke-width="2" stroke-linecap="round" stroke-linejoin="round" stroke-miterlimit="10" x1="197.695" y1="195.467" x2="237.793" y2="195.467"/>
	
		<line fill="none" stroke="#DDDDDD" stroke-width="2" stroke-linecap="round" stroke-linejoin="round" stroke-miterlimit="10" x1="144.461" y1="195.467" x2="193.547" y2="195.467"/>
</g>
<line fill="none" stroke="#DDDDDD" stroke-width="2" stroke-linecap="round" stroke-linejoin="round" stroke-miterlimit="10" x1="144.461" y1="205.838" x2="289.989" y2="205.838"/>
<path fill="#083E4B" d="M275.471,170.925c0,2.863-2.321,5.185-5.185,5.185h-40.099c-2.863,0-5.185-2.322-5.185-5.185v-13.827
	c0-2.863,2.322-5.185,5.185-5.185h40.099c2.863,0,5.185,2.322,5.185,5.185V170.925z"/>
<path fill="#083E4B" d="M207.892,187.172c0,2.863-2.321,5.185-5.185,5.185h-40.098c-2.864,0-5.186-2.322-5.186-5.185v-13.827
	c0-2.863,2.322-5.185,5.186-5.185h40.098c2.864,0,5.185,2.322,5.185,5.185V187.172z"/>
<path fill-rule="evenodd" clip-rule="evenodd" fill="#FFFFFF" stroke="#DDDDDD" stroke-miterlimit="10" d="M383.216,95.863
	c0.354,0.357,0.396,0.808,0.346,1.279c-0.055,0.506-0.127,1.012-0.186,1.519c-0.105,0.908-0.666,1.455-1.59,1.519
	c-0.557,0.039-1.115,0.068-1.672,0.076c-0.223,0.003-0.33,0.076-0.412,0.279c-0.277,0.694-0.648,1.341-1.078,1.952
	c-0.117,0.168-0.123,0.284-0.021,0.463c0.309,0.54,0.594,1.09,0.881,1.641c0.361,0.693,0.219,1.454-0.377,1.948
	c-0.467,0.391-0.943,0.77-1.43,1.142c-0.6,0.46-1.371,0.459-1.961-0.021c-0.48-0.393-0.934-0.816-1.394-1.235
	c-0.162-0.146-0.3-0.195-0.522-0.099c-0.687,0.297-1.401,0.506-2.143,0.616c-0.203,0.029-0.279,0.119-0.328,0.316
	c-0.14,0.541-0.304,1.077-0.464,1.611c-0.284,0.939-0.94,1.374-1.912,1.267c-0.47-0.05-0.94-0.103-1.41-0.158
	c-0.998-0.122-1.535-0.691-1.59-1.688c-0.03-0.546-0.059-1.091-0.077-1.638c-0.004-0.186-0.062-0.291-0.242-0.358
	c-0.724-0.273-1.392-0.654-2.021-1.102c-0.156-0.112-0.271-0.098-0.436-0.005c-0.539,0.305-1.088,0.6-1.641,0.878
	c-0.729,0.366-1.45,0.212-1.969-0.416c-0.379-0.461-0.752-0.929-1.114-1.402c-0.479-0.629-0.449-1.417,0.069-2.018
	c0.391-0.451,0.785-0.898,1.19-1.334c0.146-0.158,0.174-0.292,0.089-0.495c-0.295-0.699-0.516-1.423-0.611-2.177
	c-0.026-0.192-0.117-0.271-0.296-0.32c-0.553-0.146-1.102-0.305-1.648-0.47c-0.913-0.275-1.345-0.935-1.244-1.89
	c0.053-0.482,0.104-0.966,0.164-1.447c0.124-0.987,0.683-1.51,1.669-1.567c0.547-0.031,1.092-0.063,1.639-0.083
	c0.188-0.007,0.311-0.047,0.383-0.252c0.26-0.715,0.637-1.374,1.082-1.99c0.117-0.163,0.132-0.279,0.024-0.461
	c-0.32-0.558-0.634-1.124-0.914-1.706c-0.334-0.699-0.153-1.421,0.444-1.905c0.445-0.36,0.893-0.717,1.343-1.071
	c0.638-0.504,1.417-0.506,2.05,0.015c0.459,0.378,0.903,0.776,1.345,1.175c0.174,0.159,0.324,0.209,0.557,0.108
	c0.675-0.293,1.38-0.494,2.108-0.591c0.203-0.026,0.294-0.113,0.345-0.309c0.142-0.541,0.302-1.076,0.46-1.611
	c0.277-0.938,0.907-1.367,1.871-1.269c0.509,0.052,1.015,0.11,1.521,0.171c0.903,0.108,1.452,0.687,1.513,1.601
	c0.038,0.557,0.073,1.115,0.089,1.674c0.006,0.2,0.064,0.312,0.26,0.386c0.696,0.27,1.343,0.64,1.95,1.074
	c0.176,0.121,0.296,0.149,0.494,0.033c0.547-0.319,1.102-0.625,1.671-0.9c0.701-0.336,1.416-0.176,1.918,0.415
	c0.396,0.463,0.777,0.941,1.139,1.43c0.475,0.637,0.422,1.422-0.104,2.017c-0.391,0.446-0.777,0.9-1.176,1.344
	c-0.139,0.154-0.176,0.288-0.086,0.494c0.303,0.684,0.49,1.404,0.613,2.142c0.033,0.195,0.111,0.286,0.312,0.34
	c0.588,0.154,1.166,0.346,1.752,0.517C382.757,95.411,383.028,95.573,383.216,95.863z M366.841,92.683
	c-2.034,1.647-2.372,4.6-0.754,6.627c1.612,2.025,4.65,2.356,6.668,0.726c2.005-1.62,2.335-4.658,0.721-6.647
	C371.833,91.371,368.854,91.054,366.841,92.683z"/>
<path fill-rule="evenodd" clip-rule="evenodd" fill="#FFFFFF" stroke="#DDDDDD" stroke-miterlimit="10" d="M332.942,90.206
	c-0.25-0.258-0.556-0.588-0.875-0.899c-0.667-0.65-0.764-1.496-0.235-2.256c0.304-0.437,0.62-0.866,0.941-1.29
	c0.55-0.727,1.323-0.909,2.146-0.506c0.457,0.223,0.915,0.447,1.359,0.691c0.168,0.091,0.297,0.086,0.443-0.018
	c0.853-0.607,1.811-0.972,2.817-1.215c0.159-0.04,0.223-0.123,0.263-0.266c0.14-0.503,0.29-1.003,0.439-1.502
	c0.264-0.879,0.877-1.312,1.785-1.233c0.607,0.052,1.213,0.126,1.816,0.219c0.705,0.111,1.233,0.75,1.288,1.536
	c0.034,0.508,0.057,1.017,0.071,1.527c0.006,0.191,0.057,0.312,0.243,0.402c0.887,0.437,1.675,1.012,2.349,1.738
	c0.181,0.195,0.353,0.245,0.616,0.169c0.498-0.145,1.009-0.256,1.519-0.361c0.778-0.159,1.469,0.192,1.81,0.914
	c0.238,0.504,0.468,1.013,0.683,1.527c0.35,0.838,0.097,1.599-0.669,2.097c-0.427,0.277-0.843,0.574-1.273,0.845
	c-0.128,0.078-0.164,0.158-0.152,0.297c0.087,1.054-0.049,2.085-0.343,3.098c-0.061,0.209,0.037,0.319,0.16,0.448
	c0.392,0.417,0.797,0.824,1.163,1.26c0.441,0.521,0.484,1.276,0.095,1.836c-0.395,0.57-0.82,1.122-1.26,1.659
	c-0.37,0.455-1.152,0.583-1.754,0.312c-0.498-0.222-0.988-0.461-1.475-0.711c-0.217-0.111-0.374-0.129-0.602,0.019
	c-0.826,0.541-1.715,0.951-2.684,1.16c-0.221,0.049-0.291,0.167-0.34,0.356c-0.128,0.481-0.256,0.961-0.401,1.436
	c-0.27,0.886-0.913,1.306-1.837,1.209c-0.533-0.054-1.065-0.101-1.596-0.172c-0.869-0.113-1.384-0.662-1.455-1.529
	c-0.042-0.532-0.083-1.065-0.099-1.599c-0.006-0.191-0.077-0.29-0.239-0.366c-0.926-0.446-1.75-1.037-2.449-1.79
	c-0.129-0.14-0.242-0.159-0.417-0.111c-0.466,0.127-0.938,0.233-1.409,0.343c-0.952,0.222-1.627-0.102-2.038-0.981
	c-0.221-0.473-0.439-0.946-0.644-1.424c-0.341-0.794-0.081-1.609,0.646-2.08c0.448-0.292,0.886-0.602,1.337-0.885
	c0.132-0.082,0.158-0.172,0.146-0.307c-0.102-1.042,0.042-2.062,0.344-3.056C333.252,90.505,333.106,90.414,332.942,90.206z
	 M339.482,90.612c-1.412,1.114-1.657,3.186-0.545,4.632c1.085,1.412,3.198,1.665,4.628,0.552c1.428-1.11,1.675-3.223,0.543-4.654
	C342.981,89.72,340.912,89.484,339.482,90.612z"/>
<rect x="87.992" y="93.986" fill="#FFFFFF" stroke="#DDDDDD" stroke-miterlimit="10" width="53.234" height="91.258"/>
<rect x="87.992" y="93.986" fill="#DDDDDD" width="53.234" height="7.951"/>
<line fill="none" stroke="#DDDDDD" stroke-miterlimit="10" x1="97.498" y1="148.258" x2="109.251" y2="137.196"/>
<circle fill="none" stroke="#083E4B" stroke-miterlimit="10" cx="127.745" cy="142.382" r="7.95"/>
<rect x="96.288" y="161.048" fill="none" stroke="#DDDDDD" stroke-miterlimit="10" width="14.173" height="14.172"/>
<path fill-rule="evenodd" clip-rule="evenodd" fill="#083E4B" d="M101.955,117.33c-0.595,0.871-1.18,1.726-1.784,2.61
	c0.088-2.668,0.174-5.309,0.261-7.963c2.053,1.641,4.099,3.276,6.145,4.912c-0.003,0.008-0.005,0.018-0.007,0.026
	c-0.953-0.091-1.905-0.181-2.872-0.271c0.022,0.045,0.038,0.081,0.054,0.115c0.313,0.678,0.625,1.354,0.941,2.028
	c0.037,0.079,0.026,0.108-0.053,0.143c-0.498,0.226-0.995,0.456-1.489,0.689c-0.086,0.041-0.123,0.04-0.166-0.057
	c-0.321-0.705-0.648-1.408-0.974-2.11C101.996,117.417,101.98,117.382,101.955,117.33z"/>
<path fill-rule="evenodd" clip-rule="evenodd" fill="none" stroke="#DDDDDD" stroke-linecap="round" stroke-linejoin="round" stroke-miterlimit="10" d="
	M126.325,117.33c-0.595,0.871-1.18,1.726-1.784,2.61c0.088-2.668,0.174-5.309,0.261-7.963c2.053,1.641,4.099,3.276,6.146,4.912
	c-0.003,0.008-0.005,0.018-0.007,0.026c-0.953-0.091-1.905-0.181-2.872-0.271c0.022,0.045,0.038,0.081,0.054,0.115
	c0.312,0.678,0.626,1.354,0.941,2.028c0.036,0.079,0.025,0.108-0.053,0.143c-0.498,0.226-0.994,0.456-1.488,0.689
	c-0.086,0.041-0.124,0.04-0.166-0.057c-0.321-0.705-0.649-1.408-0.975-2.11C126.367,117.417,126.351,117.382,126.325,117.33z"/>
<path fill-rule="evenodd" clip-rule="evenodd" fill="none" stroke="#DDDDDD" stroke-miterlimit="10" d="M134.384,165.778
	c-0.007,0.063-0.024,0.122-0.065,0.17c-0.032,0.038-0.068,0.073-0.104,0.108c-2.806,2.806-5.611,5.611-8.415,8.417
	c-0.098,0.098-0.205,0.166-0.338,0.205c-1.326,0.401-2.65,0.803-3.976,1.209c-0.114,0.035-0.219,0.054-0.308-0.042
	c-0.084-0.089-0.087-0.194-0.053-0.311c0.414-1.355,0.826-2.711,1.235-4.067c0.025-0.084,0.074-0.147,0.134-0.207
	c2.829-2.829,5.658-5.658,8.487-8.488c0.196-0.196,0.299-0.197,0.492-0.003c0.924,0.923,1.847,1.847,2.771,2.77
	C134.312,165.607,134.376,165.677,134.384,165.778z"/>
<rect x="332.507" y="130.48" fill="#FFFFFF" stroke="#DDDDDD" stroke-miterlimit="10" width="87.112" height="33.876"/>
<rect x="332.507" y="130.48" fill="#DDDDDD" width="87.112" height="7.95"/>
<g>
	<path fill-rule="evenodd" clip-rule="evenodd" fill="#DDDDDD" d="M342.565,210.805c0-1.367,0.002-2.734-0.002-4.102
		c-0.002-1.272,0.225-2.491,0.81-3.63c0.873-1.696,2.191-2.914,3.956-3.643c0.915-0.379,1.873-0.529,2.859-0.528
		c1.021,0.002,2.044-0.022,3.062,0.016c2.021,0.075,3.723,0.868,5.103,2.357c0.986,1.066,1.639,2.298,1.92,3.724
		c0.089,0.45,0.14,0.905,0.14,1.365c-0.004,2.978,0.006,5.954-0.006,8.93c-0.006,1.428-0.438,2.736-1.228,3.923
		c-1.019,1.527-2.38,2.604-4.154,3.131c-0.719,0.212-1.456,0.299-2.201,0.292c-1.15-0.012-2.303,0.053-3.451-0.043
		c-1.597-0.133-2.983-0.763-4.185-1.806c-1.267-1.098-2.087-2.47-2.453-4.11c-0.128-0.568-0.166-1.144-0.168-1.724
		C342.562,213.574,342.565,212.189,342.565,210.805z M352.727,206.397c0.007,0,0.011,0,0.017,0c0-0.52,0-1.039-0.002-1.557
		c0-0.061-0.011-0.122-0.015-0.182c-0.051-0.555-0.451-1.001-1-1.113c-0.556-0.111-1.05,0.129-1.319,0.64
		c-0.129,0.243-0.17,0.504-0.17,0.775c0,0.969-0.002,1.938,0.002,2.908c0,0.138,0.013,0.276,0.039,0.412
		c0.105,0.559,0.676,0.995,1.247,0.96c0.641-0.038,1.169-0.494,1.195-1.08C352.749,207.574,352.727,206.985,352.727,206.397z"/>
	<path fill-rule="evenodd" clip-rule="evenodd" fill="#FFFFFF" d="M352.727,206.397c0,0.587,0.022,1.177-0.006,1.764
		c-0.026,0.585-0.555,1.042-1.195,1.08c-0.571,0.035-1.142-0.401-1.247-0.96c-0.026-0.136-0.039-0.274-0.039-0.412
		c-0.004-0.969-0.002-1.938-0.002-2.908c0-0.271,0.041-0.533,0.17-0.775c0.27-0.511,0.764-0.751,1.319-0.64
		c0.549,0.111,0.949,0.558,1,1.113c0.004,0.06,0.015,0.121,0.015,0.182c0.002,0.518,0.002,1.038,0.002,1.557
		C352.737,206.397,352.733,206.397,352.727,206.397z"/>
</g>
<rect x="41.178" y="1" fill="#FFFFFF" stroke="#DDDDDD" stroke-miterlimit="10" width="121.678" height="82.961"/>
<rect x="41.178" y="0.77" fill="#DDDDDD" width="121.678" height="7.95"/>
<circle fill="#FFFFFF" cx="46.363" cy="4.745" r="1.21"/>
<circle fill="#FFFFFF" cx="50.395" cy="4.745" r="1.21"/>
<circle fill="#FFFFFF" cx="54.543" cy="4.745" r="1.21"/>
<g>
	
		<line fill="none" stroke="#DDDDDD" stroke-linecap="round" stroke-linejoin="round" stroke-miterlimit="10" x1="115.671" y1="18.63" x2="155.078" y2="18.63"/>
	
		<line fill="none" stroke="#DDDDDD" stroke-linecap="round" stroke-linejoin="round" stroke-miterlimit="10" x1="115.671" y1="22.778" x2="155.078" y2="22.778"/>
	
		<line fill="none" stroke="#DDDDDD" stroke-linecap="round" stroke-linejoin="round" stroke-miterlimit="10" x1="115.671" y1="26.926" x2="155.078" y2="26.926"/>
	
		<line fill="none" stroke="#DDDDDD" stroke-linecap="round" stroke-linejoin="round" stroke-miterlimit="10" x1="115.671" y1="31.074" x2="155.078" y2="31.074"/>
	
		<line fill="none" stroke="#DDDDDD" stroke-linecap="round" stroke-linejoin="round" stroke-miterlimit="10" x1="115.671" y1="35.222" x2="155.078" y2="35.222"/>
	
		<line fill="none" stroke="#DDDDDD" stroke-linecap="round" stroke-linejoin="round" stroke-miterlimit="10" x1="115.671" y1="39.37" x2="155.078" y2="39.37"/>
	
		<line fill="none" stroke="#DDDDDD" stroke-linecap="round" stroke-linejoin="round" stroke-miterlimit="10" x1="115.671" y1="43.518" x2="142.634" y2="43.518"/>
</g>
<path fill="none" stroke="#DDDDDD" stroke-miterlimit="10" d="M155.078,50.172c0,1.479-1.199,2.679-2.679,2.679h-12.962
	c-1.48,0-2.679-1.2-2.679-2.679l0,0c0-1.479,1.199-2.679,2.679-2.679h12.962C153.879,47.493,155.078,48.693,155.078,50.172
	L155.078,50.172z"/>
<rect x="53.795" y="67.37" opacity="0.7" fill="#083E4B" width="20.222" height="12.79"/>
<rect x="129.498" y="67.37" opacity="0.1" fill="#083E4B" width="20.222" height="12.79"/>
<line fill="none" stroke="#DDDDDD" stroke-width="2" stroke-linecap="round" stroke-linejoin="round" stroke-miterlimit="10" x1="95.362" y1="61.147" x2="108.671" y2="61.147"/>
<rect x="91.906" y="67.37" opacity="0.4" fill="#083E4B" width="20.221" height="12.79"/>
<path fill-rule="evenodd" clip-rule="evenodd" fill="#083E4B" d="M147.646,56.309c-0.6,0.867-1.191,1.718-1.8,2.599
	c0.104-2.668,0.208-5.309,0.312-7.962c2.042,1.655,4.077,3.303,6.112,4.952c-0.001,0.008-0.004,0.018-0.007,0.026
	c-0.951-0.097-1.903-0.193-2.869-0.29c0.021,0.046,0.037,0.081,0.052,0.116c0.309,0.68,1.221,2.693,1.533,3.37
	c0.036,0.079,0.024,0.108-0.054,0.142c-0.5,0.223-0.997,0.45-1.494,0.681c-0.085,0.04-0.122,0.039-0.165-0.058
	c-0.316-0.707-1.244-2.747-1.564-3.451C147.688,56.397,147.671,56.361,147.646,56.309z"/>
<path fill-rule="evenodd" clip-rule="evenodd" fill="#FFFFFF" stroke="#DDDDDD" stroke-miterlimit="10" d="M386.819,56.135
	c0.574,0.209,0.854,0.682,1.039,1.225c0.203,0.583,0.387,1.174,0.586,1.761c0.354,1.051,0.02,1.94-0.959,2.488
	c-0.588,0.33-1.186,0.652-1.793,0.949c-0.244,0.117-0.324,0.253-0.309,0.518c0.055,0.904-0.016,1.805-0.172,2.697
	c-0.043,0.246,0.014,0.375,0.217,0.519c0.613,0.433,1.213,0.889,1.812,1.345c0.754,0.573,0.992,1.481,0.596,2.33
	c-0.312,0.67-0.639,1.332-0.977,1.991c-0.422,0.814-1.268,1.213-2.164,0.991c-0.729-0.183-1.447-0.413-2.166-0.634
	c-0.254-0.077-0.428-0.059-0.625,0.163c-0.6,0.681-1.275,1.279-2.029,1.783c-0.209,0.137-0.246,0.275-0.197,0.518
	c0.127,0.664,0.225,1.337,0.324,2.007c0.176,1.176-0.32,1.992-1.441,2.378c-0.541,0.188-1.084,0.374-1.628,0.555
	c-1.157,0.383-2.04,0.036-2.617-1.029c-0.316-0.583-0.628-1.166-0.93-1.758c-0.104-0.2-0.221-0.285-0.454-0.267
	c-0.936,0.075-1.865,0.003-2.785-0.163c-0.23-0.042-0.35,0.033-0.481,0.219c-0.434,0.613-0.881,1.22-1.343,1.811
	c-0.611,0.78-1.482,0.983-2.376,0.563c-0.654-0.31-1.305-0.629-1.946-0.962c-0.853-0.442-1.228-1.321-0.969-2.249
	c0.197-0.696,0.397-1.391,0.616-2.078c0.079-0.249,0.04-0.411-0.16-0.588c-0.683-0.614-1.3-1.294-1.797-2.072
	c-0.127-0.197-0.267-0.237-0.487-0.198c-0.681,0.125-1.365,0.234-2.053,0.338c-1.142,0.17-1.956-0.33-2.339-1.43
	c-0.192-0.556-0.387-1.111-0.571-1.67c-0.373-1.147-0.03-2.009,1.023-2.582c0.581-0.316,1.164-0.635,1.752-0.938
	c0.204-0.105,0.317-0.212,0.291-0.475c-0.085-0.918-0.012-1.835,0.156-2.74c0.045-0.241,0.002-0.375-0.211-0.52
	c-0.642-0.446-1.275-0.905-1.886-1.398c-0.729-0.593-0.903-1.479-0.5-2.318c0.304-0.625,0.611-1.249,0.92-1.869
	c0.439-0.883,1.294-1.289,2.258-1.044c0.699,0.178,1.392,0.385,2.08,0.594c0.273,0.085,0.464,0.061,0.669-0.17
	c0.587-0.67,1.256-1.254,2.007-1.737c0.209-0.133,0.264-0.276,0.215-0.517c-0.124-0.666-0.223-1.336-0.328-2.006
	c-0.181-1.17,0.287-1.966,1.397-2.358c0.583-0.205,1.171-0.404,1.758-0.598c1.045-0.348,1.946,0.002,2.485,0.972
	c0.33,0.592,0.656,1.186,0.962,1.791c0.109,0.216,0.235,0.308,0.484,0.29c0.903-0.065,1.805,0.007,2.695,0.168
	c0.256,0.042,0.401,0.01,0.56-0.219c0.434-0.632,0.883-1.255,1.367-1.852c0.594-0.73,1.46-0.925,2.315-0.536
	c0.672,0.303,1.336,0.631,1.99,0.979c0.848,0.455,1.195,1.343,0.93,2.265c-0.197,0.693-0.389,1.391-0.598,2.083
	c-0.07,0.241-0.043,0.407,0.164,0.586c0.686,0.595,1.266,1.286,1.781,2.031c0.135,0.197,0.27,0.257,0.516,0.212
	c0.727-0.136,1.459-0.226,2.188-0.339C386.083,55.877,386.466,55.915,386.819,56.135z M367.217,61.117
	c-1.377,2.858-0.221,6.27,2.603,7.658c2.816,1.385,6.32,0.176,7.688-2.653c1.361-2.814,0.151-6.315-2.647-7.661
	C372.016,57.097,368.584,58.29,367.217,61.117z"/>
<g>
	<path fill-rule="evenodd" clip-rule="evenodd" fill="#FFFFFF" stroke="#DDDDDD" stroke-miterlimit="10" d="M73.598,219.51
		c0,2.572-2.159,4.657-4.821,4.657h-31.58c-2.662,0-4.821-2.085-4.821-4.657v-18.631c0-2.573,2.159-4.658,4.821-4.658h31.58
		c2.663,0,4.821,2.085,4.821,4.658V219.51z"/>
	<polyline fill-rule="evenodd" clip-rule="evenodd" fill="#FFFFFF" stroke="#DDDDDD" stroke-miterlimit="10" points="
		33.851,197.696 52.25,212.29 71.735,197.696 	"/>
	
		<line fill-rule="evenodd" clip-rule="evenodd" fill="#FFFFFF" stroke="#DDDDDD" stroke-miterlimit="10" x1="34.317" y1="223.081" x2="46.892" y2="208.331"/>
	
		<line fill-rule="evenodd" clip-rule="evenodd" fill="#FFFFFF" stroke="#DDDDDD" stroke-miterlimit="10" x1="70.88" y1="223.081" x2="58.11" y2="208.136"/>
</g>
<path fill-rule="evenodd" clip-rule="evenodd" fill="#FFFFFF" stroke="#DDDDDD" stroke-miterlimit="10" d="M251.194,9.003
	c-0.25-0.258-0.554-0.588-0.873-0.899c-0.667-0.65-0.766-1.496-0.235-2.256c0.302-0.437,0.62-0.866,0.939-1.29
	c0.55-0.727,1.325-0.908,2.147-0.506c0.456,0.223,0.913,0.448,1.359,0.692c0.166,0.09,0.297,0.085,0.443-0.018
	c0.851-0.607,1.811-0.972,2.817-1.215c0.16-0.04,0.221-0.122,0.261-0.266c0.143-0.503,0.292-1.002,0.442-1.502
	c0.263-0.879,0.874-1.312,1.784-1.233c0.607,0.052,1.213,0.126,1.814,0.219c0.707,0.111,1.235,0.75,1.288,1.536
	c0.036,0.508,0.059,1.017,0.073,1.527c0.004,0.191,0.055,0.312,0.241,0.402c0.887,0.437,1.677,1.012,2.35,1.738
	c0.18,0.195,0.352,0.245,0.615,0.169c0.5-0.145,1.009-0.257,1.52-0.361c0.777-0.158,1.47,0.192,1.811,0.914
	c0.236,0.504,0.468,1.013,0.683,1.527c0.348,0.838,0.097,1.599-0.671,2.097c-0.425,0.278-0.843,0.574-1.273,0.845
	c-0.126,0.079-0.162,0.158-0.152,0.298c0.089,1.054-0.049,2.084-0.34,3.097c-0.062,0.209,0.036,0.32,0.157,0.449
	c0.394,0.416,0.797,0.823,1.165,1.259c0.441,0.521,0.484,1.276,0.095,1.836c-0.396,0.57-0.82,1.122-1.26,1.659
	c-0.372,0.455-1.152,0.583-1.756,0.312c-0.498-0.222-0.988-0.46-1.473-0.711c-0.219-0.111-0.374-0.129-0.602,0.019
	c-0.826,0.54-1.717,0.95-2.686,1.16c-0.221,0.048-0.289,0.167-0.34,0.356c-0.126,0.481-0.256,0.961-0.399,1.436
	c-0.271,0.886-0.915,1.305-1.839,1.209c-0.53-0.054-1.063-0.101-1.596-0.172c-0.867-0.113-1.384-0.662-1.455-1.528
	c-0.042-0.532-0.083-1.065-0.099-1.599c-0.004-0.191-0.077-0.29-0.237-0.367c-0.926-0.446-1.75-1.037-2.45-1.79
	c-0.13-0.14-0.241-0.159-0.416-0.111c-0.468,0.127-0.938,0.233-1.409,0.343c-0.954,0.222-1.629-0.102-2.04-0.981
	c-0.221-0.472-0.438-0.946-0.642-1.424c-0.343-0.794-0.081-1.608,0.646-2.079c0.448-0.292,0.886-0.602,1.337-0.885
	c0.13-0.082,0.158-0.172,0.145-0.307c-0.102-1.042,0.044-2.062,0.344-3.055C251.504,9.302,251.358,9.21,251.194,9.003z
	 M257.736,9.409c-1.414,1.113-1.657,3.186-0.547,4.631c1.088,1.412,3.198,1.664,4.628,0.552c1.43-1.111,1.675-3.224,0.543-4.654
	C261.234,8.518,259.166,8.281,257.736,9.409z"/>
<line fill="none" stroke="#083E4B" stroke-linecap="round" stroke-linejoin="round" stroke-miterlimit="10" x1="337.52" y1="155.369" x2="345.816" y2="147.147"/>
<line fill="none" stroke="#083E4B" stroke-linecap="round" stroke-linejoin="round" stroke-miterlimit="10" x1="345.816" y1="155.369" x2="337.52" y2="147.105"/>
<g>
	<rect x="405.75" y="146.813" fill="#083E4B" width="9.073" height="9.074"/>
	<rect x="394.342" y="146.813" opacity="0.8" fill="#083E4B" width="9.074" height="9.074"/>
	<rect x="382.935" y="146.813" opacity="0.6" fill="#083E4B" width="9.074" height="9.074"/>
	<rect x="371.526" y="146.813" opacity="0.4" fill="#083E4B" width="9.074" height="9.074"/>
	<rect x="360.12" y="146.813" opacity="0.2" fill="#083E4B" width="9.074" height="9.074"/>
	<rect x="348.712" y="146.813" opacity="0.05" fill="#083E4B" width="9.074" height="9.074"/>
	<rect x="337.306" y="146.813" fill="none" stroke="#DDDDDD" stroke-miterlimit="10" width="9.073" height="9.074"/>
</g>
<line fill="none" stroke="#083E4B" stroke-miterlimit="10" x1="47.487" y1="52.852" x2="107.634" y2="14.741"/>
<line fill="none" stroke="#083E4B" stroke-miterlimit="10" x1="107.634" y1="52.852" x2="47.487" y2="14.741"/>
<rect x="47.228" y="14.482" fill="none" stroke="#DDDDDD" stroke-miterlimit="10" width="60.666" height="38.37"/>
<g>
	<g>
		
			<rect x="199.241" y="25.929" transform="matrix(0.766 -0.6428 0.6428 0.766 15.4036 146.7158)" fill-rule="evenodd" clip-rule="evenodd" fill="#FFFFFF" stroke="#DDDDDD" stroke-miterlimit="10" width="19.995" height="52.539"/>
		
			<circle fill-rule="evenodd" clip-rule="evenodd" fill="none" stroke="#DDDDDD" stroke-miterlimit="10" cx="223.116" cy="68.738" r="2.127"/>
		<path opacity="0.3" fill-rule="evenodd" clip-rule="evenodd" fill="#083E4B" d="M203.656,45.966
			c-0.899,0.708-1.792,1.429-2.842,1.914c-0.351,0.162-0.712,0.294-1.103,0.319c-0.387,0.024-0.685-0.098-0.887-0.458
			c-0.486-0.861-0.877-1.756-1.012-2.744c-0.209-1.526,0.282-2.804,1.4-3.845c0.847-0.787,1.825-1.295,3.008-1.323
			c0.955-0.023,1.825,0.275,2.648,0.737c0.48,0.269,0.918,0.596,1.349,0.937c0.335,0.266,0.417,0.596,0.309,0.999
			c-0.128,0.475-0.394,0.874-0.685,1.258C205.212,44.593,204.427,45.273,203.656,45.966z"/>
		<path opacity="0.3" fill-rule="evenodd" clip-rule="evenodd" fill="#083E4B" d="M195.646,40.23
			c-0.868-1.039-0.729-2.579,0.313-3.448c1.036-0.864,2.583-0.721,3.449,0.321c0.864,1.037,0.715,2.578-0.329,3.447
			C198.044,41.41,196.513,41.268,195.646,40.23z"/>
		<g>
			
				<line fill="none" stroke="#DDDDDD" stroke-linecap="round" stroke-linejoin="round" stroke-miterlimit="10" x1="202.071" y1="54.743" x2="213.233" y2="45.377"/>
			
				<line fill="none" stroke="#DDDDDD" stroke-linecap="round" stroke-linejoin="round" stroke-miterlimit="10" x1="203.712" y1="56.698" x2="214.874" y2="47.332"/>
			
				<line fill="none" stroke="#DDDDDD" stroke-linecap="round" stroke-linejoin="round" stroke-miterlimit="10" x1="205.353" y1="58.652" x2="216.514" y2="49.288"/>
			
				<line fill="none" stroke="#DDDDDD" stroke-linecap="round" stroke-linejoin="round" stroke-miterlimit="10" x1="206.993" y1="60.609" x2="218.155" y2="51.243"/>
			
				<line fill="none" stroke="#DDDDDD" stroke-linecap="round" stroke-linejoin="round" stroke-miterlimit="10" x1="208.634" y1="62.564" x2="219.795" y2="53.198"/>
			
				<line fill="none" stroke="#DDDDDD" stroke-linecap="round" stroke-linejoin="round" stroke-miterlimit="10" x1="210.274" y1="64.519" x2="221.436" y2="55.153"/>
			
				<line fill="none" stroke="#DDDDDD" stroke-linecap="round" stroke-linejoin="round" stroke-miterlimit="10" x1="211.915" y1="66.474" x2="219.552" y2="60.066"/>
		</g>
	</g>
	<g>
		
			<rect x="206.301" y="22.321" transform="matrix(0.9397 -0.342 0.342 0.9397 -3.5745 76.9073)" fill-rule="evenodd" clip-rule="evenodd" fill="#FFFFFF" stroke="#DDDDDD" stroke-miterlimit="10" width="19.996" height="52.539"/>
		
			<circle fill-rule="evenodd" clip-rule="evenodd" fill="none" stroke="#DDDDDD" stroke-miterlimit="10" cx="223.683" cy="68.877" r="2.126"/>
		<path opacity="0.7" fill-rule="evenodd" clip-rule="evenodd" fill="#083E4B" d="M213.184,40.823
			c-1.087,0.357-2.173,0.729-3.325,0.826c-0.385,0.033-0.769,0.033-1.146-0.077c-0.372-0.109-0.609-0.327-0.677-0.733
			c-0.163-0.977-0.224-1.95-0.013-2.925c0.327-1.506,1.224-2.538,2.631-3.134c1.065-0.451,2.158-0.594,3.279-0.216
			c0.905,0.307,1.622,0.884,2.238,1.599c0.358,0.416,0.658,0.874,0.946,1.341c0.224,0.365,0.188,0.704-0.052,1.044
			c-0.283,0.403-0.669,0.687-1.075,0.95C215.116,40.065,214.146,40.436,213.184,40.823z"/>
		<path opacity="0.7" fill-rule="evenodd" clip-rule="evenodd" fill="#083E4B" d="M207.619,32.694
			c-0.461-1.274,0.197-2.673,1.473-3.133c1.269-0.458,2.674,0.206,3.132,1.481c0.457,1.269-0.208,2.667-1.489,3.125
			C209.47,34.624,208.079,33.965,207.619,32.694z"/>
		<g>
			
				<line fill="none" stroke="#DDDDDD" stroke-linecap="round" stroke-linejoin="round" stroke-miterlimit="10" x1="208.694" y1="48.528" x2="222.386" y2="43.545"/>
			
				<line fill="none" stroke="#DDDDDD" stroke-linecap="round" stroke-linejoin="round" stroke-miterlimit="10" x1="209.566" y1="50.927" x2="223.259" y2="45.943"/>
			
				<line fill="none" stroke="#DDDDDD" stroke-linecap="round" stroke-linejoin="round" stroke-miterlimit="10" x1="210.44" y1="53.326" x2="224.132" y2="48.342"/>
			
				<line fill="none" stroke="#DDDDDD" stroke-linecap="round" stroke-linejoin="round" stroke-miterlimit="10" x1="211.312" y1="55.725" x2="225.002" y2="50.741"/>
			
				<line fill="none" stroke="#DDDDDD" stroke-linecap="round" stroke-linejoin="round" stroke-miterlimit="10" x1="212.185" y1="58.123" x2="225.877" y2="53.139"/>
			
				<line fill="none" stroke="#DDDDDD" stroke-linecap="round" stroke-linejoin="round" stroke-miterlimit="10" x1="213.058" y1="60.521" x2="226.75" y2="55.538"/>
			
				<line fill="none" stroke="#DDDDDD" stroke-linecap="round" stroke-linejoin="round" stroke-miterlimit="10" x1="213.932" y1="62.919" x2="223.299" y2="59.51"/>
		</g>
	</g>
	<g>
		
			<rect x="213.372" y="20.736" fill-rule="evenodd" clip-rule="evenodd" fill="#FFFFFF" stroke="#DDDDDD" stroke-miterlimit="10" width="19.994" height="52.539"/>
		
			<circle fill-rule="evenodd" clip-rule="evenodd" fill="none" stroke="#DDDDDD" stroke-miterlimit="10" cx="223.368" cy="68.595" r="2.126"/>
		<path fill-rule="evenodd" clip-rule="evenodd" fill="#083E4B" d="M223.099,38.642c-1.146-0.036-2.291-0.058-3.407-0.361
			c-0.373-0.101-0.735-0.233-1.051-0.465c-0.312-0.23-0.462-0.515-0.385-0.92c0.18-0.973,0.456-1.91,0.988-2.754
			c0.821-1.303,2.02-1.966,3.544-2.045c1.155-0.059,2.23,0.181,3.155,0.919c0.747,0.597,1.221,1.384,1.556,2.268
			c0.195,0.514,0.321,1.047,0.43,1.584c0.086,0.418-0.062,0.725-0.404,0.963c-0.404,0.281-0.864,0.417-1.334,0.525
			C225.174,38.59,224.136,38.607,223.099,38.642z"/>
		<path fill-rule="evenodd" clip-rule="evenodd" fill="#083E4B" d="M220.65,29.1c0.002-1.354,1.098-2.444,2.455-2.441
			c1.349,0.005,2.443,1.109,2.438,2.464c-0.006,1.349-1.11,2.436-2.47,2.428C221.729,31.545,220.647,30.452,220.65,29.1z"/>
		<g>
			
				<line fill="none" stroke="#DDDDDD" stroke-linecap="round" stroke-linejoin="round" stroke-miterlimit="10" x1="216.244" y1="44.347" x2="230.813" y2="44.347"/>
			
				<line fill="none" stroke="#DDDDDD" stroke-linecap="round" stroke-linejoin="round" stroke-miterlimit="10" x1="216.244" y1="46.899" x2="230.813" y2="46.899"/>
			
				<line fill="none" stroke="#DDDDDD" stroke-linecap="round" stroke-linejoin="round" stroke-miterlimit="10" x1="216.244" y1="49.452" x2="230.813" y2="49.452"/>
			
				<line fill="none" stroke="#DDDDDD" stroke-linecap="round" stroke-linejoin="round" stroke-miterlimit="10" x1="216.244" y1="52.003" x2="230.813" y2="52.003"/>
			
				<line fill="none" stroke="#DDDDDD" stroke-linecap="round" stroke-linejoin="round" stroke-miterlimit="10" x1="216.244" y1="54.556" x2="230.813" y2="54.556"/>
			
				<line fill="none" stroke="#DDDDDD" stroke-linecap="round" stroke-linejoin="round" stroke-miterlimit="10" x1="216.244" y1="57.109" x2="230.813" y2="57.109"/>
			
				<line fill="none" stroke="#DDDDDD" stroke-linecap="round" stroke-linejoin="round" stroke-miterlimit="10" x1="216.244" y1="59.662" x2="226.212" y2="59.662"/>
		</g>
	</g>
	
		<path fill-rule="evenodd" clip-rule="evenodd" fill="none" stroke="#DDDDDD" stroke-linecap="round" stroke-linejoin="round" stroke-miterlimit="10" d="
		M221.237,68.414c0.685-0.159,1.398-0.244,2.131-0.244c5.169,0,9.359,4.191,9.359,9.359c0,5.169-4.19,9.359-9.359,9.359
		s-9.359-4.19-9.359-9.359c0-1.052,0.174-2.064,0.494-3.008"/>
</g>
<path fill-rule="evenodd" clip-rule="evenodd" fill="#EBEBEB" d="M321.007,48.961c0,2.617-2.123,4.738-4.74,4.738h-48.019
	c-2.617,0-4.737-2.122-4.737-4.738V18.633c0-2.617,2.12-4.739,4.737-4.739h48.019c2.617,0,4.74,2.122,4.74,4.739V48.961z"/>
<path fill="#FFFFFF" stroke="#DDDDDD" stroke-miterlimit="10" d="M49.932,139.974H5.685c-2.863,0-5.185,2.322-5.185,5.186v20.048
	c0,2.864,2.322,5.185,5.185,5.185h35.359c0.572,0.793,0.884,2.103-0.273,4.149c2.498-1.405,3.024-1.69,4.248-4.149h4.913
	c2.863,0,5.185-2.321,5.185-5.185v-20.048C55.117,142.295,52.795,139.974,49.932,139.974z"/>
<g>
	<circle fill="#083E4B" cx="18.475" cy="156.221" r="3.111"/>
	<circle fill="#083E4B" cx="27.808" cy="156.221" r="3.111"/>
	<circle fill="#083E4B" cx="37.142" cy="156.221" r="3.111"/>
</g>
<path fill="#083E4B" d="M50.758,181.961h26.337c1.704,0,3.085,1.381,3.085,3.084v11.934c0,1.705-1.381,3.086-3.085,3.086H56.048
	c-0.34,0.472-0.526,1.252,0.163,2.469c-1.487-0.835-1.8-1.004-2.529-2.469h-2.924c-1.705,0-3.086-1.381-3.086-3.086v-11.934
	C47.672,183.343,49.054,181.961,50.758,181.961z"/>
<g>
	<circle fill="#FFFFFF" cx="68.223" cy="191.631" r="1.432"/>
	<circle fill="#FFFFFF" cx="63.927" cy="191.631" r="1.432"/>
	<circle fill="#FFFFFF" cx="59.63" cy="191.631" r="1.432"/>
</g>
<path fill-rule="evenodd" clip-rule="evenodd" fill="#FFFFFF" stroke="#DDDDDD" stroke-miterlimit="10" d="M340.459,84.79
	c0,2.863-2.321,5.185-5.186,5.185H218.435c-2.863,0-5.185-2.322-5.185-5.185V70.271c0-2.863,2.322-5.185,5.185-5.185h116.838
	c2.864,0,5.186,2.322,5.186,5.185V84.79z"/>
<path fill-rule="evenodd" clip-rule="evenodd" fill="#FFFFFF" stroke="#DDDDDD" stroke-miterlimit="10" d="M245.397,90.147h-27.178
	c-2.649,0-4.796-2.322-4.796-5.185V70.271c0-2.863,2.147-5.185,4.796-5.185h27.178V90.147z"/>
<path fill-rule="evenodd" clip-rule="evenodd" fill="#083E4B" d="M230.771,73.498c1.053-1.052,2.104-2.107,3.162-3.153
	c0.358-0.354,0.928-0.358,1.284-0.037c0.413,0.37,0.489,0.913,0.174,1.33c-0.081,0.107-0.066,0.158,0.021,0.246
	c0.727,0.718,1.447,1.445,2.173,2.165c0.082,0.081,0.089,0.126,0.002,0.208c-0.205,0.192-0.405,0.391-0.596,0.597
	c-0.085,0.091-0.133,0.075-0.211-0.005c-0.257-0.267-0.526-0.522-0.781-0.79c-0.084-0.088-0.13-0.078-0.209,0.003
	c-0.278,0.288-0.562,0.571-0.85,0.85c-0.078,0.075-0.086,0.116-0.003,0.196c0.268,0.255,0.521,0.527,0.79,0.78
	c0.105,0.098,0.088,0.147-0.006,0.234c-0.192,0.179-0.379,0.365-0.558,0.558c-0.088,0.095-0.137,0.103-0.233,0.003
	c-0.701-0.71-1.412-1.411-2.112-2.124c-0.121-0.122-0.18-0.141-0.315-0.006c-1.575,1.586-3.156,3.167-4.743,4.742
	c-0.124,0.123-0.12,0.208-0.051,0.345c0.828,1.665,0.288,3.686-1.257,4.718c-1.626,1.088-3.789,0.734-5.003-0.819
	c-1.27-1.625-0.956-4.011,0.699-5.22c1.235-0.901,2.556-0.997,3.932-0.343c0.121,0.058,0.181,0.035,0.267-0.051
	c1.262-1.267,2.525-2.53,3.79-3.793C230.349,73.92,230.561,73.708,230.771,73.498z M222.787,82.89
	c0.821,0.81,2.22,0.974,3.207-0.012c0.93-0.928,0.873-2.32,0.002-3.208c-0.879-0.896-2.333-0.89-3.218,0.001
	C221.888,80.564,221.889,82.005,222.787,82.89z"/>
<rect x="254.559" y="74.765" fill-rule="evenodd" clip-rule="evenodd" fill="none" width="77.604" height="16.246"/>
<text transform="matrix(1 0 0 1 254.5586 85.5918)" fill="#DDDDDD" font-family="'MyanmarSangamMN'" font-size="15.5553">**********</text>
<path fill-rule="evenodd" clip-rule="evenodd" fill="#F6F9FA" d="M286.354,31.328c-0.008-1.523,0.021-3.047-0.03-4.568
	c-0.087-2.508-2.389-4.354-4.716-3.834c-1.907,0.427-3.174,2.103-3.186,4.23c-0.008,1.396,0.002,2.792-0.006,4.188l-2.115-0.019
	c-0.006-1.527-0.032-3.057,0.017-4.582c0.071-2.196,1.024-3.925,2.763-5.106c2.998-2.041,6.836-1.027,8.624,2.234
	c0.529,0.964,0.784,2.017,0.784,3.135c-0.002,1.422-0.002,2.844-0.002,4.267c0,0.018,0,0.035,0,0.053"/>
<path fill-rule="evenodd" clip-rule="evenodd" fill="#F6F9FA" d="M298.938,31.279c0.515,0.006,1.011,0.076,1.452,0.376
	c0.662,0.447,1.075,1.048,1.086,1.859c0.018,1.769,0.014,3.537,0.014,5.307c0,1.999,0.013,3.998-0.016,5.996
	c-0.019,1.185-1.029,2.194-2.216,2.207c-2.33,0.026-4.657,0.008-6.986,0.008c0,0.003,0,0.006,0,0.009
	c-2.228,0-4.458-0.03-6.686,0.011c-1.337,0.025-2.562-0.943-2.561-2.486c0.006-3.608-0.008-7.216,0.009-10.824
	c0.006-1.237,0.682-2.09,1.822-2.39c0.349-0.091,0.713-0.087,1.071-0.069L298.938,31.279z M291.053,40.611
	c0,0.46-0.011,0.92,0.002,1.379c0.016,0.69,0.485,1.178,1.152,1.215c0.723,0.041,1.271-0.509,1.282-1.306
	c0.008-0.879,0.002-1.758,0-2.638c0-0.146,0.026-0.248,0.149-0.356c0.535-0.463,0.803-1.051,0.764-1.771
	c-0.049-0.952-0.766-1.796-1.701-1.986c-0.979-0.198-1.973,0.308-2.395,1.219c-0.4,0.863-0.151,1.963,0.59,2.545
	c0.117,0.092,0.16,0.178,0.158,0.321C291.046,39.692,291.053,40.152,291.053,40.611z"/>
<path fill-rule="evenodd" clip-rule="evenodd" fill="#FFFFFF" stroke="#DDDDDD" stroke-miterlimit="10" d="M351.57,63.888
	c0,2.617-2.12,4.739-4.737,4.739h-48.02c-2.616,0-4.739-2.122-4.739-4.739V33.56c0-2.617,2.123-4.738,4.739-4.738h48.02
	c2.617,0,4.737,2.122,4.737,4.738V63.888z"/>
<path fill-rule="evenodd" clip-rule="evenodd" fill="#083E4B" d="M322.836,61.967c-2.229,0-4.458-0.03-6.687,0.011
	c-1.337,0.024-2.56-0.944-2.56-2.487c0.006-3.607-0.009-7.216,0.008-10.823c0.006-1.238,0.683-2.09,1.822-2.39
	c0.349-0.092,0.714-0.087,1.072-0.069c0.198,0.01,0.249-0.052,0.249-0.248c-0.006-1.549-0.039-3.099,0.014-4.646
	c0.069-2.083,1.025-3.723,2.761-4.844c3-1.936,6.836-0.975,8.624,2.119c0.529,0.915,0.786,1.914,0.784,2.974c0,1.35,0,2.698,0,4.048
	c0,0.589,0,0.587,0.579,0.594c0.513,0.006,1.011,0.076,1.452,0.376c0.661,0.448,1.076,1.049,1.084,1.859
	c0.021,1.769,0.015,3.537,0.015,5.306c0,1.999,0.012,3.998-0.017,5.996c-0.017,1.184-1.027,2.194-2.216,2.208
	c-2.327,0.025-4.656,0.007-6.985,0.007C322.836,61.961,322.836,61.964,322.836,61.967z M322.815,46.205c1.239,0,2.477,0,3.717,0
	c0.14,0,0.263,0.027,0.261-0.201c-0.016-1.558,0.022-3.118-0.034-4.673c-0.085-2.379-2.388-4.131-4.713-3.638
	c-1.908,0.405-3.176,1.995-3.187,4.014c-0.008,1.408,0.004,2.816-0.008,4.224c-0.002,0.224,0.053,0.283,0.279,0.28
	C320.358,46.199,321.588,46.205,322.815,46.205z M321.616,55.538c0,0.46-0.008,0.919,0.002,1.379
	c0.019,0.689,0.486,1.178,1.152,1.214c0.726,0.041,1.274-0.509,1.282-1.306c0.01-0.879,0.004-1.758,0-2.638
	c0-0.145,0.026-0.248,0.152-0.356c0.534-0.463,0.8-1.051,0.763-1.771c-0.05-0.953-0.768-1.796-1.703-1.986
	c-0.979-0.198-1.971,0.307-2.394,1.219c-0.401,0.862-0.152,1.962,0.589,2.545c0.118,0.091,0.162,0.178,0.158,0.321
	C321.61,54.619,321.616,55.079,321.616,55.538z"/>
<rect x="169.004" y="174.726" fill-rule="evenodd" clip-rule="evenodd" fill="none" width="24.37" height="12.271"/>
<text transform="matrix(1 0 0 1 169.0049 185.2729)" fill="#FFFFFF" font-family="'MyanmarSangamMN-Bold'" font-size="15.5553">#id</text>
<g>
	<path fill="#FFFFFF" d="M255.883,162.844c1.742,0.66,3.427,1.464,5.309,2.283c-1.938,0.828-3.708,1.585-5.48,2.346
		c-1.514,0.65-1.512,0.65-1.226,2.467c2.691-1.231,5.349-2.479,8.041-3.656c0.652-0.286,0.66-0.705,0.681-1.267
		c0.018-0.566-0.115-0.882-0.693-1.135c-2.501-1.089-4.972-2.251-7.459-3.369c-0.196-0.087-0.407-0.34-0.562-0.206
		C253.935,161.807,254.684,162.391,255.883,162.844z"/>
	<path fill="#FFFFFF" d="M237.772,166.05c2.591,1.229,5.199,2.424,7.801,3.631c0.187,0.085,0.375,0.233,0.533-0.054
		c0.306-0.561-0.096-1.688-0.711-1.959c-1.908-0.841-3.817-1.674-5.915-2.592c1.861-0.811,3.53-1.545,5.199-2.272
		c1.57-0.685,1.57-0.684,1.355-2.55c-2.779,1.298-5.537,2.57-8.279,3.878C237.094,164.446,237.106,165.733,237.772,166.05z"/>
	<path fill="#FFFFFF" d="M248.479,170.684c0.397-0.05,0.873,0.19,1.076-0.522c1.15-4.043,2.354-8.072,3.54-12.104
		c0.069-0.223,0.271-0.461-0.049-0.653c-0.564-0.337-1.645,0.123-1.843,0.793c-1.141,3.86-2.254,7.729-3.436,11.574
		C247.526,170.561,247.587,170.861,248.479,170.684z"/>
</g>
<path fill="#FAF7F2" stroke="#000000" stroke-miterlimit="10" d="M281.096,194.149c0,0-6.818-28.937-18.96-23.573
	c-5.299,3.943-3.162,19.018-1.175,26.642c2.592,5.087,12.529,8.707,12.529,8.707l9.11-5.933L281.096,194.149z"/>
<path fill="#FAF7F2" stroke="#000000" stroke-miterlimit="10" d="M156.386,203.613c0,0,7.896-28.66,19.829-22.845
	c5.148,4.138,2.446,19.123,0.175,26.666c-2.78,4.987-12.846,8.231-12.846,8.231l-8.881-6.27L156.386,203.613z"/>
<ellipse transform="matrix(0.997 -0.078 0.078 0.997 -22.5653 17.9816)" fill="#13161A" stroke="#000000" stroke-linecap="round" stroke-linejoin="round" stroke-miterlimit="10" cx="218.781" cy="297.7" rx="56.518" ry="27.222"/>
<line fill="none" stroke="#000000" stroke-linecap="round" stroke-linejoin="round" stroke-miterlimit="10" x1="212.005" y1="266.637" x2="216.386" y2="266.271"/>
<path fill="#13161A" stroke="#000000" stroke-linecap="round" stroke-linejoin="round" stroke-miterlimit="10" d="M183.522,279.294
	l-34.222-10.371c0,0-3.111-1.037,0.518-8.296c3.63-7.259,19.185-45.629,19.185-45.629l-14.518-9.333l-30.593,50.296
	c0,0-13.481,18.147,0.519,29.555s49.259,36.296,65.333,37.333"/>
<path fill="#13161A" stroke="#000000" stroke-linecap="round" stroke-linejoin="round" stroke-miterlimit="10" d="M248.854,275.664
	l45.937-19.671c0,0,2.992-1.343-1.349-8.203c-4.339-6.856-23.667-43.472-23.667-43.472l13.51-10.743l35.483,46.973
	c0,0,15.235,16.703,2.45,29.457c-12.784,12.754-51.29,41.902-67.179,44.547"/>
<path fill="#FAF7F2" stroke="#000000" stroke-miterlimit="10" d="M220.45,229.132c-0.562-0.813-2.63-3.735-3.225-3.549
	c-0.804,0.251-3.197,2.83-3.975,3.328l0.134,0.008c-13.494,1.571-24.014,14.299-24.014,29.767c0,16.534,12.012,29.937,26.83,29.937
	c14.819,0,26.835-13.402,26.835-29.937C243.035,243.771,233.25,231.405,220.45,229.132z"/>
<path fill="#FAF7F2" stroke="#000000" stroke-miterlimit="10" d="M198.699,284.906l0.875,11.907c0,0,9.674,11.179,34.699,0.719
	l-0.313-12.958L198.699,284.906z"/>
<path fill="#13161A" d="M216.582,234.573v-0.004c-0.048-0.002-0.09,0.002-0.137,0.002c-0.047,0-0.089-0.004-0.137-0.002v0.004
	c-44.56-0.857-33.823,40.054-33.823,40.054s5.296,16.229,12.963,18.147c13.033,4.294,15.298,4.545,19.908,4.59
	c3.878-0.045,5.233,1.786,22.633-4.699c7.529-1.096,12.939-19.594,12.939-19.594S261.143,233.716,216.582,234.573z"/>
<path fill="#EBEBEB" stroke="#FFFFFF" stroke-miterlimit="10" d="M285.16,329.749c0.192,3.289-2.258,6.106-5.473,6.295
	l-118.92,6.947c-3.214,0.189-5.976-2.324-6.167-5.611l0,0c-0.192-3.288,2.257-6.105,5.472-6.294l118.922-6.947
	C282.207,323.95,284.968,326.462,285.16,329.749L285.16,329.749z"/>
</svg>
