<?xml version="1.0" encoding="utf-8"?>
<!-- Generator: Adobe Illustrator 16.0.0, SVG Export Plug-In . SVG Version: 6.00 Build 0)  -->
<!DOCTYPE svg PUBLIC "-//W3C//DTD SVG 1.1//EN" "http://www.w3.org/Graphics/SVG/1.1/DTD/svg11.dtd">
<svg version="1.1" xmlns="http://www.w3.org/2000/svg" xmlns:xlink="http://www.w3.org/1999/xlink" x="0px" y="0px" width="1920px"
	 height="865px" viewBox="0 0 1920 865" enable-background="new 0 0 1920 865" xml:space="preserve">
<g id="BON" display="none">
	
		<line display="inline" fill="none" stroke="#010202" stroke-linecap="round" stroke-linejoin="round" stroke-miterlimit="10" x1="957.101" y1="609.319" x2="960.799" y2="609.011"/>
	<ellipse display="inline" fill="#030405" cx="959.681" cy="660.473" rx="4.623" ry="3.543"/>
	<path display="inline" fill="#667887" enable-background="new    " d="M1025.495,664.031c1.945,2.402,2.563,4.823,1.379,5.396
		c-1.181,0.58-3.715-0.903-5.661-3.308c-1.944-2.404-2.563-4.822-1.38-5.399C1021.016,660.14,1023.549,661.626,1025.495,664.031z"/>
	<path display="inline" fill="#667887" enable-background="new    " d="M1031.624,664.146c-1.943,2.402-2.562,4.821-1.379,5.397
		c1.183,0.581,3.716-0.905,5.661-3.309c1.946-2.404,2.563-4.823,1.38-5.397C1036.104,660.257,1033.571,661.741,1031.624,664.146z"/>
	<path display="inline" fill="#667887" enable-background="new    " d="M1031.055,662.393c0.061,4.053-1.016,7.35-2.413,7.362
		c-1.397,0.017-2.581-3.26-2.646-7.309c-0.062-4.053,1.017-7.352,2.413-7.362C1029.807,655.067,1030.989,658.343,1031.055,662.393z"
		/>
	<path display="inline" fill="#F6F9FA" d="M903.011,790.295c0,0-49.115-1.66-51.795,8.699c-6.25,6.908,129.036,8.954,158.057,4.096
		c29.633-4.964,64.299-4.481,64.299-8.7c0-4.223-10.941-4.988-29.023-4.605C1026.462,790.169,937.835,792.215,903.011,790.295z"/>
	<g display="inline">
		
			<line fill="none" stroke="#ECECEC" stroke-width="1.5" stroke-linecap="round" stroke-linejoin="round" stroke-miterlimit="10" x1="915.765" y1="795.61" x2="937.029" y2="691.598"/>
		
			<line fill="none" stroke="#ECECEC" stroke-width="1.5" stroke-linecap="round" stroke-linejoin="round" stroke-miterlimit="10" x1="1003.599" y1="795.61" x2="982.332" y2="691.598"/>
		
			<line fill="none" stroke="#ECECEC" stroke-width="1.5" stroke-linecap="round" stroke-linejoin="round" stroke-miterlimit="10" x1="927.321" y1="738.854" x2="991.076" y2="738.854"/>
	</g>
	
		<path display="inline" fill="#ECECEC" stroke="#ECECEC" stroke-linecap="round" stroke-linejoin="round" stroke-miterlimit="10" d="
		M1000.979,707.007c0,3.064-2.484,5.548-5.548,5.548h-71.5c-3.063,0-5.548-2.483-5.548-5.548v-3.698
		c0-3.063,2.485-5.549,5.548-5.549h71.5c3.063,0,5.548,2.485,5.548,5.549V707.007z"/>
	<polygon display="inline" fill="#FAF7F2" stroke="#1C1C1B" stroke-miterlimit="10" points="921.43,692.523 911.454,692.523 
		911.454,700.843 922.815,700.843 922.815,692.523 	"/>
	
		<path display="inline" fill="#121519" stroke="#121519" stroke-linecap="round" stroke-linejoin="round" stroke-miterlimit="10" d="
		M908.138,702.925c-3.128,0-3.815-2.794-3.815-6.241s0.687-6.241,3.815-6.241s5.664,2.794,5.664,6.241
		S911.266,702.925,908.138,702.925z"/>
	<polygon display="inline" fill="#FAF7F2" stroke="#1C1C1B" stroke-miterlimit="10" points="947.386,778.482 947.386,788.304 
		955.706,788.304 955.706,777.12 947.386,777.12 	"/>
	
		<path display="inline" fill="#ECECEC" stroke="#ECECEC" stroke-linecap="round" stroke-linejoin="round" stroke-miterlimit="10" d="
		M994.006,647.914c0,3.064,2.832,6.007-0.232,6.007h-68.185c-3.063,0-0.694-1.788-0.694-4.854l-4.854-46.457
		c0-3.066,2.484-5.548,5.548-5.548h68.185c3.064,0,5.547,2.481,5.547,5.548L994.006,647.914z"/>
	
		<ellipse display="inline" fill="#121519" stroke="#1C1C1B" stroke-linecap="round" stroke-linejoin="round" stroke-miterlimit="10" cx="959.681" cy="648.607" rx="41.49" ry="36.751"/>
	<path display="inline" fill="#0E5767" d="M996.777,674.967c0,3.568-3.211,6.46-7.179,6.46h-59.836c-3.966,0-7.179-2.894-7.179-6.46
		v-31.225c0-3.571,3.213-6.461,7.179-6.461h59.836c3.969,0,7.179,2.893,7.179,6.461V674.967L996.777,674.967z"/>
	<g display="inline">
		<path fill="#FAF7F2" stroke="#1C1C1B" stroke-miterlimit="10" d="M983.295,592.978c0,13.957-10.142,25.273-22.654,25.273
			c-12.509,0-22.65-11.316-22.65-25.273c0-13.953,10.142-25.27,22.65-25.27C973.153,567.708,983.295,579.024,983.295,592.978z"/>
		<path fill="#1C1C1B" d="M953.402,594.523c0,0.849-0.827,1.538-1.848,1.538c-1.024,0-1.851-0.689-1.851-1.538
			c0-0.851,0.826-1.542,1.851-1.542C952.576,592.981,953.402,593.673,953.402,594.523z"/>
		<ellipse fill="#1C1C1B" cx="970.045" cy="594.522" rx="1.851" ry="1.539"/>
		<path fill="none" stroke="#1C1C1B" stroke-linecap="round" stroke-linejoin="round" stroke-miterlimit="10" d="M958.949,595.139
			c0,0-2.465,8.321-0.308,8.321c2.158,0,2.157,0,2.157,0"/>
	</g>
	<g display="inline">
		
			<polyline fill="none" stroke="#ECECEC" stroke-width="1.5" stroke-linecap="round" stroke-linejoin="round" stroke-miterlimit="10" points="
			860.524,795.61 881.787,691.598 902.127,795.61 		"/>
		
			<line fill="none" stroke="#ECECEC" stroke-width="1.5" stroke-linecap="round" stroke-linejoin="round" stroke-miterlimit="10" x1="868.382" y1="757.347" x2="894.577" y2="757.347"/>
	</g>
	<g display="inline">
		
			<polyline fill="none" stroke="#ECECEC" stroke-width="1.5" stroke-linecap="round" stroke-linejoin="round" stroke-miterlimit="10" points="
			1017.697,795.61 1038.962,691.598 1059.301,795.61 		"/>
		
			<line fill="none" stroke="#ECECEC" stroke-width="1.5" stroke-linecap="round" stroke-linejoin="round" stroke-miterlimit="10" x1="1025.555" y1="757.347" x2="1051.75" y2="757.347"/>
	</g>
	
		<path display="inline" fill="#FFFFFF" stroke="#1C1C1B" stroke-linecap="round" stroke-linejoin="round" stroke-miterlimit="10" d="
		M1005.33,688.593c0,0,0.951,24.259-62.234,18.394c-17.464-2.295-21.593-2.803-21.593-2.803l0.156-15.591H1005.33z"/>
	
		<path display="inline" fill="#FFFFFF" stroke="#1C1C1B" stroke-linecap="round" stroke-linejoin="round" stroke-miterlimit="10" d="
		M931.598,691.83c0,0-3.005,16.18,1.388,36.98c4.391,20.805,10.631,48.539,10.631,48.539h15.254c0,0-3.467-68.646-1.618-76.275
		l1.156-13.405l-24.039-1.85L931.598,691.83z"/>
	
		<path display="inline" fill="#121519" stroke="#121519" stroke-linecap="round" stroke-linejoin="round" stroke-miterlimit="10" d="
		M957.787,791.796c0,3.127-2.793,3.814-6.241,3.814c-3.446,0-6.24-0.688-6.24-3.814c0-3.126,2.794-5.662,6.24-5.662
		C954.994,786.134,957.787,788.67,957.787,791.796z"/>
	
		<path display="inline" fill="#FFFFFF" stroke="#ECECEC" stroke-linecap="round" stroke-linejoin="round" stroke-miterlimit="10" d="
		M1038.925,670.181c0-1.178-0.954-2.134-2.132-2.134h-16.152c-1.178,0-2.132,0.956-2.132,2.134c0,1.179,0.954,2.135,2.132,2.135
		h0.24l0.572,9.345h14.729l0.666-9.356C1037.998,672.272,1038.925,671.339,1038.925,670.181z"/>
	<path display="inline" fill="#121519" d="M959.797,561.24v-0.003c-0.04-0.004-0.075,0.001-0.116,0.001s-0.077-0.005-0.116-0.001
		v0.003c-37.618-0.725-26.059,45.298-26.059,45.298s5.01,7.782,8.091,3.469c-2.659-20.98,15.6-35.134,18.14-35.363
		c2.312,0.462,20.688,14.383,18.027,35.363c3.082,4.314,8.093-3.469,8.093-3.469S997.413,560.516,959.797,561.24z"/>
	<circle display="inline" fill="#FFFFFF" cx="959.681" cy="659.355" r="6.163"/>
	
		<path display="inline" fill="#ECEBEC" stroke="#ECECEC" stroke-linecap="round" stroke-linejoin="round" stroke-miterlimit="10" d="
		M1052.367,681.659H865.376c-5.546,0-5.315,9.707-5.315,9.707h199.24C1059.301,691.367,1059.301,681.659,1052.367,681.659z"/>
	<path display="inline" fill="#0E5767" d="M1342.306,155.777c-1.066,2.587-6.708,6.457-12.192,4.196
		c-5.484-2.258-13.856-13.128-12.79-15.716c1.063-2.586,11.493,0.486,16.979,2.747
		C1339.789,149.262,1343.373,153.19,1342.306,155.777z"/>
	<path display="inline" fill="#0E5767" d="M1519.994,219.926c2.438,1.374,3.809,10.608-1.925,20.79
		c-5.731,10.179-23.19,27.204-25.633,25.832c-2.433-1.374,7.03-20.488,12.765-30.672
		C1510.932,225.695,1517.557,218.554,1519.994,219.926z"/>
	<path display="inline" fill="#0E5767" d="M1464.352,131.025c-1.49,3.613-5.179,4.771-12.837,1.615
		c-7.659-3.155-16.392-9.426-14.903-13.042c1.486-3.611,8.905-3.982,16.564-0.826
		C1460.836,121.928,1465.838,127.413,1464.352,131.025z"/>
	<path display="inline" fill="#F6F9FA" d="M1363.426,440.565c0,0-57.141-3.545-60.828,8.937
		c-31.65,20.648,214.058,13.56,254.022,7.705c40.81-5.975,56.769-2.927,56.769-8.012c0-5.086-28.203-4.778-53.104-4.314
		C1535.381,445.341,1411.385,442.875,1363.426,440.565z"/>
	<path display="inline" fill="#0E5767" d="M1418.098,402.241c0,3.873-2.073,6.324-7.86,6.324c-5.788,0-13.097-2.451-13.097-6.324
		c0-3.873,4.69-7.01,10.479-7.01S1418.098,398.368,1418.098,402.241z"/>
	<g display="inline">
		<polygon fill="#FAF7F2" stroke="#1C1C1B" stroke-miterlimit="10" points="1484.418,231.434 1494.166,237.246 1488.834,246.187 
			1479.495,240.609 		"/>
		<path fill="#121519" stroke="#121519" stroke-linecap="round" stroke-linejoin="round" stroke-miterlimit="10" d="
			M1495.09,237.071c0,0,6.782-5.837,13.441-9.617c3.743-1.827,4.29-0.734,2.843,1.7c-1.445,2.419-14.167,23.749-14.167,23.749
			s-9.541-6.165-8.812-7.374C1489.116,244.314,1495.09,237.071,1495.09,237.071z"/>
	</g>
	<g display="inline">
		<polygon fill="#FAF7F2" stroke="#1C1C1B" stroke-miterlimit="10" points="1407.834,362.688 1409.779,376.933 1399.372,377.811 
			1397.514,364.155 		"/>
		<path fill="#121519" stroke="#121519" stroke-linecap="round" stroke-linejoin="round" stroke-miterlimit="10" d="
			M1409.604,375.58c0,0,5.366,14.304,8.516,21.285c1.472,3.895,0.335,4.339-1.954,2.677c-2.273-1.67-21.031-15.964-21.031-15.964
			s3.158-8.758,4.573-8.758C1402.75,374.819,1409.604,375.58,1409.604,375.58z"/>
	</g>
	<path display="inline" fill="#FAF7F2" stroke="#1C1C1B" stroke-miterlimit="10" d="M1324.76,158.031c0,0,0.744-8.351,3.637-13.302
		c1.471-2.516,2.857-1.324,5.612-0.55c1.396,0.758,3.288,1.428,3.425,2.046c0.851,3.797,0.737,8.783,0.382,11.921
		c-1.181,3.464-7.154,6.665-7.154,6.665l-6.319-2.932L1324.76,158.031z"/>
	<path display="inline" fill="#FAF7F2" stroke="#1C1C1B" stroke-miterlimit="10" d="M1447.751,131.87c0,0,5.233-6.552,6.558-12.132
		c0.675-2.834-1.15-2.929-3.678-4.273c-1.533-0.417-3.361-1.236-3.889-0.886c-3.237,2.159-6.602,5.841-8.512,8.354
		c-1.54,3.321,0.57,9.763,0.57,9.763l5.866,3.188L1447.751,131.87z"/>
	
		<path display="inline" fill="#FFFFFF" stroke="#1C1C1B" stroke-linecap="round" stroke-linejoin="round" stroke-miterlimit="10" d="
		M1362.571,252.571c0,0,1.714,34.274,10.282,47.985c8.567,13.709,12.568,35.416,15.425,45.127
		c2.855,9.712,7.427,19.424,7.427,19.424l14.279-1.715c0,0-3.998-41.129-5.714-53.125c-1.712-11.996-5.711-27.992-5.711-27.992
		s19.575,7.693,31.987-30.845c5.733-17.802,6.283-23.993,6.283-23.993s37.063,13.384,45.061,15.668
		c2.852-2.311,6.924-10.527,6.924-10.527s-39.054-22.988-42.214-24.759c-1.532-0.859-16.717-12.792-30.335,8.193
		c-14.833,22.861-9.71,27.419-19.992,21.137C1389.992,240.576,1362.571,252.571,1362.571,252.571z"/>
	<path display="inline" fill="#121519" stroke="#1C1C1B" stroke-miterlimit="10" d="M1337.244,182.5c0,0,7.044-3.419,17.14-3.427
		c8.769-0.008,18.661-0.381,24.373-2.666c5.714-2.286,9.522-4.191,18.279-6.095c8.76-1.903,37.705-35.035,39.226-37.32
		c1.521-2.285,8.759,3.427,8.759,3.427s-14.851,32.37-29.705,40.749c-14.852,8.379-25.898,11.045-26.659,18.661
		c-0.76,7.616-0.763,28.183,1.145,32.373c1.905,4.187,14.346,8.167,7.871,14.451c-6.476,6.282-31.071,20.519-36.182,17.331
		c-3.442-3.515-6.918-28.087-10.536-36.733c-3.469-8.293-3.806-25.136-9.897-22.852c-6.096,2.285-14.473,3.429-18.283,3.809
		c-3.806,0.379-15.994,2.665-11.422-11.045c4.569-13.709,12.947-30.848,12.947-30.848l6.854,1.525c0,0-3.275,16.974-3.739,18.824
		C1326.952,184.974,1322.676,192.718,1337.244,182.5z"/>
	<path display="inline" fill="#FAF7F2" stroke="#1C1C1B" stroke-miterlimit="10" d="M1385.464,147.223c0,0,0.786,0.853,1.741,2.027
		c1.895,2.331,4.465,5.927,2.936,6.676c-0.834,0.409-1.365,0.672-1.705,0.837c-0.59,0.292-0.59,0.292-0.59,0.292"/>
	<g display="inline">
		<path fill="#FAF7F2" stroke="#1C1C1B" stroke-miterlimit="10" d="M1387.627,155.516c0,13.973-10.154,25.302-22.681,25.302
			c-12.524,0-22.677-11.329-22.677-25.302c0-13.971,10.152-25.301,22.677-25.301
			C1377.474,130.215,1387.627,141.545,1387.627,155.516z"/>
	</g>
	<path display="inline" fill="#121519" d="M1368.893,126.509c-40.118-0.772-27.793,48.312-27.793,48.312s-0.179,2.262,6.723,3.987
		l17.872,2.465c10.232,0.369,12.327-2.343,12.327-2.343s21.568-47.822-8.999-52.382"/>
	<path display="inline" fill="none" stroke="#010202" stroke-linecap="round" stroke-linejoin="round" stroke-miterlimit="10" d="
		M1387.844,157.053"/>
	<g display="inline">
		<path fill="#667887" stroke="#667887" stroke-linecap="round" stroke-linejoin="round" stroke-miterlimit="10" d="
			M1564.177,407.191c0,0-1.805,8.629-0.2,15.049c1.607,6.422,8.025,25.485-3.01,25.485h-27.382c-11.037,0-4.617-19.062-3.011-25.485
			c1.605-6.42-0.2-15.049-0.2-15.049H1564.177z"/>
		<path fill="none" stroke="#ECECEC" stroke-miterlimit="10" d="M1560.402,417.953c0,1.584-0.901,2.871-2.005,2.871
			c-1.108,0-2.003-1.285-2.003-2.871c0-1.583,0.895-2.87,2.003-2.87C1559.501,415.083,1560.402,416.369,1560.402,417.953z"/>
		<path fill="none" stroke="#ECECEC" stroke-linecap="round" stroke-linejoin="round" stroke-miterlimit="10" d="M1556.736,417.356
			c0,0,12.432-1.88,14.741,10.196c2.308,12.079,3.061,15.92,6.778,14.787c3.709-1.135,2.441-5.647,0.264-7.869"/>
		<path fill="none" stroke="#ECECEC" stroke-linecap="round" stroke-linejoin="round" stroke-miterlimit="10" d="M1556.817,417.49
			c0,0,14.114,3.213,1.749,23.487c-2.437,3.702-7.359,8.275-8.76-1.225"/>
		
			<line fill="none" stroke="#ECECEC" stroke-width="2" stroke-linecap="round" stroke-linejoin="round" stroke-miterlimit="10" enable-background="new    " x1="1530.273" y1="411.404" x2="1564.175" y2="411.404"/>
	</g>
	<path display="inline" fill="#F6F9FA" d="M522.976,422.514c0,0-34.527-5.393-36.376,7.088c-4.314,8.321,74.745,6.318,102.481,7.243
		c21.296,0.711,37.444-4.622,37.444-9.707c0-5.083-9.697-2.928-11.096-3.697C604.495,417.407,547.014,424.826,522.976,422.514z"/>
	<path display="inline" fill="#FFFFFF" stroke="#ECECEC" stroke-miterlimit="10" d="M489.741,405.625
		c0,11.625,9.425,21.049,21.051,21.049h90.34c11.626,0,21.051-9.425,21.051-21.049V161.792c0-11.626-9.425-21.05-21.051-21.05
		h-90.34c-11.626,0-21.051,9.424-21.051,21.05V405.625z"/>
	<path display="inline" opacity="0.5" fill="#F2F2F2" enable-background="new    " d="M498.555,389.397
		c0,10.078,8.169,18.25,18.25,18.25h78.316c10.08,0,18.249-8.172,18.249-18.25V178.02c0-10.077-8.169-18.249-18.249-18.249h-78.316
		c-10.081,0-18.25,8.172-18.25,18.249V389.397z"/>
	<path display="inline" fill="#F6F9FA" d="M325.365,423.061c0,0-33.414-4.792-35.025,7.688c-3.76,8.321,79.074,8.844,96.533,2.991
		c17.827-5.978,41.147-3.214,41.147-8.299s-6.582-6.008-17.46-5.546S346.315,425.372,325.365,423.061z"/>
	<polygon display="inline" fill="#FAF7F2" stroke="#1C1C1B" stroke-miterlimit="10" points="363.567,408.072 363.567,418.225 
		356.022,418.225 356.022,408.494 	"/>
	
		<path display="inline" fill="#13161A" stroke="#13161A" stroke-linecap="round" stroke-linejoin="round" stroke-miterlimit="10" d="
		M364.424,417.5c0,0,7.201,2.057,12.859,4.802c2.959,1.649,2.399,2.401,0,2.401s-23.489,0-23.489,0s0.343-8.232,1.542-8.232
		S364.424,417.5,364.424,417.5z"/>
	<polygon display="inline" fill="#FAF7F2" stroke="#1C1C1B" stroke-miterlimit="10" points="321.292,414.187 320.557,423.737 
		313.025,422.657 313.729,413.506 	"/>
	
		<path display="inline" fill="#13161A" stroke="#13161A" stroke-linecap="round" stroke-linejoin="round" stroke-miterlimit="10" d="
		M321.109,423.44c0,0,6.938,2.817,12.27,6.15c2.767,1.955,2.128,2.641-0.256,2.387c-2.385-0.256-23.356-2.517-23.356-2.517
		s1.225-8.145,2.418-8.018C313.376,421.571,321.109,423.44,321.109,423.44z"/>
	
		<path display="inline" fill="#FFFFFF" stroke="#1C1C1B" stroke-linecap="round" stroke-linejoin="round" stroke-miterlimit="10" d="
		M364.683,291.818c0,0,10.029,47.297,7.201,71.881c-2.829,24.582-4.888,46.76-4.888,46.76l-13.373-0.267
		c0,0-3.875-65.792-4.114-69.608c-0.515-8.15-3.344-10.954-4.63-3.607"/>
	
		<path display="inline" fill="#FFFFFF" stroke="#1C1C1B" stroke-linecap="round" stroke-linejoin="round" stroke-miterlimit="10" d="
		M321.733,292.332c-0.342,29.834-9.259,122.938-9.259,122.938h11.831c0,0,6.182-22.385,10.802-32.867
		c4.938-11.201,8.405-37.087,11.64-44.715c0,0,6.38-13.974,12.712-32.59"/>
	
		<path display="inline" fill="#FFFFFF" stroke="#ECECEC" stroke-linecap="round" stroke-linejoin="round" stroke-miterlimit="10" d="
		M383.553,302.216c0,1.936,1.57,3.507,3.508,3.507h124.547c1.938,0,3.508-1.572,3.508-3.507v-99.989c0-1.937-1.57-3.508-3.508-3.508
		H387.062c-1.938,0-3.508,1.571-3.508,3.508V302.216z"/>
	<path display="inline" fill="#667887" enable-background="new    " d="M395.056,293.472c0,1.602,1.296,2.897,2.896,2.897H500.72
		c1.599,0,2.896-1.296,2.896-2.897v-82.502c0-1.599-1.297-2.895-2.896-2.895H397.951c-1.6,0-2.896,1.296-2.896,2.895
		L395.056,293.472L395.056,293.472z"/>
	<circle display="inline" fill="#0E5767" cx="466.692" cy="234.971" r="9.063"/>
	<path display="inline" fill="#0E5767" d="M397.647,296.317l34.547-53.744l25.729,33.914l17.542-16.371l25.068,36.254"/>
	<path display="inline" fill="#ECECEC" d="M528.461,141.181c-1.938,0,3.727,0.694,3.727,2.632v8.771c0,1.938,1.57,3.508,3.508,3.508
		h39.907c1.938,0,3.509-1.571,3.509-3.508v-8.772c0-1.938,6.323-2.632,4.385-2.632"/>
	<g display="inline">
		<path fill="none" stroke="#ECECEC" stroke-linecap="round" stroke-linejoin="round" stroke-miterlimit="10" d="M529.31,185.599
			c0,0.253-0.238,0.46-0.531,0.46H509.96c-0.294,0-0.531-0.207-0.531-0.46v-13.113c0-0.254,0.237-0.461,0.531-0.461h18.819
			c0.293,0,0.531,0.207,0.531,0.461V185.599z"/>
		
			<line fill="none" stroke="#ECECEC" stroke-linecap="round" stroke-linejoin="round" stroke-miterlimit="10" x1="510.015" y1="185.474" x2="528.799" y2="172.412"/>
		
			<line fill="none" stroke="#ECECEC" stroke-linecap="round" stroke-linejoin="round" stroke-miterlimit="10" x1="510.015" y1="172.976" x2="528.725" y2="185.474"/>
	</g>
	<g display="inline">
		
			<line fill="none" stroke="#ECECEC" stroke-linecap="round" stroke-linejoin="round" stroke-miterlimit="10" x1="600.137" y1="175.534" x2="588.953" y2="175.534"/>
		
			<line fill="none" stroke="#ECECEC" stroke-linecap="round" stroke-linejoin="round" stroke-miterlimit="10" x1="600.137" y1="179.042" x2="588.953" y2="179.042"/>
		
			<line fill="none" stroke="#ECECEC" stroke-linecap="round" stroke-linejoin="round" stroke-miterlimit="10" x1="600.137" y1="182.55" x2="588.953" y2="182.55"/>
	</g>
	<path display="inline" fill="#ECECEC" d="M568.997,388.306c0,3.064,2.484,5.548,5.547,5.548h21.264
		c3.063,0,5.547-2.482,5.547-5.548l0,0c0-3.063-2.484-5.548-5.547-5.548h-21.264C571.481,382.758,568.997,385.244,568.997,388.306
		L568.997,388.306z"/>
	<g display="inline">
		<g>
			
				<line fill="none" stroke="#ECECEC" stroke-linecap="round" stroke-linejoin="round" stroke-miterlimit="10" x1="601.356" y1="340.104" x2="514.501" y2="340.104"/>
			
				<line fill="none" stroke="#ECECEC" stroke-linecap="round" stroke-linejoin="round" stroke-miterlimit="10" x1="601.356" y1="345.463" x2="514.501" y2="345.463"/>
			
				<line fill="none" stroke="#ECECEC" stroke-linecap="round" stroke-linejoin="round" stroke-miterlimit="10" x1="601.356" y1="350.819" x2="514.501" y2="350.819"/>
		</g>
		<g>
			
				<line fill="none" stroke="#ECECEC" stroke-linecap="round" stroke-linejoin="round" stroke-miterlimit="10" x1="601.356" y1="356.746" x2="514.501" y2="356.746"/>
			
				<line fill="none" stroke="#ECECEC" stroke-linecap="round" stroke-linejoin="round" stroke-miterlimit="10" x1="601.356" y1="362.104" x2="514.501" y2="362.104"/>
			
				<line fill="none" stroke="#ECECEC" stroke-linecap="round" stroke-linejoin="round" stroke-miterlimit="10" x1="601.356" y1="367.462" x2="514.501" y2="367.462"/>
		</g>
		<g>
			
				<line fill="none" stroke="#ECECEC" stroke-linecap="round" stroke-linejoin="round" stroke-miterlimit="10" x1="572.696" y1="373.388" x2="514.501" y2="373.388"/>
		</g>
		
			<line fill="none" stroke="#ECECEC" stroke-width="2" stroke-linecap="round" stroke-linejoin="round" stroke-miterlimit="10" x1="514.501" y1="331.446" x2="546.398" y2="331.446"/>
	</g>
	
		<polygon display="inline" fill="#121519" stroke="#1C1C1B" stroke-linecap="round" stroke-linejoin="round" stroke-miterlimit="10" points="
		382.914,276.623 354.909,229.835 359.768,209.406 382.914,257.149 	"/>
	<path display="inline" fill="#FAF7F2" stroke="#1C1C1B" stroke-miterlimit="10" d="M375.056,244.324c0,0,15.26-2.229,13.031-8.745
		c-1.8-2.915-9.687-2.485-13.716-1.799c-2.745,1.114-5.06,6.087-5.06,6.087l2.659,4.972L375.056,244.324z"/>
	
		<line display="inline" fill="none" stroke="#ECECEC" stroke-miterlimit="10" x1="489.741" y1="161.792" x2="489.741" y2="405.625"/>
	<g display="inline">
		<path fill="none" stroke="#ECEBEC" stroke-linecap="round" stroke-linejoin="round" stroke-miterlimit="10" d="M910.669,347.533
			c0,0-4.933-15.717-14.487-7.704c-9.552,8.012-10.493,31.112-9.86,37.906c1.232,13.251,4.931,19.417,7.087,24.346"/>
		<rect x="853.346" y="174.027" fill="#ECEBEC" width="94.306" height="122.657"/>
		<rect x="866.628" y="191.303" fill="#FFFFFF" width="67.738" height="88.105"/>
		<rect x="983.855" y="213.239" fill="#ECEBEC" width="56.211" height="67.723"/>
		<rect x="988.415" y="218.734" fill="#FFFFFF" width="47.09" height="56.732"/>
		<rect x="998.076" y="230.374" fill="#ECEBEC" width="27.768" height="33.452"/>
		
			<ellipse transform="matrix(-0.4192 -0.9079 0.9079 -0.4192 1207.01 1268.5007)" fill="#FFFFFF" cx="1009.258" cy="248.166" rx="10.301" ry="5.603"/>
		
			<ellipse transform="matrix(-0.4193 0.9079 -0.9079 -0.4193 1665.4989 -568.9744)" fill="#FFFFFF" cx="1014.723" cy="248.185" rx="10.3" ry="5.601"/>
		<circle fill="#ECEBEC" cx="1042.879" cy="330.721" r="24.963"/>
		<path fill="#FFFFFF" d="M1050.748,339.42l-5.594-7.119c0.312-0.449,0.499-0.993,0.499-1.58c0-1.206-0.776-2.221-1.851-2.604
			v-15.578c0-0.51-0.413-0.924-0.924-0.924c-0.512,0-0.925,0.413-0.925,0.924v15.578c-1.075,0.383-1.849,1.398-1.849,2.604
			c0,1.532,1.241,2.774,2.773,2.774c0.266,0,0.521-0.051,0.767-0.121l5.646,7.19c0.185,0.231,0.456,0.354,0.73,0.354
			c0.196,0,0.401-0.065,0.57-0.198C1050.993,340.403,1051.063,339.822,1050.748,339.42z"/>
		<path fill="#ECEBEC" d="M976.952,344.08c2.937,1.492,5.048,3.623,5.929,6.809c0.991,3.59,0.434,6.922-1.817,9.902
			c-1.627,2.159-3.814,3.494-6.48,4.017c-0.805,0.157-1.617,0.216-2.436,0.216c-2.938,0-5.875,0.003-8.814-0.001
			c-1.043-0.001-2.067-0.141-3.046-0.525c-2.133-0.842-3.683-2.309-4.552-4.428c-1.372-3.335-0.408-6.997,2.388-9.27
			c0.146-0.12,0.396-0.219,0.417-0.356c0.018-0.129-0.203-0.292-0.312-0.448c-0.149-0.213-0.32-0.419-0.401-0.671
			c-0.074-0.228-0.223-0.296-0.437-0.331c-0.832-0.127-1.63-0.356-2.382-0.742c-0.856-0.436-1.457-1.098-1.785-2.002
			c-0.209-0.581,0.248-1.176,0.943-1.186c0.902-0.012,1.792-0.105,2.68-0.246c0.199-0.031,0.277-0.109,0.332-0.305
			c0.69-2.581,2.272-4.392,4.85-5.131c2.722-0.779,5.16-0.123,7.115,1.97c1.402,1.499,1.951,3.321,1.799,5.368
			c-0.07,0.94-0.317,1.823-0.761,2.649c-0.072,0.134-0.103,0.196,0.089,0.24c2.201,0.484,4.153,0.041,5.737-1.607
			c0.75-0.777,1.058-1.771,1.048-2.853C977.055,344.805,977.035,344.465,976.952,344.08z M963.979,344.105
			c0.017-0.619-0.362-1.025-0.963-1.033c-0.534-0.008-0.983,0.406-0.999,0.922c-0.023,0.639,0.328,1.042,0.921,1.062
			C963.562,345.077,963.962,344.712,963.979,344.105z"/>
		<g>
			<path fill="none" stroke="#ECEBEC" stroke-linecap="round" stroke-linejoin="round" stroke-miterlimit="10" d="M911.603,347.533
				c0,0,4.931-15.717,14.486-7.704c9.552,8.012,10.492,31.112,9.86,37.906c-1.231,13.251-4.93,19.417-7.086,24.346"/>
			<path fill="#ECEBEC" d="M929.296,338.384c-1.108,1.847-1.298,3.574-0.43,3.856c0.871,0.285,2.474-0.983,3.583-2.828
				c1.109-1.847,1.301-3.572,0.43-3.855C932.006,335.271,930.404,336.54,929.296,338.384z"/>
			<path fill="#ECEBEC" d="M928.139,351.097c-1.107,1.847-1.299,3.572-0.43,3.856c0.872,0.285,2.475-0.983,3.583-2.829
				c1.108-1.846,1.299-3.572,0.429-3.855C930.852,347.983,929.25,349.252,928.139,351.097z"/>
			<path fill="#ECEBEC" d="M938.251,357.512c-2.148,0.181-3.659,1.035-3.378,1.909c0.277,0.872,2.247,1.431,4.39,1.25
				c2.146-0.181,3.658-1.035,3.38-1.907C942.361,357.891,940.397,357.333,938.251,357.512z"/>
			<path fill="#ECEBEC" d="M931.437,360.748c-2.144,0.179-3.657,1.034-3.375,1.906c0.278,0.874,2.243,1.431,4.387,1.25
				c2.146-0.177,3.658-1.034,3.376-1.905C935.548,361.125,933.583,360.566,931.437,360.748z"/>
			<path fill="#ECEBEC" d="M939.299,377.621c-2.031-0.714-3.761-0.555-3.861,0.357c-0.103,0.91,1.46,2.225,3.49,2.937
				c2.033,0.716,3.762,0.555,3.865-0.355C942.895,379.648,941.33,378.336,939.299,377.621z"/>
			<path fill="#ECEBEC" d="M931.941,377.188c-2.028-0.713-3.759-0.556-3.859,0.356c-0.102,0.91,1.462,2.225,3.493,2.937
				c2.031,0.718,3.76,0.555,3.859-0.354C935.541,379.216,933.977,377.902,931.941,377.188z"/>
			<path fill="#ECEBEC" d="M937.108,392.708c-1.884-1.043-3.614-1.175-3.867-0.292c-0.255,0.88,1.068,2.437,2.951,3.479
				c1.885,1.046,3.617,1.174,3.867,0.295C940.315,395.307,938.99,393.75,937.108,392.708z"/>
			<path fill="#ECEBEC" d="M928.902,390.175c-1.882-1.042-3.615-1.175-3.866-0.291c-0.253,0.878,1.07,2.434,2.954,3.477
				c1.883,1.046,3.614,1.177,3.867,0.296C932.109,392.776,930.787,391.221,928.902,390.175z"/>
			<path fill="#ECEBEC" d="M931.32,403.545c-0.869-1.973-2.165-3.125-2.902-2.574c-0.73,0.546-0.62,2.583,0.246,4.553
				c0.864,1.975,2.165,3.127,2.896,2.579C932.294,407.557,932.186,405.517,931.32,403.545z"/>
			<path fill="#ECEBEC" d="M925.878,403.073c1.237-1.762,2.736-2.639,3.346-1.955c0.613,0.677,0.106,2.653-1.13,4.417
				c-1.235,1.766-2.735,2.642-3.345,1.96C924.134,406.814,924.64,404.835,925.878,403.073z"/>
		</g>
		<path fill="#FFFFFF" stroke="#ECEBEC" stroke-linecap="round" stroke-linejoin="round" stroke-miterlimit="10" d="M925.926,347.5
			c0-1.924-1.343-3.486-3.003-3.486h-22.732c-1.657,0-3.003,1.562-3.003,3.486c0,1.926,1.346,3.487,3.003,3.487h0.336l0.805,15.27
			h20.735l0.937-15.289C924.623,350.916,925.926,349.394,925.926,347.5z"/>
		
			<rect x="892.711" y="364.682" transform="matrix(-1 -0.0069 0.0069 -1 1881.5947 739.7126)" fill="#ECEBEC" width="98.726" height="3.854"/>
		<path fill="none" stroke="#ECEBEC" stroke-linecap="round" stroke-linejoin="round" stroke-miterlimit="10" d="M912.747,343.604
			c0,0,2.081-6.703-2.542-6.472c-3.943,0.197-4.854,24.038-1.618,39.062c3.237,15.024,2.312,24.501,2.312,24.501"/>
		<path fill="#ECEBEC" d="M892.975,338.384c1.108,1.847,1.299,3.574,0.43,3.856c-0.872,0.285-2.474-0.983-3.582-2.828
			c-1.109-1.847-1.302-3.572-0.429-3.855C890.264,335.271,891.866,336.54,892.975,338.384z"/>
		<path fill="#ECEBEC" d="M894.13,349.248c1.108,1.847,1.3,3.573,0.43,3.856c-0.871,0.285-2.473-0.983-3.583-2.827
			c-1.11-1.847-1.301-3.574-0.43-3.856C891.421,346.135,893.022,347.403,894.13,349.248z"/>
		<path fill="#ECEBEC" d="M884.021,357.512c2.146,0.181,3.659,1.035,3.378,1.909c-0.278,0.872-2.245,1.431-4.388,1.25
			c-2.147-0.181-3.66-1.035-3.38-1.907C879.91,357.891,881.875,357.333,884.021,357.512z"/>
		<path fill="#ECEBEC" d="M890.833,360.748c2.146,0.179,3.66,1.034,3.377,1.906c-0.278,0.874-2.243,1.431-4.387,1.25
			c-2.146-0.177-3.66-1.034-3.378-1.905C886.724,361.125,888.688,360.566,890.833,360.748z"/>
		<path fill="#ECEBEC" d="M881.814,378.314c2.032-0.713,3.762-0.555,3.861,0.358c0.104,0.91-1.46,2.224-3.491,2.937
			c-2.032,0.717-3.76,0.555-3.862-0.356C878.22,380.342,879.785,379.029,881.814,378.314z"/>
		<path fill="#ECEBEC" d="M890.327,377.188c2.029-0.713,3.76-0.556,3.862,0.356c0.102,0.91-1.462,2.225-3.493,2.937
			c-2.032,0.718-3.761,0.555-3.861-0.354C886.73,379.216,888.295,377.902,890.327,377.188z"/>
		<path fill="#ECEBEC" d="M885.164,392.708c1.883-1.043,3.616-1.175,3.868-0.292c0.255,0.88-1.068,2.437-2.952,3.479
			c-1.884,1.046-3.617,1.174-3.869,0.295C881.956,395.307,883.281,393.75,885.164,392.708z"/>
		<path fill="#ECEBEC" d="M892.992,391.043c2.048-0.658,3.774-0.453,3.85,0.462c0.077,0.912-1.523,2.18-3.571,2.837
			c-2.052,0.661-3.776,0.457-3.851-0.459C889.342,392.971,890.94,391.7,892.992,391.043z"/>
		<path fill="#ECEBEC" d="M890.953,403.545c0.867-1.973,2.164-3.125,2.901-2.574c0.732,0.546,0.621,2.583-0.246,4.553
			c-0.864,1.975-2.164,3.127-2.896,2.579C889.976,407.557,890.086,405.517,890.953,403.545z"/>
		<path fill="#ECEBEC" d="M896.394,403.073c-1.237-1.762-2.735-2.639-3.346-1.955c-0.615,0.677-0.104,2.653,1.13,4.417
			c1.235,1.766,2.733,2.642,3.344,1.96C898.138,406.814,897.63,404.835,896.394,403.073z"/>
		<path fill="#ECEBEC" d="M911.972,333.712c0.011,2.154-0.705,3.736-1.598,3.535c-0.894-0.199-1.626-2.106-1.639-4.259
			c-0.014-2.153,0.701-3.737,1.595-3.537C911.226,329.651,911.958,331.56,911.972,333.712z"/>
		<path fill="#ECEBEC" d="M904.232,355.18c2.122,0.364,3.556,1.345,3.202,2.189c-0.352,0.846-2.361,1.235-4.48,0.871
			c-2.124-0.362-3.558-1.343-3.204-2.189C900.103,355.206,902.108,354.817,904.232,355.18z"/>
		<path fill="#ECEBEC" d="M910.744,358.985c2.121,0.365,3.556,1.346,3.199,2.19c-0.351,0.844-2.358,1.233-4.479,0.869
			c-2.123-0.361-3.558-1.343-3.202-2.188C906.616,359.01,908.622,358.623,910.744,358.985z"/>
		<path fill="#ECEBEC" d="M905.803,375.718c2.083-0.536,3.796-0.231,3.816,0.686c0.026,0.915-1.646,2.09-3.73,2.63
			c-2.083,0.538-3.793,0.23-3.817-0.686C902.047,377.432,903.719,376.255,905.803,375.718z"/>
		<path fill="#ECEBEC" d="M912.532,375.321c2.083-0.536,3.792-0.231,3.813,0.688c0.026,0.914-1.644,2.09-3.728,2.626
			c-2.087,0.54-3.794,0.231-3.816-0.682C908.773,377.035,910.445,375.862,912.532,375.321z"/>
		<path fill="#ECEBEC" d="M906.984,390.807c1.965-0.878,3.703-0.861,3.879,0.04c0.178,0.898-1.277,2.337-3.24,3.215
			c-1.966,0.879-3.702,0.86-3.879-0.039C903.567,393.122,905.019,391.684,906.984,390.807z"/>
		<path fill="#ECEBEC" d="M914.45,388.524c1.966-0.878,3.702-0.864,3.877,0.04c0.179,0.896-1.276,2.332-3.237,3.211
			c-1.965,0.88-3.705,0.864-3.878-0.035C911.033,390.841,912.484,389.403,914.45,388.524z"/>
		<path fill="#ECEBEC" d="M909.05,401.637c1.033-1.891,2.423-2.93,3.11-2.317c0.684,0.608,0.399,2.628-0.632,4.517
			c-1.03,1.892-2.424,2.931-3.105,2.323C907.735,405.551,908.019,403.525,909.05,401.637z"/>
		<path fill="#ECEBEC" d="M914.511,401.631c-1.081-1.861-2.499-2.863-3.167-2.233c-0.669,0.623-0.331,2.636,0.75,4.497
			c1.078,1.867,2.499,2.868,3.163,2.242C915.929,405.51,915.594,403.493,914.511,401.631z"/>
		<path fill="none" stroke="#ECEBEC" stroke-miterlimit="10" d="M871.097,280.697c0-18.279,12.694-33.091,28.353-33.091
			s28.353,14.812,28.353,33.091H871.097L871.097,280.697z"/>
		<g>
			<path fill="#FFFFFF" stroke="#ECEBEC" stroke-miterlimit="10" d="M917.325,233.521c0,12.163-8.004,22.02-17.877,22.02
				c-9.871,0-17.873-9.858-17.873-22.02c0-12.157,8.002-22.018,17.873-22.018C909.321,211.502,917.325,221.363,917.325,233.521z"/>
			<path fill="#ECEBEC" d="M893.735,232.661c0,0.671-0.649,1.217-1.457,1.217c-0.809,0-1.458-0.545-1.458-1.217
				s0.649-1.216,1.458-1.216C893.084,231.445,893.735,231.99,893.735,232.661z"/>
			<ellipse fill="#ECEBEC" cx="906.869" cy="232.661" rx="1.458" ry="1.217"/>
			<path fill="#FFFFFF" stroke="#ECEBEC" stroke-linecap="round" stroke-linejoin="round" stroke-miterlimit="10" d="
				M898.113,233.148c0,0-1.945,6.566-0.243,6.566c1.704,0,1.704,0,1.704,0"/>
		</g>
		<path fill="#ECEBEC" d="M882.12,235.211c0.871,2.875,1.467,5.033,2.184,7.164c1.238,3.692,4.058,4.64,8.053,2.51
			c4.771-2.543,9.333-2.703,14.152-0.107c4.185,2.253,6.994,1.336,8.274-2.518c0.341-1.032,0.618-2.077,0.92-3.115
			c0.3-1.039,0.604-2.077,0.949-3.269c1.821,0.783,1.475,2.202,1.482,3.312c0.035,4.576-0.733,9.112-1.712,13.603
			c-0.911,4.189-4.498,6.934-9.124,8.565c-3.849,1.357-7.138,5.232-12.48,1.488c-3.37-2.363-8.063-3.432-10.693-6.733
			c-2.366-2.97-1.866-6.403-2.536-9.572C880.875,243.157,879.984,239.47,882.12,235.211z"/>
		<path fill="#ECEBEC" d="M915.785,212.429c2.446,5.756,4.825,11.52,2.324,17.921c-0.384,0.977-0.724,1.969-1.436,3.923
			c-0.622-4.504-0.837-8.09-2.042-11.502c-1.161-3.274-2.84-4.989-6.635-3.978c-4.345,1.156-8.772,1.546-13.219,0.18
			c-1.274-0.391-2.679-0.496-4.023-0.496c-4.608,0.006-8.402,4.513-9.047,10.642c-0.083,0.789-0.114,1.584-0.248,3.48
			c-3.907-8.854-0.653-15.73,2.538-22.609c1.354-1.104,2.714-2.213,4.072-3.319c1.739,0.126,1.573-1.661,2.43-2.419
			c1.026-0.366,2.054-0.733,3.08-1.099c0.684,0.585,1.347,0.655,1.969-0.09c3.559-2.001,6.988-0.341,10.448,0.384
			c0.281,0.771,0.766,1.238,1.65,1.115C911.209,206.308,914.026,208.82,915.785,212.429z"/>
		<path fill="#FFFFFF" d="M899.777,249.607c1.436-0.033,2.956-0.106,4.292-0.771c1.21-0.601,1.174-1.232-0.029-1.839
			c-2.864-1.45-5.721-1.458-8.601-0.024c-1.261,0.626-1.288,1.297-0.013,1.896C896.738,249.488,898.212,249.583,899.777,249.607z"/>
		<path fill="#ECEBEC" d="M903.62,346.424c2.136-0.28,3.793,0.234,3.706,1.146c-0.087,0.912-1.89,1.876-4.023,2.155
			c-2.136,0.281-3.796-0.232-3.707-1.145C899.683,347.666,901.484,346.704,903.62,346.424z"/>
		<path fill="#ECEBEC" d="M910.965,348.137c2.135-0.278,3.795,0.235,3.703,1.148c-0.085,0.91-1.888,1.875-4.022,2.152
			c-2.134,0.282-3.795-0.232-3.705-1.145C907.028,349.379,908.831,348.417,910.965,348.137z"/>
	</g>
	<path display="inline" fill="#F6F9FA" d="M506.781,787.36c0,0-44.393-1.454-46.184,12.602c-4.333,9.395,82.283,2.229,103.53,2.061
		c25.226-0.2,63.517,2.332,63.48-3.389c-0.038-5.718-8.65-13.376-21.356-12.757C593.545,786.5,531.275,789.768,506.781,787.36z"/>
	<g display="inline">
		<polygon fill="#FAF7F2" stroke="#1C1C1B" stroke-miterlimit="10" points="588.436,782.383 603.289,781.477 602.711,772.017 
			588.479,772.893 		"/>
		<path fill="#121519" stroke="#121519" stroke-linecap="round" stroke-linejoin="round" stroke-miterlimit="10" d="
			M600.199,780.787c0,0,3.047,7.55,6.856,13.394c2.259,3.04,3.164,2.385,3.01-0.186c-0.161-2.566-1.538-25.131-1.538-25.131
			s-10.292,0.999-10.215,2.284C598.39,772.428,600.199,780.787,600.199,780.787z"/>
	</g>
	<g display="inline">
		<polygon fill="#FAF7F2" stroke="#1C1C1B" stroke-miterlimit="10" points="501.405,776.02 516.571,785.579 521.626,777.567 
			507.093,768.407 		"/>
		<path fill="#121519" stroke="#121519" stroke-linecap="round" stroke-linejoin="round" stroke-miterlimit="10" d="M514.69,783.36
			c0,0-0.768,2.104-1.452,7.142c-0.244,1.808-2.793,1.475-4.845,2.473c-4.894,1.662-3.048,2.906,2.46,2.382
			c0.673-0.063,6.687,0.751,8.114-1.51c3.992-6.334,9.447-15.302,9.447-15.302s-8.939-5.201-9.627-4.113
			C518.103,775.521,514.69,783.36,514.69,783.36z"/>
	</g>
	
		<path display="inline" fill="#FFFFFF" stroke="#1C1C1B" stroke-linecap="round" stroke-linejoin="round" stroke-miterlimit="10" d="
		M505.47,705.443l-38.897,24.651c0,0-20.227,11.751-4.479,22.862c15.615,11.013,39.646,25.631,39.646,25.631l8.051-10.114
		c0,0-18.304-17.275-20.254-19.199c-1.949-1.92-1.195-4.633,3.438-6.214c4.63-1.583,29.333-9.497,29.333-9.497l2.506-28.261
		L505.47,705.443z"/>
	
		<path display="inline" fill="#FFFFFF" stroke="#1C1C1B" stroke-linecap="round" stroke-linejoin="round" stroke-miterlimit="10" d="
		M548.415,705.521c0,0,10.192,18.881,2.997,40.213c-7.197,21.332-9.886,23.674-3.695,24.016c6.192,0.339,41.021,2.024,41.021,2.024
		l0.081,11.219l-47.496,12.335c0,0-22.79,4.807-22.904-11.057c-0.114-15.859,0.032-49.52,0.032-49.52l-0.599-29.399L548.415,705.521
		z"/>
	<path display="inline" fill="#F7FAFB" d="M311.79,784.95c0,0-18.492-8.013-25.888,3.081c-7.396,11.097,14.792,17.262,29.585,16.027
		c14.794-1.234,24.658,3.698,33.287-9.861c8.628-13.559,0.523-11.972-9.339-11.972C329.573,782.226,311.79,784.95,311.79,784.95z"/>
	
		<path display="inline" fill="#121519" stroke="#1C1C1B" stroke-linecap="round" stroke-linejoin="round" stroke-miterlimit="10" d="
		M490.992,648.931c0,0-1.835,44.729-39.267,38.155c-12.244-2.328-15.489-6.135-15.489-6.135l6.251-10.188
		c0,0,19.932,11.637,25.663-4.392c5.423-15.17,6.496-19.87,6.496-19.87"/>
	<path display="inline" fill="#FAF7F2" stroke="#1C1C1B" stroke-miterlimit="10" d="M434.839,678.048
		c0,0-16.409-5.635-12.588-12.374c2.596-2.849,11.225-0.731,15.537,0.864c2.804,1.8,4.33,7.779,4.33,7.779l-3.973,4.944
		L434.839,678.048z"/>
	
		<path display="inline" fill="#121519" stroke="#1C1C1B" stroke-linecap="round" stroke-linejoin="round" stroke-miterlimit="10" d="
		M503.675,707.148c1.815,1.669,45.434,3.155,46.859,0.864c1.424-2.294,5.065-29.087-14.442-50.393
		c-19.507-21.307-39.454-24.381-59.89-16.726c-2.777,9.668-5.815,15.58,19.939,38.75
		C507.594,695.471,501.862,705.479,503.675,707.148z"/>
	<g display="inline">
		<g>
			<path fill="#FAF7F2" stroke="#1C1C1B" stroke-miterlimit="10" d="M501.456,615.99c1.868,15.929-6.497,30.001-18.687,31.434
				c-12.185,1.428-23.578-10.329-25.446-26.259c-1.866-15.921,6.794-24.143,18.981-25.571
				C488.492,594.161,499.587,600.066,501.456,615.99z"/>
		</g>
		<g>
			<path fill="#1C1C1B" d="M468.18,626.147c0.123,1.068-0.468,2.018-1.325,2.118c-0.855,0.102-1.65-0.686-1.774-1.755
				c-0.127-1.066,0.464-2.015,1.322-2.115C467.26,624.296,468.052,625.08,468.18,626.147z"/>
			<path fill="none" stroke="#1C1C1B" stroke-linecap="round" stroke-linejoin="round" stroke-miterlimit="10" d="M473.53,624.937
				c0,0-1.873,10.814,0.838,10.496c2.709-0.32,2.709-0.32,2.709-0.32"/>
			<path fill="#1C1C1B" d="M483.631,625.714c0.125,1.065-0.464,2.011-1.322,2.111c-0.857,0.103-1.653-0.679-1.776-1.748
				c-0.125-1.069,0.465-2.02,1.323-2.12C482.712,623.855,483.507,624.645,483.631,625.714z"/>
		</g>
		<path fill="#121519" d="M470.489,609.616c0,0,23.725,11.544,26.655,31.511c6.736,0.974,16.957-21.905,5.709-40.012
			c-11.249-18.108-34.867-10.395-41.399-4.962c-6.126,4.646-11.448,19.041-7.922,31.983c3.961,14.548,5.057,15.104,5.723,14.926
			c0.666-0.173,1.996-3.908,3.075-6.391C463.406,634.2,452.247,610.923,470.489,609.616z"/>
	</g>
	<g display="inline">
		<path fill="#121519" stroke="#121519" stroke-miterlimit="10" d="M337.699,749.543c0.81-1.236,2.758-4.258,2.978-4.781
			c1.945-4.293,2.946-8.938,4.968-13.207c0.988-2.088,2.286-3.994,1.371-6.659c-0.181-0.537-0.486-1.266-1.184-1.434
			c-0.635-0.151-1.136,0.208-1.504,0.696c-0.374,0.499-0.745,1.014-1.042,1.557c-1.46,2.679-2.858,5.387-4.348,8.046
			c-1.178,2.102-2.167,4.35-4.129,5.913c-0.502,0.4-1.025,0.795-1.702,0.549c-0.897-0.327-1.821-0.625-2.6-1.205
			c-1.127-0.844-1.197-2.561-0.09-3.399c0.875-0.668,1.36-1.579,1.761-2.544c0.313-0.836-0.225-2.993-1.036-3.189
			c-2.164-0.537-3.837-2.543-6.209-2.517c-0.293,0.006-0.569-0.102-0.676-0.448c-0.161-0.516,0.325-1.335-0.41-1.502
			c-0.457-0.104-1.616,1.546-1.616,1.546c-1.034,1.099-1.497,1.122-2.439-0.013c-0.4-0.479-0.828-0.951-1.306-1.346
			c-0.79-0.652-1.453-0.447-1.835,0.476c-0.21,0.512-0.309,1.041-0.323,1.586c-0.034,1.295,0.137,2.639-0.144,3.877
			c-0.846,3.745-0.372,7.393,0.44,11.048c0.186,0.828,0.18,1.615-0.187,2.438c-0.972,2.174-2.567,3.791-4.684,4.67
			c-2.814,1.172-4.712,3.192-5.955,5.808c-2.693,5.655-5.037,11.458-6.621,17.54c-0.926,3.561-1.966,7.093-1.428,10.849
			c0.338,2.375,1.354,4.133,3.76,4.971c5.1,1.772,10.236,3.445,15.631,3.944c6.571,0.605,13.16,1.018,19.747,1.427
			c1.911,0.12,3.86,0.022,5.647-0.836c0.953-0.459,1.905-1.008,1.926-2.25c0.021-1.234-0.767-2.043-1.763-2.541
			c-1.75-0.882-3.582-1.576-5.466-2.146c-2.509-0.761-5.057-0.405-7.598-0.459c-3.292-0.068-6.538-0.501-10.001-1.245
			c1.208-0.484,1.898-0.651,2.872-0.956c0.888-0.274,1.712-0.578,2.582-0.857c0.908-0.423,0.808-0.732,0.957-1.268
			c0.391-1.71-1.302-2.054-1.302-2.054c-1.265-0.065-1.758-0.111-2.673-0.122c-0.603-0.054-0.068-0.772-0.068-0.772
			c0.529-0.928,1.23-2.181,1.627-2.747c1.104-1.574,1.691-4.852,1.686-5.272c0.085-1.017-0.41-2.089,0.285-3.047
			c0.634-1,1.187-1.136,1.904-0.359c0.637,0.688,1.284,1.401,1.523,2.36c0,0,3.009,8.63,3.833,8.81c0,0,1.888,1.8,1.501-2.991
			c-0.01-0.445,0.013-0.509-0.03-1.005c-0.058-1.078-0.119-2.152-0.177-3.23c-0.093-1.707-0.689-3.498-0.689-3.498
			c-0.127-0.693-2.856-5.79-2.856-5.79c-0.779-1.392-0.204-2.505,0.729-3.546C331.337,758.414,337.01,750.567,337.699,749.543z"/>
		
			<ellipse transform="matrix(0.3336 -0.9427 0.9427 0.3336 -471.2402 794.5486)" fill="#FFFFFF" cx="326.366" cy="730.583" rx="1.044" ry="1.565"/>
	</g>
	<g display="inline">
		<g>
			<polygon fill="#0E5767" points="453.149,674.365 447.432,677.297 444.567,663.051 450.294,660.066 			"/>
			<polygon fill="#15616E" points="447.428,677.266 430.778,675.582 427.921,661.284 444.572,662.966 			"/>
			<polygon fill="#0E5767" points="444.35,666.939 440.838,666.581 440.237,663.572 443.748,663.924 			"/>
			<polygon fill="#0E5767" points="444.598,663.017 427.968,661.282 433.406,658.543 450.046,660.184 			"/>
		</g>
		<path fill="#BC1352" d="M440.3,670.142c0.374,1.864-0.866,2.987-2.513,3.317c-1.645,0.328-2.892-1.303-3.265-3.169
			c-0.373-1.867,0.271-3.256,1.917-3.586C438.085,666.375,439.927,668.274,440.3,670.142z"/>
	</g>
	<path display="inline" fill="#FAF7F2" stroke="#1C1C1B" stroke-miterlimit="10" d="M457.159,676.008c0,0-14.854-8.965-9.699-14.752
		c3.137-2.233,11.127,1.65,15.007,4.12c2.361,2.349,2.595,8.518,2.595,8.518l-4.928,3.997L457.159,676.008z"/>
	
		<line display="inline" fill="none" stroke="#0E5767" stroke-linecap="round" stroke-linejoin="round" stroke-miterlimit="10" x1="426.121" y1="654.214" x2="423.32" y2="649.895"/>
	
		<line display="inline" fill="none" stroke="#0E5767" stroke-linecap="round" stroke-linejoin="round" stroke-miterlimit="10" x1="429.897" y1="654.752" x2="430.047" y2="649.602"/>
	
		<line display="inline" fill="none" stroke="#0E5767" stroke-linecap="round" stroke-linejoin="round" stroke-miterlimit="10" x1="425.642" y1="657.793" x2="420.494" y2="657.643"/>
	<polygon display="inline" fill="#FFFFFF" points="444.35,666.939 440.838,666.581 440.237,663.572 443.748,663.924 	"/>
	<path display="inline" fill="#FFFFFF" d="M440.3,670.142c0.374,1.864-0.866,2.987-2.513,3.317
		c-1.645,0.328-2.892-1.303-3.265-3.169c-0.373-1.867,0.271-3.256,1.917-3.586C438.085,666.375,439.927,668.274,440.3,670.142z"/>
	
		<path display="inline" fill="#121519" stroke="#1C1C1B" stroke-linecap="round" stroke-linejoin="round" stroke-miterlimit="10" d="
		M518.186,659.373c0,0-11.217,43.337-46.424,29.027c-11.479-4.856-13.849-9.261-13.849-9.261l8.258-8.642
		c0,0,15.134,14.205,26.013,1.115c11.085-13.342,10.804-16.202,10.804-16.202"/>
	<path display="inline" fill="#667887" enable-background="new    " d="M331.352,715.818c0.037-0.36,0.069-0.701,0.106-1.045
		c0.396-3.579,0.787-7.156,1.202-10.732c0.049-0.422-0.038-0.642-0.413-0.874c-3.582-2.209-6.356-5.189-8.13-9.001
		c-2.956-6.348-2.888-12.725,0.192-19.018c2.121-4.335,5.428-7.547,9.745-9.659c4.667-2.281,9.573-2.84,14.635-1.573
		c4.948,1.236,9.028,3.854,12.064,7.964c4.021,5.436,5.288,11.5,3.72,18.077c-1.247,5.227-4.125,9.416-8.527,12.506
		c-4.471,3.137-9.463,4.325-14.879,3.772c-0.418-0.043-0.673,0.072-0.949,0.37c-2.754,2.96-5.522,5.907-8.289,8.853
		C331.708,715.588,331.628,715.777,331.352,715.818z"/>
	<g display="inline">
		<path fill="#FFFFFF" d="M334.788,681.644v7.412h-1.215v-4.788c0-0.191,0.01-0.398,0.03-0.62l-2.239,4.208
			c-0.106,0.201-0.269,0.302-0.487,0.302h-0.195c-0.219,0-0.381-0.101-0.487-0.302l-2.265-4.223c0.01,0.111,0.019,0.223,0.025,0.332
			c0.007,0.111,0.011,0.21,0.011,0.303v4.788h-1.215v-7.412h1.041c0.062,0,0.115,0.002,0.16,0.005
			c0.044,0.004,0.084,0.013,0.121,0.025c0.036,0.014,0.068,0.036,0.098,0.066s0.057,0.071,0.084,0.124l2.22,4.116
			c0.058,0.108,0.112,0.222,0.161,0.339c0.05,0.116,0.098,0.234,0.146,0.358c0.049-0.125,0.097-0.249,0.149-0.367
			c0.051-0.119,0.105-0.23,0.163-0.341l2.188-4.105c0.027-0.053,0.056-0.093,0.087-0.124c0.031-0.03,0.064-0.053,0.1-0.066
			c0.036-0.014,0.076-0.021,0.121-0.025c0.044-0.003,0.097-0.005,0.16-0.005H334.788z"/>
		<path fill="#FFFFFF" d="M337.821,689.056h-1.383v-7.412h1.383V689.056z"/>
		<path fill="#FFFFFF" d="M345.828,689.056h-1.066c-0.121,0-0.218-0.029-0.292-0.09c-0.075-0.06-0.131-0.132-0.168-0.223
			l-0.554-1.514h-3.069l-0.554,1.514c-0.027,0.079-0.08,0.152-0.159,0.216c-0.079,0.064-0.176,0.097-0.292,0.097h-1.077l2.917-7.412
			h1.406L345.828,689.056z M343.393,686.256l-0.902-2.466c-0.045-0.109-0.091-0.239-0.139-0.39
			c-0.048-0.149-0.096-0.312-0.144-0.487c-0.044,0.176-0.09,0.339-0.139,0.49c-0.047,0.151-0.094,0.284-0.138,0.398l-0.897,2.454
			H343.393z"/>
		<path fill="#FFFFFF" d="M353.444,685.35c0,0.544-0.089,1.048-0.269,1.51c-0.179,0.463-0.433,0.864-0.761,1.203
			c-0.328,0.337-0.723,0.6-1.184,0.791c-0.461,0.19-0.975,0.285-1.539,0.285c-0.56,0-1.071-0.095-1.532-0.285
			c-0.462-0.191-0.857-0.453-1.187-0.791c-0.33-0.341-0.586-0.74-0.767-1.203c-0.181-0.462-0.271-0.966-0.271-1.51
			c0-0.545,0.089-1.047,0.271-1.51c0.182-0.463,0.438-0.865,0.767-1.201c0.33-0.338,0.725-0.603,1.187-0.794
			c0.461-0.189,0.973-0.284,1.532-0.284c0.376,0,0.729,0.045,1.061,0.131c0.332,0.088,0.636,0.211,0.912,0.369
			c0.277,0.159,0.526,0.353,0.746,0.579c0.22,0.229,0.408,0.48,0.562,0.763c0.153,0.278,0.27,0.586,0.35,0.91
			C353.405,684.642,353.444,684.987,353.444,685.35z M352.035,685.35c0-0.408-0.054-0.771-0.163-1.093
			c-0.111-0.326-0.266-0.598-0.468-0.825c-0.201-0.224-0.446-0.398-0.734-0.517c-0.289-0.118-0.615-0.179-0.978-0.179
			c-0.362,0-0.688,0.061-0.977,0.179c-0.289,0.12-0.535,0.294-0.738,0.517c-0.203,0.226-0.359,0.499-0.469,0.825
			c-0.109,0.321-0.164,0.688-0.164,1.093c0,0.406,0.055,0.771,0.164,1.095c0.11,0.321,0.266,0.595,0.469,0.818
			s0.449,0.396,0.738,0.518c0.289,0.121,0.615,0.18,0.977,0.18c0.363,0,0.689-0.059,0.978-0.18c0.289-0.121,0.533-0.294,0.734-0.518
			c0.202-0.224,0.357-0.497,0.468-0.818C351.981,686.12,352.035,685.755,352.035,685.35z"/>
		<path fill="#FFFFFF" d="M357.643,687.942c0.266,0,0.504-0.043,0.715-0.134c0.21-0.088,0.387-0.213,0.531-0.373
			c0.143-0.16,0.253-0.355,0.33-0.585c0.077-0.229,0.116-0.484,0.116-0.769v-4.438h1.378v4.438c0,0.44-0.071,0.848-0.213,1.223
			c-0.142,0.375-0.345,0.696-0.61,0.968c-0.265,0.271-0.587,0.483-0.966,0.636c-0.378,0.154-0.806,0.23-1.281,0.23
			c-0.48,0-0.907-0.076-1.287-0.23c-0.379-0.152-0.702-0.364-0.967-0.636c-0.266-0.271-0.469-0.593-0.61-0.968
			c-0.142-0.373-0.212-0.782-0.212-1.223v-4.438h1.378v4.434c0,0.283,0.039,0.54,0.116,0.769c0.077,0.229,0.188,0.424,0.333,0.586
			c0.145,0.164,0.323,0.289,0.533,0.377C357.139,687.899,357.377,687.942,357.643,687.942z"/>
	</g>
	<path display="inline" fill="#121519" stroke="#010202" stroke-miterlimit="10" d="M1555.898,640.441c0,0,9.682-0.283,8.827-10.535
		c-0.854-10.251-5.41-11.105-6.265-9.396s-6.55,17.085-6.55,17.085L1555.898,640.441z"/>
	
		<path display="inline" fill="#121519" stroke="#1C1C1B" stroke-linecap="round" stroke-linejoin="round" stroke-miterlimit="10" d="
		M1548.619,636.295c0,0,15.946,4.843,23.351,9.968c7.403,5.126,19.362,21.642,15.377,31.892
		c-3.985,10.251-5.41,20.504-15.662,25.345c-10.251,4.841-15.377,7.119-23.065,6.835
		C1540.932,710.049,1548.619,636.295,1548.619,636.295z"/>
	<g display="inline">
		<path fill="#FFFFFF" stroke="#ECECEC" stroke-miterlimit="10" d="M1556.766,765.165c0,3.302-2.317,5.979-5.178,5.979h-264.091
			c-2.86,0-5.179-2.678-5.179-5.979V592.603c0-3.304,2.318-5.98,5.179-5.98h264.091c2.86,0,5.178,2.677,5.178,5.98V765.165z"/>
		<path fill="#ECECEC" stroke="#ECECEC" stroke-miterlimit="10" d="M1282.564,607.979v-16.375c0-2.752,2.939-4.982,6.568-4.982
			h261.152c3.627,0,6.568,2.23,6.568,4.982v16.375H1282.564z"/>
		<rect x="1334.101" y="593.884" fill="#FFFFFF" width="213.05" height="8.115"/>
		<line fill="none" stroke="#ECECEC" stroke-miterlimit="10" x1="1449.995" y1="607.266" x2="1449.995" y2="770.575"/>
		<ellipse fill="#FFFFFF" cx="1296.188" cy="598.155" rx="3.516" ry="4.058"/>
		<ellipse fill="#FFFFFF" cx="1306.229" cy="598.155" rx="3.513" ry="4.058"/>
		<ellipse fill="#FFFFFF" cx="1316.268" cy="598.155" rx="3.514" ry="4.058"/>
		<path opacity="0.7" fill="#115667" enable-background="new    " d="M1340.759,625.206c0,1.18-0.827,2.136-1.85,2.136h-5.177
			c-1.023,0-1.851-0.956-1.851-2.136l0,0c0-1.18,0.827-2.136,1.851-2.136h5.177C1339.932,623.07,1340.759,624.026,1340.759,625.206
			L1340.759,625.206z"/>
		<path fill="#0E5767" d="M1359.823,625.206c0,1.18-0.828,2.136-1.851,2.136h-12.328c-1.022,0-1.85-0.956-1.85-2.136l0,0
			c0-1.18,0.827-2.136,1.85-2.136h12.328C1358.995,623.07,1359.823,624.026,1359.823,625.206L1359.823,625.206z"/>
		<path opacity="0.7" fill="#115667" enable-background="new    " d="M1350.191,633.749c0,1.18-0.83,2.136-1.85,2.136h-12.33
			c-1.021,0-1.849-0.956-1.849-2.136l0,0c0-1.18,0.828-2.136,1.849-2.136h12.33C1349.361,631.613,1350.191,632.569,1350.191,633.749
			L1350.191,633.749z"/>
		<path fill="#115667" d="M1386.746,633.749c0,1.18-0.828,2.136-1.85,2.136h-5.179c-1.021,0-1.849-0.956-1.849-2.136l0,0
			c0-1.18,0.828-2.136,1.849-2.136h5.179C1385.918,631.613,1386.746,632.569,1386.746,633.749L1386.746,633.749z"/>
		<path opacity="0.3" fill="#115667" enable-background="new    " d="M1374.803,633.749c0,1.18-0.828,2.136-1.849,2.136h-17.97
			c-1.021,0-1.85-0.956-1.85-2.136l0,0c0-1.178,0.829-2.136,1.85-2.136h17.97C1373.975,631.613,1374.803,632.571,1374.803,633.749
			L1374.803,633.749z"/>
		<path opacity="0.7" fill="#115667" enable-background="new    " d="M1364.219,642.436c0,1.179-0.829,2.135-1.852,2.135h-30.517
			c-1.021,0-1.85-0.956-1.85-2.135l0,0c0-1.181,0.829-2.137,1.85-2.137h30.517C1363.39,640.299,1364.219,641.255,1364.219,642.436
			L1364.219,642.436z"/>
		<path fill="#115667" d="M1425.691,642.436c0,1.18-0.827,2.135-1.849,2.135h-54.742c-1.022,0-1.85-0.955-1.85-2.135l0,0
			c0-1.181,0.827-2.137,1.85-2.137h54.742C1424.864,640.299,1425.691,641.255,1425.691,642.436L1425.691,642.436z"/>
		<path opacity="0.7" fill="#115667" enable-background="new    " d="M1301.982,667.957c0,1.18-0.826,2.135-1.848,2.135h-5.178
			c-1.022,0-1.85-0.955-1.85-2.135l0,0c0-1.181,0.827-2.137,1.85-2.137h5.178C1301.156,665.82,1301.982,666.776,1301.982,667.957
			L1301.982,667.957z"/>
		<path opacity="0.7" fill="#115667" enable-background="new    " d="M1312.402,676.463c0,1.18-0.828,2.135-1.85,2.135h-5.178
			c-1.021,0-1.85-0.955-1.85-2.135l0,0c0-1.18,0.828-2.137,1.85-2.137h5.178C1311.574,674.326,1312.402,675.283,1312.402,676.463
			L1312.402,676.463z"/>
		<path opacity="0.7" fill="#115667" enable-background="new    " d="M1303.896,701.807c0,1.179-0.83,2.136-1.851,2.136h-5.179
			c-1.021,0-1.849-0.957-1.849-2.136l0,0c0-1.179,0.828-2.135,1.849-2.135h5.179
			C1303.066,699.672,1303.896,700.628,1303.896,701.807L1303.896,701.807z"/>
		<path opacity="0.7" fill="#115667" enable-background="new    " d="M1332.87,720.03c0,1.18-0.828,2.136-1.851,2.136h-5.178
			c-1.021,0-1.85-0.956-1.85-2.136l0,0c0-1.18,0.828-2.135,1.85-2.135h5.178C1332.042,717.896,1332.87,718.851,1332.87,720.03
			L1332.87,720.03z"/>
		<path fill="#115667" d="M1331.574,676.463c0,1.18-0.829,2.135-1.851,2.135h-12.328c-1.021,0-1.85-0.955-1.85-2.135l0,0
			c0-1.18,0.828-2.137,1.85-2.137h12.328C1330.745,674.326,1331.574,675.283,1331.574,676.463L1331.574,676.463z"/>
		<path fill="#115667" d="M1322.974,701.807c0,1.179-0.827,2.136-1.849,2.136h-12.33c-1.02,0-1.848-0.957-1.848-2.136l0,0
			c0-1.179,0.828-2.135,1.848-2.135h12.33C1322.146,699.672,1322.974,700.628,1322.974,701.807L1322.974,701.807z"/>
		<path opacity="0.7" fill="#115667" enable-background="new    " d="M1378.087,728.573c0,1.18-0.828,2.136-1.85,2.136h-30.516
			c-1.021,0-1.851-0.956-1.851-2.136l0,0c0-1.18,0.829-2.136,1.851-2.136h30.516
			C1377.259,726.438,1378.087,727.394,1378.087,728.573L1378.087,728.573z"/>
		<path opacity="0.7" fill="#115667" enable-background="new    " d="M1371.183,737.115c0,1.18-0.827,2.136-1.849,2.136h-30.517
			c-1.021,0-1.851-0.956-1.851-2.136l0,0c0-1.179,0.83-2.135,1.851-2.135h30.517C1370.355,734.98,1371.183,735.937,1371.183,737.115
			L1371.183,737.115z"/>
		<path fill="#115667" d="M1382.773,745.658c0,1.18-0.828,2.136-1.851,2.136h-30.517c-1.02,0-1.849-0.956-1.849-2.136l0,0
			c0-1.18,0.829-2.137,1.849-2.137h30.517C1381.945,743.521,1382.773,744.479,1382.773,745.658L1382.773,745.658z"/>
		<path opacity="0.7" fill="#115667" enable-background="new    " d="M1349.637,684.722c0,1.18-1.105,2.136-2.466,2.136h-34.521
			c-1.362,0-2.466-0.956-2.466-2.136l0,0c0-1.18,1.104-2.136,2.466-2.136h34.521
			C1348.531,682.586,1349.637,683.542,1349.637,684.722L1349.637,684.722z"/>
		<path fill="#115667" d="M1411.035,754.344c0,1.181-1.104,2.137-2.465,2.137h-34.521c-1.364,0-2.466-0.956-2.466-2.137l0,0
			c0-1.179,1.102-2.136,2.466-2.136h34.521C1409.932,752.208,1411.035,753.165,1411.035,754.344L1411.035,754.344z"/>
		<path opacity="0.7" fill="#115667" enable-background="new    " d="M1346.985,651.05c0,1.18-0.938,2.136-2.095,2.136h-18.495
			c-1.157,0-2.095-0.956-2.095-2.136l0,0c0-1.18,0.938-2.136,2.095-2.136h18.495C1346.048,648.914,1346.985,649.87,1346.985,651.05
			L1346.985,651.05z"/>
		<path opacity="0.3" fill="#115667" enable-background="new    " d="M1415.968,693.265c0,1.18-0.939,2.136-2.097,2.136h-18.494
			c-1.156,0-2.096-0.956-2.096-2.136l0,0c0-1.18,0.939-2.136,2.096-2.136h18.494
			C1415.028,691.129,1415.968,692.085,1415.968,693.265L1415.968,693.265z"/>
		<path opacity="0.7" fill="#115667" enable-background="new    " d="M1368.624,754.344c0,1.181-0.939,2.137-2.098,2.137h-18.493
			c-1.156,0-2.097-0.956-2.097-2.137l0,0c0-1.179,0.94-2.136,2.097-2.136h18.493
			C1367.686,752.208,1368.624,753.165,1368.624,754.344L1368.624,754.344z"/>
		<path opacity="0.7" fill="#115667" enable-background="new    " d="M1398.768,651.048c0,1.182-0.771,2.138-1.726,2.138h-45.37
			c-0.954,0-1.727-0.956-1.727-2.138l0,0c0-1.178,0.772-2.134,1.727-2.134h45.37C1397.996,648.914,1398.768,649.87,1398.768,651.048
			L1398.768,651.048z"/>
		<path opacity="0.7" fill="#115667" enable-background="new    " d="M1356.603,659.483c0,1.18-0.772,2.136-1.726,2.136h-45.371
			c-0.954,0-1.728-0.956-1.728-2.136l0,0c0-1.179,0.773-2.135,1.728-2.135h45.371
			C1355.83,657.349,1356.603,658.305,1356.603,659.483L1356.603,659.483z"/>
		<path opacity="0.3" fill="#115667" enable-background="new    " d="M1408.385,659.483c0,1.18-0.772,2.136-1.726,2.136h-45.37
			c-0.955,0-1.727-0.956-1.727-2.136l0,0c0-1.179,0.771-2.135,1.727-2.135h45.37
			C1407.612,657.349,1408.385,658.305,1408.385,659.483L1408.385,659.483z"/>
		<path opacity="0.7" fill="#115667" enable-background="new    " d="M1385.545,693.263c0,1.182-0.772,2.138-1.727,2.138h-45.37
			c-0.954,0-1.727-0.956-1.727-2.138l0,0c0-1.178,0.772-2.134,1.727-2.134h45.37
			C1384.772,691.129,1385.545,692.085,1385.545,693.263L1385.545,693.263z"/>
		<path opacity="0.7" fill="#115667" enable-background="new    " d="M1430.023,728.573c0,1.18-0.773,2.136-1.727,2.136h-45.371
			c-0.953,0-1.727-0.956-1.727-2.136l0,0c0-1.18,0.773-2.136,1.727-2.136h45.371C1429.25,726.438,1430.023,727.394,1430.023,728.573
			L1430.023,728.573z"/>
		<path opacity="0.7" fill="#115667" enable-background="new    " d="M1434.737,745.766c0,1.18-0.771,2.135-1.726,2.135h-45.37
			c-0.954,0-1.727-0.955-1.727-2.135l0,0c0-1.181,0.772-2.137,1.727-2.137h45.37
			C1433.966,743.629,1434.737,744.585,1434.737,745.766L1434.737,745.766z"/>
		<path opacity="0.3" fill="#115667" enable-background="new    " d="M1336.845,667.957c0,1.18-0.828,2.135-1.849,2.135h-28.111
			c-1.021,0-1.85-0.955-1.85-2.135l0,0c0-1.181,0.828-2.137,1.85-2.137h28.111C1336.017,665.82,1336.845,666.776,1336.845,667.957
			L1336.845,667.957z"/>
		<path fill="#115667" d="M1333.608,693.265c0,1.18-0.828,2.136-1.85,2.136h-28.111c-1.021,0-1.85-0.956-1.85-2.136l0,0
			c0-1.18,0.829-2.136,1.85-2.136h28.111C1332.78,691.129,1333.608,692.085,1333.608,693.265L1333.608,693.265z"/>
		<path opacity="0.3" fill="#115667" enable-background="new    " d="M1406.104,737.115c0,1.18-0.829,2.136-1.851,2.136h-28.11
			c-1.021,0-1.85-0.956-1.85-2.136l0,0c0-1.179,0.829-2.135,1.85-2.135h28.11C1405.275,734.98,1406.104,735.937,1406.104,737.115
			L1406.104,737.115z"/>
		<path opacity="0.7" fill="#115667" enable-background="new    " d="M1440.871,737.115c0,1.18-0.827,2.136-1.848,2.136h-28.111
			c-1.021,0-1.851-0.956-1.851-2.136l0,0c0-1.179,0.829-2.135,1.851-2.135h28.111
			C1440.044,734.98,1440.871,735.937,1440.871,737.115L1440.871,737.115z"/>
		<path opacity="0.3" fill="#115667" enable-background="new    " d="M1334.348,710.919c0,1.18-1.049,2.136-2.342,2.136h-10.356
			c-1.294,0-2.343-0.956-2.343-2.136l0,0c0-1.18,1.049-2.136,2.343-2.136h10.356
			C1333.299,708.783,1334.348,709.739,1334.348,710.919L1334.348,710.919z"/>
		<path opacity="0.3" fill="#115667" enable-background="new    " d="M1361.256,720.137c0,1.18-0.938,2.136-2.096,2.136h-21.207
			c-1.157,0-2.094-0.956-2.094-2.136l0,0c0-1.18,0.937-2.136,2.094-2.136h21.207
			C1360.317,718.001,1361.256,718.957,1361.256,720.137L1361.256,720.137z"/>
		<path fill="#115667" d="M1372.507,710.919c0,1.18-0.938,2.136-2.096,2.136h-16.769c-1.156,0-2.095-0.956-2.095-2.136l0,0
			c0-1.18,0.938-2.136,2.095-2.136h16.769C1371.568,708.783,1372.507,709.739,1372.507,710.919L1372.507,710.919z"/>
		<path opacity="0.7" fill="#115667" enable-background="new    " d="M1348.465,710.917c0,1.18-0.883,2.138-1.972,2.138h-7.151
			c-1.091,0-1.972-0.958-1.972-2.138l0,0c0-1.178,0.881-2.134,1.972-2.134h7.151
			C1347.582,708.783,1348.465,709.739,1348.465,710.917L1348.465,710.917z"/>
		<rect x="1458.516" y="658.664" opacity="0.2" fill="#667887" enable-background="new    " width="89.264" height="54.104"/>
		<g>
			<path fill="#FFFFFF" d="M1490.583,685.901c-0.087,0.054-0.183,0.099-0.286,0.138c-0.103,0.038-0.208,0.076-0.316,0.109
				c0.106,0.028,0.214,0.062,0.316,0.105c0.104,0.041,0.199,0.088,0.286,0.141l2.541,1.482c0.093,0.051,0.157,0.115,0.196,0.188
				c0.038,0.071,0.058,0.155,0.058,0.246v1.118l-4.931-2.963v-0.646l4.931-2.964v1.125c0,0.089-0.02,0.169-0.058,0.24
				c-0.039,0.073-0.104,0.136-0.196,0.188L1490.583,685.901z"/>
			<path fill="#FFFFFF" d="M1501.028,680.288v10.747h-0.818c-0.18,0-0.295-0.099-0.345-0.299l-0.12-0.805
				c-0.269,0.362-0.574,0.656-0.915,0.878c-0.342,0.223-0.739,0.335-1.191,0.335c-0.36,0-0.688-0.085-0.979-0.251
				c-0.296-0.167-0.547-0.41-0.757-0.729c-0.21-0.32-0.372-0.716-0.486-1.188c-0.115-0.473-0.174-1.015-0.174-1.623
				c0-0.551,0.064-1.063,0.192-1.532c0.129-0.47,0.312-0.878,0.549-1.223c0.24-0.348,0.531-0.62,0.874-0.815
				c0.341-0.195,0.724-0.293,1.147-0.293c0.378,0,0.695,0.068,0.961,0.206c0.265,0.138,0.501,0.331,0.711,0.577v-3.985H1501.028
				L1501.028,680.288z M1499.676,685.452c-0.188-0.282-0.396-0.479-0.622-0.589c-0.228-0.112-0.473-0.167-0.736-0.167
				c-0.527,0-0.939,0.226-1.238,0.673c-0.297,0.447-0.446,1.109-0.446,1.985c0,0.455,0.033,0.843,0.1,1.164
				c0.067,0.323,0.164,0.586,0.29,0.788c0.126,0.203,0.279,0.352,0.46,0.444c0.179,0.091,0.383,0.138,0.607,0.138
				c0.347,0,0.641-0.087,0.891-0.258c0.249-0.173,0.481-0.416,0.695-0.729V685.452L1499.676,685.452z"/>
			<path fill="#FFFFFF" d="M1504.311,681.392c0,0.14-0.023,0.272-0.073,0.399c-0.049,0.127-0.113,0.235-0.199,0.331
				c-0.082,0.095-0.181,0.17-0.291,0.226c-0.112,0.055-0.231,0.084-0.355,0.084c-0.122,0-0.234-0.027-0.344-0.084
				c-0.106-0.056-0.199-0.131-0.278-0.226c-0.081-0.094-0.145-0.204-0.193-0.331c-0.047-0.125-0.073-0.26-0.073-0.399
				c0-0.146,0.025-0.279,0.073-0.406c0.049-0.124,0.112-0.237,0.193-0.331c0.079-0.094,0.172-0.169,0.278-0.227
				c0.109-0.054,0.222-0.083,0.344-0.083c0.126,0,0.243,0.029,0.355,0.083c0.11,0.058,0.209,0.131,0.291,0.227
				c0.085,0.094,0.15,0.205,0.199,0.331C1504.287,681.112,1504.311,681.246,1504.311,681.392z M1504.085,683.629v7.406h-1.354
				v-7.406H1504.085z"/>
			<path fill="#FFFFFF" d="M1511.434,683.629l-2.577,7.406h-1.22l-2.578-7.406h1.113c0.104,0,0.192,0.03,0.262,0.091
				c0.068,0.06,0.113,0.131,0.135,0.212l1.421,4.315c0.058,0.201,0.111,0.403,0.158,0.603c0.047,0.198,0.085,0.398,0.12,0.602
				c0.033-0.203,0.074-0.403,0.121-0.599c0.048-0.195,0.103-0.398,0.161-0.605l1.446-4.315c0.025-0.087,0.072-0.16,0.138-0.216
				c0.066-0.059,0.149-0.089,0.246-0.089h1.054V683.629z"/>
			<path fill="#FFFFFF" d="M1517.848,685.821v0.646l-4.93,2.963v-1.118c0-0.091,0.02-0.175,0.057-0.246
				c0.039-0.073,0.104-0.136,0.195-0.188l2.541-1.482c0.088-0.053,0.183-0.1,0.286-0.141c0.104-0.043,0.209-0.077,0.318-0.105
				c-0.109-0.033-0.215-0.071-0.318-0.109c-0.104-0.039-0.198-0.084-0.286-0.138l-2.541-1.488c-0.092-0.053-0.156-0.117-0.195-0.188
				c-0.037-0.073-0.057-0.153-0.057-0.24v-1.125L1517.848,685.821z"/>
		</g>
		<rect x="1475.036" y="628.605" opacity="0.3" fill="#667887" enable-background="new    " width="56.221" height="17.083"/>
		<g>
			<path fill="#FFFFFF" d="M1491.797,637.387c-0.087,0.053-0.184,0.098-0.285,0.138c-0.104,0.039-0.209,0.075-0.316,0.108
				c0.107,0.028,0.213,0.063,0.316,0.105c0.102,0.042,0.198,0.089,0.285,0.143l2.543,1.48c0.091,0.053,0.156,0.115,0.193,0.188
				c0.039,0.073,0.057,0.155,0.057,0.248v1.118l-4.928-2.964v-0.646l4.928-2.963v1.124c0,0.089-0.018,0.169-0.057,0.24
				c-0.037,0.074-0.103,0.136-0.193,0.189L1491.797,637.387z"/>
			<path fill="#FFFFFF" d="M1498.148,635.991c0.265-0.301,0.553-0.54,0.867-0.722c0.314-0.183,0.683-0.272,1.101-0.272
				c0.352,0,0.662,0.068,0.927,0.203c0.268,0.136,0.491,0.327,0.674,0.574s0.32,0.542,0.411,0.89
				c0.092,0.345,0.139,0.727,0.139,1.143v4.713h-1.344v-4.713c0-0.497-0.101-0.886-0.298-1.162c-0.2-0.274-0.503-0.413-0.91-0.413
				c-0.302,0-0.581,0.081-0.84,0.24c-0.258,0.16-0.5,0.378-0.725,0.654v5.394h-1.354v-10.747h1.354v4.219H1498.148z"/>
			<path fill="#FFFFFF" d="M1509.485,641.336v1.184h-4.936v-1.184h1.887v-6.55c0-0.23,0.007-0.47,0.019-0.712l-1.453,1.417
				c-0.062,0.058-0.128,0.095-0.191,0.11c-0.066,0.02-0.126,0.02-0.184,0.006c-0.056-0.015-0.106-0.038-0.15-0.069
				c-0.043-0.032-0.078-0.067-0.104-0.105l-0.422-0.682l2.728-2.71h1.101v9.295H1509.485z"/>
			<path fill="#FFFFFF" d="M1516.634,637.306v0.646l-4.93,2.964v-1.118c0-0.093,0.019-0.175,0.058-0.248
				c0.036-0.073,0.102-0.135,0.194-0.188l2.541-1.48c0.089-0.054,0.184-0.101,0.285-0.143c0.104-0.042,0.209-0.077,0.319-0.105
				c-0.109-0.033-0.216-0.069-0.319-0.108c-0.102-0.04-0.196-0.085-0.285-0.138l-2.541-1.488c-0.093-0.055-0.158-0.117-0.194-0.189
				c-0.039-0.073-0.058-0.153-0.058-0.239v-1.125L1516.634,637.306z"/>
		</g>
	</g>
	<path display="inline" fill="#F6F9FA" d="M1371.857,791.077c0,0-93.236-5.125-97.876,8.817
		c-9.417,8.318,175.194,3.712,221.897,2.562c54.061-1.331,136.339,2.518,136.121-2.562c-0.328-7.677-20.437-6.144-46.946-8.817
		C1557.942,788.344,1424.328,793.389,1371.857,791.077z"/>
	<path display="inline" fill="#FAF7F2" stroke="#1C1C1B" stroke-miterlimit="10" d="M1561.878,628.055
		c0,4.167-1.552,7.259-3.417,7.547c-3.702,0.568-5.127-3.235-5.127-7.404c0-4.167,1.71-7.404,5.127-7.688
		C1560.341,620.353,1561.878,623.889,1561.878,628.055z"/>
	<path display="inline" fill="#FAF7F2" stroke="#1C1C1B" stroke-miterlimit="10" d="M1561.878,700.667
		c0,4.168-1.552,7.261-3.417,7.546c-3.702,0.57-5.411-3.805-5.411-7.973c0-4.167,1.994-6.835,5.411-7.118
		C1560.341,692.965,1561.878,696.502,1561.878,700.667z"/>
	<g display="inline">
		<g>
			<path fill="#FAF7F2" stroke="#1C1C1B" stroke-miterlimit="10" d="M1613.501,668.367c-11.065,8.508-26.216,7.365-33.842-2.554
				c-7.624-9.917-4.835-24.854,6.229-33.362c11.062-8.505,26.214-7.36,33.839,2.557
				C1627.354,644.927,1624.564,659.863,1613.501,668.367z"/>
			<path fill="#1C1C1B" d="M1594.057,645.61c-0.673,0.518-1.725,0.284-2.346-0.525c-0.624-0.814-0.582-1.889,0.092-2.405
				c0.674-0.518,1.725-0.286,2.349,0.526C1594.773,644.018,1594.73,645.094,1594.057,645.61z"/>
			
				<ellipse transform="matrix(0.7929 -0.6093 0.6093 0.7929 -69.2699 1113.9253)" fill="#1C1C1B" cx="1604.15" cy="658.871" rx="1.54" ry="1.849"/>
			<path fill="none" stroke="#1C1C1B" stroke-linecap="round" stroke-linejoin="round" stroke-miterlimit="10" d="M1596.949,650.385
				c0,0-8.098,3.114-6.783,4.827c1.314,1.71,1.314,1.71,1.314,1.71"/>
		</g>
		<path fill="#121519" d="M1624.341,630.396l0.003-0.003c-0.021-0.032-0.048-0.057-0.072-0.089
			c-0.023-0.031-0.043-0.062-0.069-0.093l-0.003,0.001c-22.352-30.263-51.795,6.951-51.795,6.951s-3.115,8.715,2.183,8.526
			c15.01-14.895,37.36-9.047,39.092-7.172c1.044,2.116,1.206,25.168-17.048,35.845c-1.543,5.073,7.681,4.303,7.681,4.303
			S1647.841,659.776,1624.341,630.396z"/>
	</g>
	
		<path display="inline" fill="#121519" stroke="#1C1C1B" stroke-linecap="round" stroke-linejoin="round" stroke-miterlimit="10" d="
		M374.883,246.841c-1.371-2.457-5.83-8.774-5.83-8.774s-1.155,0.778-3.055,1.865c-1.416-18.859-4.808-35.61-12.375-36.065
		c-17.489-1.054-38.064,0-39.437,18.952c-0.911,12.566-0.736,23.061,6.361,30.17l-0.188,0.368v39.661h45.953
		c0,0,1.031-18.935,0.395-39.353C370.991,250.604,373.832,247.647,374.883,246.841z"/>
	<g display="inline">
		<path fill="#FAF7F2" stroke="#1C1C1B" stroke-miterlimit="10" d="M317.08,180.881c0,15.34,9.518,27.779,21.256,27.779
			c11.736,0,21.25-12.439,21.25-27.779c0-15.341-9.145-22.185-20.88-22.185C326.967,158.698,317.08,165.542,317.08,180.881z"/>
	</g>
	<g display="inline">
		<ellipse fill="#1C1C1B" cx="350.638" cy="184.019" rx="1.493" ry="1.864"/>
		<path fill="none" stroke="#1C1C1B" stroke-linecap="round" stroke-linejoin="round" stroke-miterlimit="10" d="M343.925,183.462
			c0,0,2.985,10.068,0.375,10.068c-2.61,0-2.61,0-2.61,0"/>
		<ellipse fill="#1C1C1B" cx="335.909" cy="185.325" rx="1.492" ry="1.863"/>
	</g>
	<path display="inline" fill="#121519" d="M343.263,168.697c0,0-18.725,16.288-19.286,35.583
		c-5.584,4.772-18.549-18.92-9.881-37.378c8.669-18.457,32.312-13.128,38.779-9.321c6.693,3.609,13.411,16.727,11.503,29.418
		c-2.143,14.263-2.815,14.312-4.106,14.077c-0.654-0.092-2.933-2.464-3.716-4.905C355.259,193.942,360.742,167.905,343.263,168.697z
		"/>
	<path display="inline" fill="none" stroke="#010202" stroke-linecap="round" stroke-linejoin="round" stroke-miterlimit="10" d="
		M474.219,641.494c1.99,1.103,4.311,0.706,5.189-0.882"/>
	<path display="inline" fill="none" stroke="#010202" stroke-linecap="round" stroke-linejoin="round" stroke-miterlimit="10" d="
		M340.153,201.344c1.734,1.254,3.999,1.077,5.063-0.396"/>
	<path display="inline" fill="none" stroke="#010202" stroke-linecap="round" stroke-linejoin="round" stroke-miterlimit="10" d="
		M956.492,610.303c1.846,1.852,4.833,1.854,6.688,0.011"/>
	<path display="inline" fill="none" stroke="#010202" stroke-linecap="round" stroke-linejoin="round" stroke-miterlimit="10" d="
		M1582.793,656.972c-0.521,2.55,1.119,5.033,3.669,5.559"/>
	
		<path display="inline" fill="#121519" stroke="#1C1C1B" stroke-linecap="round" stroke-linejoin="round" stroke-miterlimit="10" d="
		M314.187,222.819c-1.347,18.581-0.342,32.644,21.947,37.908c21.093,4.984,36.004-11.779,38.749-13.886
		c-1.371-2.457-5.83-8.774-5.83-8.774s-34.636,23.364-37.379-6.823"/>
</g>
<g id="_x38_34_1_">
	
		<line fill="none" stroke="#010202" stroke-linecap="round" stroke-linejoin="round" stroke-miterlimit="10" x1="957.101" y1="609.319" x2="960.799" y2="609.011"/>
	<ellipse fill="#030405" cx="959.681" cy="660.473" rx="4.623" ry="3.543"/>
	<path fill="#667887" enable-background="new    " d="M1025.495,664.031c1.945,2.402,2.563,4.823,1.379,5.396
		c-1.181,0.58-3.715-0.903-5.661-3.308c-1.944-2.404-2.563-4.822-1.38-5.399C1021.016,660.14,1023.549,661.626,1025.495,664.031z"/>
	<path fill="#667887" enable-background="new    " d="M1031.624,664.146c-1.943,2.402-2.562,4.821-1.379,5.397
		c1.183,0.581,3.716-0.905,5.661-3.309c1.946-2.404,2.563-4.823,1.38-5.397C1036.104,660.257,1033.571,661.741,1031.624,664.146z"/>
	<path fill="#667887" enable-background="new    " d="M1031.055,662.393c0.061,4.053-1.016,7.35-2.413,7.362
		c-1.397,0.017-2.581-3.26-2.646-7.309c-0.062-4.053,1.017-7.352,2.413-7.362C1029.807,655.067,1030.989,658.343,1031.055,662.393z"
		/>
	<path fill="#F6F9FA" d="M903.011,790.295c0,0-49.115-1.66-51.795,8.699c-6.25,6.908,129.036,8.954,158.057,4.096
		c29.633-4.964,64.299-4.481,64.299-8.7c0-4.223-10.941-4.988-29.023-4.605C1026.462,790.169,937.835,792.215,903.011,790.295z"/>
	<g>
		
			<line fill="none" stroke="#ECECEC" stroke-width="1.5" stroke-linecap="round" stroke-linejoin="round" stroke-miterlimit="10" x1="915.765" y1="795.61" x2="937.029" y2="691.598"/>
		
			<line fill="none" stroke="#ECECEC" stroke-width="1.5" stroke-linecap="round" stroke-linejoin="round" stroke-miterlimit="10" x1="1003.599" y1="795.61" x2="982.332" y2="691.598"/>
		
			<line fill="none" stroke="#ECECEC" stroke-width="1.5" stroke-linecap="round" stroke-linejoin="round" stroke-miterlimit="10" x1="927.321" y1="738.854" x2="991.076" y2="738.854"/>
	</g>
	<path fill="#ECECEC" stroke="#ECECEC" stroke-linecap="round" stroke-linejoin="round" stroke-miterlimit="10" d="
		M1000.979,707.007c0,3.064-2.484,5.548-5.548,5.548h-71.5c-3.063,0-5.548-2.483-5.548-5.548v-3.698
		c0-3.063,2.485-5.549,5.548-5.549h71.5c3.063,0,5.548,2.485,5.548,5.549V707.007z"/>
	<polygon fill="#FAF7F2" stroke="#1C1C1B" stroke-miterlimit="10" points="921.43,692.523 911.454,692.523 911.454,700.843 
		922.815,700.843 922.815,692.523 	"/>
	<path fill="#121519" stroke="#121519" stroke-linecap="round" stroke-linejoin="round" stroke-miterlimit="10" d="M908.138,702.925
		c-3.128,0-3.815-2.794-3.815-6.241s0.687-6.241,3.815-6.241s5.664,2.794,5.664,6.241S911.266,702.925,908.138,702.925z"/>
	<polygon fill="#FAF7F2" stroke="#1C1C1B" stroke-miterlimit="10" points="947.386,778.482 947.386,788.304 955.706,788.304 
		955.706,777.12 947.386,777.12 	"/>
	<path fill="#ECECEC" stroke="#ECECEC" stroke-linecap="round" stroke-linejoin="round" stroke-miterlimit="10" d="M994.006,647.914
		c0,3.064,2.832,6.007-0.232,6.007h-68.185c-3.063,0-0.694-1.788-0.694-4.854l-4.854-46.457c0-3.066,2.484-5.548,5.548-5.548h68.185
		c3.064,0,5.547,2.481,5.547,5.548L994.006,647.914z"/>
	
		<ellipse fill="#121519" stroke="#1C1C1B" stroke-linecap="round" stroke-linejoin="round" stroke-miterlimit="10" cx="959.681" cy="648.607" rx="41.49" ry="36.751"/>
	<path fill="#0E5767" d="M996.777,674.967c0,3.568-3.211,6.46-7.179,6.46h-59.836c-3.966,0-7.179-2.894-7.179-6.46v-31.225
		c0-3.571,3.213-6.461,7.179-6.461h59.836c3.969,0,7.179,2.893,7.179,6.461V674.967L996.777,674.967z"/>
	<g>
		<path fill="#FAF7F2" stroke="#1C1C1B" stroke-miterlimit="10" d="M983.295,592.978c0,13.957-10.142,25.273-22.654,25.273
			c-12.509,0-22.65-11.316-22.65-25.273c0-13.953,10.142-25.27,22.65-25.27C973.153,567.708,983.295,579.024,983.295,592.978z"/>
		<path fill="#1C1C1B" d="M953.402,594.523c0,0.849-0.827,1.538-1.848,1.538c-1.024,0-1.851-0.689-1.851-1.538
			c0-0.851,0.826-1.542,1.851-1.542C952.576,592.981,953.402,593.673,953.402,594.523z"/>
		<ellipse fill="#1C1C1B" cx="970.045" cy="594.522" rx="1.851" ry="1.539"/>
		<path fill="none" stroke="#1C1C1B" stroke-linecap="round" stroke-linejoin="round" stroke-miterlimit="10" d="M958.949,595.139
			c0,0-2.465,8.321-0.308,8.321c2.158,0,2.157,0,2.157,0"/>
	</g>
	<g>
		
			<polyline fill="none" stroke="#ECECEC" stroke-width="1.5" stroke-linecap="round" stroke-linejoin="round" stroke-miterlimit="10" points="
			860.524,795.61 881.787,691.598 902.127,795.61 		"/>
		
			<line fill="none" stroke="#ECECEC" stroke-width="1.5" stroke-linecap="round" stroke-linejoin="round" stroke-miterlimit="10" x1="868.382" y1="757.347" x2="894.577" y2="757.347"/>
	</g>
	<g>
		
			<polyline fill="none" stroke="#ECECEC" stroke-width="1.5" stroke-linecap="round" stroke-linejoin="round" stroke-miterlimit="10" points="
			1017.697,795.61 1038.962,691.598 1059.301,795.61 		"/>
		
			<line fill="none" stroke="#ECECEC" stroke-width="1.5" stroke-linecap="round" stroke-linejoin="round" stroke-miterlimit="10" x1="1025.555" y1="757.347" x2="1051.75" y2="757.347"/>
	</g>
	<path fill="#FFFFFF" stroke="#1C1C1B" stroke-linecap="round" stroke-linejoin="round" stroke-miterlimit="10" d="M1005.33,688.593
		c0,0,0.951,24.259-62.234,18.394c-17.464-2.295-21.593-2.803-21.593-2.803l0.156-15.591H1005.33z"/>
	<path fill="#FFFFFF" stroke="#1C1C1B" stroke-linecap="round" stroke-linejoin="round" stroke-miterlimit="10" d="M931.598,691.83
		c0,0-3.005,16.18,1.388,36.98c4.391,20.805,10.631,48.539,10.631,48.539h15.254c0,0-3.467-68.646-1.618-76.275l1.156-13.405
		l-24.039-1.85L931.598,691.83z"/>
	<path fill="#121519" stroke="#121519" stroke-linecap="round" stroke-linejoin="round" stroke-miterlimit="10" d="M957.787,791.796
		c0,3.127-2.793,3.814-6.241,3.814c-3.446,0-6.24-0.688-6.24-3.814c0-3.126,2.794-5.662,6.24-5.662
		C954.994,786.134,957.787,788.67,957.787,791.796z"/>
	<path fill="#FFFFFF" stroke="#ECECEC" stroke-linecap="round" stroke-linejoin="round" stroke-miterlimit="10" d="
		M1038.925,670.181c0-1.178-0.954-2.134-2.132-2.134h-16.152c-1.178,0-2.132,0.956-2.132,2.134c0,1.179,0.954,2.135,2.132,2.135
		h0.24l0.572,9.345h14.729l0.666-9.356C1037.998,672.272,1038.925,671.339,1038.925,670.181z"/>
	<path fill="#121519" d="M959.797,561.24v-0.003c-0.04-0.004-0.075,0.001-0.116,0.001s-0.077-0.005-0.116-0.001v0.003
		c-37.618-0.725-26.059,45.298-26.059,45.298s5.01,7.782,8.091,3.469c-2.659-20.98,15.6-35.134,18.14-35.363
		c2.312,0.462,20.688,14.383,18.027,35.363c3.082,4.314,8.093-3.469,8.093-3.469S997.413,560.516,959.797,561.24z"/>
	<circle fill="#FFFFFF" cx="959.681" cy="659.355" r="6.163"/>
	<path fill="#ECEBEC" stroke="#ECECEC" stroke-linecap="round" stroke-linejoin="round" stroke-miterlimit="10" d="
		M1052.367,681.659H865.376c-5.546,0-5.315,9.707-5.315,9.707h199.24C1059.301,691.367,1059.301,681.659,1052.367,681.659z"/>
	<g>
		<path fill="none" stroke="#ECEBEC" stroke-linecap="round" stroke-linejoin="round" stroke-miterlimit="10" d="M910.669,347.533
			c0,0-4.933-15.717-14.487-7.704c-9.552,8.012-10.493,31.112-9.86,37.906c1.232,13.251,4.931,19.417,7.087,24.346"/>
		<rect x="853.346" y="174.027" fill="#ECEBEC" width="94.306" height="122.657"/>
		<rect x="866.628" y="191.303" fill="#FFFFFF" width="67.738" height="88.105"/>
		<rect x="983.855" y="213.239" fill="#ECEBEC" width="56.211" height="67.723"/>
		<rect x="988.415" y="218.734" fill="#FFFFFF" width="47.09" height="56.732"/>
		<rect x="998.076" y="230.374" fill="#ECEBEC" width="27.768" height="33.452"/>
		
			<ellipse transform="matrix(-0.4192 -0.9079 0.9079 -0.4192 1207.01 1268.5007)" fill="#FFFFFF" cx="1009.258" cy="248.166" rx="10.301" ry="5.603"/>
		
			<ellipse transform="matrix(-0.4193 0.9079 -0.9079 -0.4193 1665.4989 -568.9744)" fill="#FFFFFF" cx="1014.723" cy="248.185" rx="10.3" ry="5.601"/>
		<circle fill="#ECEBEC" cx="1042.879" cy="330.721" r="24.963"/>
		<path fill="#FFFFFF" d="M1050.748,339.42l-5.594-7.119c0.312-0.449,0.499-0.993,0.499-1.58c0-1.206-0.776-2.221-1.851-2.604
			v-15.578c0-0.51-0.413-0.924-0.924-0.924c-0.512,0-0.925,0.413-0.925,0.924v15.578c-1.075,0.383-1.849,1.398-1.849,2.604
			c0,1.532,1.241,2.774,2.773,2.774c0.266,0,0.521-0.051,0.767-0.121l5.646,7.19c0.185,0.231,0.456,0.354,0.73,0.354
			c0.196,0,0.401-0.065,0.57-0.198C1050.993,340.403,1051.063,339.822,1050.748,339.42z"/>
		<path fill="#ECEBEC" d="M976.952,344.08c2.937,1.492,5.048,3.623,5.929,6.809c0.991,3.59,0.434,6.922-1.817,9.902
			c-1.627,2.159-3.814,3.494-6.48,4.017c-0.805,0.157-1.617,0.216-2.436,0.216c-2.938,0-5.875,0.003-8.814-0.001
			c-1.043-0.001-2.067-0.141-3.046-0.525c-2.133-0.842-3.683-2.309-4.552-4.428c-1.372-3.335-0.408-6.997,2.388-9.27
			c0.146-0.12,0.396-0.219,0.417-0.356c0.018-0.129-0.203-0.292-0.312-0.448c-0.149-0.213-0.32-0.419-0.401-0.671
			c-0.074-0.228-0.223-0.296-0.437-0.331c-0.832-0.127-1.63-0.356-2.382-0.742c-0.856-0.436-1.457-1.098-1.785-2.002
			c-0.209-0.581,0.248-1.176,0.943-1.186c0.902-0.012,1.792-0.105,2.68-0.246c0.199-0.031,0.277-0.109,0.332-0.305
			c0.69-2.581,2.272-4.392,4.85-5.131c2.722-0.779,5.16-0.123,7.115,1.97c1.402,1.499,1.951,3.321,1.799,5.368
			c-0.07,0.94-0.317,1.823-0.761,2.649c-0.072,0.134-0.103,0.196,0.089,0.24c2.201,0.484,4.153,0.041,5.737-1.607
			c0.75-0.777,1.058-1.771,1.048-2.853C977.055,344.805,977.035,344.465,976.952,344.08z M963.979,344.105
			c0.017-0.619-0.362-1.025-0.963-1.033c-0.534-0.008-0.983,0.406-0.999,0.922c-0.023,0.639,0.328,1.042,0.921,1.062
			C963.562,345.077,963.962,344.712,963.979,344.105z"/>
		<g>
			<path fill="none" stroke="#ECEBEC" stroke-linecap="round" stroke-linejoin="round" stroke-miterlimit="10" d="M911.603,347.533
				c0,0,4.931-15.717,14.486-7.704c9.552,8.012,10.492,31.112,9.86,37.906c-1.231,13.251-4.93,19.417-7.086,24.346"/>
			<path fill="#ECEBEC" d="M929.296,338.384c-1.108,1.847-1.298,3.574-0.43,3.856c0.871,0.285,2.474-0.983,3.583-2.828
				c1.109-1.847,1.301-3.572,0.43-3.855C932.006,335.271,930.404,336.54,929.296,338.384z"/>
			<path fill="#ECEBEC" d="M928.139,351.097c-1.107,1.847-1.299,3.572-0.43,3.856c0.872,0.285,2.475-0.983,3.583-2.829
				c1.108-1.846,1.299-3.572,0.429-3.855C930.852,347.983,929.25,349.252,928.139,351.097z"/>
			<path fill="#ECEBEC" d="M938.251,357.512c-2.148,0.181-3.659,1.035-3.378,1.909c0.277,0.872,2.247,1.431,4.39,1.25
				c2.146-0.181,3.658-1.035,3.38-1.907C942.361,357.891,940.397,357.333,938.251,357.512z"/>
			<path fill="#ECEBEC" d="M931.437,360.748c-2.144,0.179-3.657,1.034-3.375,1.906c0.278,0.874,2.243,1.431,4.387,1.25
				c2.146-0.177,3.658-1.034,3.376-1.905C935.548,361.125,933.583,360.566,931.437,360.748z"/>
			<path fill="#ECEBEC" d="M939.299,377.621c-2.031-0.714-3.761-0.555-3.861,0.357c-0.103,0.91,1.46,2.225,3.49,2.937
				c2.033,0.716,3.762,0.555,3.865-0.355C942.895,379.648,941.33,378.336,939.299,377.621z"/>
			<path fill="#ECEBEC" d="M931.941,377.188c-2.028-0.713-3.759-0.556-3.859,0.356c-0.102,0.91,1.462,2.225,3.493,2.937
				c2.031,0.718,3.76,0.555,3.859-0.354C935.541,379.216,933.977,377.902,931.941,377.188z"/>
			<path fill="#ECEBEC" d="M937.108,392.708c-1.884-1.043-3.614-1.175-3.867-0.292c-0.255,0.88,1.068,2.437,2.951,3.479
				c1.885,1.046,3.617,1.174,3.867,0.295C940.315,395.307,938.99,393.75,937.108,392.708z"/>
			<path fill="#ECEBEC" d="M928.902,390.175c-1.882-1.042-3.615-1.175-3.866-0.291c-0.253,0.878,1.07,2.434,2.954,3.477
				c1.883,1.046,3.614,1.177,3.867,0.296C932.109,392.776,930.787,391.221,928.902,390.175z"/>
			<path fill="#ECEBEC" d="M931.32,403.545c-0.869-1.973-2.165-3.125-2.902-2.574c-0.73,0.546-0.62,2.583,0.246,4.553
				c0.864,1.975,2.165,3.127,2.896,2.579C932.294,407.557,932.186,405.517,931.32,403.545z"/>
			<path fill="#ECEBEC" d="M925.878,403.073c1.237-1.762,2.736-2.639,3.346-1.955c0.613,0.677,0.106,2.653-1.13,4.417
				c-1.235,1.766-2.735,2.642-3.345,1.96C924.134,406.814,924.64,404.835,925.878,403.073z"/>
		</g>
		<path fill="#FFFFFF" stroke="#ECEBEC" stroke-linecap="round" stroke-linejoin="round" stroke-miterlimit="10" d="M925.926,347.5
			c0-1.924-1.343-3.486-3.003-3.486h-22.732c-1.657,0-3.003,1.562-3.003,3.486c0,1.926,1.346,3.487,3.003,3.487h0.336l0.805,15.27
			h20.735l0.937-15.289C924.623,350.916,925.926,349.394,925.926,347.5z"/>
		
			<rect x="892.711" y="364.682" transform="matrix(-1 -0.0069 0.0069 -1 1881.5947 739.7126)" fill="#ECEBEC" width="98.726" height="3.854"/>
		<path fill="none" stroke="#ECEBEC" stroke-linecap="round" stroke-linejoin="round" stroke-miterlimit="10" d="M912.747,343.604
			c0,0,2.081-6.703-2.542-6.472c-3.943,0.197-4.854,24.038-1.618,39.062c3.237,15.024,2.312,24.501,2.312,24.501"/>
		<path fill="#ECEBEC" d="M892.975,338.384c1.108,1.847,1.299,3.574,0.43,3.856c-0.872,0.285-2.474-0.983-3.582-2.828
			c-1.109-1.847-1.302-3.572-0.429-3.855C890.264,335.271,891.866,336.54,892.975,338.384z"/>
		<path fill="#ECEBEC" d="M894.13,349.248c1.108,1.847,1.3,3.573,0.43,3.856c-0.871,0.285-2.473-0.983-3.583-2.827
			c-1.11-1.847-1.301-3.574-0.43-3.856C891.421,346.135,893.022,347.403,894.13,349.248z"/>
		<path fill="#ECEBEC" d="M884.021,357.512c2.146,0.181,3.659,1.035,3.378,1.909c-0.278,0.872-2.245,1.431-4.388,1.25
			c-2.147-0.181-3.66-1.035-3.38-1.907C879.91,357.891,881.875,357.333,884.021,357.512z"/>
		<path fill="#ECEBEC" d="M890.833,360.748c2.146,0.179,3.66,1.034,3.377,1.906c-0.278,0.874-2.243,1.431-4.387,1.25
			c-2.146-0.177-3.66-1.034-3.378-1.905C886.724,361.125,888.688,360.566,890.833,360.748z"/>
		<path fill="#ECEBEC" d="M881.814,378.314c2.032-0.713,3.762-0.555,3.861,0.358c0.104,0.91-1.46,2.224-3.491,2.937
			c-2.032,0.717-3.76,0.555-3.862-0.356C878.22,380.342,879.785,379.029,881.814,378.314z"/>
		<path fill="#ECEBEC" d="M890.327,377.188c2.029-0.713,3.76-0.556,3.862,0.356c0.102,0.91-1.462,2.225-3.493,2.937
			c-2.032,0.718-3.761,0.555-3.861-0.354C886.73,379.216,888.295,377.902,890.327,377.188z"/>
		<path fill="#ECEBEC" d="M885.164,392.708c1.883-1.043,3.616-1.175,3.868-0.292c0.255,0.88-1.068,2.437-2.952,3.479
			c-1.884,1.046-3.617,1.174-3.869,0.295C881.956,395.307,883.281,393.75,885.164,392.708z"/>
		<path fill="#ECEBEC" d="M892.992,391.043c2.048-0.658,3.774-0.453,3.85,0.462c0.077,0.912-1.523,2.18-3.571,2.837
			c-2.052,0.661-3.776,0.457-3.851-0.459C889.342,392.971,890.94,391.7,892.992,391.043z"/>
		<path fill="#ECEBEC" d="M890.953,403.545c0.867-1.973,2.164-3.125,2.901-2.574c0.732,0.546,0.621,2.583-0.246,4.553
			c-0.864,1.975-2.164,3.127-2.896,2.579C889.976,407.557,890.086,405.517,890.953,403.545z"/>
		<path fill="#ECEBEC" d="M896.394,403.073c-1.237-1.762-2.735-2.639-3.346-1.955c-0.615,0.677-0.104,2.653,1.13,4.417
			c1.235,1.766,2.733,2.642,3.344,1.96C898.138,406.814,897.63,404.835,896.394,403.073z"/>
		<path fill="#ECEBEC" d="M911.972,333.712c0.011,2.154-0.705,3.736-1.598,3.535c-0.894-0.199-1.626-2.106-1.639-4.259
			c-0.014-2.153,0.701-3.737,1.595-3.537C911.226,329.651,911.958,331.56,911.972,333.712z"/>
		<path fill="#ECEBEC" d="M904.232,355.18c2.122,0.364,3.556,1.345,3.202,2.189c-0.352,0.846-2.361,1.235-4.48,0.871
			c-2.124-0.362-3.558-1.343-3.204-2.189C900.103,355.206,902.108,354.817,904.232,355.18z"/>
		<path fill="#ECEBEC" d="M910.744,358.985c2.121,0.365,3.556,1.346,3.199,2.19c-0.351,0.844-2.358,1.233-4.479,0.869
			c-2.123-0.361-3.558-1.343-3.202-2.188C906.616,359.01,908.622,358.623,910.744,358.985z"/>
		<path fill="#ECEBEC" d="M905.803,375.718c2.083-0.536,3.796-0.231,3.816,0.686c0.026,0.915-1.646,2.09-3.73,2.63
			c-2.083,0.538-3.793,0.23-3.817-0.686C902.047,377.432,903.719,376.255,905.803,375.718z"/>
		<path fill="#ECEBEC" d="M912.532,375.321c2.083-0.536,3.792-0.231,3.813,0.688c0.026,0.914-1.644,2.09-3.728,2.626
			c-2.087,0.54-3.794,0.231-3.816-0.682C908.773,377.035,910.445,375.862,912.532,375.321z"/>
		<path fill="#ECEBEC" d="M906.984,390.807c1.965-0.878,3.703-0.861,3.879,0.04c0.178,0.898-1.277,2.337-3.24,3.215
			c-1.966,0.879-3.702,0.86-3.879-0.039C903.567,393.122,905.019,391.684,906.984,390.807z"/>
		<path fill="#ECEBEC" d="M914.45,388.524c1.966-0.878,3.702-0.864,3.877,0.04c0.179,0.896-1.276,2.332-3.237,3.211
			c-1.965,0.88-3.705,0.864-3.878-0.035C911.033,390.841,912.484,389.403,914.45,388.524z"/>
		<path fill="#ECEBEC" d="M909.05,401.637c1.033-1.891,2.423-2.93,3.11-2.317c0.684,0.608,0.399,2.628-0.632,4.517
			c-1.03,1.892-2.424,2.931-3.105,2.323C907.735,405.551,908.019,403.525,909.05,401.637z"/>
		<path fill="#ECEBEC" d="M914.511,401.631c-1.081-1.861-2.499-2.863-3.167-2.233c-0.669,0.623-0.331,2.636,0.75,4.497
			c1.078,1.867,2.499,2.868,3.163,2.242C915.929,405.51,915.594,403.493,914.511,401.631z"/>
		<path fill="none" stroke="#ECEBEC" stroke-miterlimit="10" d="M871.097,280.697c0-18.279,12.694-33.091,28.353-33.091
			s28.353,14.812,28.353,33.091H871.097L871.097,280.697z"/>
		<g>
			<path fill="#FFFFFF" stroke="#ECEBEC" stroke-miterlimit="10" d="M917.325,233.521c0,12.163-8.004,22.02-17.877,22.02
				c-9.871,0-17.873-9.858-17.873-22.02c0-12.157,8.002-22.018,17.873-22.018C909.321,211.502,917.325,221.363,917.325,233.521z"/>
			<path fill="#ECEBEC" d="M893.735,232.661c0,0.671-0.649,1.217-1.457,1.217c-0.809,0-1.458-0.545-1.458-1.217
				s0.649-1.216,1.458-1.216C893.084,231.445,893.735,231.99,893.735,232.661z"/>
			<ellipse fill="#ECEBEC" cx="906.869" cy="232.661" rx="1.458" ry="1.217"/>
			<path fill="#FFFFFF" stroke="#ECEBEC" stroke-linecap="round" stroke-linejoin="round" stroke-miterlimit="10" d="
				M898.113,233.148c0,0-1.945,6.566-0.243,6.566c1.704,0,1.704,0,1.704,0"/>
		</g>
		<path fill="#ECEBEC" d="M882.12,235.211c0.871,2.875,1.467,5.033,2.184,7.164c1.238,3.692,4.058,4.64,8.053,2.51
			c4.771-2.543,9.333-2.703,14.152-0.107c4.185,2.253,6.994,1.336,8.274-2.518c0.341-1.032,0.618-2.077,0.92-3.115
			c0.3-1.039,0.604-2.077,0.949-3.269c1.821,0.783,1.475,2.202,1.482,3.312c0.035,4.576-0.733,9.112-1.712,13.603
			c-0.911,4.189-4.498,6.934-9.124,8.565c-3.849,1.357-7.138,5.232-12.48,1.488c-3.37-2.363-8.063-3.432-10.693-6.733
			c-2.366-2.97-1.866-6.403-2.536-9.572C880.875,243.157,879.984,239.47,882.12,235.211z"/>
		<path fill="#ECEBEC" d="M915.785,212.429c2.446,5.756,4.825,11.52,2.324,17.921c-0.384,0.977-0.724,1.969-1.436,3.923
			c-0.622-4.504-0.837-8.09-2.042-11.502c-1.161-3.274-2.84-4.989-6.635-3.978c-4.345,1.156-8.772,1.546-13.219,0.18
			c-1.274-0.391-2.679-0.496-4.023-0.496c-4.608,0.006-8.402,4.513-9.047,10.642c-0.083,0.789-0.114,1.584-0.248,3.48
			c-3.907-8.854-0.653-15.73,2.538-22.609c1.354-1.104,2.714-2.213,4.072-3.319c1.739,0.126,1.573-1.661,2.43-2.419
			c1.026-0.366,2.054-0.733,3.08-1.099c0.684,0.585,1.347,0.655,1.969-0.09c3.559-2.001,6.988-0.341,10.448,0.384
			c0.281,0.771,0.766,1.238,1.65,1.115C911.209,206.308,914.026,208.82,915.785,212.429z"/>
		<path fill="#FFFFFF" d="M899.777,249.607c1.436-0.033,2.956-0.106,4.292-0.771c1.21-0.601,1.174-1.232-0.029-1.839
			c-2.864-1.45-5.721-1.458-8.601-0.024c-1.261,0.626-1.288,1.297-0.013,1.896C896.738,249.488,898.212,249.583,899.777,249.607z"/>
		<path fill="#ECEBEC" d="M903.62,346.424c2.136-0.28,3.793,0.234,3.706,1.146c-0.087,0.912-1.89,1.876-4.023,2.155
			c-2.136,0.281-3.796-0.232-3.707-1.145C899.683,347.666,901.484,346.704,903.62,346.424z"/>
		<path fill="#ECEBEC" d="M910.965,348.137c2.135-0.278,3.795,0.235,3.703,1.148c-0.085,0.91-1.888,1.875-4.022,2.152
			c-2.134,0.282-3.795-0.232-3.705-1.145C907.028,349.379,908.831,348.417,910.965,348.137z"/>
	</g>
	<path fill="none" stroke="#010202" stroke-linecap="round" stroke-linejoin="round" stroke-miterlimit="10" d="M956.492,610.303
		c1.846,1.852,4.833,1.854,6.688,0.011"/>
</g>
</svg>
