<?xml version="1.0" encoding="utf-8"?>
<!-- Generator: Adobe Illustrator 16.0.0, SVG Export Plug-In . SVG Version: 6.00 Build 0)  -->
<!DOCTYPE svg PUBLIC "-//W3C//DTD SVG 1.1//EN" "http://www.w3.org/Graphics/SVG/1.1/DTD/svg11.dtd">
<svg version="1.1" xmlns="http://www.w3.org/2000/svg" xmlns:xlink="http://www.w3.org/1999/xlink" x="0px" y="0px" width="40px"
	 height="40px" viewBox="217.396 204.415 40 40" enable-background="new 217.396 204.415 40 40" xml:space="preserve">
<g id="HTML5" display="none">
	<g display="inline">
		<path fill="#0C5666" d="M208.6,205.902l3.601,40.446l16.144,4.554l16.255-4.554l3.603-40.446H208.6z M240.381,219.094h-18.955
			l0.422,5.09h18.111l-1.406,15.301l-10.095,2.785v0.027h-0.113l-10.182-2.812l-0.618-7.821h4.922l0.367,3.938l5.512,1.493
			l5.541-1.493l0.619-6.409h-17.212l-1.322-15.02h24.863L240.381,219.094z"/>
	</g>
</g>
<g id="CSS" display="none">
	<g display="inline">
		<g>
			<path fill="#0C5666" d="M208.713,205.402l3.586,40.5l16.102,4.5l16.097-4.496l3.591-40.504H208.713z M240.419,218.646
				l-0.452,5.088l-1.362,15.256l-10.204,2.816l-0.005,0.004l-10.195-2.825l-0.714-7.976h4.995l0.371,4.139l5.544,1.499l0.005-0.007
				l5.55-1.496l0.756-6.894l-17.46,0.048l-0.496-4.716l18.374-0.214l0.373-5.048l-19.239,0.054l-0.323-4.691h12.465h12.465
				L240.419,218.646z"/>
		</g>
	</g>
</g>
<g id="SASS" display="none">
	<g display="inline">
		<path fill="#0C5666" d="M264.109,232.775c-2.098,0.011-3.917,0.514-5.442,1.268c-0.558-1.112-1.12-2.094-1.217-2.821
			c-0.107-0.847-0.235-1.355-0.104-2.368c0.132-1.012,0.719-2.443,0.71-2.551c-0.005-0.108-0.13-0.623-1.339-0.631
			c-1.213-0.007-2.249,0.232-2.37,0.554c-0.125,0.321-0.354,1.038-0.501,1.79c-0.213,1.099-2.415,5.012-3.668,7.058
			c-0.41-0.796-0.758-1.503-0.83-2.059c-0.11-0.851-0.241-1.356-0.105-2.367c0.132-1.011,0.719-2.443,0.712-2.552
			c-0.011-0.108-0.134-0.624-1.343-0.631c-1.213-0.007-2.247,0.234-2.37,0.554c-0.121,0.321-0.253,1.066-0.497,1.791
			c-0.25,0.723-3.182,7.251-3.946,8.945c-0.393,0.86-0.733,1.555-0.974,2.027l-0.002-0.004c0,0-0.015,0.032-0.039,0.086
			c-0.205,0.403-0.33,0.626-0.33,0.626s0.005,0.002,0.005,0.007c-0.165,0.296-0.337,0.57-0.425,0.57
			c-0.062,0-0.185-0.784,0.026-1.867c0.434-2.265,1.483-5.798,1.471-5.917c-0.005-0.063,0.195-0.681-0.682-0.998
			c-0.856-0.313-1.158,0.205-1.237,0.211c-0.076,0-0.132,0.183-0.132,0.183s0.949-3.973-1.816-3.973
			c-1.728,0-4.124,1.893-5.309,3.608c-0.745,0.406-2.342,1.276-4.029,2.206c-0.652,0.357-1.312,0.721-1.946,1.067
			c-0.039-0.046-0.083-0.095-0.127-0.145c-3.354-3.579-9.559-6.108-9.295-10.92c0.099-1.75,0.704-6.356,11.917-11.943
			c9.188-4.578,16.541-3.318,17.812-0.527c1.813,3.988-3.931,11.402-13.471,12.47c-3.634,0.409-5.548-1.001-6.024-1.524
			c-0.5-0.554-0.575-0.578-0.763-0.473c-0.306,0.167-0.112,0.655,0,0.945c0.287,0.741,1.456,2.055,3.447,2.709
			c1.753,0.576,6.022,0.891,11.184-1.104c5.779-2.236,10.292-8.455,8.967-13.654c-1.349-5.289-10.116-7.025-18.414-4.078
			c-4.934,1.745-10.277,4.498-14.121,8.094c-4.572,4.273-5.301,7.996-5.002,9.55c1.068,5.522,8.682,9.121,11.73,11.786
			c-0.151,0.082-0.292,0.161-0.42,0.233c-1.531,0.756-7.335,3.794-8.785,7.004c-1.648,3.637,0.262,6.25,1.523,6.602
			c3.917,1.089,7.937-0.87,10.092-4.09c2.159-3.219,1.896-7.411,0.905-9.324c-0.016-0.024-0.025-0.049-0.039-0.07
			c0.396-0.233,0.796-0.473,1.197-0.706c0.777-0.455,1.54-0.886,2.203-1.245c-0.369,1.017-0.644,2.232-0.784,3.992
			c-0.16,2.064,0.688,4.736,1.795,5.787c0.489,0.462,1.076,0.471,1.447,0.471c1.29,0,1.877-1.07,2.527-2.339
			c0.793-1.558,1.499-3.366,1.499-3.366s-0.882,4.896,1.528,4.896c0.877,0,1.759-1.142,2.156-1.723c0,0.009,0,0.01,0,0.01
			s0.023-0.036,0.067-0.112c0.091-0.139,0.142-0.227,0.142-0.227s0.006-0.011,0.006-0.028c0.354-0.609,1.139-2.009,2.313-4.312
			c1.515-2.979,2.969-6.712,2.969-6.712s0.136,0.912,0.58,2.421c0.26,0.888,0.817,1.868,1.252,2.809
			c-0.352,0.489-0.566,0.769-0.566,0.769s0,0.005,0.004,0.014c-0.283,0.375-0.597,0.779-0.929,1.171
			c-1.195,1.426-2.621,3.056-2.812,3.524c-0.225,0.554-0.172,0.964,0.262,1.29c0.318,0.239,0.883,0.274,1.476,0.239
			c1.075-0.072,1.833-0.341,2.209-0.503c0.582-0.205,1.263-0.528,1.896-0.998c1.175-0.865,1.883-2.099,1.814-3.735
			c-0.039-0.9-0.325-1.795-0.689-2.639c0.107-0.153,0.217-0.308,0.324-0.466c1.851-2.703,3.287-5.682,3.287-5.682
			s0.135,0.909,0.58,2.419c0.225,0.763,0.664,1.6,1.064,2.414c-1.741,1.415-2.821,3.059-3.197,4.14
			c-0.694,1.995-0.151,2.898,0.87,3.104c0.461,0.093,1.113-0.118,1.6-0.327c0.612-0.2,1.345-0.538,2.028-1.043
			c1.175-0.859,2.303-2.072,2.236-3.709c-0.03-0.745-0.23-1.483-0.51-2.193c1.48-0.617,3.39-0.956,5.824-0.674
			c5.222,0.612,6.243,3.868,6.048,5.231c-0.194,1.368-1.29,2.118-1.657,2.344c-0.364,0.225-0.477,0.306-0.444,0.475
			c0.044,0.244,0.211,0.233,0.523,0.181c0.429-0.073,2.742-1.109,2.841-3.628C272.601,236.257,269.537,232.744,264.109,232.775z
			 M223.858,246.344c-1.731,1.888-4.147,2.602-5.182,2c-1.121-0.65-0.676-3.428,1.446-5.434c1.294-1.216,2.964-2.341,4.073-3.035
			c0.251-0.151,0.621-0.375,1.074-0.64c0.076-0.044,0.116-0.067,0.116-0.067l-0.002-0.002c0.088-0.054,0.176-0.105,0.269-0.161
			C226.42,241.856,225.672,244.365,223.858,246.344z M236.458,237.778c-0.606,1.467-1.863,5.227-2.633,5.021
			c-0.657-0.17-1.059-3.025-0.132-5.838c0.468-1.415,1.464-3.107,2.052-3.765c0.943-1.057,1.984-1.401,2.237-0.973
			C238.307,232.77,236.834,236.859,236.458,237.778z M246.868,242.746c-0.253,0.132-0.488,0.218-0.596,0.151
			c-0.083-0.046,0.102-0.22,0.102-0.22s1.305-1.402,1.818-2.039c0.295-0.371,0.643-0.812,1.02-1.306
			c0.005,0.051,0.005,0.098,0.005,0.147C249.216,241.157,247.592,242.291,246.868,242.746z M254.89,240.916
			c-0.191-0.135-0.159-0.572,0.466-1.937c0.248-0.536,0.808-1.438,1.786-2.302c0.111,0.357,0.18,0.694,0.18,1.013
			C257.307,239.801,255.801,240.589,254.89,240.916z"/>
	</g>
</g>
<g id="BOOTSTRAP">
	<path fill="#0C5666" d="M257.205,209.502c-0.578-2.486-2.734-4.53-5.256-4.974c-0.424-0.075-0.852-0.114-1.281-0.114
		c-8.848,0-17.695-0.001-26.542,0.001c-3.083,0.001-5.697,2.001-6.508,4.974c-0.153,0.562-0.221,1.136-0.221,1.718
		c0,8.873-0.003,17.746,0.001,26.62c0.002,3.057,2.039,5.684,4.996,6.473c0.302,0.078,0.609,0.131,0.918,0.172
		c0.038,0.006,0.082-0.006,0.101,0.043c9.31,0,18.618,0,27.929,0c0.295-0.059,0.594-0.105,0.887-0.176
		c2.758-0.65,4.783-2.924,5.127-5.74c0.006-0.049-0.018-0.105,0.041-0.141c0-9.283,0-18.566,0-27.85
		C257.308,210.178,257.283,209.836,257.205,209.502z M247.189,232.243c-0.525,1.457-1.551,2.455-2.914,3.131
		c-1.18,0.584-2.438,0.885-3.744,0.998c-0.732,0.064-1.469,0.07-2.203,0.07c-3.275,0-6.549,0-9.822,0.004
		c-0.192,0.002-0.25-0.035-0.248-0.24c0.006-3.814,0.004-7.629,0.004-11.442c0-3.808,0.002-7.616-0.004-11.423
		c0-0.186,0.042-0.237,0.234-0.237c3.676,0.007,7.354,0.006,11.033,0.004c1.281,0,2.543,0.146,3.738,0.65
		c1.232,0.522,2.23,1.309,2.781,2.568c0.426,0.969,0.543,1.989,0.471,3.035c-0.15,2.114-1.271,3.544-3.156,4.429
		c-0.053,0.025-0.154,0.024-0.139,0.106c0.012,0.075,0.109,0.054,0.166,0.067c1.436,0.352,2.588,1.099,3.338,2.402
		c0.471,0.819,0.715,1.709,0.809,2.646C247.642,230.112,247.564,231.192,247.189,232.243z"/>
	<path fill-rule="evenodd" clip-rule="evenodd" fill="#0C5666" d="M236.302,233.106c-1.25,0-2.5-0.002-3.75,0.006
		c-0.162,0-0.203-0.045-0.203-0.205c0.004-2.304,0.004-4.607,0-6.912c0-0.144,0.035-0.184,0.182-0.184
		c2.4,0.006,4.803,0.004,7.205,0.008c0.609,0,1.205,0.092,1.771,0.328c0.963,0.399,1.596,1.102,1.852,2.117
		c0.195,0.777,0.195,1.562-0.012,2.337c-0.367,1.38-1.312,2.132-2.68,2.407c-0.396,0.08-0.799,0.098-1.203,0.098
		C238.41,233.108,237.357,233.106,236.302,233.106z"/>
	<path fill-rule="evenodd" clip-rule="evenodd" fill="#0C5666" d="M236.025,216.444c1.105,0,2.211-0.005,3.318,0.002
		c0.496,0.003,0.98,0.096,1.449,0.271c0.779,0.29,1.295,0.823,1.504,1.638c0.186,0.737,0.225,1.483,0.045,2.223
		c-0.303,1.23-1.158,1.895-2.342,2.195c-0.336,0.085-0.682,0.108-1.027,0.108c-2.135,0.001-4.27-0.002-6.404,0.004
		c-0.164,0.001-0.221-0.029-0.221-0.21c0.008-2.011,0.008-4.021,0-6.032c0-0.186,0.061-0.209,0.219-0.207
		c1.154,0.006,2.305,0.003,3.459,0.003C236.025,216.44,236.025,216.442,236.025,216.444z"/>
</g>
<g id="JS" display="none">
	<path display="inline" fill="#667888" d="M238.482,201.079c-0.104-0.113-0.249-0.177-0.4-0.177h-21.235
		c-0.153,0-0.298,0.064-0.401,0.177c-0.104,0.112-0.154,0.263-0.14,0.415l1.913,21.428c0.02,0.224,0.176,0.413,0.392,0.475
		l8.701,2.485c0.049,0.013,0.099,0.021,0.149,0.021c0.05,0,0.1-0.007,0.148-0.021l8.709-2.485c0.216-0.062,0.372-0.251,0.392-0.475
		l1.913-21.428C238.636,201.342,238.584,201.191,238.482,201.079z M220.398,215.578l3.804,1.055v-10.84h2.174v14.131l-5.979-1.658
		V215.578z M234.558,211.771l-0.573,6.658l-5.435,1.495v-2.501l3.669-1.008l0.136-2.039l-3.805,0.656v-9.239h6.521l-0.188,2.174
		h-4.16v4.348L234.558,211.771z"/>
</g>
<g id="VUEJS" display="none">
	<path display="inline" fill="#667888" d="M238.259,203.175l-10.796,18.295l-10.795-18.295h6.022l2.728,4.773l1.932,3.409
		l1.931-3.409l2.955-4.773H238.259 M242.236,200.902h-11.363l-3.409,6.022l-3.409-6.022H212.69l14.773,25L242.236,200.902
		L242.236,200.902z"/>
	<polygon display="inline" fill="#667888" points="231.554,202.038 227.463,207.72 223.373,202.038 220.305,202.038 
		227.463,214.538 234.623,202.038 	"/>
	<polygon display="inline" fill="#667888" points="231.554,202.038 227.463,207.72 223.373,202.038 220.305,202.038 
		227.463,214.538 234.623,202.038 	"/>
</g>
<g id="WORDPRESS" display="none">
	<g display="inline">
		<g>
			<g>
				<path fill="#667888" d="M233.126,230.753l-2.956,8.59c0.883,0.259,1.816,0.401,2.783,0.401c1.147,0,2.248-0.198,3.271-0.559
					c-0.026-0.042-0.051-0.087-0.07-0.136L233.126,230.753z"/>
				<path fill="#667888" d="M223.101,229.891c0,3.9,2.267,7.271,5.553,8.867l-4.7-12.876
					C223.408,227.107,223.101,228.463,223.101,229.891z"/>
				<path fill="#667888" d="M239.604,229.394c0-1.217-0.437-2.06-0.812-2.717c-0.5-0.812-0.968-1.499-0.968-2.31
					c0-0.906,0.687-1.749,1.654-1.749c0.044,0,0.085,0.005,0.128,0.007c-1.753-1.605-4.088-2.586-6.652-2.586
					c-3.443,0-6.471,1.766-8.232,4.441c0.231,0.007,0.448,0.012,0.634,0.012c1.03,0,2.626-0.125,2.626-0.125
					c0.532-0.032,0.593,0.749,0.063,0.811c0,0-0.534,0.063-1.127,0.094l3.587,10.671l2.156-6.467l-1.536-4.205
					c-0.53-0.031-1.033-0.094-1.033-0.094c-0.53-0.031-0.468-0.842,0.062-0.811c0,0,1.627,0.125,2.595,0.125
					c1.03,0,2.627-0.125,2.627-0.125c0.531-0.031,0.593,0.749,0.062,0.811c0,0-0.535,0.062-1.128,0.094l3.561,10.591l0.983-3.283
					C239.281,231.216,239.604,230.238,239.604,229.394z"/>
				<path fill="#667888" d="M241.598,225.165c0.042,0.313,0.066,0.651,0.066,1.013c0,1-0.187,2.124-0.749,3.529l-3.009,8.701
					c2.928-1.709,4.899-4.882,4.899-8.516C242.806,228.179,242.368,226.568,241.598,225.165z"/>
				<path fill="#667888" d="M232.954,217.392c-6.904,0-12.5,5.597-12.5,12.5c0,6.903,5.596,12.5,12.5,12.5
					c6.903,0,12.5-5.597,12.5-12.5C245.454,222.988,239.857,217.392,232.954,217.392z M232.954,240.85
					c-6.042,0-10.958-4.916-10.958-10.959c0-6.042,4.915-10.957,10.958-10.957c6.042,0,10.957,4.916,10.957,10.957
					C243.911,235.934,238.996,240.85,232.954,240.85z"/>
			</g>
		</g>
	</g>
</g>
<g id="MJML" display="none">
	<path display="inline" fill-rule="evenodd" clip-rule="evenodd" fill="#667888" d="M231.109,222.651
		c2.111,0,4.222-0.006,6.333,0.001c1.906,0.006,3.33,1.362,3.384,3.207c0.051,1.746-1.368,3.257-3.239,3.276
		c-4.339,0.046-8.679,0.048-13.019,0.003c-1.876-0.021-3.219-1.491-3.19-3.307c0.027-1.769,1.392-3.135,3.258-3.17
		C226.793,222.622,228.952,222.652,231.109,222.651z"/>
	<path display="inline" fill-rule="evenodd" clip-rule="evenodd" fill="#667888" d="M222.556,219.856
		c-2.204,0-4.406,0.029-6.609-0.011c-1.414-0.026-2.596-1.007-2.977-2.338c-0.377-1.324,0.099-2.715,1.205-3.531
		c0.743-0.55,1.613-0.677,2.492-0.68c4.003-0.008,8.008,0.004,12.011,0.019c1.772,0.006,3.148,0.983,3.495,2.447
		c0.503,2.123-0.957,4.055-3.149,4.093c-2.155,0.039-4.311,0.009-6.467,0.009C222.556,219.861,222.556,219.858,222.556,219.856z"/>
	<path display="inline" fill-rule="evenodd" clip-rule="evenodd" fill="#667888" d="M222.5,238.088
		c-2.064,0-4.129,0.007-6.192-0.001c-2.02-0.006-3.488-1.377-3.482-3.238c0.006-1.833,1.455-3.223,3.433-3.229
		c4.246-0.015,8.492-0.012,12.738,0.004c1.864,0.008,3.295,1.416,3.311,3.204c0.016,1.799-1.442,3.241-3.332,3.258
		C226.817,238.104,224.658,238.088,222.5,238.088z"/>
	<circle display="inline" fill-rule="evenodd" clip-rule="evenodd" fill="#667888" cx="216.167" cy="225.894" r="3.316"/>
	<circle display="inline" fill-rule="evenodd" clip-rule="evenodd" fill="#667888" cx="237.492" cy="216.758" r="3.315"/>
	<circle display="inline" fill-rule="evenodd" clip-rule="evenodd" fill="#667888" cx="237.501" cy="234.977" r="3.315"/>
</g>
<g id="PHOTOSHOP" display="none">
	<g display="inline">
		<g>
			<g>
				<path fill="#667888" d="M215.463,215.152v25h25v-25H215.463z M238.999,238.687h-22.07v-22.07h22.07V238.687z"/>
			</g>
		</g>
		<g>
			<g>
				<path fill="#667888" d="M225.763,225.438h-1.804v2.695h1.875c0.567,0,1.042-0.53,1.042-1.348
					C226.876,226.082,226.45,225.438,225.763,225.438z"/>
			</g>
		</g>
		<g>
			<g>
				<path fill="#667888" d="M218.393,218.082v19.141h19.141v-19.141H218.393z M225.927,229.55h-1.968v2.789h-1.618v-8.32h3.527
					c1.614,0,2.648,1.484,2.648,2.766C228.517,228.294,227.37,229.55,225.927,229.55z M231.81,232.457
					c-1.418,0-2.426-0.645-2.777-0.949l0.586-0.984c0.375,0.266,1.238,0.809,2.157,0.809c0.595,0,1.007-0.25,1.007-0.68
					c0-0.528-0.871-0.699-1.348-0.832c-0.399-0.109-2.191-0.361-2.191-1.711c0-1.299,1.131-2.026,2.415-2.026
					c1.347,0,2.065,0.547,2.402,0.843l-0.634,0.949c-0.312-0.234-1.008-0.679-1.781-0.679c-0.57,0-0.938,0.243-0.938,0.691
					c0,0.559,0.98,0.719,1.206,0.774c0.423,0.11,2.381,0.408,2.381,1.851C234.295,232.217,232.577,232.457,231.81,232.457z"/>
			</g>
		</g>
	</g>
</g>
<g id="ILLUSTRATOR" display="none">
	<g display="inline">
		<g>
			<g>
				<path fill="#667888" d="M221.963,215.902v25h25v-25H221.963z M245.499,239.437h-22.07v-22.07h22.07V239.437z"/>
			</g>
		</g>
		<g>
			<g>
				<polygon fill="#667888" points="232.809,226.609 231.616,229.878 233.959,229.878 				"/>
			</g>
		</g>
		<g>
			<g>
				<path fill="#667888" d="M224.893,218.832v19.141h19.141v-19.141H224.893z M235.025,233.089l-0.772-2.074h-2.908l-0.762,2.074
					h-1.662l3.175-8.32h1.43l3.164,8.32H235.025z M239.02,233.089h-1.569v-6.141h1.569V233.089z M239.02,226.093h-1.569v-1.559
					h1.569V226.093z"/>
			</g>
		</g>
	</g>
</g>
<g id="ADOBE_XD" display="none">
	<g display="inline">
		<path fill="#667888" d="M208.034,221.175c-0.286-1.408-1.063-2.459-2.317-3.154c-0.541-0.299-1.126-0.466-1.743-0.517
			c-0.017-0.001-0.036,0.002-0.044-0.02c-5.762,0-11.524,0-17.287,0c-0.155,0.049-0.318,0.049-0.477,0.081
			c-1.011,0.198-1.861,0.681-2.546,1.448c-0.595,0.667-0.953,1.448-1.094,2.33c-0.016,0.103-0.01,0.209-0.049,0.309
			c0,5.556,0,11.111,0,16.667c0.049,0.155,0.048,0.318,0.08,0.477c0.272,1.335,0.992,2.354,2.154,3.06
			c0.58,0.352,1.213,0.549,1.889,0.61c0.017,0.002,0.036-0.001,0.044,0.021c5.762,0,11.524,0,17.287,0
			c0.123-0.043,0.254-0.039,0.382-0.06c1.828-0.297,3.298-1.686,3.698-3.496c0.039-0.177,0.065-0.356,0.086-0.536
			c0.002-0.02-0.006-0.044,0.021-0.054c0-5.556,0-11.111,0-16.667C208.09,221.507,208.068,221.34,208.034,221.175z M195.993,235.102
			c-0.812,0.001-1.624-0.003-2.436-0.002c-0.169,0-0.272-0.069-0.349-0.225c-0.649-1.317-1.363-2.601-2.078-3.883
			c-0.013-0.024-0.02-0.063-0.049-0.065c-0.04-0.003-0.042,0.042-0.055,0.068c-0.69,1.345-1.405,2.676-2.132,4
			c-0.044,0.081-0.102,0.124-0.193,0.124c-0.249,0.002-0.498,0.005-0.748,0.006c-0.548,0.001-1.097,0-1.645,0
			c-0.091,0-0.118-0.038-0.083-0.124c0.013-0.033,0.035-0.062,0.053-0.093c1.074-1.762,2.147-3.523,3.223-5.283
			c0.044-0.072,0.047-0.124,0.003-0.199c-1.054-1.778-2.104-3.557-3.155-5.336c-0.025-0.044-0.077-0.087-0.046-0.145
			c0.035-0.065,0.104-0.05,0.163-0.05c0.772,0,1.545,0.002,2.318-0.002c0.18-0.001,0.286,0.064,0.361,0.232
			c0.376,0.85,0.838,1.655,1.303,2.458c0.274,0.474,0.533,0.957,0.775,1.448c0.012,0.024,0.018,0.055,0.05,0.071
			c0.009-0.014,0.021-0.027,0.028-0.043c0.637-1.332,1.383-2.606,2.053-3.92c0.094-0.184,0.193-0.244,0.398-0.239
			c0.701,0.016,1.403,0.006,2.104,0.005c0.048,0,0.094-0.001,0.122,0.046c0.028,0.046-0.003,0.08-0.025,0.116
			c-1.051,1.733-2.102,3.467-3.155,5.2c-0.039,0.064-0.026,0.105,0.008,0.161c1.106,1.812,2.211,3.626,3.316,5.438
			c0.039,0.063,0.105,0.133,0.067,0.203S196.059,235.102,195.993,235.102z M204.225,234.688c-0.896,0.369-1.833,0.559-2.798,0.622
			c-0.79,0.052-1.563-0.009-2.318-0.261c-1.048-0.35-1.831-1.005-2.308-2.007c-0.243-0.511-0.348-1.059-0.388-1.619
			c-0.052-0.732,0.008-1.452,0.293-2.138c0.587-1.409,1.635-2.29,3.102-2.675c0.663-0.174,1.34-0.22,2.023-0.155
			c0.086,0.008,0.114-0.008,0.113-0.103c-0.004-1.068-0.002-2.137-0.002-3.205c0-0.169,0.013-0.182,0.183-0.182
			c0.677,0,1.353,0,2.029,0c0.155,0,0.171,0.014,0.171,0.17c0,1.634,0,3.269,0,4.904c0,0.143,0,0.285,0,0.427
			c0,1.453,0.002,2.906-0.001,4.359c-0.002,0.538,0.022,1.075,0.06,1.611C204.394,234.59,204.367,234.629,204.225,234.688z"/>
		<path fill="#667888" d="M201.836,228.464c-0.542-0.094-1.073-0.065-1.58,0.155c-0.672,0.294-1.168,0.763-1.341,1.5
			c-0.139,0.592-0.119,1.187,0.082,1.767c0.179,0.516,0.493,0.92,0.999,1.151c0.593,0.271,1.216,0.253,1.843,0.182
			c0.085-0.01,0.106-0.049,0.106-0.133c-0.004-0.747-0.002-1.494-0.002-2.241s-0.002-1.495,0.002-2.242
			C201.944,228.517,201.926,228.48,201.836,228.464z"/>
	</g>
</g>
<g id="INDESIGN" display="none">
	<g display="inline">
		<g>
			<g>
				<path fill="#667888" d="M214.963,215.152v25h25v-25H214.963z M238.499,238.687h-22.07v-22.07h22.07V238.687z"/>
			</g>
		</g>
		<g>
			<g>
				<path fill="#667888" d="M228.972,227.429c-1.069,0-1.605,1.061-1.605,1.875c0,0.895,0.658,1.816,1.699,1.816
					c0.985,0,1.434-0.883,1.488-1.031v-1.465C230.492,228.453,229.929,227.429,228.972,227.429z"/>
			</g>
		</g>
		<g>
			<g>
				<path fill="#667888" d="M217.893,218.082v19.141h19.141v-19.141H217.893z M224.601,232.339h-1.617v-8.32h1.617V232.339z
					 M231.82,232.421c-1.134,0-1.031-1.148-1.031-1.148c-0.226,0.391-0.902,1.184-2.133,1.184c-1.803,0-2.918-1.503-2.918-3.188
					c0-1.91,1.286-3.176,2.742-3.176c1.233,0,1.87,0.832,2.074,1.184v-3.492h1.571v6.75c0,0.164,0.229,0.462,0.362,0.469v1.336l0,0
					C232.214,232.393,231.991,232.421,231.82,232.421z"/>
			</g>
		</g>
	</g>
</g>
<g id="WIREFRAME" display="none">
	<path display="inline" fill-rule="evenodd" clip-rule="evenodd" fill="#667888" d="M227.304,240.285
		c-4.723,0-9.446,0.001-14.17-0.001c-1.619,0-2.806-0.915-3.222-2.471c-0.077-0.288-0.079-0.582-0.079-0.875
		c-0.002-6.103-0.004-12.204,0-18.306c0.001-2.004,1.358-3.347,3.367-3.347c9.396,0,18.792,0,28.188,0
		c1.779,0,3.04,1.049,3.359,2.799c0.03,0.167,0.027,0.343,0.027,0.515c0.002,6.122,0.002,12.244,0.001,18.366
		c-0.001,1.955-1.37,3.319-3.332,3.32C236.731,240.286,232.017,240.285,227.304,240.285z M227.27,239.128
		c4.712,0,9.426-0.017,14.139,0.012c1.187,0.008,2.179-0.91,2.173-2.171c-0.026-6.122-0.012-12.244-0.014-18.366
		c0-0.211,0.01-0.423-0.052-0.632c-0.282-0.962-1.04-1.527-2.084-1.528c-2.271-0.004-4.541-0.001-6.812-0.001
		c-7.146,0-14.292,0.008-21.437-0.007c-1.301-0.003-2.246,0.919-2.239,2.238c0.03,6.082,0.013,12.163,0.013,18.245
		c0,0.232-0.003,0.466,0.059,0.694c0.264,0.96,1.02,1.517,2.083,1.518C217.823,239.129,222.546,239.128,227.27,239.128z"/>
	<path display="inline" fill-rule="evenodd" clip-rule="evenodd" fill="#667888" d="M221.442,228.758c-1.327,0-2.655,0.001-3.982,0
		c-0.483,0-0.613-0.128-0.613-0.61c-0.001-1.783-0.001-3.566,0-5.35c0-0.452,0.146-0.607,0.594-0.608
		c2.685-0.003,5.37-0.003,8.055,0c0.413,0.001,0.597,0.183,0.598,0.594c0.004,1.804,0.003,3.607,0,5.411
		c-0.001,0.403-0.169,0.562-0.579,0.563C224.157,228.759,222.799,228.758,221.442,228.758z M225.108,227.414
		c0-1.312,0-2.562,0-3.851c-0.961,0.645-1.895,1.272-2.847,1.91C223.212,226.122,224.143,226.756,225.108,227.414z M220.635,225.473
		c-0.959-0.643-1.885-1.263-2.841-1.904c0,1.29,0,2.524,0,3.81C218.756,226.733,219.684,226.112,220.635,225.473z M224.037,223.183
		c-1.749,0-3.427,0-5.176,0c0.855,0.586,1.654,1.13,2.449,1.68c0.107,0.074,0.177,0.041,0.268-0.021
		C222.37,224.304,223.166,223.77,224.037,223.183z M224.015,227.766c-0.038-0.102-0.133-0.127-0.203-0.175
		c-0.595-0.401-1.192-0.798-1.789-1.196c-0.556-0.371-0.556-0.372-1.123,0.007c-0.661,0.44-1.321,0.882-2.044,1.364
		C220.625,227.766,222.316,227.766,224.015,227.766z"/>
	<path display="inline" fill-rule="evenodd" clip-rule="evenodd" fill="#667888" d="M233.15,230.492c1.327,0,2.654-0.001,3.98,0
		c0.492,0.001,0.635,0.144,0.635,0.63c0.002,1.763,0.002,3.524,0,5.287c0,0.512-0.152,0.662-0.674,0.662
		c-2.644,0.001-5.287,0.001-7.931,0c-0.503,0-0.645-0.144-0.645-0.651c-0.001-1.762-0.001-3.524,0-5.287
		c0-0.508,0.137-0.641,0.654-0.641C230.497,230.491,231.824,230.492,233.15,230.492z M229.475,231.892c0,1.281,0,2.524,0,3.799
		c0.952-0.641,1.874-1.259,2.827-1.899C231.353,233.154,230.426,232.531,229.475,231.892z M236.811,231.882
		c-0.968,0.649-1.894,1.271-2.843,1.91c0.959,0.653,1.887,1.285,2.843,1.937C236.811,234.43,236.811,233.186,236.811,231.882z
		 M230.605,231.486c0.032,0.043,0.045,0.072,0.067,0.087c0.776,0.529,1.558,1.054,2.331,1.587c0.119,0.082,0.19,0.048,0.291-0.02
		c0.662-0.448,1.326-0.89,1.99-1.334c0.137-0.091,0.271-0.186,0.47-0.32C233.992,231.486,232.314,231.486,230.605,231.486z
		 M235.763,236.127c-0.892-0.597-1.708-1.139-2.518-1.689c-0.137-0.093-0.203-0.003-0.289,0.055
		c-0.729,0.492-1.457,0.984-2.184,1.479c-0.057,0.039-0.156,0.055-0.143,0.155C232.313,236.127,233.991,236.127,235.763,236.127z"/>
	<path display="inline" fill-rule="evenodd" clip-rule="evenodd" fill="#667888" d="M221.493,237.152c-1.307,0-2.614,0.001-3.921,0
		c-0.56,0-0.7-0.141-0.7-0.701c0-1.723,0-3.444,0-5.167c0-0.528,0.141-0.67,0.664-0.67c2.654-0.001,5.309-0.001,7.963,0
		c0.508,0,0.624,0.117,0.624,0.624c0,1.743,0,3.485,0,5.229c0,0.546-0.138,0.686-0.679,0.686
		C224.127,237.153,222.81,237.152,221.493,237.152z M217.863,235.758c0.961-0.644,1.888-1.265,2.844-1.905
		c-0.95-0.638-1.883-1.264-2.844-1.909C217.863,233.231,217.863,234.467,217.863,235.758z M225.178,231.991
		c-0.922,0.616-1.803,1.208-2.688,1.794c-0.144,0.096-0.114,0.149,0.01,0.231c0.471,0.315,0.938,0.637,1.406,0.955
		c0.415,0.282,0.83,0.563,1.272,0.863C225.178,234.539,225.178,233.288,225.178,231.991z M218.945,231.55
		c0.029,0.042,0.04,0.07,0.061,0.085c0.79,0.545,1.583,1.086,2.369,1.637c0.125,0.087,0.197,0.03,0.289-0.033
		c0.572-0.399,1.145-0.798,1.717-1.195c0.219-0.152,0.437-0.306,0.706-0.493C222.33,231.55,220.647,231.55,218.945,231.55z
		 M224.123,236.198c-0.859-0.579-1.658-1.113-2.45-1.657c-0.129-0.089-0.214-0.089-0.342,0.002c-0.421,0.298-0.853,0.58-1.281,0.869
		c-0.371,0.249-0.741,0.499-1.167,0.786C220.656,236.198,222.352,236.198,224.123,236.198z"/>
	<path display="inline" fill-rule="evenodd" clip-rule="evenodd" fill="#667888" d="M233.114,222.108c1.317,0,2.636-0.001,3.954,0
		c0.503,0.001,0.654,0.151,0.654,0.65c0.001,1.754,0.001,3.507,0,5.261c0,0.468-0.168,0.637-0.641,0.638
		c-2.656,0.001-5.312,0.001-7.968,0c-0.472-0.001-0.639-0.17-0.639-0.64c0-1.764-0.001-3.527,0-5.291
		c0-0.458,0.159-0.617,0.624-0.618C230.437,222.106,231.776,222.108,233.114,222.108z M229.437,223.468c0,1.286,0,2.526,0,3.8
		c0.959-0.645,1.887-1.268,2.831-1.901C231.312,224.726,230.387,224.105,229.437,223.468z M233.894,225.397
		c0.962,0.661,1.891,1.298,2.838,1.949c0-1.292,0-2.54,0-3.837C235.779,224.143,234.859,224.755,233.894,225.397z M235.72,227.714
		c-0.85-0.573-1.637-1.098-2.414-1.638c-0.164-0.113-0.27-0.097-0.424,0.011c-0.682,0.473-1.373,0.931-2.061,1.395
		c-0.094,0.063-0.186,0.132-0.326,0.232C232.251,227.714,233.939,227.714,235.72,227.714z M230.539,223.092
		c0.027,0.039,0.038,0.069,0.059,0.083c0.788,0.534,1.578,1.062,2.362,1.602c0.134,0.092,0.217,0.039,0.321-0.033
		c0.734-0.504,1.471-1.005,2.203-1.511c0.047-0.033,0.148-0.044,0.113-0.141C233.915,223.092,232.236,223.092,230.539,223.092z"/>
	<path display="inline" fill-rule="evenodd" clip-rule="evenodd" fill="#667888" d="M216.194,219.336
		c-0.452,0.002-0.836-0.378-0.837-0.83c-0.001-0.45,0.382-0.836,0.831-0.838c0.447-0.002,0.835,0.383,0.838,0.832
		C217.029,218.948,216.646,219.333,216.194,219.336z"/>
	<path display="inline" fill-rule="evenodd" clip-rule="evenodd" fill="#667888" d="M213.399,219.335
		c-0.462-0.006-0.822-0.377-0.816-0.843c0.005-0.461,0.382-0.833,0.837-0.825c0.455,0.007,0.825,0.389,0.82,0.846
		C214.235,218.971,213.855,219.342,213.399,219.335z"/>
	<path display="inline" fill-rule="evenodd" clip-rule="evenodd" fill="#667888" d="M218.95,219.336
		c-0.455,0.009-0.834-0.362-0.841-0.821c-0.006-0.457,0.363-0.84,0.817-0.847c0.448-0.007,0.837,0.372,0.846,0.823
		C219.779,218.941,219.404,219.327,218.95,219.336z"/>
</g>
<g id="BALSAMIQ" display="none">
	<path display="inline" fill-rule="evenodd" clip-rule="evenodd" fill="#667888" d="M228.553,204.832
		c-0.322-0.252-0.239-0.418,0.042-0.554c0.574-0.278,1.115-0.454,1.743-0.05c0.549,0.353,1.174,0.589,1.771,0.866
		c3.204,1.484,5.81,3.63,7.064,7.013c1.542,4.16,1.194,8.198-1.518,11.812c-1.36,1.813-3.192,3.067-5.368,3.898
		c-1.632,0.624-3.267,1.025-4.986,1.142c-1.659,0.112-3.292-0.077-4.867-0.621c-3.421-1.181-5.371-3.625-5.959-7.149
		c-0.665-3.987-0.154-7.837,1.587-11.494c0.794-1.668,1.833-3.169,3.622-3.916c1.189-0.496,2.482-0.557,3.749-0.69
		C226.449,204.982,227.47,204.919,228.553,204.832z M227.496,227.238c0.174,0,0.349,0.007,0.523-0.001
		c0.329-0.017,0.657-0.04,0.986-0.065c3.667-0.284,6.127-2.385,7.857-5.418c0.669-1.174,1.073-2.514,1.277-3.885
		c0.389-2.601,0.056-5.043-1.422-7.285c-0.797-1.208-1.926-2.017-3.106-2.77c-0.375-0.24-0.817-0.412-1.295-0.151
		c-0.452,0.247-0.875,0.067-1.251-0.192c-0.604-0.418-1.299-0.64-1.959-0.935c-0.642-0.288-1.372-0.426-2.022-0.362
		c-0.945,0.092-1.894,0.304-2.833,0.521c-2.581,0.595-4.363,2.067-5.293,4.555c-1.319,3.529-1.631,7.109-0.561,10.765
		c0.528,1.804,1.628,3.109,3.314,3.944C223.539,226.863,225.477,227.227,227.496,227.238z"/>
	<path display="inline" fill-rule="evenodd" clip-rule="evenodd" fill="#667888" d="M234.125,218.048
		c-0.024,1.908-1.054,3.397-2.998,4.087c-2.812,0.997-5.535,0.732-8.037-0.944c-1.213-0.813-1.946-1.974-2.003-3.486
		c-0.007-0.195-0.032-0.401,0.244-0.439c0.229-0.031,0.313,0.139,0.348,0.302c0.23,1.077,1.028,1.714,1.883,2.207
		c2.654,1.529,5.396,1.79,8.178,0.307c0.745-0.397,1.336-0.986,1.866-1.634C233.75,218.27,233.866,218.075,234.125,218.048z"/>
	<path display="inline" fill-rule="evenodd" clip-rule="evenodd" fill="#667888" d="M222.821,214.143
		c0.003-0.685,0.381-1.102,0.995-1.097c0.631,0.005,1.118,0.581,1.108,1.309c-0.007,0.542-0.412,0.975-0.916,0.981
		C223.273,215.345,222.818,214.888,222.821,214.143z"/>
	<path display="inline" fill-rule="evenodd" clip-rule="evenodd" fill="#667888" d="M230.745,214.248
		c0.009-0.649,0.452-1.056,1.129-1.037c0.553,0.016,1.008,0.471,0.992,0.99c-0.021,0.704-0.583,1.355-1.158,1.343
		C231.17,215.532,230.735,214.946,230.745,214.248z"/>
</g>
<g id="STARUML" display="none">
	<polygon display="inline" fill="#667888" points="228.569,214.762 232.63,222.992 241.712,224.312 235.14,230.716 236.693,239.761 
		228.569,235.492 220.446,239.761 221.997,230.716 215.426,224.312 224.507,222.992 	"/>
</g>
<g id="MYSQL" display="none">
	<g display="inline">
		<path fill="#667888" d="M207.302,237.003h1.852v-6.834l2.572,5.843c0.318,0.728,0.751,0.985,1.603,0.985s1.269-0.258,1.586-0.985
			l2.572-5.692v6.684h1.852v-7c0-0.673-0.268-0.998-0.818-1.167c-1.318-0.414-2.204-0.056-2.604,0.842l-2.638,5.94l-2.555-5.94
			c-0.384-0.897-1.285-1.256-2.604-0.842c-0.551,0.169-0.818,0.494-0.818,1.167v7H207.302z"/>
		<path fill="#667888" d="M220.264,231.448h1.852v3.912c-0.016,0.191,0.062,0.703,0.955,0.718c0.455,0.007,2.721,0,2.749,0v-4.63
			h1.852c0.007,0,0,5.756,0,5.78c0.009,1.419-1.763,1.604-2.579,1.627h-4.828v-0.926c0.009,0,4.617,0.001,4.63,0
			c1.049-0.111,0.926-0.689,0.926-0.864v-0.062h-2.905c-1.61-0.015-2.637-0.725-2.649-1.533
			C220.264,235.396,220.3,231.483,220.264,231.448z"/>
		<path fill="#667888" d="M228.597,237.003h4.637c0.607,0,1.197-0.127,1.666-0.348c0.781-0.357,1.104-0.844,1.104-1.48v-1.32
			c0-1.423-1.765-1.481-2.777-1.481h-1.852c-0.729,0-0.839-0.439-0.926-0.926v-0.926c0.087-0.37,0.249-0.868,0.891-0.926
			c0.745,0,4.664,0,4.664,0v-0.926H231.6c-0.729,0-3.003,0.087-3.003,1.852v1.145c0,0.811,0.711,1.472,2.258,1.634
			c0.173,0.011,0.347,0.023,0.52,0.023c0,0,1.8-0.036,1.852-0.023c1.042,0,0.926,0.81,0.926,0.926v0.926
			c0,0.128-0.028,0.926-0.936,0.926c-0.069,0-4.619,0-4.619,0V237.003z"/>
		<path fill="#667888" d="M246.188,235.113c0,1.117,0.632,1.744,2.308,1.87c0.156,0.011,0.313,0.021,0.47,0.021h4.63v-0.926h-4.277
			c-0.955,0-1.278-0.401-1.278-0.975v-6.433h-1.852V235.113z"/>
		<path fill="#667888" d="M236.915,235.152v-4.63c0-0.983,0.481-1.662,1.848-1.852h0.647h3.325h0.507
			c1.365,0.189,2.005,0.868,2.005,1.852v4.611c0,0.799-0.207,1.227-0.882,1.505l1.434,1.29h-2.083l-1.032-0.926h-1.212l-2.06,0.012
			c-0.299,0-0.613-0.042-0.958-0.136C237.417,236.596,236.915,236.052,236.915,235.152z M238.766,235.152
			c0.094,0.45,0.456,0.926,1.1,0.926h1.797l-1.029-0.926h2.099l0.501,0.465c0,0,0.179-0.146,0.179-0.465s-0.017-4.63-0.017-4.63
			c-0.094-0.418-0.518-0.926-1.146-0.926h-2.383c-0.723,0-1.101,0.528-1.101,1.021V235.152L238.766,235.152z"/>
		<path fill="#667888" d="M251.858,227.694c-0.994-0.026-1.754,0.067-2.403,0.34c-0.184,0.078-0.477,0.08-0.508,0.312
			c0.101,0.106,0.116,0.264,0.197,0.395c0.155,0.251,0.418,0.587,0.65,0.763c0.256,0.193,0.519,0.399,0.792,0.565
			c0.485,0.297,1.029,0.467,1.498,0.764c0.275,0.176,0.55,0.396,0.819,0.593c0.134,0.099,0.222,0.251,0.396,0.312
			c0-0.009,0-0.019,0-0.027c-0.091-0.116-0.115-0.274-0.199-0.396c-0.122-0.122-0.244-0.245-0.366-0.367
			c-0.36-0.477-0.816-0.896-1.301-1.243c-0.387-0.279-1.251-0.653-1.414-1.104c-0.009-0.009-0.018-0.018-0.029-0.029
			c0.275-0.03,0.597-0.13,0.849-0.197c0.425-0.113,0.805-0.084,1.244-0.198c0.198-0.057,0.396-0.113,0.593-0.17
			c0-0.038,0-0.074,0-0.112c-0.222-0.228-0.38-0.529-0.622-0.736c-0.633-0.538-1.323-1.076-2.034-1.525
			c-0.396-0.25-0.883-0.411-1.3-0.622c-0.142-0.072-0.389-0.109-0.481-0.227c-0.219-0.279-0.338-0.635-0.508-0.961
			c-0.354-0.683-0.703-1.43-1.019-2.147c-0.214-0.49-0.354-0.975-0.622-1.414c-1.282-2.11-2.665-3.385-4.805-4.636
			c-0.455-0.267-1.003-0.371-1.583-0.509c-0.311-0.02-0.623-0.038-0.934-0.058c-0.19-0.079-0.388-0.311-0.565-0.424
			c-0.71-0.448-2.527-1.422-3.053-0.141c-0.331,0.809,0.495,1.597,0.792,2.007c0.207,0.287,0.474,0.608,0.621,0.934
			c0.098,0.211,0.116,0.425,0.199,0.648c0.205,0.555,0.53,1.185,0.796,1.696c0.135,0.26,0.282,0.532,0.453,0.764
			c0.104,0.142,0.283,0.204,0.311,0.424c-0.174,0.245-0.184,0.623-0.282,0.934c-0.441,1.393-0.275,3.125,0.368,4.155
			c0.197,0.317,0.662,0.995,1.3,0.734c0.558-0.228,0.434-0.932,0.594-1.554c0.036-0.141,0.014-0.245,0.085-0.339
			c0,0.009,0,0.018,0,0.028c0.169,0.339,0.338,0.679,0.509,1.018c0.377,0.606,1.046,1.241,1.61,1.668
			c0.294,0.223,0.525,0.605,0.905,0.736c0-0.009,0-0.02,0-0.029c-0.009,0-0.019,0-0.029,0c-0.073-0.114-0.188-0.162-0.281-0.255
			c-0.222-0.217-0.468-0.486-0.65-0.735c-0.515-0.698-0.971-1.465-1.386-2.261c-0.197-0.382-0.37-0.801-0.537-1.188
			c-0.064-0.149-0.062-0.375-0.197-0.453c-0.184,0.284-0.451,0.514-0.594,0.849c-0.226,0.535-0.256,1.188-0.339,1.866
			c-0.051,0.017-0.028,0.005-0.056,0.026c-0.395-0.096-0.534-0.5-0.68-0.848c-0.369-0.879-0.438-2.295-0.112-3.308
			c0.084-0.262,0.465-1.087,0.311-1.328c-0.073-0.241-0.316-0.382-0.452-0.565c-0.168-0.228-0.336-0.529-0.452-0.792
			c-0.303-0.686-0.591-1.482-0.909-2.177c-0.153-0.331-0.41-0.666-0.622-0.96c-0.234-0.326-0.497-0.568-0.678-0.962
			c-0.065-0.14-0.154-0.364-0.058-0.509c0.03-0.098,0.073-0.139,0.169-0.17c0.165-0.126,0.62,0.042,0.792,0.113
			c0.454,0.188,0.832,0.368,1.216,0.622c0.185,0.122,0.37,0.358,0.593,0.424c0.086,0,0.17,0,0.255,0
			c0.398,0.093,0.844,0.029,1.216,0.142c0.658,0.2,1.246,0.511,1.78,0.848c1.63,1.029,2.963,2.494,3.874,4.24
			c0.146,0.282,0.21,0.551,0.338,0.849c0.261,0.602,0.59,1.222,0.849,1.81c0.258,0.586,0.512,1.18,0.877,1.668
			c0.192,0.257,0.935,0.395,1.271,0.537c0.236,0.1,0.624,0.204,0.849,0.34c0.428,0.258,0.842,0.564,1.243,0.848
			C251.21,227.129,251.828,227.439,251.858,227.694z"/>
		<path fill="#667888" d="M239.222,216.925c-0.208-0.003-0.354,0.021-0.51,0.057c0,0.009,0,0.018,0,0.028c0.01,0,0.02,0,0.029,0
			c0.099,0.203,0.272,0.335,0.395,0.51c0.095,0.197,0.188,0.395,0.282,0.594c0.011-0.01,0.02-0.02,0.028-0.029
			c0.176-0.123,0.256-0.32,0.255-0.622c-0.07-0.074-0.08-0.166-0.142-0.254C239.48,217.09,239.324,217.023,239.222,216.925z"/>
	</g>
</g>
<g id="PHPMYADMIN" display="none">
	<path display="inline" fill-rule="evenodd" clip-rule="evenodd" fill="#A9B7C1" d="M235.531,209.877
		c-0.048,0.309,0.072,0.561,0.232,0.819c0.95,1.539,1.887,3.086,2.83,4.629c1.027,1.682,2.061,3.361,3.09,5.043
		c0.896,1.467,1.789,2.937,2.686,4.405c0.354,0.581,0.71,1.161,1.064,1.741c0.021,0.033,0.064,0.061,0.03,0.112
		c-0.073-0.001-0.083-0.069-0.11-0.111c-0.137-0.216-0.271-0.435-0.401-0.656c-0.039-0.066-0.091-0.102-0.163-0.119
		c-1.061-0.258-2.07-0.653-3.033-1.164c-0.817-0.433-1.584-0.943-2.297-1.535c-0.15-0.125-0.304-0.247-0.451-0.375
		c-0.107-0.094-0.156-0.231-0.225-0.352c-0.338-0.591-0.67-1.185-1.006-1.777c-0.029-0.052-0.035-0.104-0.033-0.162
		c0.01-0.303,0.026-0.605,0.025-0.908c-0.002-0.447-0.002-0.896-0.029-1.342c-0.048-0.774-0.118-1.546-0.239-2.313
		c-0.183-1.156-0.455-2.289-0.82-3.4c-0.081-0.248-0.239-0.451-0.371-0.67c-0.234-0.392-0.474-0.781-0.71-1.171
		c-0.023-0.039-0.041-0.083-0.089-0.109c-0.021,0.314-0.046,0.623-0.062,0.932c-0.032,0.618-0.053,1.237-0.091,1.855
		c-0.03,0.506-0.056,1.013-0.084,1.52c-0.028,0.52-0.056,1.041-0.085,1.561c-0.029,0.497-0.055,0.994-0.082,1.491
		c-0.029,0.529-0.061,1.059-0.087,1.589c-0.024,0.502-0.056,1.003-0.083,1.505c-0.027,0.516-0.055,1.031-0.084,1.547
		c-0.029,0.511-0.055,1.022-0.084,1.533c-0.029,0.516-0.056,1.032-0.084,1.547c-0.028,0.511-0.065,1.021-0.083,1.533
		c-0.01,0.274-0.038,0.547-0.052,0.822c-0.004,0.08-0.045,0.113-0.111,0.109c-0.089-0.005-0.032-0.07-0.031-0.106
		c0.018-0.438,0.035-0.875,0.059-1.312c0.033-0.58,0.073-1.16,0.107-1.741c0.011-0.181,0.013-0.362,0.025-0.544
		c0.033-0.441,0.037-0.884,0.065-1.325c0.032-0.511,0.059-1.022,0.086-1.533c0.026-0.506,0.054-1.013,0.083-1.519
		c0.029-0.511,0.058-1.022,0.085-1.533c0.026-0.502,0.056-1.003,0.084-1.505c0.029-0.516,0.054-1.031,0.085-1.547
		c0.029-0.502,0.055-1.003,0.082-1.505c0.029-0.506,0.057-1.013,0.085-1.519c0.028-0.511,0.06-1.022,0.083-1.533
		c0.015-0.302,0.053-0.603,0.053-0.905C235.437,209.877,235.484,209.877,235.531,209.877z"/>
	<path display="inline" fill-rule="evenodd" clip-rule="evenodd" fill="#A9B7C1" d="M202.234,234.148
		c0.076-0.311,0.111-0.63,0.164-0.945c0.139-0.84,0.274-1.68,0.412-2.52c0.02-0.125,0.043-0.248,0.059-0.373
		c0.008-0.067,0.035-0.096,0.106-0.095c0.575,0.004,1.15-0.013,1.724,0.011c0.592,0.024,1.004,0.481,1.019,1.074
		c0.012,0.452-0.09,0.866-0.361,1.236c-0.315,0.43-0.748,0.616-1.264,0.633c-0.252,0.008-0.504,0.006-0.757,0.001
		c-0.08-0.001-0.112,0.018-0.124,0.104c-0.038,0.275-0.092,0.55-0.131,0.826c-0.015,0.104-0.052,0.145-0.16,0.139
		c-0.229-0.009-0.458-0.006-0.687-0.008C202.234,234.205,202.234,234.176,202.234,234.148z M203.987,230.851
		c-0.104,0-0.184,0.004-0.263-0.001c-0.089-0.006-0.129,0.019-0.145,0.118c-0.074,0.492-0.158,0.982-0.241,1.475
		c-0.013,0.075,0.012,0.098,0.086,0.098c0.22,0.004,0.439,0,0.657-0.026c0.34-0.042,0.58-0.218,0.691-0.55
		c0.07-0.209,0.106-0.424,0.09-0.646c-0.016-0.227-0.126-0.361-0.346-0.417C204.335,230.855,204.149,230.845,203.987,230.851z"/>
	<path display="inline" fill-rule="evenodd" clip-rule="evenodd" fill="#A9B7C1" d="M223.731,234.876
		c-0.045-0.169-0.045-0.165,0.131-0.169c0.26-0.005,0.518,0.022,0.78,0.011c0.751-0.037,1.448-0.23,2.092-0.618
		c0.482-0.29,0.988-0.521,1.549-0.613c0.442-0.071,0.869,0.008,1.289,0.138c0.05,0.016,0.087,0.045,0.066,0.104
		c-0.021,0.065-0.07,0.042-0.115,0.029c-0.242-0.07-0.486-0.127-0.738-0.144c-0.672-0.044-1.266,0.2-1.827,0.525
		c-0.587,0.341-1.192,0.61-1.874,0.683c-0.036,0.004-0.064,0.012-0.064,0.055c-0.047,0-0.093,0-0.14,0
		c-0.028-0.039-0.056-0.037-0.084,0c-0.28,0-0.561,0-0.841,0c-0.038-0.039-0.075-0.041-0.112,0
		C223.806,234.876,223.768,234.876,223.731,234.876z"/>
	<path display="inline" fill-rule="evenodd" clip-rule="evenodd" fill="#FEFEFE" d="M223.843,234.876
		c0.038-0.041,0.075-0.039,0.112,0C223.917,234.876,223.88,234.876,223.843,234.876z"/>
	<path display="inline" fill-rule="evenodd" clip-rule="evenodd" fill="#FEFEFE" d="M224.796,234.876
		c0.028-0.037,0.056-0.039,0.084,0C224.852,234.876,224.824,234.876,224.796,234.876z"/>
	<path display="inline" fill-rule="evenodd" clip-rule="evenodd" fill="#A9B7C1" d="M227.199,228.26
		c3.638-5.531,6.299-11.47,7.998-17.847c-0.006,0.12-0.002,0.24-0.02,0.358c-0.018,0.126,0.008,0.254-0.018,0.376
		c-0.038,0.184-0.027,0.371-0.043,0.556c-0.044,0.519-0.057,1.041-0.095,1.56c-0.042,0.575-0.077,1.151-0.113,1.727
		c-0.026,0.422-0.054,0.845-0.083,1.267c-0.039,0.575-0.075,1.151-0.112,1.727c-0.037,0.575-0.075,1.151-0.112,1.726
		c-0.037,0.576-0.076,1.151-0.113,1.727c-0.027,0.417-0.057,0.835-0.081,1.253c-0.034,0.585-0.074,1.169-0.112,1.754
		c-0.027,0.417-0.053,0.835-0.084,1.252c-0.043,0.589-0.089,1.178-0.113,1.769c-0.002,0.046-0.018,0.091-0.021,0.138
		c-0.025,0.274-0.023,0.278-0.306,0.293c-0.418,0.022-0.837,0.034-1.255,0.061c-0.691,0.044-1.385,0.081-2.076,0.116
		c-0.475,0.024-0.947,0.058-1.422,0.081c-0.562,0.028-1.123,0.071-1.684,0.106C227.301,228.262,227.268,228.26,227.199,228.26z"/>
	<path display="inline" fill-rule="evenodd" clip-rule="evenodd" fill="#A9B7C1" d="M226.232,228.683
		c-0.138-0.066-0.273,0.004-0.408,0.013c-0.319,0.02-0.637,0.064-0.956,0.1c-0.397,0.044-0.794,0.09-1.191,0.133
		c-0.291,0.032-0.582,0.06-0.873,0.091c-0.24,0.025-0.481,0.047-0.72,0.079c-0.103,0.013-0.123-0.011-0.089-0.108
		c0.408-1.17,0.814-2.341,1.22-3.513c0.218-0.629,0.434-1.26,0.651-1.89c0.507-1.467,1.014-2.933,1.521-4.399
		c0.317-0.916,0.635-1.832,0.953-2.747c0.292-0.84,0.585-1.681,0.877-2.521c0.007-0.021,0.018-0.041,0.045-0.101
		c-0.012,0.242-0.02,0.443-0.033,0.643c-0.013,0.19-0.037,0.379-0.049,0.569c-0.04,0.631-0.07,1.264-0.118,1.895
		c-0.041,0.542-0.072,1.085-0.112,1.628c-0.05,0.691-0.094,1.383-0.141,2.074c-0.027,0.413-0.054,0.826-0.083,1.239
		c-0.041,0.557-0.074,1.114-0.113,1.67c-0.038,0.542-0.073,1.085-0.111,1.628c-0.04,0.571-0.077,1.142-0.116,1.712
		c-0.037,0.547-0.086,1.094-0.105,1.643c-0.001,0.023,0.003,0.046,0.004,0.07C226.277,228.627,226.26,228.658,226.232,228.683z"/>
	<path display="inline" fill-rule="evenodd" clip-rule="evenodd" fill="#A9B7C1" d="M235.399,216.695
		c0.136,0.237,0.271,0.474,0.406,0.711c0.465,0.819,0.931,1.638,1.394,2.457c0.466,0.824,0.929,1.649,1.395,2.473
		c0.496,0.876,0.996,1.751,1.492,2.627c0.398,0.702,0.793,1.405,1.19,2.107c0.052,0.092,0.027,0.118-0.073,0.129
		c-0.512,0.06-1.022,0.127-1.534,0.189c-0.493,0.06-0.987,0.114-1.48,0.174c-0.493,0.06-0.985,0.124-1.479,0.189
		c-0.15,0.02-0.181,0.001-0.168-0.143c0.034-0.367,0.042-0.734,0.058-1.102c0.034-0.741,0.061-1.482,0.049-2.223
		c-0.01-0.545-0.021-1.09-0.057-1.634c-0.072-1.108-0.189-2.212-0.416-3.302c-0.176-0.84-0.402-1.665-0.731-2.459
		c-0.024-0.059-0.05-0.117-0.075-0.176C235.379,216.708,235.389,216.702,235.399,216.695z"/>
	<path display="inline" fill-rule="evenodd" clip-rule="evenodd" fill="#667888" d="M218.604,229.478
		c-0.056,0.032-0.065,0.086-0.087,0.13c-0.577,1.146-1.155,2.29-1.727,3.437c-0.047,0.094-0.099,0.126-0.202,0.123
		c-0.29-0.007-0.579-0.006-0.869,0c-0.095,0.002-0.126-0.031-0.143-0.121c-0.215-1.169-0.433-2.338-0.651-3.506
		c-0.008-0.046-0.021-0.091-0.047-0.137c-0.048,0.352-0.097,0.703-0.144,1.054c-0.115,0.864-0.23,1.729-0.343,2.595
		c-0.011,0.082-0.038,0.117-0.13,0.115c-0.285-0.006-0.57-0.006-0.854,0c-0.089,0.002-0.113-0.023-0.099-0.112
		c0.183-1.113,0.362-2.228,0.543-3.341c0.07-0.434,0.143-0.865,0.207-1.299c0.014-0.093,0.043-0.125,0.14-0.124
		c0.439,0.005,0.878,0.006,1.317,0c0.104-0.001,0.13,0.037,0.147,0.132c0.21,1.166,0.425,2.33,0.64,3.494
		c0.003,0.018,0.007,0.033,0.015,0.062c0.062-0.036,0.075-0.092,0.098-0.139c0.578-1.139,1.157-2.278,1.73-3.42
		c0.049-0.099,0.102-0.132,0.211-0.13c0.425,0.007,0.85,0.007,1.275,0c0.116-0.002,0.128,0.038,0.111,0.138
		c-0.251,1.537-0.5,3.074-0.746,4.612c-0.016,0.103-0.052,0.129-0.151,0.126c-0.252-0.007-0.504-0.009-0.756,0.001
		c-0.124,0.005-0.158-0.02-0.132-0.15c0.132-0.677,0.254-1.356,0.38-2.034c0.087-0.469,0.173-0.936,0.259-1.403
		C218.603,229.548,218.602,229.517,218.604,229.478z"/>
	<path display="inline" fill-rule="evenodd" clip-rule="evenodd" fill="#A9B7C1" d="M233.351,228.766
		c0.346-0.04,0.691-0.077,1.037-0.118c0.359-0.043,0.719-0.088,1.078-0.133c0.424-0.053,0.848-0.11,1.271-0.161
		c0.429-0.052,0.859-0.096,1.287-0.148c0.494-0.06,0.986-0.126,1.479-0.187c0.415-0.051,0.83-0.098,1.246-0.148
		c0.424-0.052,0.848-0.106,1.271-0.159c0.341-0.042,0.682-0.08,1.023-0.122c0.424-0.052,0.848-0.106,1.271-0.158
		c0.342-0.042,0.684-0.081,1.023-0.122c0.425-0.052,0.849-0.105,1.272-0.157c0.137-0.016,0.274-0.028,0.415-0.029
		c-0.168,0.142-0.37,0.204-0.578,0.241c-0.443,0.079-0.895,0.111-1.338,0.195c-1.413,0.266-2.696,0.814-3.811,1.735
		c-0.107,0.089-0.203,0.189-0.305,0.285c-0.223,0.002-0.445,0.007-0.669,0.004c-0.08-0.002-0.11,0.021-0.124,0.104
		c-0.049,0.321-0.107,0.64-0.162,0.96c-0.207,0.256-0.386,0.532-0.55,0.818c-0.043,0.074-0.077,0.159-0.176,0.185
		c-0.104,0.026-0.204,0.06-0.307,0.089c0.051-0.344,0.118-0.688,0.148-1.035c0.058-0.654-0.204-0.945-0.755-1.062
		c-0.163-0.033-0.332-0.053-0.499-0.053c-1.241-0.006-2.481-0.003-3.722-0.006c-0.094,0-0.125,0.027-0.14,0.123
		c-0.075,0.482-0.159,0.963-0.24,1.444c-0.272-0.031-0.544-0.075-0.819-0.085c0-0.019-0.002-0.037,0.001-0.056
		C233.105,230.262,233.228,229.514,233.351,228.766z M240.803,229.185c0.14,0,0.28-0.002,0.419,0
		c0.062,0.002,0.095-0.02,0.104-0.083c0.036-0.239,0.075-0.478,0.114-0.717c0.011-0.064-0.008-0.094-0.079-0.093
		c-0.284,0.002-0.569,0.002-0.854,0c-0.057,0-0.087,0.02-0.096,0.076c-0.038,0.239-0.075,0.478-0.114,0.717
		c-0.013,0.071,0.008,0.104,0.085,0.101C240.523,229.181,240.664,229.185,240.803,229.185z"/>
	<path display="inline" fill-rule="evenodd" clip-rule="evenodd" fill="#667888" d="M233.801,231.151
		c0.081-0.481,0.165-0.962,0.24-1.444c0.015-0.096,0.046-0.123,0.14-0.123c1.24,0.003,2.48,0,3.722,0.006
		c0.167,0,0.336,0.02,0.499,0.053c0.551,0.117,0.812,0.408,0.755,1.062c-0.03,0.348-0.098,0.691-0.148,1.035
		c-0.062,0.373-0.124,0.746-0.187,1.119c-0.007,0.055-0.014,0.11-0.021,0.166c-0.007,0.123-0.077,0.154-0.191,0.143
		c-0.082-0.009-0.166,0.002-0.249,0.003c-0.121-0.001-0.242-0.001-0.363-0.001c-0.211-0.01-0.209-0.01-0.176-0.225
		c0.051-0.326,0.098-0.654,0.146-0.98c0.043-0.115,0.047-0.236,0.066-0.355c0.042-0.257,0.086-0.514,0.119-0.771
		c0.039-0.291-0.062-0.41-0.354-0.451c-0.218-0.029-0.437-0.008-0.654-0.016c-0.052-0.002-0.091,0.009-0.1,0.07
		c-0.065,0.422-0.132,0.844-0.197,1.266c-0.037,0.235-0.074,0.471-0.112,0.705c-0.021,0.045-0.03,0.092-0.024,0.141
		c-0.029,0.17-0.062,0.339-0.086,0.51c-0.01,0.071-0.027,0.106-0.109,0.105c-0.27-0.005-0.54-0.006-0.811,0
		c-0.09,0.002-0.096-0.033-0.084-0.109c0.039-0.232,0.092-0.465,0.105-0.702c0.033-0.042,0.025-0.091,0.026-0.139
		c0.052-0.241,0.093-0.484,0.116-0.73c0.06-0.348,0.117-0.695,0.18-1.042c0.014-0.076-0.028-0.074-0.078-0.074
		c-0.322,0-0.643,0-0.965-0.002c-0.061,0-0.091,0.017-0.1,0.083c-0.041,0.28-0.086,0.56-0.13,0.84
		c-0.049,0.25-0.096,0.501-0.119,0.755c-0.03,0.043-0.024,0.092-0.024,0.141c-0.047,0.279-0.102,0.559-0.139,0.84
		c-0.016,0.113-0.059,0.145-0.168,0.141c-0.248-0.008-0.495-0.004-0.742,0c-0.082,0-0.101-0.02-0.086-0.104
		C233.603,232.426,233.701,231.789,233.801,231.151z"/>
	<path display="inline" fill-rule="evenodd" clip-rule="evenodd" fill="#667888" d="M226.232,228.683
		c0.028-0.025,0.045-0.056,0.053-0.093c0.046-0.073,0.098-0.143,0.137-0.219c0.032-0.062,0.078-0.083,0.142-0.082
		c0.055,0,0.109,0,0.164,0c0.247,0.001,0.494,0.008,0.741,0.001c0.098-0.003,0.136,0.03,0.161,0.122
		c0.093,0.345,0.195,0.688,0.293,1.032c0.159,0.568,0.317,1.138,0.476,1.707c0.062,0.244,0.123,0.489,0.208,0.728
		c0.013,0.058,0.027,0.114,0.041,0.173c0.093,0.336,0.185,0.674,0.283,1.01c0.023,0.082,0.01,0.105-0.078,0.105
		c-0.327-0.004-0.653-0.006-0.98,0c-0.093,0.002-0.106-0.045-0.123-0.113c-0.068-0.279-0.138-0.56-0.207-0.84
		c0.006-0.051-0.016-0.094-0.031-0.141c0.003-0.072-0.05-0.065-0.096-0.065c-0.676,0.003-1.353,0.006-2.03,0.007
		c-0.062,0-0.088,0.031-0.115,0.08c-0.178,0.322-0.361,0.641-0.535,0.965c-0.043,0.082-0.093,0.109-0.185,0.107
		c-0.325-0.006-0.649-0.002-0.992-0.002c0.065-0.121,0.121-0.227,0.177-0.332c0.024-0.033,0.051-0.064,0.072-0.1
		c0.238-0.396,0.476-0.791,0.712-1.188c0.363-0.608,0.724-1.217,1.086-1.826C225.815,229.375,226.023,229.029,226.232,228.683z
		 M226.898,229.577c0-0.101-0.032-0.192-0.072-0.308c-0.06,0.117-0.11,0.213-0.16,0.311c-0.275,0.491-0.551,0.982-0.828,1.474
		c-0.05,0.089,0,0.089,0.066,0.089c0.336-0.002,0.672,0,1.008-0.002c0.121-0.001,0.291,0.053,0.349-0.021
		c0.066-0.084-0.028-0.234-0.059-0.354C227.101,230.369,227.024,229.966,226.898,229.577z"/>
	<path display="inline" fill-rule="evenodd" clip-rule="evenodd" fill="#667888" d="M223.018,233.824
		c-0.288,0.445-0.723,0.619-1.228,0.629c-0.644,0.014-1.288,0.002-1.933,0.008c-0.104,0-0.111-0.035-0.093-0.123
		c0.031-0.15,0.054-0.303,0.073-0.455c0.013-0.106,0.044-0.156,0.171-0.154c0.546,0.01,1.092,0.004,1.638,0.003
		c0.189-0.001,0.359-0.054,0.49-0.198c0.025-0.027,0.046-0.059,0.064-0.092c0.13-0.231,0.105-0.273-0.156-0.276
		c-0.396-0.005-0.793,0.027-1.187-0.051c-0.575-0.114-0.828-0.436-0.779-1.019c0.051-0.614,0.186-1.217,0.275-1.825
		c0.028-0.194,0.069-0.386,0.092-0.58c0.011-0.085,0.044-0.106,0.124-0.105c0.248,0.005,0.495,0.005,0.742,0
		c0.09-0.001,0.118,0.014,0.101,0.116c-0.115,0.681-0.219,1.363-0.331,2.043c-0.08,0.488,0.028,0.625,0.518,0.633
		c0.233,0.004,0.467-0.002,0.7,0.004c0.08,0.001,0.12-0.018,0.129-0.102c0.017-0.153,0.042-0.305,0.065-0.457
		c0.024-0.137,0.051-0.273,0.072-0.412c0.072-0.45,0.141-0.9,0.211-1.352c0.022-0.123,0.046-0.246,0.066-0.371
		c0.011-0.066,0.031-0.105,0.113-0.104c0.262,0.006,0.523,0.004,0.785,0.002c0.071-0.001,0.103,0.012,0.083,0.095
		c-0.021,0.085-0.025,0.175-0.037,0.263c-0.024,0.137-0.05,0.273-0.072,0.41c-0.122,0.758-0.242,1.514-0.362,2.271
		c-0.071,0.351-0.1,0.711-0.25,1.043C223.076,233.72,223.047,233.771,223.018,233.824z"/>
	<path display="inline" fill-rule="evenodd" clip-rule="evenodd" fill="#667888" d="M233.351,228.766
		c-0.123,0.748-0.246,1.496-0.368,2.244c-0.003,0.019-0.001,0.037-0.001,0.056c-0.064,0.265-0.093,0.535-0.135,0.803
		c-0.062,0.4-0.133,0.799-0.195,1.199c-0.012,0.076-0.037,0.1-0.113,0.1c-0.631-0.004-1.262-0.002-1.892-0.008
		c-0.206-0.002-0.409-0.035-0.603-0.109c-0.502-0.191-0.752-0.574-0.822-1.09c-0.003-0.048-0.006-0.096-0.008-0.143
		c0.002-0.264,0.041-0.523,0.097-0.78c0.009-0.021,0.021-0.041,0.028-0.062c0.307-0.829,0.867-1.326,1.781-1.376
		c0.336-0.018,0.671-0.006,1.007-0.015c0.052-0.001,0.114,0.021,0.126-0.069c0.025-0.203,0.057-0.404,0.086-0.607
		c0.031-0.169,0.064-0.338,0.092-0.507c0.012-0.074,0.032-0.112,0.121-0.109c0.257,0.008,0.514,0.005,0.77,0.001
		c0.084-0.001,0.104,0.021,0.086,0.104C233.38,228.518,233.369,228.643,233.351,228.766z M230.261,231.879
		c0.021,0.243,0.148,0.396,0.41,0.464c0.347,0.091,0.703,0.049,1.055,0.057c0.045,0,0.067-0.023,0.073-0.066
		c0.019-0.143,0.039-0.285,0.059-0.428c0.022-0.044,0.03-0.092,0.025-0.141c0.05-0.26,0.1-0.519,0.122-0.781
		c0.058-0.178,0.057-0.365,0.1-0.546c0.013-0.054-0.008-0.077-0.064-0.076c-0.315,0.009-0.635-0.03-0.947,0.037
		c-0.32,0.069-0.58,0.224-0.691,0.558c-0.124,0.245-0.16,0.51-0.159,0.781C230.233,231.787,230.239,231.834,230.261,231.879z"/>
	<path display="inline" fill-rule="evenodd" clip-rule="evenodd" fill="#667888" d="M243.218,229.585
		c0.359,0.01,0.781-0.031,1.197,0.038c0.709,0.116,0.967,0.479,0.855,1.19c-0.115,0.746-0.238,1.491-0.356,2.236
		c-0.013,0.08-0.036,0.121-0.13,0.117c-0.252-0.008-0.505-0.005-0.757,0c-0.083,0.001-0.112-0.012-0.096-0.107
		c0.113-0.676,0.22-1.354,0.329-2.029c0.02-0.121,0.026-0.241,0.02-0.363c-0.008-0.139-0.079-0.223-0.215-0.256
		c-0.184-0.046-0.371-0.035-0.557-0.037c-0.149-0.002-0.299,0.005-0.448-0.002c-0.092-0.004-0.128,0.023-0.143,0.119
		c-0.114,0.732-0.235,1.463-0.354,2.195c-0.02,0.123-0.043,0.248-0.057,0.373c-0.01,0.08-0.041,0.109-0.125,0.107
		c-0.247-0.006-0.495-0.009-0.742,0.001c-0.114,0.005-0.129-0.032-0.112-0.134c0.092-0.543,0.178-1.086,0.265-1.629
		c0.091-0.557,0.183-1.113,0.268-1.671c0.018-0.108,0.047-0.157,0.174-0.153C242.541,229.594,242.849,229.585,243.218,229.585z"/>
	<path display="inline" fill-rule="evenodd" clip-rule="evenodd" fill="#A9B7C1" d="M210.913,230.216
		c0.274,0.018,0.611-0.031,0.945,0.031c0.538,0.1,0.882,0.511,0.892,1.061c0.009,0.535-0.139,1.011-0.514,1.406
		c-0.302,0.318-0.685,0.438-1.108,0.455c-0.247,0.009-0.495,0.009-0.742,0c-0.104-0.004-0.139,0.035-0.152,0.128
		c-0.037,0.258-0.083,0.515-0.118,0.772c-0.016,0.117-0.049,0.183-0.188,0.172c-0.176-0.014-0.354-0.008-0.532-0.002
		c-0.103,0.003-0.134-0.018-0.114-0.135c0.16-0.953,0.31-1.909,0.463-2.864c0.048-0.299,0.096-0.597,0.143-0.896
		c0.014-0.09,0.048-0.135,0.154-0.132C210.31,230.222,210.581,230.216,210.913,230.216z M210.98,230.851c-0.004,0-0.009,0-0.014,0
		c-0.334,0-0.338,0-0.395,0.33c-0.07,0.408-0.132,0.817-0.201,1.226c-0.018,0.106,0.015,0.14,0.123,0.136
		c0.182-0.009,0.363-0.01,0.544-0.021c0.396-0.026,0.645-0.207,0.771-0.58c0.046-0.138,0.073-0.28,0.085-0.424
		c0.036-0.423-0.111-0.596-0.523-0.648C211.24,230.853,211.11,230.854,210.98,230.851z"/>
	<path display="inline" fill-rule="evenodd" clip-rule="evenodd" fill="#A9B7C1" d="M207.505,230.875
		c-0.104,0.016-0.282-0.064-0.369,0.031c-0.076,0.084-0.056,0.256-0.077,0.389c-0.095,0.592-0.19,1.185-0.284,1.777
		c-0.011,0.069-0.043,0.104-0.121,0.102c-0.196-0.004-0.393-0.006-0.588,0c-0.098,0.004-0.124-0.037-0.109-0.124
		c0.043-0.262,0.086-0.523,0.127-0.785c0.108-0.675,0.215-1.351,0.324-2.024c0.053-0.331,0.113-0.66,0.162-0.992
		c0.012-0.08,0.045-0.1,0.118-0.098c0.191,0.002,0.383,0.006,0.574-0.002c0.116-0.004,0.145,0.031,0.123,0.146
		c-0.052,0.273-0.084,0.552-0.136,0.826c-0.018,0.095,0.018,0.098,0.09,0.097c0.275-0.001,0.551-0.001,0.827,0.003
		c0.16,0.002,0.315,0.034,0.464,0.092c0.327,0.125,0.502,0.466,0.44,0.859c-0.1,0.635-0.203,1.268-0.302,1.901
		c-0.012,0.077-0.047,0.102-0.12,0.101c-0.21-0.003-0.42-0.004-0.631,0c-0.085,0.001-0.099-0.031-0.086-0.111
		c0.099-0.592,0.195-1.184,0.29-1.775c0.041-0.258-0.073-0.395-0.346-0.411C207.763,230.869,207.651,230.875,207.505,230.875z"/>
	<path display="inline" fill-rule="evenodd" clip-rule="evenodd" fill="#A9B7C1" d="M232.339,228.908
		c-0.029,0.203-0.061,0.404-0.086,0.607c-0.012,0.09-0.074,0.068-0.126,0.069c-0.336,0.009-0.671-0.003-1.007,0.015
		c-0.914,0.05-1.475,0.547-1.781,1.376c-0.008,0.021-0.02,0.042-0.028,0.062c-0.307,0.019-0.611,0.054-0.913,0.114
		c-0.159-0.569-0.317-1.139-0.476-1.707c0.29-0.039,0.579-0.08,0.868-0.117c0.432-0.055,0.864-0.107,1.297-0.161
		c0.405-0.05,0.811-0.097,1.215-0.146c0.291-0.036,0.58-0.073,0.87-0.106C232.228,228.907,232.285,228.91,232.339,228.908z"/>
	<path display="inline" fill-rule="evenodd" clip-rule="evenodd" fill="#667888" d="M240.041,230.648
		c0.055-0.32,0.113-0.639,0.162-0.96c0.014-0.083,0.044-0.106,0.124-0.104c0.224,0.003,0.446-0.002,0.669-0.004
		c0.252,0.018,0.248,0.018,0.207,0.268c-0.174,1.061-0.346,2.122-0.512,3.185c-0.018,0.104-0.05,0.14-0.157,0.136
		c-0.232-0.008-0.466-0.002-0.699-0.002c-0.192,0-0.192,0-0.165-0.195c0.006-0.045,0.011-0.09,0.017-0.135
		c0.06-0.348,0.122-0.695,0.179-1.044C239.926,231.411,239.982,231.029,240.041,230.648z"/>
	<path display="inline" fill-rule="evenodd" clip-rule="evenodd" fill="#A9B7C1" d="M223.355,232.625
		c0.121-0.758,0.241-1.514,0.362-2.271c0.022-0.137,0.048-0.273,0.072-0.41c0.252-0.033,0.504-0.066,0.756-0.098
		c0.354-0.043,0.707-0.083,1.061-0.125c-0.362,0.609-0.724,1.218-1.086,1.826c-0.236,0.396-0.474,0.791-0.712,1.188
		c-0.021,0.035-0.048,0.066-0.072,0.1C223.593,232.792,223.484,232.691,223.355,232.625z"/>
	<path display="inline" fill-rule="evenodd" clip-rule="evenodd" fill="#A9B7C1" d="M226.728,228.29c-0.055,0-0.109,0-0.164,0
		c0.05-0.21,0.03-0.426,0.048-0.639c0.045-0.528,0.062-1.059,0.093-1.588c0.036-0.617,0.07-1.235,0.115-1.852
		c0.032-0.436,0.055-0.873,0.083-1.309c0.04-0.608,0.077-1.216,0.114-1.824c0.027-0.441,0.052-0.882,0.082-1.322
		c0.042-0.608,0.083-1.216,0.112-1.824c0.022-0.446,0.051-0.892,0.083-1.336c0.044-0.608,0.083-1.216,0.113-1.824
		c0.017-0.338,0.051-0.676,0.077-1.015c0.004-0.047,0.002-0.101,0.072-0.093c0.06,0.007,0.072,0.054,0.069,0.104
		c-0.009,0.19-0.004,0.384-0.034,0.571c-0.032,0.199-0.025,0.399-0.042,0.598c-0.045,0.538-0.057,1.078-0.095,1.616
		c-0.032,0.445-0.053,0.891-0.083,1.336c-0.041,0.599-0.075,1.197-0.113,1.796c-0.038,0.608-0.074,1.216-0.112,1.824
		c-0.038,0.599-0.076,1.197-0.112,1.796c-0.027,0.445-0.055,0.891-0.083,1.336c-0.039,0.604-0.077,1.207-0.113,1.81
		c-0.026,0.441-0.056,0.882-0.084,1.323C226.741,227.946,226.729,228.117,226.728,228.29z"/>
	<path display="inline" fill-rule="evenodd" clip-rule="evenodd" fill="#A9B7C1" d="M236.849,231.707
		c0.065-0.422,0.132-0.844,0.197-1.266c0.009-0.062,0.048-0.072,0.1-0.07c0.218,0.008,0.437-0.014,0.654,0.016
		c0.292,0.041,0.393,0.16,0.354,0.451c-0.033,0.258-0.077,0.515-0.119,0.771c-0.02,0.119-0.023,0.24-0.066,0.355
		c-0.309-0.078-0.619-0.152-0.928-0.232C236.976,231.714,236.914,231.708,236.849,231.707z"/>
	<path display="inline" fill-rule="evenodd" clip-rule="evenodd" fill="#A9B7C1" d="M228.638,211.477
		c0.418,0.015,0.75,0.173,1.03,0.435c0.1,0.093,0.159,0.092,0.25,0.005c0.248-0.239,0.543-0.389,0.888-0.429
		c0.312-0.037,0.589,0.068,0.845,0.229c0.067,0.042,0.089,0.133,0.035,0.211c-0.055,0.079-0.133,0.101-0.221,0.062
		c-0.132-0.058-0.255-0.129-0.402-0.155c-0.333-0.059-0.6,0.077-0.85,0.266c-0.096,0.073-0.183,0.159-0.27,0.242
		c-0.118,0.112-0.193,0.116-0.309,0c-0.156-0.155-0.312-0.303-0.512-0.406c-0.302-0.155-0.597-0.15-0.896-0.006
		c-0.034,0.017-0.067,0.033-0.1,0.051c-0.095,0.05-0.176,0.027-0.227-0.062c-0.051-0.092-0.02-0.175,0.066-0.229
		c0.147-0.093,0.311-0.147,0.479-0.185C228.517,211.488,228.591,211.483,228.638,211.477z"/>
	<path display="inline" fill-rule="evenodd" clip-rule="evenodd" fill="#A9B7C1" d="M230.037,213.437
		c0.361-0.009,0.659,0.151,0.93,0.365c0.078,0.061,0.123,0.051,0.192,0c0.319-0.233,0.669-0.384,1.075-0.366
		c0.254,0.012,0.481,0.104,0.695,0.231c0.08,0.047,0.107,0.133,0.057,0.219c-0.053,0.091-0.139,0.106-0.23,0.065
		c-0.119-0.053-0.23-0.121-0.359-0.151c-0.398-0.093-0.734,0.051-1.045,0.275c-0.301,0.215-0.297,0.22-0.588-0.007
		c-0.221-0.172-0.455-0.309-0.75-0.296c-0.16,0.007-0.311,0.048-0.453,0.124c-0.049,0.026-0.1,0.056-0.152,0.068
		c-0.082,0.019-0.164,0.004-0.198-0.087c-0.034-0.089-0.011-0.168,0.075-0.217C229.517,213.529,229.761,213.429,230.037,213.437z"/>
	<path display="inline" fill-rule="evenodd" clip-rule="evenodd" fill="#A9B7C1" d="M222.779,230.058
		c-0.07,0.451-0.14,0.901-0.211,1.352c-0.021,0.139-0.048,0.275-0.072,0.412c-0.281-0.344-0.422-0.749-0.5-1.18
		c-0.021-0.117-0.033-0.238-0.034-0.359c0-0.096,0.037-0.133,0.127-0.143C222.319,230.117,222.549,230.086,222.779,230.058z"/>
	<path display="inline" fill-rule="evenodd" clip-rule="evenodd" fill="#A9B7C1" d="M237.998,233.169c0.121,0,0.242,0,0.363,0.001
		c-0.582,0.249-1.098,0.636-1.709,0.822c-0.415,0.127-0.839,0.192-1.273,0.218c-0.257,0.016-0.51-0.007-0.766-0.008
		c-0.041,0-0.084,0.008-0.121-0.02c-0.023-0.018-0.046-0.036-0.041-0.068c0.006-0.031,0.03-0.047,0.061-0.049
		c0.046-0.003,0.093-0.002,0.139-0.002c0.574,0.012,1.145,0.01,1.706-0.136c0.46-0.12,0.884-0.319,1.289-0.562
		C237.761,233.297,237.88,233.235,237.998,233.169z"/>
	<path display="inline" fill-rule="evenodd" clip-rule="evenodd" fill="#A9B7C1" d="M223.018,233.824
		c0.029-0.053,0.058-0.104,0.087-0.156c0.312,0.088,0.564,0.307,0.875,0.392c0.423,0.116,0.84,0.046,1.253-0.061
		c0.398-0.103,0.779-0.25,1.148-0.431c0.049-0.025,0.108-0.064,0.143,0.012c0.033,0.073-0.03,0.098-0.081,0.121
		c-0.58,0.272-1.176,0.494-1.819,0.555c-0.4,0.037-0.781-0.041-1.125-0.256C223.349,233.906,223.19,233.851,223.018,233.824z"/>
	<path display="inline" fill-rule="evenodd" clip-rule="evenodd" fill="#A9B7C1" d="M227.511,232.074
		c0.015,0.047,0.037,0.09,0.031,0.141c-0.681,0.166-1.341,0.387-1.967,0.704c-0.229,0.115-0.45,0.245-0.664,0.386
		c-0.023,0.016-0.045,0.034-0.07,0.047c-0.048,0.025-0.102,0.074-0.145,0.002c-0.036-0.061,0.018-0.095,0.061-0.121
		c0.174-0.108,0.347-0.22,0.525-0.318C225.984,232.525,226.733,232.261,227.511,232.074z"/>
	<path display="inline" fill-rule="evenodd" clip-rule="evenodd" fill="#A9B7C1" d="M234.634,232.187
		c0-0.049-0.006-0.098,0.024-0.141c0.365,0.057,0.73,0.113,1.096,0.171c-0.001,0.048,0.007,0.097-0.026,0.139
		C235.365,232.3,235,232.244,234.634,232.187z"/>
	<path display="inline" fill-rule="evenodd" clip-rule="evenodd" fill="#A9B7C1" d="M239.686,232.835
		c-0.006,0.045-0.011,0.09-0.017,0.135c-0.291-0.008-0.582-0.006-0.868,0.055c0.007-0.056,0.014-0.111,0.021-0.166
		C239.11,232.853,239.396,232.777,239.686,232.835z"/>
	<path display="inline" fill-rule="evenodd" clip-rule="evenodd" fill="#A9B7C1" d="M229.214,231.818
		c0.002,0.047,0.005,0.095,0.008,0.143c-0.194,0.016-0.394-0.004-0.576,0.092c-0.014-0.059-0.027-0.115-0.041-0.173
		C228.807,231.848,229.009,231.818,229.214,231.818z"/>
	<path display="inline" fill-rule="evenodd" clip-rule="evenodd" fill="#A9B7C1" d="M236.712,232.552
		c-0.006-0.049,0.004-0.096,0.024-0.141c0.009,0.002,0.021,0,0.026,0.005c0.043,0.032,0.153,0.004,0.121,0.105
		C236.853,232.615,236.776,232.574,236.712,232.552z"/>
	<path display="inline" fill-rule="evenodd" clip-rule="evenodd" fill="#667888" d="M240.803,229.185c-0.14,0-0.28-0.004-0.42,0.001
		c-0.077,0.003-0.098-0.029-0.085-0.101c0.039-0.239,0.076-0.478,0.114-0.717c0.009-0.056,0.039-0.076,0.096-0.076
		c0.284,0.002,0.569,0.002,0.854,0c0.071-0.001,0.09,0.028,0.079,0.093c-0.039,0.239-0.078,0.478-0.114,0.717
		c-0.01,0.063-0.042,0.085-0.104,0.083C241.083,229.183,240.943,229.185,240.803,229.185z"/>
	<path display="inline" fill-rule="evenodd" clip-rule="evenodd" fill="#A9B7C1" d="M234.778,231.292
		c0.044-0.28,0.089-0.56,0.13-0.84c0.009-0.066,0.039-0.083,0.1-0.083c0.322,0.002,0.643,0.002,0.965,0.002
		c0.05,0,0.092-0.002,0.078,0.074c-0.062,0.347-0.12,0.694-0.18,1.042C235.506,231.421,235.142,231.357,234.778,231.292z"/>
	<path display="inline" fill-rule="evenodd" clip-rule="evenodd" fill="#A9B7C1" d="M226.898,229.577
		c0.126,0.39,0.203,0.792,0.305,1.188c0.031,0.119,0.125,0.27,0.059,0.354c-0.059,0.074-0.229,0.021-0.349,0.021
		c-0.336,0.002-0.672,0-1.008,0.002c-0.066,0-0.116,0-0.066-0.089c0.277-0.491,0.552-0.982,0.828-1.474
		C226.744,229.578,226.821,229.578,226.898,229.577z"/>
	<path display="inline" fill-rule="evenodd" clip-rule="evenodd" fill="#A9B7C1" d="M232.005,230.984
		c-0.535-0.003-1.068-0.048-1.604-0.027c0.111-0.334,0.371-0.488,0.691-0.558c0.312-0.067,0.632-0.028,0.947-0.037
		c0.057-0.001,0.077,0.022,0.064,0.076C232.062,230.619,232.063,230.806,232.005,230.984z"/>
	<path display="inline" fill-rule="evenodd" clip-rule="evenodd" fill="#A9B7C1" d="M231.858,231.906
		c-0.531-0.039-1.063-0.027-1.597-0.026c-0.022-0.045-0.028-0.093-0.019-0.142c0.547,0.005,1.095-0.014,1.641,0.027
		C231.888,231.814,231.88,231.862,231.858,231.906z"/>
</g>
<g id="POSTMAN" display="none">
	<path display="inline" fill-rule="evenodd" clip-rule="evenodd" fill="#FEFEFD" d="M224.927,199.726
		c-0.012-0.012-0.024-0.024-0.037-0.037C224.922,199.682,224.934,199.694,224.927,199.726z"/>
	<path display="inline" fill-rule="evenodd" clip-rule="evenodd" fill="#FEFEFD" d="M216.081,239.589
		c0.012,0.012,0.024,0.023,0.037,0.036C216.086,239.632,216.074,239.621,216.081,239.589z"/>
	<path display="inline" fill-rule="evenodd" clip-rule="evenodd" fill="#FEFEFD" d="M224.89,224.726
		c0.012-0.012,0.024-0.024,0.037-0.037C224.934,224.72,224.922,224.733,224.89,224.726z"/>
	<path display="inline" fill-rule="evenodd" clip-rule="evenodd" fill="#667888" d="M241.22,228.238
		c-0.002,0.024-0.002,0.049-0.003,0.073c-0.101,0.643-0.205,1.285-0.358,1.917c-0.004,0.024-0.008,0.049-0.012,0.073
		c-0.146,0.384-0.246,0.78-0.395,1.164c-0.523,1.357-1.254,2.59-2.209,3.689c-1.148,1.325-2.516,2.361-4.1,3.112
		c-1.092,0.52-2.24,0.858-3.436,1.041c-0.035,0.006-0.069,0.02-0.104,0.029c-0.025,0.004-0.051,0.009-0.076,0.014
		c-0.373,0.025-0.744,0.054-1.117,0.075c-1.205,0.069-2.389-0.072-3.557-0.362c-1.841-0.457-3.485-1.303-4.938-2.523
		c-1.586-1.333-2.764-2.965-3.54-4.885c-0.662-1.639-0.964-3.348-0.881-5.113c0.124-2.602,0.948-4.961,2.537-7.039
		c1.09-1.425,2.426-2.56,4.007-3.409c0.969-0.52,1.986-0.91,3.057-1.152c1.307-0.295,2.629-0.392,3.968-0.254
		c1.279,0.13,2.512,0.438,3.694,0.941c1.126,0.479,2.152,1.12,3.089,1.908c1.251,1.052,2.254,2.305,3.012,3.751
		c0.635,1.21,1.055,2.493,1.26,3.848c0.123,0.805,0.156,1.612,0.139,2.423C241.253,227.787,241.197,228.01,241.22,228.238z
		 M234.25,221.567c0.002-0.031-0.007-0.058-0.035-0.074c0-0.024,0-0.048,0-0.073c0.051-0.059,0.102-0.119,0.155-0.176
		c0.192-0.201,0.386-0.4,0.577-0.6c0.04-0.011,0.064-0.038,0.076-0.077c0.236-0.203,0.457-0.423,0.66-0.661
		c0.039-0.011,0.064-0.038,0.075-0.078c0.165-0.13,0.147-0.178-0.108-0.292c-0.016-0.004-0.029-0.008-0.045-0.012
		c-0.368-0.271-0.787-0.276-1.212-0.22c-0.204,0.027-0.41,0.075-0.569,0.226c-0.039-0.003-0.07,0.009-0.09,0.044
		c-0.12,0.045-0.217,0.12-0.293,0.223c-0.013,0.012-0.025,0.024-0.039,0.036c-0.085,0.054-0.135,0.137-0.183,0.222
		c-0.029,0.011-0.042,0.032-0.042,0.062c-0.018,0.017-0.037,0.032-0.05,0.052c-0.535,0.885-0.288,1.99,0.585,2.551
		c0.521,0.334,1.08,0.405,1.67,0.182c0.113-0.043,0.141-0.091,0.042-0.174c-0.087-0.075-0.147-0.181-0.254-0.235
		c-0.001-0.01-0.007-0.014-0.017-0.012c-0.193-0.241-0.419-0.448-0.646-0.654c-0.035-0.066-0.088-0.113-0.154-0.147
		C234.335,221.627,234.3,221.591,234.25,221.567L234.25,221.567z M227.028,226.179c-0.068,0.072-0.259,0.108-0.076,0.254
		c0.213,0.262,0.479,0.474,0.703,0.724c0.122,0.138,0.182,0.116,0.297,0c1.458-1.467,2.92-2.929,4.381-4.393
		c0.123-0.123,0.26-0.223,0.43-0.272c0.043-0.012,0.113,0.001,0.115-0.065c0-0.054-0.057-0.075-0.098-0.102
		c-0.301-0.194-0.621-0.208-0.953-0.095c-0.506,0.173-0.939,0.475-1.358,0.795c-0.981,0.75-1.868,1.608-2.761,2.458
		C227.474,225.707,227.23,225.923,227.028,226.179z M228.459,228.457c-0.013,0.002-0.031,0.004-0.049,0.008
		c-0.359,0.077-0.717,0.162-1.078,0.228c-0.408,0.075-0.759,0.202-1.069,0.526c-1.095,1.144-2.227,2.253-3.347,3.373
		c-0.079,0.079-0.112,0.128-0.017,0.22c0.369,0.361,0.732,0.728,1.097,1.092c0.051,0.052,0.101,0.123,0.186,0.078
		c0.085-0.045,0.058-0.124,0.042-0.196c-0.059-0.257-0.113-0.517-0.177-0.771c-0.041-0.164,0.013-0.271,0.161-0.347
		c0.252-0.127,0.502-0.26,0.751-0.392c1.534-0.81,3.002-1.722,4.333-2.843c0.101-0.085,0.09-0.139,0.008-0.22
		c-0.213-0.212-0.42-0.431-0.632-0.644C228.611,228.515,228.556,228.451,228.459,228.457z M233.636,223.359
		c0.005-0.106-0.01-0.208-0.067-0.301c-0.246-0.4-0.693-0.442-1.043-0.094c-0.938,0.938-1.874,1.875-2.812,2.813
		c-0.523,0.525-1.046,1.053-1.575,1.575c-0.107,0.106-0.118,0.182,0.003,0.283c0.113,0.094,0.215,0.202,0.313,0.312
		c0.092,0.103,0.176,0.116,0.279,0.017c0.11-0.106,0.227-0.206,0.342-0.307c0.756-0.664,1.512-1.326,2.268-1.99
		c0.69-0.608,1.38-1.216,2.068-1.826C233.558,223.715,233.652,223.561,233.636,223.359z M233.67,224.151
		c-0.001-0.035,0.005-0.073-0.027-0.085c-0.071-0.024-0.111,0.035-0.155,0.074c-0.469,0.414-0.938,0.829-1.408,1.243
		c-1.062,0.935-2.128,1.87-3.195,2.803c-0.089,0.078-0.076,0.133,0.001,0.208c0.208,0.201,0.413,0.403,0.61,0.613
		c0.1,0.104,0.17,0.098,0.272-0.002c0.608-0.589,1.22-1.173,1.798-1.792c0.637-0.682,1.254-1.38,1.73-2.189
		C233.458,224.749,233.588,224.458,233.67,224.151z M236.591,221.146c0-0.41-0.132-0.796-0.352-1.101
		c-0.096-0.134-0.163-0.123-0.269-0.016c-0.435,0.441-0.87,0.88-1.312,1.313c-0.094,0.091-0.092,0.152-0.004,0.239
		c0.328,0.322,0.656,0.642,0.975,0.973c0.12,0.124,0.211,0.11,0.324,0.003C236.365,222.176,236.595,221.715,236.591,221.146z
		 M223.76,234.136c0.018-0.025,0.037-0.053,0.055-0.078c-0.376-0.359-0.754-0.717-1.13-1.076c-0.074-0.071-0.129-0.037-0.188,0.021
		c-0.264,0.265-0.528,0.53-0.792,0.796c-0.039,0.039-0.087,0.076-0.063,0.141c0.024,0.065,0.087,0.055,0.141,0.059
		c0.245,0.019,0.489,0.037,0.734,0.055C222.931,234.081,223.346,234.109,223.76,234.136z M227.532,227.429
		c-0.281-0.279-0.527-0.516-0.763-0.764c-0.096-0.101-0.165-0.093-0.256,0c-0.317,0.324-0.639,0.643-0.958,0.965
		c-0.05,0.05-0.139,0.104-0.096,0.179c0.046,0.081,0.145,0.036,0.219,0.021c0.288-0.06,0.574-0.126,0.861-0.188
		C226.854,227.573,227.17,227.506,227.532,227.429z M227.279,228.43c0.226-0.048,0.471-0.1,0.716-0.154
		c0.089-0.021,0.223-0.014,0.249-0.086c0.031-0.084-0.101-0.133-0.158-0.199c-0.068-0.078-0.148-0.146-0.221-0.22
		c-0.049-0.051-0.09-0.048-0.139,0.001c-0.176,0.179-0.355,0.355-0.532,0.533c-0.027,0.027-0.052,0.058-0.032,0.097
		C227.182,228.441,227.223,228.431,227.279,228.43z"/>
	<path display="inline" fill-rule="evenodd" clip-rule="evenodd" fill="#FEFEFD" d="M228.459,228.457
		c0.097-0.006,0.152,0.058,0.207,0.113c0.212,0.212,0.419,0.432,0.632,0.644c0.082,0.081,0.093,0.135-0.008,0.22
		c-1.33,1.121-2.798,2.033-4.333,2.843c-0.249,0.132-0.499,0.265-0.751,0.392c-0.148,0.075-0.202,0.183-0.161,0.347
		c0.064,0.255,0.118,0.515,0.177,0.771c0.017,0.072,0.043,0.151-0.042,0.196c-0.085,0.045-0.135-0.026-0.186-0.078
		c-0.365-0.364-0.728-0.73-1.097-1.092c-0.095-0.092-0.062-0.141,0.017-0.22c1.121-1.12,2.252-2.229,3.347-3.373
		c0.31-0.325,0.661-0.452,1.069-0.526c0.361-0.066,0.719-0.151,1.078-0.228C228.428,228.461,228.446,228.459,228.459,228.457z"/>
	<path display="inline" fill-rule="evenodd" clip-rule="evenodd" fill="#FEFEFD" d="M227.028,226.179
		c0.202-0.256,0.446-0.473,0.68-0.695c0.893-0.85,1.779-1.708,2.761-2.458c0.419-0.32,0.853-0.622,1.358-0.795
		c0.332-0.113,0.652-0.099,0.953,0.095c0.041,0.026,0.098,0.047,0.098,0.102c-0.002,0.067-0.072,0.053-0.115,0.065
		c-0.17,0.049-0.307,0.149-0.43,0.272c-1.461,1.463-2.924,2.926-4.381,4.393c-0.115,0.116-0.175,0.137-0.297,0
		c-0.224-0.25-0.49-0.462-0.703-0.724C226.933,226.335,227.044,226.276,227.028,226.179z"/>
	<path display="inline" fill-rule="evenodd" clip-rule="evenodd" fill="#F6F4F2" d="M233.636,223.359
		c0.016,0.202-0.078,0.355-0.223,0.482c-0.688,0.61-1.378,1.218-2.068,1.826c-0.756,0.664-1.512,1.327-2.268,1.99
		c-0.115,0.101-0.232,0.201-0.342,0.307c-0.103,0.099-0.187,0.086-0.279-0.017c-0.098-0.109-0.2-0.218-0.313-0.312
		c-0.121-0.102-0.11-0.177-0.003-0.283c0.528-0.521,1.051-1.049,1.575-1.575c0.938-0.938,1.874-1.876,2.812-2.813
		c0.35-0.349,0.797-0.307,1.043,0.094C233.626,223.152,233.641,223.253,233.636,223.359z"/>
	<path display="inline" fill-rule="evenodd" clip-rule="evenodd" fill="#FEFEFD" d="M233.177,220.119
		c0-0.03,0.013-0.052,0.042-0.062c0.151,0.001,0.192-0.09,0.183-0.222c0.014-0.012,0.026-0.024,0.039-0.036
		c0.16,0.008,0.293-0.02,0.293-0.223c0.02-0.035,0.051-0.047,0.09-0.044c0.174,0.042,0.286-0.119,0.444-0.138
		c0.397-0.049,0.789-0.083,1.157,0.124c0.058,0.032,0.119,0.024,0.18,0.008c0.016,0.004,0.029,0.008,0.045,0.012
		c0.037,0.097,0.072,0.194,0.108,0.292c-0.011,0.04-0.036,0.067-0.075,0.078c-0.201,0.04-0.301,0.216-0.435,0.341
		c-0.093,0.086-0.251,0.145-0.226,0.32c-0.012,0.039-0.036,0.066-0.076,0.077c-0.084-0.01-0.13,0.047-0.186,0.096
		c-0.135,0.117-0.27,0.238-0.391,0.365c-0.069,0.073-0.239,0.148-0.156,0.315c0,0.024,0,0.048,0,0.073
		c-0.056,0.057-0.014,0.067,0.035,0.074v0c-0.008,0.076,0.023,0.116,0.104,0.113c0.066,0.034,0.119,0.082,0.154,0.147
		c0.012,0.061-0.031,0.141,0.051,0.177c0.1,0.043,0.145,0.147,0.224,0.202c0.126,0.088,0.161,0.304,0.372,0.274
		c0.01-0.002,0.016,0.002,0.017,0.012c-0.005,0.097,0.018,0.182,0.097,0.246c0.082,0.066,0.047,0.146-0.027,0.142
		c-0.189-0.01-0.355,0.09-0.539,0.085c-0.27-0.007-0.516-0.111-0.765-0.195c-0.069-0.023-0.139-0.061-0.16-0.14
		c-0.017-0.06-0.062-0.074-0.108-0.083c-0.117-0.025-0.19-0.107-0.264-0.189c-0.193-0.221-0.32-0.478-0.43-0.75
		c-0.093-0.23,0.006-0.446-0.009-0.67c-0.013-0.188,0.028-0.374,0.135-0.542C233.152,220.315,233.188,220.221,233.177,220.119z"/>
	<path display="inline" fill-rule="evenodd" clip-rule="evenodd" fill="#F6F4F2" d="M233.67,224.151
		c-0.082,0.307-0.213,0.597-0.374,0.873c-0.477,0.81-1.094,1.507-1.73,2.189c-0.578,0.619-1.189,1.203-1.798,1.792
		c-0.103,0.1-0.173,0.105-0.272,0.002c-0.197-0.21-0.402-0.413-0.61-0.613c-0.077-0.075-0.09-0.13-0.001-0.208
		c1.067-0.933,2.132-1.868,3.195-2.803c0.471-0.414,0.939-0.829,1.408-1.243c0.044-0.039,0.084-0.098,0.155-0.074
		C233.675,224.078,233.669,224.117,233.67,224.151z"/>
	<path display="inline" fill-rule="evenodd" clip-rule="evenodd" fill="#F6F4F2" d="M236.591,221.146
		c0.004,0.568-0.227,1.03-0.637,1.412c-0.113,0.106-0.204,0.121-0.324-0.003c-0.318-0.331-0.646-0.651-0.975-0.973
		c-0.088-0.086-0.09-0.147,0.004-0.239c0.441-0.433,0.877-0.872,1.312-1.313c0.105-0.107,0.173-0.118,0.269,0.016
		C236.459,220.35,236.591,220.736,236.591,221.146z M236.233,221.267c-0.003-0.113-0.003-0.209-0.047-0.302
		c-0.042-0.088-0.103-0.143-0.2-0.116c-0.105,0.029-0.124,0.119-0.09,0.206c0.064,0.164,0.041,0.308-0.055,0.45
		c-0.055,0.081-0.053,0.169,0.039,0.222c0.09,0.051,0.172,0.013,0.225-0.065C236.186,221.539,236.252,221.408,236.233,221.267z"/>
	<path display="inline" fill-rule="evenodd" clip-rule="evenodd" fill="#F6F4F2" d="M223.76,234.136
		c-0.414-0.027-0.829-0.056-1.243-0.084c-0.245-0.018-0.489-0.036-0.734-0.055c-0.054-0.004-0.117,0.007-0.141-0.059
		c-0.024-0.064,0.024-0.102,0.063-0.141c0.264-0.266,0.528-0.531,0.792-0.796c0.058-0.058,0.113-0.092,0.188-0.021
		c0.375,0.359,0.753,0.717,1.13,1.076C223.797,234.083,223.778,234.111,223.76,234.136z"/>
	<path display="inline" fill-rule="evenodd" clip-rule="evenodd" fill="#F6F4F2" d="M227.532,227.429
		c-0.361,0.078-0.678,0.145-0.993,0.213c-0.288,0.062-0.574,0.128-0.861,0.188c-0.074,0.015-0.172,0.06-0.219-0.021
		c-0.043-0.075,0.046-0.129,0.096-0.179c0.319-0.322,0.641-0.641,0.958-0.965c0.092-0.093,0.16-0.101,0.256,0
		C227.005,226.913,227.251,227.149,227.532,227.429z"/>
	<path display="inline" fill-rule="evenodd" clip-rule="evenodd" fill="#F6F4F2" d="M233.177,220.119
		c0.011,0.103-0.025,0.197-0.077,0.278c-0.106,0.167-0.147,0.354-0.135,0.542c0.015,0.224-0.084,0.44,0.009,0.67
		c0.109,0.272,0.236,0.529,0.43,0.75c0.073,0.083,0.146,0.164,0.264,0.189c0.046,0.01,0.092,0.023,0.108,0.083
		c0.021,0.079,0.091,0.117,0.16,0.14c0.249,0.084,0.495,0.188,0.765,0.195c0.184,0.004,0.35-0.095,0.539-0.085
		c0.074,0.004,0.109-0.075,0.027-0.142c-0.079-0.064-0.102-0.149-0.097-0.246c0.106,0.054,0.167,0.16,0.254,0.235
		c0.099,0.083,0.071,0.131-0.042,0.174c-0.59,0.223-1.149,0.152-1.67-0.182c-0.873-0.561-1.12-1.666-0.585-2.551
		C233.14,220.15,233.16,220.136,233.177,220.119z"/>
	<path display="inline" fill-rule="evenodd" clip-rule="evenodd" fill="#F6F4F2" d="M227.279,228.43
		c-0.056,0.001-0.097,0.011-0.118-0.029c-0.02-0.039,0.005-0.07,0.032-0.097c0.177-0.177,0.356-0.354,0.532-0.533
		c0.049-0.049,0.09-0.052,0.139-0.001c0.073,0.075,0.153,0.142,0.221,0.22c0.057,0.066,0.189,0.115,0.158,0.199
		c-0.026,0.072-0.16,0.065-0.249,0.086C227.75,228.33,227.504,228.381,227.279,228.43z"/>
	<path display="inline" fill-rule="evenodd" clip-rule="evenodd" fill="#F6F4F2" d="M235.605,219.526
		c-0.061,0.016-0.122,0.024-0.18-0.008c-0.368-0.207-0.76-0.173-1.157-0.124c-0.158,0.02-0.271,0.18-0.444,0.138
		c0.159-0.151,0.365-0.199,0.569-0.226C234.818,219.25,235.237,219.255,235.605,219.526z"/>
	<path display="inline" fill-rule="evenodd" clip-rule="evenodd" fill="#F6F4F2" d="M234.214,221.42
		c-0.083-0.167,0.087-0.242,0.156-0.315c0.121-0.126,0.256-0.248,0.391-0.365c0.056-0.048,0.102-0.106,0.186-0.096
		c-0.191,0.2-0.385,0.399-0.577,0.6C234.316,221.301,234.265,221.361,234.214,221.42z"/>
	<path display="inline" fill-rule="evenodd" clip-rule="evenodd" fill="#F6F4F2" d="M235.154,222.481
		c-0.211,0.03-0.246-0.186-0.372-0.274c-0.079-0.055-0.124-0.159-0.224-0.202c-0.082-0.036-0.039-0.116-0.051-0.177
		C234.735,222.034,234.96,222.241,235.154,222.481z"/>
	<path display="inline" fill-rule="evenodd" clip-rule="evenodd" fill="#F6F4F2" d="M235.023,220.568
		c-0.025-0.175,0.133-0.234,0.226-0.32c0.134-0.125,0.233-0.301,0.435-0.341C235.48,220.145,235.259,220.365,235.023,220.568z"/>
	<path display="inline" fill-rule="evenodd" clip-rule="evenodd" fill="#F6F4F2" d="M235.758,219.829
		c-0.036-0.097-0.071-0.194-0.108-0.292C235.906,219.651,235.923,219.699,235.758,219.829z"/>
	<path display="inline" fill-rule="evenodd" clip-rule="evenodd" fill="#F6F4F2" d="M233.734,219.576
		c0,0.203-0.133,0.23-0.293,0.223C233.517,219.696,233.614,219.621,233.734,219.576z"/>
	<path display="inline" fill-rule="evenodd" clip-rule="evenodd" fill="#F6F4F2" d="M233.402,219.834
		c0.01,0.131-0.031,0.223-0.183,0.222C233.267,219.972,233.317,219.888,233.402,219.834z"/>
	<path display="inline" fill-rule="evenodd" clip-rule="evenodd" fill="#F6F4F2" d="M227.028,226.179
		c0.016,0.097-0.095,0.156-0.076,0.254C226.77,226.287,226.96,226.251,227.028,226.179z"/>
	<path display="inline" fill-rule="evenodd" clip-rule="evenodd" fill="#F6F4F2" d="M234.353,221.68
		c-0.08,0.003-0.111-0.037-0.104-0.113C234.3,221.591,234.335,221.627,234.353,221.68z"/>
	<path display="inline" fill-rule="evenodd" clip-rule="evenodd" fill="#F6F4F2" d="M234.25,221.567
		c-0.049-0.007-0.091-0.017-0.035-0.074C234.243,221.509,234.251,221.536,234.25,221.567z"/>
	<path display="inline" fill-rule="evenodd" clip-rule="evenodd" fill="#667888" d="M236.233,221.267
		c0.02,0.141-0.047,0.272-0.128,0.395c-0.053,0.078-0.135,0.116-0.225,0.065c-0.092-0.053-0.094-0.142-0.039-0.222
		c0.096-0.142,0.119-0.286,0.055-0.45c-0.034-0.087-0.016-0.177,0.09-0.206c0.098-0.027,0.158,0.028,0.2,0.116
		C236.23,221.057,236.23,221.154,236.233,221.267z"/>
</g>
<g id="GIT_x2F_GITHUB" display="none">
	<path display="inline" fill="#667888" d="M226.295,213.239c-7.206,0-13.043,5.738-13.043,12.816c0,5.664,3.736,10.468,8.918,12.161
		c0.652,0.12,0.892-0.276,0.892-0.616c0-0.305-0.011-1.111-0.017-2.18c-3.628,0.773-4.394-1.72-4.394-1.72
		c-0.594-1.479-1.451-1.875-1.451-1.875c-1.182-0.794,0.092-0.778,0.092-0.778c1.31,0.09,1.998,1.321,1.998,1.321
		c1.162,1.96,3.053,1.394,3.799,1.066c0.117-0.83,0.453-1.394,0.825-1.715c-2.896-0.32-5.94-1.422-5.94-6.333
		c0-1.399,0.505-2.542,1.342-3.439c-0.146-0.323-0.587-1.627,0.114-3.393c0,0,1.093-0.343,3.587,1.314
		c1.044-0.284,2.152-0.426,3.261-0.433c1.108,0.007,2.218,0.148,3.261,0.433c2.479-1.657,3.571-1.314,3.571-1.314
		c0.7,1.766,0.261,3.069,0.13,3.393c0.832,0.897,1.337,2.04,1.337,3.439c0,4.924-3.049,6.008-5.951,6.322
		c0.457,0.385,0.881,1.171,0.881,2.372c0,1.715-0.017,3.094-0.017,3.51c0,0.336,0.229,0.737,0.896,0.608
		c5.219-1.683,8.952-6.489,8.952-12.145C239.338,218.977,233.499,213.239,226.295,213.239z"/>
</g>
</svg>
