<?xml version="1.0" encoding="utf-8"?>
<!-- Generator: Adobe Illustrator 16.0.0, SVG Export Plug-In . SVG Version: 6.00 Build 0)  -->
<!DOCTYPE svg PUBLIC "-//W3C//DTD SVG 1.1//EN" "http://www.w3.org/Graphics/SVG/1.1/DTD/svg11.dtd">
<svg version="1.1" xmlns="http://www.w3.org/2000/svg" xmlns:xlink="http://www.w3.org/1999/xlink" x="0px" y="0px" width="40px"
	 height="28.615px" viewBox="207.304 213.477 40 28.615" enable-background="new 207.304 213.477 40 28.615" xml:space="preserve">
<g id="HTML5" display="none">
	<g display="inline">
		<path fill="#0C5666" d="M210.8,208.402l3.201,35.952l14.35,4.048l14.449-4.048l3.202-35.952H210.8z M239.05,220.128h-16.849
			l0.375,4.524h16.099l-1.25,13.601l-8.974,2.476v0.024h-0.101l-9.051-2.5l-0.549-6.952h4.375l0.326,3.5l4.899,1.327l4.925-1.327
			l0.551-5.697h-15.3l-1.175-13.351h22.101L239.05,220.128z"/>
	</g>
</g>
<g id="CSS" display="none">
	<g display="inline">
		<g>
			<path fill="#0C5666" d="M210.901,207.902l3.188,36l14.312,4l14.309-3.996l3.191-36.004H210.901z M239.084,219.674l-0.402,4.522
				l-1.211,13.561l-9.07,2.504l-0.005,0.004l-9.062-2.512l-0.635-7.09h4.439l0.33,3.68l4.928,1.332l0.005-0.006l4.934-1.33
				l0.672-6.128l-15.521,0.043l-0.44-4.192l16.332-0.19l0.332-4.487l-17.102,0.048l-0.287-4.17h11.08h11.08L239.084,219.674z"/>
		</g>
	</g>
</g>
<g id="SASS" display="none">
	<g display="inline">
		<path fill="#0C5666" d="M261.703,232.402c-1.864,0.01-3.481,0.456-4.837,1.127c-0.496-0.989-0.996-1.861-1.082-2.509
			c-0.096-0.752-0.209-1.204-0.092-2.104c0.117-0.899,0.639-2.171,0.631-2.267c-0.004-0.096-0.115-0.554-1.19-0.561
			c-1.078-0.006-1.999,0.206-2.106,0.492c-0.111,0.285-0.315,0.922-0.445,1.59c-0.189,0.977-2.146,4.455-3.261,6.273
			c-0.364-0.707-0.673-1.336-0.737-1.829c-0.099-0.757-0.215-1.206-0.094-2.104c0.117-0.898,0.639-2.172,0.633-2.269
			c-0.01-0.096-0.119-0.555-1.193-0.561c-1.078-0.006-1.998,0.208-2.107,0.492c-0.107,0.285-0.225,0.948-0.441,1.591
			c-0.223,0.643-2.828,6.445-3.508,7.952c-0.35,0.765-0.652,1.382-0.865,1.802l-0.002-0.004c0,0-0.014,0.029-0.035,0.077
			c-0.182,0.358-0.293,0.556-0.293,0.556s0.004,0.002,0.004,0.007c-0.146,0.263-0.299,0.507-0.377,0.507
			c-0.055,0-0.164-0.697,0.023-1.66c0.385-2.013,1.318-5.153,1.307-5.26c-0.004-0.056,0.174-0.604-0.605-0.887
			c-0.762-0.278-1.029,0.183-1.1,0.188c-0.068,0-0.117,0.162-0.117,0.162s0.844-3.531-1.615-3.531c-1.535,0-3.666,1.683-4.719,3.208
			c-0.662,0.36-2.081,1.134-3.581,1.961c-0.58,0.317-1.166,0.641-1.729,0.948c-0.035-0.041-0.074-0.084-0.113-0.128
			c-2.981-3.182-8.497-5.431-8.263-9.708c0.087-1.556,0.626-5.65,10.592-10.617c8.168-4.069,14.703-2.949,15.834-0.468
			c1.611,3.545-3.494,10.136-11.975,11.085c-3.229,0.363-4.932-0.89-5.354-1.354c-0.444-0.492-0.511-0.514-0.678-0.42
			c-0.272,0.148-0.1,0.582,0,0.84c0.254,0.659,1.293,1.827,3.064,2.408c1.559,0.512,5.354,0.792,9.941-0.981
			c5.137-1.987,9.148-7.516,7.971-12.137c-1.199-4.701-8.992-6.245-16.368-3.625c-4.386,1.551-9.136,3.998-12.553,7.194
			c-4.064,3.799-4.712,7.107-4.446,8.489c0.949,4.909,7.718,8.107,10.427,10.476c-0.134,0.073-0.259,0.144-0.373,0.208
			c-1.361,0.672-6.521,3.372-7.809,6.226c-1.465,3.232,0.232,5.556,1.354,5.868c3.481,0.968,7.055-0.773,8.971-3.636
			c1.919-2.861,1.686-6.588,0.805-8.288c-0.015-0.021-0.022-0.044-0.034-0.062c0.352-0.208,0.708-0.42,1.063-0.628
			c0.69-0.404,1.369-0.787,1.958-1.106c-0.328,0.903-0.572,1.984-0.697,3.549c-0.142,1.835,0.611,4.21,1.596,5.144
			c0.435,0.411,0.957,0.419,1.286,0.419c1.147,0,1.669-0.952,2.247-2.079c0.705-1.385,1.332-2.992,1.332-2.992
			s-0.783,4.352,1.359,4.352c0.779,0,1.562-1.015,1.916-1.531c0,0.008,0,0.009,0,0.009s0.021-0.032,0.061-0.101
			c0.08-0.123,0.125-0.201,0.125-0.201s0.006-0.01,0.006-0.025c0.314-0.541,1.012-1.785,2.057-3.832
			c1.346-2.648,2.639-5.966,2.639-5.966s0.12,0.811,0.516,2.151c0.23,0.789,0.727,1.661,1.112,2.497
			c-0.312,0.435-0.503,0.683-0.503,0.683s0,0.005,0.003,0.013c-0.251,0.333-0.53,0.692-0.825,1.04
			c-1.062,1.268-2.33,2.717-2.5,3.133c-0.199,0.492-0.152,0.857,0.232,1.147c0.283,0.212,0.785,0.243,1.312,0.212
			c0.956-0.063,1.63-0.303,1.964-0.446c0.518-0.183,1.122-0.47,1.686-0.888c1.045-0.769,1.674-1.865,1.613-3.32
			c-0.035-0.8-0.289-1.596-0.613-2.346c0.096-0.136,0.193-0.273,0.288-0.414c1.646-2.402,2.922-5.05,2.922-5.05
			s0.12,0.808,0.516,2.15c0.2,0.678,0.591,1.422,0.946,2.146c-1.548,1.258-2.508,2.719-2.842,3.68
			c-0.617,1.773-0.135,2.576,0.773,2.76c0.41,0.082,0.989-0.105,1.422-0.291c0.544-0.178,1.195-0.479,1.803-0.927
			c1.045-0.765,2.047-1.843,1.988-3.297c-0.027-0.663-0.205-1.319-0.453-1.95c1.315-0.549,3.013-0.85,5.177-0.599
			c4.642,0.544,5.55,3.438,5.376,4.65c-0.173,1.216-1.146,1.883-1.473,2.083c-0.324,0.199-0.424,0.271-0.396,0.422
			c0.039,0.217,0.188,0.207,0.466,0.16c0.381-0.064,2.438-0.985,2.525-3.225C269.251,235.498,266.528,232.374,261.703,232.402z
			 M225.924,244.463c-1.539,1.678-3.687,2.312-4.606,1.777c-0.996-0.578-0.601-3.047,1.286-4.829
			c1.15-1.081,2.634-2.081,3.621-2.698c0.224-0.135,0.552-0.333,0.955-0.568c0.067-0.039,0.103-0.061,0.103-0.061l-0.001-0.001
			c0.078-0.048,0.156-0.094,0.239-0.144C228.202,240.474,227.537,242.704,225.924,244.463z M237.124,236.849
			c-0.539,1.304-1.656,4.646-2.34,4.462c-0.584-0.15-0.941-2.688-0.117-5.188c0.416-1.258,1.301-2.763,1.824-3.347
			c0.838-0.939,1.764-1.246,1.988-0.865C238.768,232.397,237.459,236.032,237.124,236.849z M246.377,241.264
			c-0.225,0.117-0.434,0.194-0.529,0.135c-0.074-0.041,0.09-0.195,0.09-0.195s1.16-1.246,1.616-1.812
			c0.263-0.33,0.571-0.722,0.906-1.16c0.005,0.045,0.005,0.087,0.005,0.131C248.465,239.852,247.022,240.86,246.377,241.264z
			 M253.508,239.638c-0.17-0.12-0.142-0.509,0.414-1.722c0.221-0.477,0.718-1.278,1.588-2.046c0.099,0.317,0.16,0.617,0.16,0.9
			C255.657,238.647,254.319,239.348,253.508,239.638z"/>
	</g>
</g>
<g id="BOOTSTRAP" display="none">
	<path display="inline" fill="#0C5666" d="M257.205,209.502c-0.578-2.486-2.734-4.53-5.256-4.974
		c-0.424-0.075-0.852-0.114-1.281-0.114c-8.848,0-17.695-0.001-26.542,0.001c-3.083,0.001-5.697,2.001-6.508,4.974
		c-0.153,0.562-0.221,1.136-0.221,1.718c0,8.873-0.003,17.746,0.001,26.62c0.002,3.057,2.039,5.684,4.996,6.473
		c0.302,0.078,0.609,0.131,0.918,0.172c0.038,0.006,0.082-0.006,0.101,0.043c9.31,0,18.618,0,27.929,0
		c0.295-0.059,0.594-0.105,0.887-0.176c2.758-0.65,4.783-2.924,5.127-5.74c0.006-0.049-0.018-0.105,0.041-0.141
		c0-9.283,0-18.566,0-27.85C257.308,210.178,257.283,209.836,257.205,209.502z M247.189,232.243
		c-0.525,1.457-1.551,2.455-2.914,3.131c-1.18,0.584-2.438,0.885-3.744,0.998c-0.732,0.064-1.469,0.07-2.203,0.07
		c-3.275,0-6.549,0-9.822,0.004c-0.192,0.002-0.25-0.035-0.248-0.24c0.006-3.814,0.004-7.629,0.004-11.442
		c0-3.808,0.002-7.616-0.004-11.423c0-0.186,0.042-0.237,0.234-0.237c3.676,0.007,7.354,0.006,11.033,0.004
		c1.281,0,2.543,0.146,3.738,0.65c1.232,0.522,2.23,1.309,2.781,2.568c0.426,0.969,0.543,1.989,0.471,3.035
		c-0.15,2.114-1.271,3.544-3.156,4.429c-0.053,0.025-0.154,0.024-0.139,0.106c0.012,0.075,0.109,0.054,0.166,0.067
		c1.436,0.352,2.588,1.099,3.338,2.402c0.471,0.819,0.715,1.709,0.809,2.646C247.642,230.112,247.564,231.192,247.189,232.243z"/>
	<path display="inline" fill-rule="evenodd" clip-rule="evenodd" fill="#0C5666" d="M236.302,233.106c-1.25,0-2.5-0.002-3.75,0.006
		c-0.162,0-0.203-0.045-0.203-0.205c0.004-2.304,0.004-4.607,0-6.912c0-0.144,0.035-0.184,0.182-0.184
		c2.4,0.006,4.803,0.004,7.205,0.008c0.609,0,1.205,0.092,1.771,0.328c0.963,0.399,1.596,1.102,1.852,2.117
		c0.195,0.777,0.195,1.562-0.012,2.337c-0.367,1.38-1.312,2.132-2.68,2.407c-0.396,0.08-0.799,0.098-1.203,0.098
		C238.41,233.108,237.357,233.106,236.302,233.106z"/>
	<path display="inline" fill-rule="evenodd" clip-rule="evenodd" fill="#0C5666" d="M236.025,216.444
		c1.105,0,2.211-0.005,3.318,0.002c0.496,0.003,0.98,0.096,1.449,0.271c0.779,0.29,1.295,0.823,1.504,1.638
		c0.186,0.737,0.225,1.483,0.045,2.223c-0.303,1.23-1.158,1.895-2.342,2.195c-0.336,0.085-0.682,0.108-1.027,0.108
		c-2.135,0.001-4.27-0.002-6.404,0.004c-0.164,0.001-0.221-0.029-0.221-0.21c0.008-2.011,0.008-4.021,0-6.032
		c0-0.186,0.061-0.209,0.219-0.207c1.154,0.006,2.305,0.003,3.459,0.003C236.025,216.44,236.025,216.442,236.025,216.444z"/>
</g>
<g id="JS" display="none">
	<path display="inline" fill="#0C5666" d="M245.093,193.685c-0.166-0.18-0.398-0.283-0.641-0.283h-33.977
		c-0.244,0-0.477,0.103-0.642,0.283c-0.166,0.18-0.246,0.421-0.224,0.664l3.061,34.285c0.032,0.357,0.281,0.661,0.627,0.759
		l13.922,3.977c0.078,0.021,0.158,0.033,0.239,0.033c0.08,0,0.16-0.012,0.238-0.033l13.934-3.977
		c0.346-0.098,0.596-0.401,0.627-0.759l3.061-34.285C245.339,194.106,245.257,193.864,245.093,193.685z M216.159,216.883
		l6.086,1.688v-17.344h3.479v22.609l-9.565-2.653V216.883z M238.815,210.793l-0.917,10.652l-8.695,2.391v-4.001l5.87-1.612
		l0.217-3.262l-6.087,1.049v-14.783h10.434l-0.3,3.478h-6.656v6.957L238.815,210.793z"/>
</g>
<g id="VUEJS" display="none">
	<path display="inline" fill="#0C5666" d="M242.078,199.555l-14.614,24.771l-14.614-24.771h8.152l3.69,6.462l2.619,4.614
		l2.608-4.614l4.001-6.462H242.078 M247.463,196.478h-15.381l-4.619,8.152l-4.614-8.152h-15.386l20,33.848L247.463,196.478
		L247.463,196.478z"/>
	<polygon display="inline" fill="#0C5666" points="233.006,198.016 227.463,205.711 221.925,198.016 217.773,198.016 
		227.463,214.94 237.154,198.016 	"/>
	<polygon display="inline" fill="#0C5666" points="233.006,198.016 227.463,205.711 221.925,198.016 217.773,198.016 
		227.463,214.94 237.154,198.016 	"/>
</g>
<g id="WORDPRESS" display="none">
	<g display="inline">
		<g>
			<g>
				<path fill="#0C5666" d="M233.23,231.27l-4.729,13.744c1.412,0.414,2.906,0.642,4.453,0.642c1.836,0,3.597-0.317,5.234-0.894
					c-0.042-0.067-0.081-0.139-0.112-0.217L233.23,231.27z"/>
				<path fill="#0C5666" d="M217.19,229.891c0,6.24,3.626,11.632,8.885,14.187l-7.519-20.602
					C217.681,225.437,217.19,227.606,217.19,229.891z"/>
				<path fill="#0C5666" d="M243.594,229.095c0-1.947-0.698-3.296-1.299-4.347c-0.8-1.299-1.548-2.398-1.548-3.696
					c0-1.449,1.098-2.797,2.646-2.797c0.07,0,0.136,0.008,0.205,0.012c-2.805-2.568-6.541-4.138-10.644-4.138
					c-5.51,0-10.354,2.826-13.172,7.105c0.37,0.011,0.717,0.019,1.015,0.019c1.648,0,4.202-0.2,4.202-0.2
					c0.851-0.051,0.949,1.197,0.101,1.297c0,0-0.854,0.101-1.804,0.151l5.74,17.074l3.45-10.347l-2.458-6.728
					c-0.849-0.05-1.653-0.15-1.653-0.15c-0.848-0.05-0.749-1.348,0.1-1.297c0,0,2.603,0.2,4.152,0.2c1.648,0,4.203-0.2,4.203-0.2
					c0.85-0.05,0.948,1.197,0.1,1.297c0,0-0.856,0.1-1.805,0.15l5.696,16.945l1.574-5.253
					C243.077,232.011,243.594,230.446,243.594,229.095z"/>
				<path fill="#0C5666" d="M246.785,222.328c0.067,0.502,0.106,1.042,0.106,1.621c0,1.6-0.299,3.398-1.198,5.646l-4.814,13.922
					c4.685-2.734,7.839-7.811,7.839-13.625C248.717,227.151,248.016,224.574,246.785,222.328z"/>
				<path fill="#0C5666" d="M232.954,209.892c-11.046,0-20,8.954-20,20c0,11.045,8.954,20,20,20c11.045,0,20-8.955,20-20
					C252.954,218.846,243.999,209.892,232.954,209.892z M232.954,247.424c-9.668,0-17.532-7.865-17.532-17.533
					c0-9.667,7.864-17.531,17.532-17.531c9.667,0,17.531,7.865,17.531,17.531C250.485,239.559,242.621,247.424,232.954,247.424z"/>
			</g>
		</g>
	</g>
</g>
<g id="MJML" display="none">
	<path display="inline" fill-rule="evenodd" clip-rule="evenodd" fill="#0C5666" d="M232.944,221.305
		c3.017,0,6.03-0.009,9.047,0.001c2.723,0.009,4.757,1.946,4.833,4.581c0.072,2.493-1.954,4.652-4.627,4.681
		c-6.197,0.065-12.397,0.067-18.597,0.004c-2.679-0.029-4.598-2.13-4.557-4.725c0.039-2.527,1.988-4.478,4.654-4.529
		C226.779,221.264,229.863,221.306,232.944,221.305z"/>
	<path display="inline" fill-rule="evenodd" clip-rule="evenodd" fill="#0C5666" d="M220.726,217.312
		c-3.148,0-6.294,0.041-9.44-0.016c-2.02-0.038-3.708-1.438-4.251-3.34c-0.539-1.891,0.142-3.878,1.72-5.044
		c1.061-0.786,2.304-0.967,3.56-0.972c5.718-0.012,11.438,0.006,17.157,0.027c2.531,0.009,4.497,1.404,4.992,3.495
		c0.718,3.032-1.367,5.792-4.499,5.847c-3.078,0.056-6.158,0.013-9.238,0.013C220.726,217.319,220.726,217.316,220.726,217.312z"/>
	<path display="inline" fill-rule="evenodd" clip-rule="evenodd" fill="#0C5666" d="M220.646,243.357
		c-2.949,0-5.898,0.01-8.846-0.002c-2.884-0.008-4.982-1.967-4.974-4.626c0.009-2.618,2.078-4.604,4.903-4.613
		c6.065-0.021,12.131-0.017,18.196,0.007c2.663,0.01,4.707,2.022,4.729,4.576c0.022,2.57-2.06,4.63-4.759,4.653
		C226.813,243.378,223.729,243.357,220.646,243.357z"/>
	<circle display="inline" fill-rule="evenodd" clip-rule="evenodd" fill="#0C5666" cx="211.6" cy="225.938" r="4.737"/>
	<circle display="inline" fill-rule="evenodd" clip-rule="evenodd" fill="#0C5666" cx="242.062" cy="212.887" r="4.736"/>
	<circle display="inline" fill-rule="evenodd" clip-rule="evenodd" fill="#0C5666" cx="242.075" cy="238.912" r="4.736"/>
</g>
<g id="PHOTOSHOP" display="none">
	<g display="inline">
		<g>
			<g>
				<path fill="#0C5666" d="M207.963,207.652v40h40v-40H207.963z M245.62,245.308h-35.312v-35.312h35.312V245.308z"/>
			</g>
		</g>
		<g>
			<g>
				<path fill="#0C5666" d="M224.443,224.109h-2.887v4.312h3c0.907,0,1.668-0.848,1.668-2.156
					C226.224,225.14,225.542,224.109,224.443,224.109z"/>
			</g>
		</g>
		<g>
			<g>
				<path fill="#0C5666" d="M212.651,212.339v30.625h30.625v-30.625H212.651z M224.706,230.689h-3.149v4.463h-2.588v-13.312h5.644
					c2.583,0,4.237,2.375,4.237,4.426C228.849,228.679,227.013,230.689,224.706,230.689z M234.118,235.339
					c-2.269,0-3.881-1.031-4.443-1.519l0.938-1.575c0.6,0.425,1.981,1.294,3.451,1.294c0.952,0,1.611-0.4,1.611-1.088
					c0-0.845-1.394-1.118-2.156-1.331c-0.639-0.175-3.506-0.578-3.506-2.738c0-2.078,1.809-3.242,3.863-3.242
					c2.155,0,3.305,0.875,3.844,1.349l-1.014,1.518c-0.5-0.375-1.612-1.086-2.85-1.086c-0.913,0-1.5,0.388-1.5,1.105
					c0,0.895,1.568,1.15,1.93,1.238c0.676,0.176,3.809,0.652,3.809,2.962C238.094,234.957,235.344,235.339,234.118,235.339z"/>
			</g>
		</g>
	</g>
</g>
<g id="ILLUSTRATOR" display="none">
	<g display="inline">
		<g>
			<g>
				<path fill="#0C5666" d="M214.463,208.402v40h40v-40H214.463z M252.12,246.058h-35.312v-35.312h35.312V246.058z"/>
			</g>
		</g>
		<g>
			<g>
				<polygon fill="#0C5666" points="231.817,225.533 229.907,230.764 233.657,230.764 				"/>
			</g>
		</g>
		<g>
			<g>
				<path fill="#0C5666" d="M219.151,213.089v30.625h30.625v-30.625H219.151z M235.362,235.902l-1.236-3.318h-4.652l-1.219,3.318
					h-2.659l5.08-13.312h2.287l5.062,13.312H235.362z M241.754,235.902h-2.512v-9.825h2.512V235.902z M241.754,224.708h-2.512
					v-2.494h2.512V224.708z"/>
			</g>
		</g>
	</g>
</g>
<g id="ADOBE_XD" display="none">
	<g display="inline">
		<path fill="#0C5666" d="M215.167,216.242c-0.446-2.197-1.659-3.836-3.615-4.921c-0.844-0.467-1.756-0.728-2.719-0.806
			c-0.026-0.002-0.057,0.003-0.069-0.031c-8.989,0-17.978,0-26.967,0c-0.242,0.077-0.497,0.077-0.744,0.126
			c-1.578,0.309-2.904,1.062-3.972,2.258c-0.929,1.04-1.487,2.259-1.707,3.634c-0.025,0.16-0.016,0.327-0.077,0.481
			c0,8.667,0,17.333,0,26c0.076,0.242,0.075,0.496,0.125,0.743c0.425,2.083,1.548,3.673,3.36,4.773
			c0.904,0.548,1.893,0.855,2.946,0.952c0.027,0.003,0.057-0.002,0.069,0.031c8.989,0,17.978,0,26.967,0
			c0.192-0.066,0.396-0.061,0.596-0.093c2.852-0.463,5.145-2.629,5.77-5.454c0.061-0.275,0.102-0.556,0.134-0.836
			c0.003-0.03-0.009-0.068,0.034-0.084c0-8.667,0-17.333,0-26C215.254,216.759,215.221,216.499,215.167,216.242z M196.382,237.968
			c-1.267,0.001-2.534-0.005-3.799-0.004c-0.264,0-0.425-0.107-0.545-0.35c-1.012-2.056-2.126-4.058-3.242-6.058
			c-0.021-0.038-0.031-0.099-0.076-0.103c-0.062-0.004-0.065,0.066-0.085,0.107c-1.076,2.098-2.191,4.174-3.327,6.239
			c-0.069,0.127-0.159,0.194-0.301,0.194c-0.389,0.003-0.777,0.007-1.167,0.009c-0.855,0.002-1.711,0-2.566,0
			c-0.143,0-0.184-0.06-0.13-0.193c0.021-0.052,0.054-0.098,0.083-0.145c1.675-2.749,3.35-5.497,5.028-8.242
			c0.069-0.113,0.074-0.193,0.004-0.311c-1.644-2.774-3.283-5.549-4.921-8.325c-0.04-0.069-0.12-0.136-0.072-0.226
			c0.054-0.102,0.162-0.078,0.254-0.078c1.205-0.001,2.411,0.004,3.616-0.004c0.28-0.002,0.447,0.1,0.563,0.362
			c0.587,1.326,1.307,2.583,2.032,3.835c0.428,0.74,0.831,1.493,1.209,2.259c0.019,0.038,0.027,0.085,0.079,0.111
			c0.014-0.021,0.032-0.043,0.043-0.067c0.994-2.077,2.157-4.066,3.202-6.116c0.146-0.287,0.302-0.38,0.621-0.373
			c1.094,0.024,2.188,0.009,3.282,0.008c0.075,0,0.146-0.001,0.19,0.072c0.043,0.072-0.005,0.124-0.04,0.181
			c-1.64,2.704-3.279,5.409-4.922,8.112c-0.061,0.101-0.041,0.164,0.012,0.251c1.726,2.828,3.449,5.657,5.173,8.484
			c0.061,0.1,0.165,0.207,0.105,0.317C196.628,238.029,196.485,237.968,196.382,237.968z M209.224,237.322
			c-1.398,0.576-2.859,0.871-4.364,0.971c-1.233,0.08-2.439-0.014-3.617-0.407c-1.636-0.545-2.856-1.567-3.601-3.131
			c-0.379-0.796-0.543-1.651-0.605-2.525c-0.081-1.143,0.013-2.266,0.458-3.335c0.916-2.198,2.55-3.572,4.839-4.173
			c1.034-0.272,2.09-0.343,3.156-0.241c0.134,0.012,0.178-0.012,0.177-0.16c-0.006-1.667-0.003-3.333-0.003-5
			c0-0.264,0.02-0.284,0.285-0.284c1.056,0,2.11,0,3.166,0c0.242,0,0.267,0.022,0.267,0.266c0,2.549,0,5.1,0,7.65
			c0,0.223,0,0.445,0,0.666c0,2.267,0.003,4.534-0.001,6.801c-0.003,0.839,0.035,1.677,0.093,2.514
			C209.488,237.169,209.447,237.23,209.224,237.322z"/>
		<path fill="#0C5666" d="M205.498,227.613c-0.846-0.146-1.674-0.102-2.465,0.242c-1.049,0.458-1.822,1.189-2.092,2.34
			c-0.217,0.924-0.186,1.852,0.127,2.756c0.279,0.805,0.77,1.436,1.558,1.797c0.924,0.422,1.896,0.395,2.875,0.283
			c0.133-0.016,0.166-0.076,0.166-0.207c-0.006-1.166-0.003-2.331-0.003-3.497c0-1.165-0.003-2.332,0.003-3.498
			C205.667,227.695,205.638,227.637,205.498,227.613z"/>
	</g>
</g>
<g id="INDESIGN" display="none">
	<g display="inline">
		<g>
			<g>
				<path fill="#0C5666" d="M207.463,207.652v40h40v-40H207.463z M245.12,245.308h-35.312v-35.312h35.312V245.308z"/>
			</g>
		</g>
		<g>
			<g>
				<path fill="#0C5666" d="M229.877,227.295c-1.711,0-2.569,1.697-2.569,3c0,1.432,1.053,2.906,2.719,2.906
					c1.576,0,2.293-1.412,2.381-1.649v-2.344C232.309,228.933,231.409,227.295,229.877,227.295z"/>
			</g>
		</g>
		<g>
			<g>
				<path fill="#0C5666" d="M212.151,212.339v30.625h30.625v-30.625H212.151z M222.884,235.152h-2.587v-13.312h2.587V235.152z
					 M234.434,235.283c-1.814,0-1.65-1.837-1.65-1.837c-0.361,0.625-1.443,1.894-3.412,1.894c-2.885,0-4.669-2.404-4.669-5.1
					c0-3.057,2.058-5.082,4.388-5.082c1.973,0,2.992,1.331,3.318,1.894v-5.587h2.514v10.8c0,0.263,0.367,0.739,0.58,0.75v2.138l0,0
					C235.065,235.238,234.708,235.283,234.434,235.283z"/>
			</g>
		</g>
	</g>
</g>
<g id="WIREFRAME">
	<path fill-rule="evenodd" clip-rule="evenodd" fill="#0C5666" d="M227.304,242.092c-5.406,0-10.812,0.001-16.219-0.001
		c-1.853,0-3.211-1.047-3.688-2.828c-0.088-0.33-0.091-0.666-0.091-1.001c-0.002-6.985-0.004-13.97,0-20.954
		c0.001-2.294,1.555-3.831,3.854-3.831c10.755-0.001,21.51-0.001,32.265,0c2.036,0,3.479,1.201,3.845,3.204
		c0.035,0.191,0.031,0.392,0.031,0.589c0.003,7.007,0.003,14.015,0.002,21.021c-0.002,2.238-1.568,3.8-3.814,3.801
		C238.094,242.093,232.699,242.092,227.304,242.092z M227.265,240.769c5.394,0,10.79-0.02,16.184,0.014
		c1.358,0.009,2.494-1.042,2.487-2.485c-0.03-7.007-0.014-14.015-0.016-21.022c0-0.241,0.011-0.484-0.06-0.724
		c-0.323-1.101-1.19-1.748-2.386-1.75c-2.599-0.004-5.197-0.001-7.796-0.001c-8.179,0-16.359,0.009-24.538-0.008
		c-1.489-0.003-2.571,1.052-2.563,2.562c0.034,6.961,0.015,13.922,0.015,20.883c0,0.267-0.004,0.533,0.068,0.795
		c0.302,1.099,1.167,1.736,2.384,1.737C216.452,240.77,221.858,240.769,227.265,240.769z"/>
	<path fill-rule="evenodd" clip-rule="evenodd" fill="#0C5666" d="M220.594,228.899c-1.519,0-3.039,0.001-4.558,0
		c-0.553,0-0.702-0.146-0.702-0.698c-0.001-2.042-0.001-4.083,0-6.124c0-0.518,0.167-0.695,0.68-0.696
		c3.073-0.003,6.146-0.003,9.22,0c0.473,0.001,0.684,0.209,0.685,0.68c0.004,2.064,0.004,4.129,0,6.193
		c-0.001,0.462-0.193,0.644-0.663,0.645C223.702,228.9,222.148,228.899,220.594,228.899z M224.791,227.36c0-1.502,0-2.932,0-4.408
		c-1.1,0.738-2.169,1.457-3.259,2.187C222.621,225.881,223.686,226.607,224.791,227.36z M219.671,225.139
		c-1.098-0.735-2.157-1.445-3.252-2.18c0,1.477,0,2.89,0,4.361C217.52,226.581,218.582,225.87,219.671,225.139z M223.564,222.518
		c-2.001,0-3.922,0-5.924,0c0.979,0.67,1.893,1.293,2.803,1.922c0.122,0.085,0.203,0.047,0.307-0.023
		C221.657,223.801,222.567,223.189,223.564,222.518z M223.539,227.763c-0.043-0.116-0.152-0.145-0.232-0.2
		c-0.681-0.459-1.365-0.914-2.048-1.37c-0.636-0.425-0.636-0.426-1.285,0.008c-0.756,0.504-1.512,1.01-2.339,1.562
		C219.659,227.763,221.595,227.763,223.539,227.763z"/>
	<path fill-rule="evenodd" clip-rule="evenodd" fill="#0C5666" d="M233.996,230.883c1.519,0,3.038-0.001,4.556,0
		c0.563,0.001,0.727,0.164,0.727,0.721c0.003,2.018,0.003,4.034,0,6.052c0,0.586-0.174,0.758-0.771,0.758
		c-3.026,0.001-6.052,0.001-9.078,0c-0.576,0-0.738-0.164-0.738-0.745c-0.001-2.017-0.001-4.034,0-6.052
		c0-0.581,0.156-0.733,0.748-0.733C230.958,230.882,232.477,230.883,233.996,230.883z M229.79,232.486c0,1.467,0,2.89,0,4.349
		c1.09-0.733,2.145-1.441,3.235-2.174C231.939,233.93,230.877,233.217,229.79,232.486z M238.186,232.475
		c-1.107,0.743-2.167,1.455-3.254,2.187c1.098,0.747,2.159,1.471,3.254,2.216C238.186,235.391,238.186,233.967,238.186,232.475z
		 M231.083,232.021c0.037,0.049,0.052,0.083,0.077,0.1c0.889,0.605,1.783,1.206,2.668,1.816c0.137,0.094,0.218,0.055,0.333-0.022
		c0.758-0.513,1.519-1.019,2.278-1.526c0.156-0.104,0.311-0.213,0.538-0.367C234.958,232.021,233.039,232.021,231.083,232.021z
		 M236.987,237.333c-1.021-0.683-1.955-1.303-2.882-1.934c-0.156-0.105-0.232-0.003-0.331,0.062
		c-0.834,0.563-1.668,1.127-2.499,1.694c-0.065,0.044-0.179,0.062-0.163,0.177C233.038,237.333,234.958,237.333,236.987,237.333z"/>
	<path fill-rule="evenodd" clip-rule="evenodd" fill="#0C5666" d="M220.652,238.506c-1.496,0-2.992,0.001-4.488,0
		c-0.641,0-0.801-0.161-0.801-0.803c0-1.972,0-3.942,0-5.914c0-0.604,0.161-0.767,0.76-0.767c3.038-0.001,6.076-0.001,9.114,0
		c0.582,0,0.714,0.134,0.714,0.714c0,1.996,0,3.99,0,5.985c0,0.625-0.158,0.784-0.777,0.784
		C223.667,238.507,222.16,238.506,220.652,238.506z M216.498,236.912c1.1-0.736,2.161-1.447,3.255-2.181
		c-1.087-0.73-2.156-1.446-3.255-2.186C216.498,234.019,216.498,235.434,216.498,236.912z M224.871,232.599
		c-1.056,0.705-2.064,1.383-3.076,2.054c-0.164,0.109-0.13,0.171,0.011,0.265c0.539,0.361,1.073,0.729,1.609,1.093
		c0.475,0.323,0.949,0.646,1.456,0.988C224.871,235.515,224.871,234.083,224.871,232.599z M217.736,232.095
		c0.033,0.048,0.045,0.08,0.069,0.097c0.904,0.624,1.812,1.243,2.711,1.874c0.143,0.099,0.225,0.034,0.33-0.038
		c0.655-0.457,1.31-0.913,1.966-1.368c0.25-0.175,0.5-0.351,0.808-0.564C221.61,232.095,219.685,232.095,217.736,232.095z
		 M223.663,237.415c-0.984-0.663-1.898-1.274-2.805-1.897c-0.148-0.102-0.245-0.102-0.392,0.003
		c-0.482,0.341-0.977,0.664-1.466,0.994c-0.424,0.285-0.848,0.571-1.335,0.9C219.695,237.415,221.636,237.415,223.663,237.415z"/>
	<path fill-rule="evenodd" clip-rule="evenodd" fill="#0C5666" d="M233.954,221.287c1.509,0,3.018-0.001,4.526,0
		c0.576,0.001,0.749,0.173,0.749,0.745c0.001,2.008,0.001,4.014,0,6.021c0,0.536-0.192,0.729-0.733,0.73
		c-3.04,0.001-6.08,0.001-9.12,0c-0.54-0.001-0.731-0.194-0.731-0.732c0-2.019-0.001-4.038,0-6.056c0-0.524,0.182-0.707,0.714-0.708
		C230.89,221.285,232.422,221.287,233.954,221.287z M229.746,222.844c0,1.472,0,2.892,0,4.35c1.098-0.738,2.159-1.451,3.24-2.176
		C231.892,224.284,230.833,223.573,229.746,222.844z M234.847,225.052c1.101,0.757,2.164,1.485,3.248,2.231c0-1.479,0-2.907,0-4.392
		C237.004,223.616,235.952,224.317,234.847,225.052z M236.937,227.704c-0.972-0.656-1.873-1.256-2.763-1.875
		c-0.188-0.13-0.309-0.111-0.485,0.012c-0.78,0.541-1.571,1.065-2.358,1.596c-0.107,0.073-0.212,0.151-0.373,0.266
		C232.967,227.704,234.899,227.704,236.937,227.704z M231.006,222.414c0.031,0.045,0.044,0.08,0.067,0.095
		c0.901,0.611,1.806,1.216,2.704,1.833c0.152,0.105,0.248,0.045,0.367-0.038c0.841-0.577,1.684-1.15,2.521-1.729
		c0.054-0.038,0.17-0.05,0.13-0.161C234.871,222.414,232.949,222.414,231.006,222.414z"/>
	<path fill-rule="evenodd" clip-rule="evenodd" fill="#0C5666" d="M214.587,218.114c-0.517,0.003-0.957-0.433-0.958-0.949
		c-0.001-0.515,0.438-0.958,0.952-0.96c0.512-0.002,0.956,0.439,0.959,0.952C215.543,217.67,215.104,218.111,214.587,218.114z"/>
	<path fill-rule="evenodd" clip-rule="evenodd" fill="#0C5666" d="M211.389,218.113c-0.529-0.007-0.941-0.432-0.934-0.964
		c0.006-0.528,0.438-0.953,0.958-0.945c0.521,0.008,0.944,0.445,0.938,0.968C212.345,217.696,211.911,218.121,211.389,218.113z"/>
	<path fill-rule="evenodd" clip-rule="evenodd" fill="#0C5666" d="M217.742,218.114c-0.521,0.01-0.956-0.414-0.962-0.939
		c-0.007-0.522,0.416-0.961,0.935-0.97c0.512-0.008,0.958,0.426,0.968,0.942C218.691,217.662,218.261,218.104,217.742,218.114z"/>
</g>
<g id="BALSAMIQ" display="none">
	<path display="inline" fill-rule="evenodd" clip-rule="evenodd" fill="#0C5666" d="M228.801,197.837
		c-0.516-0.403-0.382-0.669,0.066-0.887c0.918-0.445,1.783-0.727,2.788-0.081c0.878,0.564,1.878,0.943,2.833,1.385
		c5.126,2.374,9.295,5.809,11.303,11.22c2.468,6.655,1.911,13.117-2.428,18.9c-2.177,2.901-5.108,4.907-8.589,6.238
		c-2.611,0.997-5.227,1.64-7.978,1.827c-2.655,0.18-5.267-0.123-7.788-0.993c-5.473-1.89-8.593-5.799-9.534-11.439
		c-1.064-6.379-0.247-12.54,2.54-18.39c1.271-2.669,2.933-5.071,5.795-6.266c1.902-0.794,3.972-0.892,5.999-1.105
		C225.435,198.078,227.068,197.977,228.801,197.837z M227.11,233.687c0.279,0,0.559,0.012,0.837-0.003
		c0.526-0.026,1.051-0.063,1.578-0.104c5.867-0.455,9.803-3.816,12.571-8.669c1.07-1.878,1.718-4.022,2.044-6.216
		c0.622-4.161,0.089-8.069-2.275-11.655c-1.274-1.932-3.081-3.228-4.97-4.432c-0.601-0.384-1.308-0.659-2.072-0.242
		c-0.723,0.396-1.399,0.108-2.001-0.307c-0.968-0.668-2.078-1.023-3.135-1.496c-1.027-0.461-2.194-0.681-3.235-0.58
		c-1.512,0.147-3.03,0.487-4.533,0.834c-4.129,0.952-6.98,3.308-8.469,7.288c-2.111,5.647-2.609,11.375-0.898,17.223
		c0.845,2.887,2.605,4.975,5.303,6.312C220.778,233.087,223.879,233.669,227.11,233.687z"/>
	<path display="inline" fill-rule="evenodd" clip-rule="evenodd" fill="#0C5666" d="M237.716,218.983
		c-0.039,3.052-1.686,5.436-4.796,6.539c-4.5,1.595-8.856,1.172-12.86-1.51c-1.941-1.301-3.113-3.159-3.206-5.578
		c-0.012-0.312-0.051-0.642,0.391-0.702c0.367-0.05,0.502,0.223,0.557,0.482c0.369,1.724,1.646,2.743,3.013,3.531
		c4.246,2.446,8.632,2.863,13.084,0.491c1.191-0.635,2.137-1.577,2.985-2.614C237.117,219.338,237.301,219.026,237.716,218.983z"/>
	<path display="inline" fill-rule="evenodd" clip-rule="evenodd" fill="#0C5666" d="M219.63,212.735
		c0.005-1.096,0.61-1.763,1.591-1.755c1.009,0.009,1.788,0.929,1.772,2.094c-0.011,0.866-0.659,1.56-1.465,1.569
		C220.353,214.659,219.625,213.927,219.63,212.735z"/>
	<path display="inline" fill-rule="evenodd" clip-rule="evenodd" fill="#0C5666" d="M232.307,212.902
		c0.015-1.039,0.724-1.69,1.807-1.659c0.884,0.026,1.612,0.753,1.587,1.583c-0.034,1.127-0.933,2.168-1.853,2.148
		C232.989,214.958,232.292,214.021,232.307,212.902z"/>
</g>
<g id="STARUML" display="none">
	<polygon display="inline" fill="#667888" points="228.569,214.762 232.63,222.992 241.712,224.312 235.14,230.716 236.693,239.761 
		228.569,235.492 220.446,239.761 221.997,230.716 215.426,224.312 224.507,222.992 	"/>
</g>
<g id="MYSQL" display="none">
	<g display="inline">
		<path fill="#0C5666" d="M210.449,235.555h1.6v-5.904l2.222,5.048c0.274,0.629,0.649,0.852,1.385,0.852
			c0.736,0,1.096-0.223,1.371-0.852l2.222-4.918v5.774h1.6v-6.048c0-0.581-0.231-0.862-0.707-1.008
			c-1.139-0.358-1.905-0.048-2.25,0.727l-2.279,5.133l-2.207-5.133c-0.332-0.775-1.11-1.085-2.25-0.727
			c-0.476,0.146-0.707,0.427-0.707,1.008v6.048H210.449z"/>
		<path fill="#0C5666" d="M221.649,230.755h1.6v3.38c-0.013,0.166,0.054,0.607,0.825,0.62c0.394,0.006,2.351,0,2.375,0v-4h1.6
			c0.006,0,0,4.973,0,4.994c0.008,1.226-1.523,1.386-2.229,1.406h-4.171v-0.801c0.007,0,3.989,0.001,4,0
			c0.906-0.096,0.8-0.596,0.8-0.746v-0.054h-2.51c-1.392-0.013-2.278-0.626-2.289-1.324
			C221.649,234.167,221.68,230.786,221.649,230.755z"/>
		<path fill="#0C5666" d="M228.849,235.555h4.006c0.524,0,1.034-0.109,1.439-0.3c0.675-0.309,0.953-0.729,0.953-1.279v-1.141
			c0-1.229-1.524-1.28-2.399-1.28h-1.6c-0.63,0-0.725-0.38-0.8-0.8v-0.8c0.075-0.32,0.215-0.75,0.77-0.8c0.644,0,4.029,0,4.029,0
			v-0.8h-3.804c-0.63,0-2.595,0.075-2.595,1.6v0.988c0,0.701,0.615,1.272,1.951,1.412c0.149,0.009,0.3,0.021,0.449,0.021
			c0,0,1.555-0.031,1.6-0.021c0.9,0,0.8,0.699,0.8,0.8v0.8c0,0.11-0.024,0.8-0.808,0.8c-0.061,0-3.992,0-3.992,0V235.555z"/>
		<path fill="#0C5666" d="M244.047,233.922c0,0.965,0.546,1.507,1.994,1.615c0.135,0.01,0.271,0.018,0.406,0.018h4v-0.8h-3.695
			c-0.825,0-1.104-0.347-1.104-0.842v-5.558h-1.601V233.922z"/>
		<path fill="#0C5666" d="M236.036,233.956v-4c0-0.85,0.416-1.437,1.596-1.6h0.56h2.873h0.438c1.18,0.164,1.731,0.75,1.731,1.6
			v3.984c0,0.689-0.179,1.06-0.762,1.3l1.239,1.115h-1.8l-0.893-0.801h-1.047l-1.779,0.011c-0.258,0-0.53-0.036-0.828-0.117
			C236.47,235.204,236.036,234.734,236.036,233.956z M237.635,233.956c0.081,0.389,0.394,0.8,0.95,0.8h1.552l-0.889-0.8h1.813
			l0.433,0.401c0,0,0.154-0.126,0.154-0.401s-0.015-4-0.015-4c-0.081-0.361-0.447-0.8-0.989-0.8h-2.059
			c-0.625,0-0.951,0.456-0.951,0.882V233.956L237.635,233.956z"/>
		<path fill="#0C5666" d="M248.947,227.512c-0.859-0.023-1.516,0.058-2.076,0.293c-0.159,0.068-0.412,0.069-0.439,0.27
			c0.087,0.092,0.101,0.228,0.171,0.341c0.134,0.217,0.361,0.507,0.562,0.659c0.222,0.167,0.448,0.345,0.685,0.488
			c0.419,0.257,0.89,0.403,1.294,0.66c0.238,0.151,0.476,0.342,0.708,0.512c0.116,0.085,0.191,0.217,0.342,0.27
			c0-0.008,0-0.017,0-0.023c-0.078-0.101-0.1-0.237-0.172-0.343c-0.105-0.105-0.211-0.212-0.316-0.317
			c-0.312-0.412-0.705-0.774-1.124-1.074c-0.334-0.241-1.081-0.564-1.222-0.954c-0.008-0.007-0.016-0.015-0.025-0.025
			c0.238-0.026,0.516-0.112,0.733-0.17c0.367-0.098,0.695-0.072,1.075-0.171c0.171-0.049,0.342-0.098,0.512-0.147
			c0-0.033,0-0.064,0-0.097c-0.191-0.196-0.328-0.457-0.537-0.636c-0.547-0.465-1.144-0.93-1.758-1.318
			c-0.342-0.216-0.763-0.355-1.123-0.538c-0.122-0.062-0.336-0.094-0.416-0.196c-0.189-0.241-0.292-0.548-0.438-0.83
			c-0.307-0.59-0.607-1.235-0.881-1.855c-0.185-0.424-0.306-0.842-0.537-1.222c-1.107-1.824-2.303-2.925-4.151-4.005
			c-0.394-0.23-0.866-0.321-1.367-0.44c-0.269-0.017-0.539-0.033-0.808-0.05c-0.164-0.068-0.335-0.268-0.488-0.366
			c-0.613-0.387-2.184-1.229-2.638-0.121c-0.286,0.698,0.428,1.379,0.685,1.734c0.179,0.248,0.409,0.525,0.537,0.807
			c0.084,0.182,0.1,0.367,0.172,0.56c0.177,0.479,0.458,1.023,0.688,1.466c0.116,0.224,0.244,0.46,0.392,0.66
			c0.089,0.123,0.244,0.176,0.269,0.366c-0.15,0.212-0.159,0.539-0.244,0.807c-0.382,1.203-0.238,2.7,0.318,3.59
			c0.17,0.274,0.571,0.86,1.123,0.635c0.481-0.197,0.374-0.805,0.513-1.343c0.031-0.122,0.012-0.212,0.073-0.292
			c0,0.007,0,0.015,0,0.024c0.146,0.292,0.292,0.586,0.439,0.879c0.326,0.524,0.904,1.073,1.392,1.441
			c0.254,0.192,0.454,0.523,0.782,0.636c0-0.008,0-0.017,0-0.025c-0.008,0-0.016,0-0.025,0c-0.063-0.099-0.163-0.14-0.243-0.22
			c-0.191-0.188-0.404-0.42-0.562-0.635c-0.444-0.604-0.839-1.266-1.197-1.954c-0.171-0.33-0.32-0.692-0.464-1.026
			c-0.056-0.129-0.055-0.324-0.171-0.392c-0.158,0.246-0.39,0.444-0.513,0.733c-0.195,0.462-0.222,1.027-0.293,1.612
			c-0.044,0.014-0.024,0.004-0.048,0.023c-0.341-0.083-0.462-0.432-0.588-0.732c-0.318-0.759-0.379-1.983-0.097-2.858
			c0.072-0.226,0.401-0.939,0.269-1.147c-0.063-0.208-0.273-0.33-0.391-0.489c-0.146-0.196-0.291-0.457-0.391-0.684
			c-0.262-0.592-0.511-1.281-0.786-1.881c-0.132-0.286-0.354-0.576-0.537-0.83c-0.203-0.282-0.43-0.491-0.586-0.831
			c-0.057-0.121-0.133-0.314-0.05-0.439c0.026-0.084,0.063-0.12,0.146-0.147c0.143-0.109,0.535,0.036,0.684,0.098
			c0.393,0.162,0.72,0.318,1.051,0.537c0.159,0.105,0.32,0.31,0.513,0.366c0.074,0,0.146,0,0.22,0
			c0.345,0.08,0.729,0.025,1.051,0.123c0.568,0.173,1.076,0.441,1.538,0.732c1.408,0.889,2.56,2.155,3.348,3.664
			c0.125,0.244,0.181,0.476,0.291,0.733c0.226,0.52,0.51,1.055,0.733,1.563c0.223,0.506,0.442,1.019,0.758,1.441
			c0.166,0.222,0.808,0.341,1.099,0.464c0.204,0.086,0.539,0.176,0.733,0.293c0.369,0.223,0.728,0.488,1.074,0.732
			C248.387,227.024,248.92,227.292,248.947,227.512z"/>
		<path fill="#0C5666" d="M238.029,218.208c-0.18-0.002-0.306,0.019-0.44,0.049c0,0.008,0,0.015,0,0.024c0.009,0,0.018,0,0.025,0
			c0.085,0.176,0.235,0.29,0.341,0.44c0.082,0.17,0.163,0.341,0.244,0.513c0.009-0.008,0.017-0.017,0.024-0.025
			c0.152-0.106,0.221-0.277,0.221-0.538c-0.062-0.064-0.069-0.143-0.123-0.219C238.251,218.35,238.117,218.292,238.029,218.208z"/>
	</g>
</g>
<g id="PHPMYADMIN_1_" display="none">
	<g display="inline">
		<path opacity="0.5" fill-rule="evenodd" clip-rule="evenodd" fill="#0C5666" d="M234.365,211.214
			c-0.043,0.276,0.064,0.5,0.207,0.732c0.849,1.374,1.685,2.755,2.527,4.133c0.918,1.502,1.84,3.001,2.76,4.503
			c0.8,1.311,1.597,2.623,2.397,3.934c0.316,0.519,0.634,1.036,0.951,1.555c0.019,0.03,0.058,0.055,0.026,0.1
			c-0.065-0.001-0.074-0.062-0.099-0.099c-0.122-0.193-0.242-0.389-0.358-0.585c-0.034-0.059-0.081-0.091-0.146-0.106
			c-0.947-0.231-1.849-0.583-2.708-1.04c-0.73-0.387-1.415-0.842-2.052-1.371c-0.134-0.111-0.271-0.22-0.402-0.334
			c-0.097-0.084-0.14-0.207-0.201-0.314c-0.302-0.528-0.598-1.059-0.897-1.587c-0.026-0.046-0.032-0.093-0.03-0.145
			c0.009-0.27,0.023-0.541,0.022-0.811c-0.001-0.399-0.001-0.8-0.025-1.198c-0.043-0.691-0.105-1.381-0.214-2.066
			c-0.163-1.032-0.406-2.043-0.732-3.036c-0.072-0.222-0.214-0.403-0.332-0.599c-0.209-0.35-0.423-0.697-0.634-1.046
			c-0.021-0.034-0.036-0.074-0.079-0.098c-0.019,0.28-0.041,0.556-0.055,0.832c-0.029,0.552-0.048,1.105-0.081,1.656
			c-0.027,0.453-0.05,0.905-0.075,1.357c-0.025,0.465-0.05,0.929-0.076,1.394c-0.026,0.444-0.049,0.888-0.073,1.332
			c-0.026,0.473-0.054,0.946-0.077,1.418c-0.022,0.448-0.05,0.896-0.074,1.345c-0.024,0.46-0.049,0.921-0.075,1.381
			c-0.026,0.457-0.049,0.913-0.075,1.369c-0.026,0.46-0.05,0.921-0.075,1.381c-0.025,0.457-0.059,0.913-0.074,1.369
			c-0.009,0.245-0.033,0.489-0.046,0.734c-0.004,0.072-0.04,0.102-0.1,0.098c-0.079-0.004-0.028-0.063-0.027-0.095
			c0.016-0.391,0.031-0.782,0.052-1.172c0.03-0.518,0.065-1.036,0.096-1.554c0.01-0.162,0.012-0.324,0.023-0.486
			c0.029-0.394,0.033-0.789,0.059-1.184c0.028-0.456,0.052-0.913,0.076-1.369c0.023-0.452,0.048-0.904,0.074-1.356
			c0.026-0.457,0.052-0.913,0.076-1.369c0.023-0.448,0.05-0.896,0.075-1.344c0.025-0.46,0.048-0.921,0.075-1.381
			c0.026-0.448,0.049-0.896,0.073-1.344c0.026-0.452,0.051-0.904,0.076-1.356c0.025-0.457,0.053-0.913,0.074-1.369
			c0.013-0.27,0.047-0.538,0.047-0.809C234.281,211.214,234.323,211.214,234.365,211.214z"/>
		<path opacity="0.5" fill-rule="evenodd" clip-rule="evenodd" fill="#0C5666" d="M204.63,232.888
			c0.068-0.277,0.1-0.562,0.146-0.844c0.125-0.75,0.245-1.5,0.368-2.25c0.018-0.111,0.039-0.222,0.052-0.333
			c0.007-0.061,0.031-0.086,0.095-0.085c0.513,0.004,1.027-0.011,1.539,0.01c0.528,0.021,0.896,0.43,0.91,0.959
			c0.01,0.404-0.081,0.773-0.322,1.104c-0.281,0.384-0.667,0.55-1.129,0.564c-0.225,0.008-0.451,0.006-0.676,0.001
			c-0.071-0.001-0.1,0.016-0.11,0.094c-0.034,0.246-0.082,0.491-0.117,0.737c-0.013,0.093-0.046,0.13-0.143,0.124
			c-0.204-0.008-0.409-0.005-0.613-0.007C204.63,232.939,204.63,232.914,204.63,232.888z M206.196,229.944
			c-0.093,0-0.165,0.004-0.235,0c-0.08-0.006-0.116,0.017-0.129,0.105c-0.066,0.439-0.141,0.877-0.215,1.316
			c-0.011,0.067,0.01,0.087,0.077,0.087c0.196,0.004,0.392,0,0.586-0.023c0.304-0.037,0.518-0.194,0.618-0.491
			c0.062-0.187,0.094-0.378,0.081-0.577c-0.015-0.202-0.113-0.322-0.309-0.372C206.507,229.948,206.34,229.939,206.196,229.944z"/>
		<path opacity="0.5" fill-rule="evenodd" clip-rule="evenodd" fill="#0C5666" d="M223.827,233.539
			c-0.041-0.15-0.041-0.147,0.117-0.15c0.232-0.005,0.462,0.02,0.696,0.01c0.671-0.033,1.293-0.206,1.868-0.553
			c0.431-0.259,0.882-0.465,1.383-0.547c0.395-0.064,0.776,0.007,1.151,0.123c0.044,0.014,0.077,0.04,0.059,0.092
			c-0.019,0.059-0.062,0.038-0.103,0.026c-0.216-0.062-0.435-0.113-0.659-0.128c-0.601-0.039-1.131,0.179-1.632,0.469
			c-0.524,0.305-1.065,0.545-1.673,0.609c-0.032,0.004-0.058,0.011-0.057,0.049c-0.042,0-0.083,0-0.125,0
			c-0.025-0.034-0.05-0.033-0.075,0c-0.25,0-0.5,0-0.751,0c-0.034-0.034-0.067-0.036-0.1,0
			C223.894,233.539,223.86,233.539,223.827,233.539z"/>
		<path fill-rule="evenodd" clip-rule="evenodd" fill="#FEFEFE" d="M223.927,233.539c0.033-0.036,0.066-0.034,0.1,0
			C223.994,233.539,223.96,233.539,223.927,233.539z"/>
		<path fill-rule="evenodd" clip-rule="evenodd" fill="#FEFEFE" d="M224.778,233.539c0.025-0.033,0.05-0.034,0.075,0
			C224.828,233.539,224.803,233.539,224.778,233.539z"/>
		<path opacity="0.5" fill-rule="evenodd" clip-rule="evenodd" fill="#0C5666" d="M226.924,227.631
			c3.249-4.939,5.625-10.243,7.142-15.937c-0.005,0.106-0.002,0.214-0.018,0.32c-0.016,0.112,0.008,0.227-0.016,0.336
			c-0.034,0.164-0.024,0.331-0.038,0.497c-0.039,0.463-0.051,0.929-0.085,1.393c-0.037,0.514-0.068,1.028-0.101,1.542
			c-0.023,0.377-0.048,0.754-0.074,1.131c-0.035,0.514-0.067,1.028-0.101,1.542c-0.033,0.513-0.067,1.027-0.1,1.541
			c-0.033,0.514-0.068,1.028-0.102,1.542c-0.024,0.373-0.051,0.746-0.072,1.119c-0.03,0.522-0.066,1.044-0.101,1.567
			c-0.024,0.373-0.047,0.746-0.075,1.118c-0.038,0.526-0.079,1.052-0.101,1.58c-0.002,0.041-0.016,0.082-0.02,0.123
			c-0.022,0.245-0.021,0.248-0.272,0.261c-0.374,0.021-0.748,0.031-1.121,0.054c-0.617,0.04-1.236,0.072-1.854,0.104
			c-0.424,0.021-0.847,0.051-1.27,0.072c-0.501,0.025-1.002,0.063-1.504,0.095C227.015,227.632,226.986,227.631,226.924,227.631z"/>
		<path opacity="0.5" fill-rule="evenodd" clip-rule="evenodd" fill="#0C5666" d="M226.061,228.008
			c-0.123-0.059-0.244,0.003-0.365,0.011c-0.285,0.018-0.569,0.058-0.853,0.089c-0.354,0.04-0.709,0.081-1.063,0.119
			c-0.26,0.029-0.52,0.053-0.78,0.081c-0.214,0.023-0.429,0.042-0.643,0.071c-0.092,0.011-0.109-0.01-0.08-0.097
			c0.365-1.045,0.728-2.091,1.09-3.137c0.194-0.562,0.387-1.125,0.581-1.688c0.453-1.31,0.905-2.62,1.358-3.929
			c0.284-0.818,0.567-1.636,0.851-2.453c0.261-0.75,0.522-1.501,0.784-2.252c0.006-0.019,0.016-0.036,0.04-0.09
			c-0.011,0.216-0.017,0.396-0.029,0.574c-0.012,0.17-0.033,0.339-0.044,0.509c-0.036,0.563-0.062,1.128-0.105,1.692
			c-0.037,0.484-0.064,0.969-0.1,1.454c-0.044,0.617-0.084,1.235-0.125,1.852c-0.024,0.369-0.048,0.738-0.075,1.106
			c-0.036,0.497-0.066,0.995-0.101,1.492c-0.034,0.484-0.065,0.969-0.099,1.454c-0.036,0.51-0.069,1.02-0.104,1.529
			c-0.033,0.489-0.077,0.977-0.094,1.467c0,0.021,0.003,0.041,0.004,0.062C226.101,227.958,226.085,227.986,226.061,228.008z"/>
		<path opacity="0.5" fill-rule="evenodd" clip-rule="evenodd" fill="#0C5666" d="M234.247,217.303
			c0.121,0.211,0.242,0.423,0.363,0.635c0.415,0.731,0.831,1.462,1.244,2.194c0.416,0.736,0.829,1.473,1.245,2.208
			c0.443,0.783,0.89,1.563,1.333,2.346c0.355,0.627,0.708,1.255,1.062,1.881c0.046,0.083,0.024,0.105-0.065,0.116
			c-0.457,0.053-0.913,0.114-1.37,0.169c-0.44,0.053-0.882,0.102-1.322,0.155c-0.439,0.054-0.88,0.11-1.32,0.169
			c-0.134,0.018-0.161,0.001-0.149-0.128c0.03-0.327,0.037-0.656,0.052-0.983c0.03-0.662,0.054-1.324,0.043-1.985
			c-0.009-0.487-0.019-0.974-0.051-1.459c-0.064-0.99-0.169-1.976-0.371-2.949c-0.157-0.75-0.359-1.486-0.653-2.196
			c-0.021-0.052-0.044-0.104-0.067-0.157C234.229,217.314,234.238,217.309,234.247,217.303z"/>
		<path opacity="0.5" fill-rule="evenodd" clip-rule="evenodd" fill="#0C5666" d="M232.417,228.083
			c0.31-0.036,0.618-0.069,0.927-0.105c0.32-0.039,0.642-0.079,0.963-0.119c0.378-0.047,0.757-0.099,1.135-0.144
			c0.383-0.046,0.768-0.086,1.149-0.132c0.441-0.053,0.881-0.113,1.32-0.167c0.371-0.046,0.741-0.087,1.113-0.132
			c0.378-0.046,0.757-0.095,1.135-0.142c0.305-0.037,0.609-0.072,0.914-0.108c0.379-0.046,0.757-0.095,1.136-0.142
			c0.306-0.037,0.61-0.072,0.914-0.109c0.379-0.046,0.758-0.094,1.136-0.141c0.122-0.014,0.245-0.025,0.371-0.025
			c-0.15,0.127-0.33,0.182-0.517,0.215c-0.396,0.071-0.799,0.1-1.194,0.174c-1.262,0.238-2.408,0.728-3.403,1.55
			c-0.096,0.08-0.181,0.169-0.271,0.255c-0.199,0.001-0.397,0.006-0.598,0.003c-0.071-0.002-0.099,0.019-0.11,0.093
			c-0.044,0.287-0.096,0.571-0.145,0.857c-0.186,0.229-0.345,0.475-0.491,0.73c-0.039,0.066-0.069,0.143-0.157,0.165
			c-0.093,0.023-0.183,0.053-0.273,0.079c0.045-0.307,0.105-0.614,0.132-0.924c0.052-0.585-0.182-0.845-0.674-0.949
			c-0.146-0.03-0.297-0.047-0.445-0.047c-1.108-0.005-2.216-0.002-3.323-0.005c-0.084,0-0.112,0.024-0.125,0.11
			c-0.067,0.431-0.143,0.859-0.215,1.29c-0.243-0.028-0.485-0.067-0.731-0.076c0-0.017-0.002-0.033,0.001-0.05
			C232.198,229.418,232.308,228.75,232.417,228.083z M239.073,228.457c0.125,0,0.25-0.002,0.374,0
			c0.056,0.002,0.085-0.018,0.094-0.074c0.032-0.213,0.066-0.427,0.102-0.64c0.01-0.058-0.007-0.083-0.07-0.083
			c-0.254,0.002-0.509,0.001-0.763,0c-0.051,0-0.077,0.018-0.085,0.068c-0.034,0.213-0.067,0.427-0.103,0.64
			c-0.011,0.063,0.007,0.092,0.076,0.09C238.823,228.453,238.948,228.457,239.073,228.457z"/>
		<path opacity="0.5" fill-rule="evenodd" clip-rule="evenodd" fill="#0C5666" d="M212.38,229.377
			c0.245,0.016,0.545-0.028,0.844,0.028c0.48,0.089,0.788,0.456,0.796,0.946c0.008,0.479-0.125,0.903-0.459,1.256
			c-0.27,0.284-0.612,0.392-0.99,0.406c-0.221,0.008-0.442,0.008-0.663,0c-0.093-0.003-0.124,0.032-0.136,0.114
			c-0.033,0.23-0.074,0.46-0.105,0.69c-0.014,0.104-0.043,0.163-0.168,0.153c-0.157-0.013-0.316-0.007-0.475-0.002
			c-0.092,0.003-0.12-0.016-0.102-0.12c0.143-0.852,0.277-1.705,0.414-2.558c0.042-0.267,0.086-0.533,0.127-0.8
			c0.012-0.08,0.043-0.12,0.138-0.118C211.842,229.382,212.084,229.377,212.38,229.377z M212.44,229.944c-0.004,0-0.008,0-0.012,0
			c-0.298,0-0.302,0-0.352,0.295c-0.062,0.365-0.118,0.73-0.18,1.095c-0.016,0.095,0.013,0.125,0.11,0.121
			c0.162-0.008,0.324-0.009,0.486-0.02c0.354-0.023,0.576-0.185,0.688-0.518c0.041-0.123,0.065-0.25,0.076-0.379
			c0.032-0.377-0.099-0.531-0.467-0.578C212.672,229.946,212.557,229.947,212.44,229.944z"/>
		<path opacity="0.5" fill-rule="evenodd" clip-rule="evenodd" fill="#0C5666" d="M209.337,229.965
			c-0.092,0.014-0.251-0.058-0.329,0.027c-0.068,0.075-0.05,0.229-0.069,0.348c-0.085,0.528-0.17,1.058-0.254,1.587
			c-0.01,0.062-0.039,0.093-0.108,0.091c-0.175-0.004-0.351-0.005-0.525,0c-0.087,0.004-0.11-0.033-0.097-0.11
			c0.039-0.234,0.077-0.468,0.114-0.701c0.097-0.603,0.192-1.206,0.289-1.809c0.048-0.295,0.101-0.589,0.145-0.886
			c0.011-0.071,0.04-0.089,0.105-0.087c0.171,0.001,0.342,0.005,0.513-0.002c0.104-0.003,0.129,0.028,0.11,0.131
			c-0.046,0.244-0.075,0.493-0.122,0.737c-0.016,0.085,0.016,0.088,0.081,0.087c0.246-0.001,0.492-0.001,0.738,0.003
			c0.143,0.001,0.281,0.03,0.414,0.082c0.292,0.111,0.449,0.415,0.393,0.767c-0.089,0.567-0.182,1.132-0.27,1.698
			c-0.01,0.069-0.042,0.091-0.107,0.09c-0.188-0.003-0.375-0.004-0.563,0c-0.076,0.001-0.089-0.028-0.077-0.1
			c0.088-0.528,0.174-1.057,0.259-1.585c0.037-0.23-0.065-0.353-0.309-0.367C209.568,229.96,209.468,229.965,209.337,229.965z"/>
		<path opacity="0.5" fill-rule="evenodd" clip-rule="evenodd" fill="#0C5666" d="M231.514,228.209
			c-0.025,0.181-0.054,0.361-0.076,0.542c-0.011,0.08-0.066,0.061-0.112,0.062c-0.301,0.008-0.6-0.002-0.899,0.013
			c-0.816,0.044-1.317,0.489-1.591,1.229c-0.007,0.02-0.018,0.037-0.025,0.056c-0.274,0.017-0.546,0.048-0.815,0.102
			c-0.142-0.508-0.283-1.017-0.424-1.524c0.258-0.035,0.517-0.071,0.775-0.104c0.386-0.049,0.771-0.096,1.158-0.144
			c0.362-0.044,0.724-0.086,1.085-0.131c0.26-0.032,0.518-0.065,0.777-0.095C231.416,228.208,231.465,228.21,231.514,228.209z"/>
		<path opacity="0.5" fill-rule="evenodd" clip-rule="evenodd" fill="#0C5666" d="M223.492,231.528
			c0.108-0.677,0.215-1.352,0.324-2.028c0.02-0.122,0.043-0.244,0.064-0.366c0.226-0.029,0.451-0.06,0.675-0.087
			c0.316-0.039,0.631-0.074,0.947-0.112c-0.324,0.545-0.646,1.088-0.97,1.631c-0.211,0.354-0.423,0.707-0.636,1.061
			c-0.019,0.031-0.042,0.06-0.064,0.089C223.704,231.678,223.607,231.587,223.492,231.528z"/>
		<path opacity="0.5" fill-rule="evenodd" clip-rule="evenodd" fill="#0C5666" d="M226.503,227.657c-0.049,0-0.098,0-0.146,0
			c0.045-0.188,0.027-0.38,0.043-0.571c0.041-0.472,0.055-0.945,0.083-1.418c0.032-0.551,0.062-1.103,0.102-1.653
			c0.028-0.389,0.049-0.779,0.074-1.168c0.036-0.543,0.068-1.086,0.102-1.629c0.024-0.394,0.047-0.788,0.073-1.181
			c0.038-0.542,0.074-1.085,0.101-1.629c0.02-0.398,0.045-0.796,0.074-1.193c0.04-0.543,0.074-1.085,0.102-1.629
			c0.015-0.302,0.045-0.604,0.068-0.906c0.003-0.042,0.002-0.09,0.064-0.083c0.053,0.006,0.064,0.048,0.062,0.093
			c-0.008,0.17-0.004,0.343-0.031,0.51c-0.028,0.178-0.022,0.356-0.037,0.534c-0.041,0.48-0.05,0.962-0.085,1.443
			c-0.028,0.398-0.047,0.796-0.074,1.194c-0.037,0.534-0.067,1.069-0.101,1.604c-0.034,0.543-0.066,1.086-0.1,1.629
			c-0.034,0.535-0.068,1.069-0.1,1.604c-0.024,0.397-0.049,0.795-0.075,1.193c-0.035,0.539-0.069,1.077-0.101,1.616
			c-0.023,0.394-0.05,0.788-0.075,1.181C226.515,227.35,226.504,227.503,226.503,227.657z"/>
		<path opacity="0.5" fill-rule="evenodd" clip-rule="evenodd" fill="#0C5666" d="M235.542,230.708
			c0.059-0.377,0.118-0.754,0.177-1.131c0.008-0.055,0.042-0.064,0.089-0.062c0.194,0.007,0.39-0.012,0.584,0.014
			c0.261,0.037,0.351,0.144,0.315,0.403c-0.029,0.23-0.068,0.46-0.106,0.688c-0.018,0.106-0.021,0.215-0.059,0.317
			c-0.276-0.069-0.554-0.136-0.829-0.207C235.655,230.715,235.599,230.71,235.542,230.708z"/>
		<path opacity="0.5" fill-rule="evenodd" clip-rule="evenodd" fill="#0C5666" d="M228.209,212.643
			c0.374,0.013,0.67,0.154,0.919,0.388c0.089,0.083,0.143,0.082,0.224,0.004c0.222-0.213,0.484-0.347,0.792-0.383
			c0.278-0.033,0.526,0.061,0.755,0.205c0.06,0.038,0.079,0.119,0.031,0.189c-0.049,0.07-0.118,0.09-0.197,0.055
			c-0.117-0.052-0.228-0.115-0.359-0.138c-0.297-0.052-0.535,0.068-0.759,0.238c-0.085,0.065-0.163,0.142-0.24,0.216
			c-0.105,0.1-0.173,0.103-0.275,0c-0.14-0.138-0.279-0.271-0.457-0.363c-0.27-0.139-0.534-0.134-0.801-0.005
			c-0.03,0.015-0.06,0.03-0.089,0.045c-0.085,0.045-0.157,0.024-0.203-0.056c-0.046-0.082-0.018-0.156,0.059-0.205
			c0.131-0.083,0.278-0.132,0.428-0.166C228.101,212.653,228.167,212.648,228.209,212.643z"/>
		<path opacity="0.5" fill-rule="evenodd" clip-rule="evenodd" fill="#0C5666" d="M229.458,214.393
			c0.322-0.008,0.588,0.135,0.83,0.326c0.069,0.054,0.109,0.046,0.172,0c0.285-0.208,0.597-0.343,0.96-0.327
			c0.227,0.011,0.43,0.093,0.621,0.207c0.071,0.042,0.096,0.119,0.05,0.196c-0.047,0.081-0.123,0.095-0.205,0.058
			c-0.106-0.047-0.206-0.108-0.321-0.135c-0.355-0.083-0.655,0.046-0.933,0.246c-0.269,0.192-0.266,0.196-0.525-0.006
			c-0.197-0.154-0.406-0.276-0.67-0.265c-0.143,0.006-0.277,0.043-0.404,0.11c-0.044,0.023-0.089,0.05-0.136,0.061
			c-0.073,0.017-0.146,0.004-0.177-0.078c-0.031-0.079-0.01-0.15,0.067-0.193C228.995,214.476,229.212,214.386,229.458,214.393z"/>
		<path opacity="0.5" fill-rule="evenodd" clip-rule="evenodd" fill="#0C5666" d="M222.977,229.236
			c-0.063,0.403-0.125,0.806-0.189,1.207c-0.019,0.124-0.043,0.246-0.064,0.368c-0.251-0.307-0.377-0.669-0.447-1.054
			c-0.019-0.104-0.029-0.213-0.03-0.32c0-0.086,0.033-0.119,0.114-0.128C222.566,229.289,222.771,229.261,222.977,229.236z"/>
		<path opacity="0.5" fill-rule="evenodd" clip-rule="evenodd" fill="#0C5666" d="M236.567,232.014c0.108,0,0.217,0,0.325,0.001
			c-0.521,0.223-0.98,0.568-1.526,0.734c-0.371,0.113-0.749,0.172-1.138,0.194c-0.229,0.015-0.455-0.006-0.684-0.007
			c-0.036,0-0.075,0.007-0.108-0.018c-0.021-0.016-0.04-0.032-0.036-0.061c0.005-0.028,0.027-0.042,0.054-0.044
			c0.041-0.002,0.083-0.002,0.124-0.002c0.513,0.011,1.022,0.009,1.523-0.121c0.411-0.107,0.789-0.285,1.151-0.501
			C236.356,232.128,236.462,232.073,236.567,232.014z"/>
		<path opacity="0.5" fill-rule="evenodd" clip-rule="evenodd" fill="#0C5666" d="M223.19,232.599
			c0.026-0.047,0.052-0.093,0.078-0.14c0.278,0.078,0.504,0.273,0.782,0.35c0.378,0.104,0.75,0.041,1.119-0.054
			c0.355-0.092,0.696-0.224,1.025-0.385c0.043-0.022,0.096-0.058,0.127,0.01c0.03,0.065-0.027,0.088-0.072,0.108
			c-0.518,0.243-1.051,0.441-1.625,0.495c-0.357,0.033-0.698-0.036-1.005-0.229C223.486,232.672,223.344,232.624,223.19,232.599z"/>
		<path opacity="0.5" fill-rule="evenodd" clip-rule="evenodd" fill="#0C5666" d="M227.203,231.036
			c0.013,0.042,0.033,0.081,0.027,0.126c-0.608,0.148-1.198,0.346-1.757,0.629c-0.204,0.103-0.401,0.219-0.593,0.345
			c-0.021,0.014-0.041,0.03-0.062,0.042c-0.043,0.022-0.091,0.065-0.129,0.001c-0.032-0.054,0.016-0.084,0.054-0.107
			c0.156-0.098,0.31-0.196,0.469-0.285C225.839,231.439,226.508,231.204,227.203,231.036z"/>
		<path opacity="0.5" fill-rule="evenodd" clip-rule="evenodd" fill="#0C5666" d="M233.564,231.137c0-0.044-0.005-0.087,0.021-0.126
			c0.326,0.051,0.652,0.102,0.979,0.153c-0.001,0.043,0.006,0.086-0.023,0.124C234.216,231.239,233.89,231.188,233.564,231.137z"/>
		<path opacity="0.5" fill-rule="evenodd" clip-rule="evenodd" fill="#0C5666" d="M238.075,231.716
			c-0.005,0.04-0.009,0.08-0.015,0.12c-0.26-0.007-0.52-0.005-0.775,0.049c0.007-0.05,0.013-0.1,0.019-0.148
			C237.56,231.732,237.816,231.664,238.075,231.716z"/>
		<path opacity="0.5" fill-rule="evenodd" clip-rule="evenodd" fill="#0C5666" d="M228.724,230.808
			c0.002,0.041,0.004,0.084,0.007,0.127c-0.174,0.014-0.352-0.004-0.514,0.082c-0.012-0.053-0.024-0.104-0.036-0.154
			C228.36,230.834,228.541,230.808,228.724,230.808z"/>
		<path fill-rule="evenodd" clip-rule="evenodd" fill="#E1E8ED" d="M235.419,231.463c-0.005-0.044,0.004-0.085,0.021-0.126
			c0.009,0.002,0.019,0,0.024,0.005c0.038,0.028,0.137,0.004,0.107,0.094C235.545,231.519,235.476,231.483,235.419,231.463z"/>
		<path opacity="0.5" fill-rule="evenodd" clip-rule="evenodd" fill="#0C5666" d="M233.692,230.337
			c0.039-0.25,0.079-0.499,0.116-0.75c0.008-0.06,0.035-0.074,0.089-0.074c0.288,0.002,0.574,0.002,0.861,0.002
			c0.045,0,0.082-0.002,0.07,0.066c-0.056,0.31-0.107,0.62-0.161,0.931C234.342,230.454,234.017,230.396,233.692,230.337z"/>
		<path opacity="0.5" fill-rule="evenodd" clip-rule="evenodd" fill="#0C5666" d="M226.656,228.806
			c0.112,0.348,0.181,0.707,0.272,1.062c0.027,0.106,0.111,0.24,0.052,0.315c-0.052,0.066-0.204,0.019-0.312,0.02
			c-0.3,0.002-0.6,0-0.9,0.002c-0.06,0-0.104,0-0.059-0.08c0.247-0.438,0.493-0.877,0.739-1.315
			C226.518,228.807,226.587,228.807,226.656,228.806z"/>
		<path opacity="0.5" fill-rule="evenodd" clip-rule="evenodd" fill="#0C5666" d="M231.216,230.063
			c-0.478-0.003-0.954-0.043-1.432-0.024c0.099-0.299,0.331-0.437,0.617-0.498c0.279-0.061,0.564-0.025,0.846-0.033
			c0.051-0.001,0.069,0.021,0.058,0.068C231.267,229.737,231.268,229.904,231.216,230.063z"/>
		<path opacity="0.5" fill-rule="evenodd" clip-rule="evenodd" fill="#0C5666" d="M231.084,230.886
			c-0.475-0.035-0.949-0.024-1.426-0.023c-0.021-0.04-0.025-0.083-0.017-0.127c0.488,0.005,0.978-0.012,1.465,0.024
			C231.112,230.804,231.105,230.847,231.084,230.886z"/>
		<path fill-rule="evenodd" clip-rule="evenodd" fill="#0C5666" d="M219.249,228.718c-0.05,0.029-0.058,0.077-0.078,0.116
			c-0.516,1.023-1.031,2.045-1.542,3.069c-0.042,0.084-0.088,0.112-0.18,0.11c-0.258-0.007-0.517-0.006-0.775,0
			c-0.085,0.001-0.113-0.028-0.127-0.108c-0.192-1.044-0.387-2.088-0.581-3.131c-0.008-0.041-0.019-0.081-0.042-0.122
			c-0.043,0.314-0.086,0.628-0.128,0.941c-0.103,0.771-0.205,1.544-0.306,2.316c-0.01,0.073-0.034,0.104-0.117,0.104
			c-0.254-0.006-0.509-0.006-0.763,0c-0.08,0.001-0.101-0.021-0.088-0.101c0.163-0.994,0.324-1.989,0.485-2.983
			c0.062-0.387,0.127-0.772,0.185-1.16c0.013-0.083,0.039-0.112,0.125-0.111c0.392,0.004,0.784,0.005,1.176,0
			c0.094-0.001,0.116,0.033,0.131,0.118c0.188,1.041,0.38,2.081,0.571,3.121c0.002,0.016,0.006,0.029,0.013,0.056
			c0.055-0.032,0.066-0.082,0.087-0.124c0.517-1.017,1.033-2.035,1.545-3.054c0.044-0.088,0.091-0.118,0.189-0.116
			c0.379,0.006,0.759,0.006,1.138,0c0.104-0.002,0.114,0.034,0.1,0.124c-0.224,1.372-0.447,2.745-0.666,4.118
			c-0.014,0.092-0.046,0.115-0.134,0.113c-0.225-0.007-0.451-0.008-0.676,0.001c-0.11,0.004-0.141-0.018-0.118-0.135
			c0.118-0.604,0.228-1.211,0.339-1.816c0.078-0.419,0.155-0.836,0.231-1.253C219.248,228.781,219.247,228.753,219.249,228.718z"/>
		<path fill-rule="evenodd" clip-rule="evenodd" fill="#0C5666" d="M232.82,230.212c0.072-0.431,0.147-0.859,0.215-1.29
			c0.013-0.085,0.041-0.11,0.125-0.11c1.107,0.002,2.215,0,3.323,0.005c0.148,0,0.3,0.018,0.445,0.047
			c0.492,0.104,0.726,0.364,0.674,0.949c-0.026,0.31-0.087,0.617-0.132,0.924c-0.057,0.333-0.111,0.666-0.167,0.999
			c-0.006,0.049-0.012,0.099-0.019,0.148c-0.006,0.11-0.068,0.138-0.171,0.128c-0.073-0.008-0.148,0.001-0.222,0.002
			c-0.108-0.001-0.217-0.001-0.325-0.001c-0.188-0.008-0.187-0.008-0.156-0.2c0.045-0.291,0.087-0.584,0.131-0.876
			c0.038-0.103,0.041-0.211,0.059-0.317c0.038-0.229,0.077-0.458,0.106-0.688c0.035-0.26-0.055-0.366-0.315-0.403
			c-0.194-0.025-0.39-0.007-0.584-0.014c-0.047-0.002-0.081,0.008-0.089,0.062c-0.059,0.377-0.118,0.754-0.177,1.131
			c-0.033,0.21-0.066,0.42-0.101,0.629c-0.018,0.041-0.026,0.082-0.021,0.126c-0.026,0.151-0.056,0.303-0.076,0.455
			c-0.009,0.063-0.024,0.096-0.098,0.095c-0.241-0.005-0.482-0.006-0.725,0c-0.08,0.001-0.085-0.03-0.074-0.098
			c0.034-0.208,0.082-0.415,0.094-0.627c0.029-0.038,0.022-0.081,0.023-0.124c0.046-0.216,0.083-0.433,0.104-0.652
			c0.054-0.311,0.105-0.621,0.161-0.931c0.012-0.068-0.025-0.066-0.07-0.066c-0.287,0-0.573,0-0.861-0.002
			c-0.054,0-0.081,0.015-0.089,0.074c-0.037,0.251-0.077,0.5-0.116,0.75c-0.044,0.224-0.085,0.447-0.106,0.674
			c-0.026,0.039-0.021,0.082-0.021,0.126c-0.042,0.249-0.091,0.499-0.124,0.75c-0.014,0.102-0.053,0.129-0.15,0.126
			c-0.221-0.007-0.441-0.004-0.662,0c-0.073,0-0.09-0.018-0.077-0.094C232.643,231.351,232.73,230.782,232.82,230.212z"/>
		<path fill-rule="evenodd" clip-rule="evenodd" fill="#0C5666" d="M226.061,228.008c0.025-0.022,0.04-0.05,0.047-0.083
			c0.042-0.065,0.087-0.127,0.123-0.196c0.028-0.055,0.069-0.074,0.126-0.073c0.049,0,0.098,0,0.146,0
			c0.221,0.001,0.441,0.007,0.662,0.001c0.088-0.002,0.121,0.026,0.144,0.109c0.083,0.309,0.174,0.614,0.262,0.921
			c0.142,0.507,0.283,1.016,0.424,1.524c0.056,0.219,0.11,0.438,0.186,0.65c0.012,0.051,0.024,0.102,0.036,0.154
			c0.083,0.3,0.165,0.602,0.252,0.901c0.021,0.073,0.009,0.095-0.069,0.095c-0.292-0.004-0.583-0.006-0.875,0
			c-0.083,0.001-0.095-0.04-0.11-0.102c-0.061-0.249-0.123-0.5-0.185-0.75c0.005-0.045-0.014-0.084-0.027-0.126
			c0.003-0.064-0.045-0.058-0.086-0.058c-0.604,0.002-1.208,0.005-1.812,0.006c-0.056,0-0.079,0.027-0.103,0.071
			c-0.159,0.288-0.322,0.572-0.478,0.861c-0.039,0.073-0.083,0.098-0.165,0.097c-0.29-0.006-0.58-0.002-0.886-0.002
			c0.058-0.108,0.108-0.202,0.158-0.297c0.022-0.029,0.046-0.058,0.064-0.089c0.213-0.354,0.425-0.706,0.636-1.061
			c0.324-0.543,0.646-1.086,0.97-1.631C225.688,228.625,225.875,228.317,226.061,228.008z M226.656,228.806
			c0-0.09-0.028-0.172-0.064-0.274c-0.054,0.104-0.098,0.19-0.143,0.277c-0.246,0.438-0.492,0.877-0.739,1.315
			c-0.044,0.08,0,0.08,0.059,0.08c0.3-0.002,0.6,0,0.9-0.002c0.107-0.001,0.259,0.047,0.312-0.02
			c0.059-0.075-0.025-0.209-0.052-0.315C226.837,229.513,226.768,229.154,226.656,228.806z"/>
		<path fill-rule="evenodd" clip-rule="evenodd" fill="#0C5666" d="M223.19,232.599c-0.257,0.397-0.645,0.553-1.097,0.562
			c-0.575,0.012-1.15,0.002-1.726,0.007c-0.093,0-0.1-0.031-0.083-0.11c0.028-0.134,0.048-0.27,0.065-0.406
			c0.012-0.095,0.04-0.14,0.153-0.138c0.487,0.009,0.976,0.004,1.463,0.003c0.169-0.001,0.321-0.048,0.438-0.177
			c0.022-0.024,0.041-0.053,0.058-0.082c0.117-0.207,0.094-0.244-0.139-0.247c-0.354-0.004-0.709,0.024-1.06-0.045
			c-0.514-0.103-0.739-0.39-0.696-0.91c0.046-0.549,0.166-1.087,0.246-1.63c0.025-0.174,0.062-0.345,0.083-0.518
			c0.01-0.076,0.039-0.095,0.111-0.095c0.221,0.004,0.442,0.004,0.663,0c0.081,0,0.105,0.012,0.09,0.104
			c-0.103,0.607-0.195,1.217-0.296,1.824c-0.071,0.436,0.025,0.558,0.463,0.564c0.208,0.004,0.417-0.001,0.625,0.004
			c0.071,0.001,0.106-0.016,0.115-0.091c0.015-0.137,0.038-0.272,0.058-0.408c0.021-0.122,0.045-0.244,0.064-0.368
			c0.064-0.401,0.126-0.804,0.189-1.207c0.02-0.109,0.041-0.22,0.059-0.331c0.01-0.059,0.028-0.094,0.101-0.092
			c0.234,0.005,0.467,0.003,0.701,0.001c0.063-0.001,0.092,0.011,0.075,0.085c-0.018,0.075-0.022,0.156-0.033,0.234
			c-0.021,0.122-0.045,0.244-0.064,0.366c-0.108,0.677-0.216,1.352-0.324,2.028c-0.063,0.313-0.089,0.635-0.223,0.932
			C223.243,232.506,223.217,232.552,223.19,232.599z"/>
		<path fill-rule="evenodd" clip-rule="evenodd" fill="#0C5666" d="M232.417,228.083c-0.109,0.668-0.22,1.336-0.328,2.004
			c-0.003,0.017-0.001,0.033-0.001,0.05c-0.058,0.236-0.083,0.478-0.12,0.717c-0.056,0.357-0.119,0.713-0.175,1.071
			c-0.011,0.067-0.033,0.089-0.102,0.089c-0.562-0.004-1.126-0.002-1.688-0.007c-0.185-0.002-0.365-0.032-0.538-0.099
			c-0.448-0.171-0.672-0.513-0.734-0.973c-0.003-0.043-0.005-0.086-0.007-0.127c0.002-0.236,0.037-0.468,0.086-0.697
			c0.008-0.019,0.019-0.036,0.025-0.056c0.273-0.74,0.774-1.185,1.591-1.229c0.3-0.016,0.599-0.005,0.899-0.013
			c0.046,0,0.102,0.019,0.112-0.062c0.022-0.182,0.051-0.361,0.076-0.542c0.028-0.151,0.058-0.302,0.082-0.453
			c0.011-0.066,0.029-0.1,0.108-0.098c0.229,0.007,0.459,0.005,0.688,0.001c0.074-0.001,0.092,0.019,0.076,0.092
			C232.444,227.86,232.434,227.972,232.417,228.083z M229.659,230.863c0.02,0.217,0.133,0.353,0.366,0.414
			c0.31,0.081,0.628,0.044,0.942,0.051c0.04,0,0.06-0.021,0.064-0.06c0.017-0.127,0.035-0.255,0.053-0.382
			c0.021-0.039,0.027-0.082,0.022-0.126c0.045-0.231,0.089-0.463,0.109-0.697c0.052-0.159,0.051-0.326,0.089-0.487
			c0.012-0.048-0.007-0.069-0.058-0.068c-0.281,0.008-0.566-0.027-0.846,0.033c-0.286,0.062-0.519,0.199-0.617,0.498
			c-0.111,0.219-0.144,0.455-0.143,0.697C229.633,230.78,229.638,230.823,229.659,230.863z"/>
		<path fill-rule="evenodd" clip-rule="evenodd" fill="#0C5666" d="M241.229,228.814c0.321,0.009,0.698-0.028,1.069,0.034
			c0.633,0.104,0.863,0.428,0.764,1.063c-0.103,0.666-0.213,1.331-0.318,1.996c-0.011,0.072-0.032,0.108-0.115,0.105
			c-0.226-0.007-0.451-0.005-0.676,0c-0.074,0.001-0.101-0.011-0.086-0.097c0.102-0.604,0.196-1.208,0.294-1.812
			c0.018-0.108,0.023-0.216,0.018-0.324c-0.007-0.124-0.07-0.199-0.192-0.229c-0.163-0.041-0.331-0.032-0.497-0.033
			c-0.133-0.002-0.267,0.004-0.399-0.002c-0.082-0.004-0.114,0.021-0.128,0.106c-0.102,0.654-0.21,1.307-0.316,1.96
			c-0.018,0.11-0.038,0.222-0.051,0.333c-0.009,0.072-0.036,0.098-0.111,0.097c-0.221-0.006-0.442-0.008-0.663,0.001
			c-0.102,0.004-0.115-0.029-0.1-0.12c0.081-0.484,0.158-0.97,0.236-1.454c0.081-0.497,0.163-0.994,0.238-1.492
			c0.016-0.097,0.042-0.141,0.155-0.137C240.625,228.822,240.9,228.814,241.229,228.814z"/>
		<path fill-rule="evenodd" clip-rule="evenodd" fill="#0C5666" d="M238.392,229.763c0.049-0.286,0.101-0.57,0.145-0.857
			c0.012-0.074,0.039-0.095,0.11-0.093c0.2,0.002,0.398-0.002,0.598-0.003c0.225,0.016,0.222,0.016,0.185,0.238
			c-0.155,0.947-0.309,1.896-0.457,2.845c-0.016,0.093-0.044,0.124-0.141,0.121c-0.207-0.007-0.416-0.002-0.624-0.002
			c-0.172,0-0.172,0-0.147-0.175c0.006-0.04,0.01-0.08,0.015-0.12c0.054-0.311,0.109-0.621,0.16-0.933
			C238.29,230.444,238.339,230.103,238.392,229.763z"/>
		<path fill-rule="evenodd" clip-rule="evenodd" fill="#0C5666" d="M239.073,228.457c-0.125,0-0.25-0.003-0.375,0.001
			c-0.069,0.002-0.087-0.026-0.076-0.09c0.035-0.213,0.068-0.427,0.103-0.64c0.008-0.05,0.034-0.068,0.085-0.068
			c0.254,0.001,0.509,0.002,0.763,0c0.063-0.001,0.08,0.025,0.07,0.083c-0.035,0.213-0.069,0.427-0.102,0.64
			c-0.009,0.057-0.038,0.076-0.094,0.074C239.323,228.455,239.198,228.457,239.073,228.457z"/>
	</g>
</g>
<g id="POSTMAN_1_" display="none">
	<path display="inline" fill-rule="evenodd" clip-rule="evenodd" fill="#0C5666" d="M248.603,229.211
		c-0.004,0.039-0.004,0.078-0.004,0.119c-0.164,1.035-0.332,2.07-0.578,3.088c-0.008,0.039-0.014,0.08-0.02,0.117
		c-0.234,0.621-0.396,1.258-0.637,1.877c-0.842,2.189-2.02,4.176-3.561,5.947c-1.85,2.137-4.055,3.807-6.607,5.018
		c-1.76,0.836-3.611,1.383-5.537,1.678c-0.057,0.01-0.113,0.031-0.166,0.047c-0.043,0.006-0.084,0.014-0.123,0.021
		c-0.602,0.041-1.201,0.086-1.801,0.121c-1.943,0.113-3.852-0.115-5.734-0.584c-2.968-0.736-5.618-2.1-7.958-4.066
		c-2.558-2.15-4.456-4.779-5.707-7.875c-1.066-2.641-1.554-5.395-1.42-8.24c0.2-4.193,1.528-7.996,4.089-11.346
		c1.756-2.297,3.91-4.126,6.458-5.494c1.561-0.838,3.202-1.466,4.927-1.856c2.107-0.477,4.237-0.631,6.396-0.411
		c2.061,0.21,4.049,0.706,5.955,1.517c1.814,0.772,3.469,1.804,4.979,3.075c2.016,1.696,3.633,3.716,4.854,6.046
		c1.023,1.951,1.701,4.019,2.031,6.202c0.197,1.296,0.252,2.597,0.225,3.906C248.658,228.483,248.564,228.844,248.603,229.211z
		 M237.367,218.458c0.004-0.049-0.012-0.093-0.057-0.119c0-0.04,0-0.078,0-0.118c0.082-0.094,0.164-0.192,0.25-0.283
		c0.311-0.323,0.621-0.645,0.932-0.966c0.064-0.018,0.104-0.061,0.123-0.124c0.381-0.327,0.736-0.682,1.062-1.065
		c0.064-0.017,0.104-0.061,0.123-0.125c0.266-0.21,0.236-0.287-0.176-0.47c-0.025-0.007-0.047-0.013-0.072-0.019
		c-0.594-0.436-1.27-0.445-1.953-0.354c-0.33,0.044-0.662,0.122-0.918,0.364c-0.064-0.005-0.113,0.015-0.145,0.071
		c-0.195,0.073-0.35,0.193-0.473,0.359c-0.02,0.019-0.041,0.039-0.062,0.058c-0.137,0.086-0.217,0.221-0.295,0.357
		c-0.047,0.018-0.068,0.052-0.068,0.101c-0.027,0.028-0.059,0.051-0.08,0.084c-0.863,1.427-0.465,3.208,0.943,4.112
		c0.84,0.538,1.74,0.652,2.691,0.292c0.182-0.07,0.227-0.146,0.066-0.281c-0.139-0.122-0.236-0.292-0.408-0.379
		c-0.002-0.017-0.012-0.023-0.027-0.02c-0.311-0.388-0.674-0.721-1.041-1.053c-0.057-0.107-0.143-0.183-0.248-0.238
		C237.505,218.555,237.449,218.497,237.367,218.458L237.367,218.458z M225.727,225.893c-0.11,0.115-0.417,0.174-0.122,0.41
		c0.344,0.422,0.772,0.764,1.133,1.166c0.197,0.223,0.293,0.188,0.479,0.002c2.35-2.365,4.707-4.722,7.062-7.081
		c0.197-0.198,0.418-0.36,0.693-0.438c0.068-0.02,0.182,0.002,0.184-0.106c0-0.087-0.09-0.121-0.156-0.163
		c-0.484-0.313-1.002-0.335-1.537-0.154c-0.814,0.278-1.514,0.765-2.189,1.281c-1.582,1.208-3.011,2.592-4.449,3.961
		C226.446,225.131,226.052,225.479,225.727,225.893z M228.033,229.565c-0.02,0.002-0.049,0.006-0.078,0.012
		c-0.58,0.125-1.156,0.262-1.738,0.367c-0.658,0.121-1.224,0.326-1.723,0.848c-1.766,1.844-3.589,3.633-5.396,5.439
		c-0.127,0.125-0.181,0.205-0.027,0.354c0.595,0.582,1.18,1.172,1.769,1.76c0.082,0.082,0.162,0.197,0.3,0.125
		c0.137-0.072,0.093-0.199,0.067-0.316c-0.095-0.414-0.183-0.832-0.286-1.242c-0.065-0.266,0.021-0.439,0.26-0.561
		c0.406-0.205,0.809-0.418,1.21-0.631c2.473-1.305,4.84-2.773,6.984-4.582c0.161-0.137,0.145-0.223,0.012-0.354
		c-0.344-0.342-0.678-0.695-1.02-1.037C228.278,229.659,228.19,229.555,228.033,229.565z M236.378,221.347
		c0.008-0.171-0.016-0.334-0.109-0.484c-0.396-0.646-1.117-0.713-1.68-0.151c-1.512,1.511-3.021,3.023-4.533,4.535
		c-0.843,0.847-1.686,1.697-2.537,2.538c-0.172,0.171-0.189,0.293,0.006,0.456c0.181,0.151,0.346,0.326,0.504,0.503
		c0.148,0.166,0.283,0.187,0.449,0.027c0.179-0.171,0.367-0.331,0.553-0.494c1.219-1.069,2.436-2.138,3.654-3.208
		c1.113-0.98,2.225-1.96,3.334-2.944C236.253,221.92,236.404,221.672,236.378,221.347z M236.433,222.624
		c-0.002-0.056,0.008-0.118-0.043-0.137c-0.115-0.038-0.18,0.057-0.25,0.12c-0.756,0.667-1.512,1.336-2.271,2.003
		c-1.711,1.508-3.43,3.014-5.148,4.518c-0.145,0.125-0.123,0.215,0.001,0.336c0.335,0.322,0.665,0.648,0.983,0.988
		c0.16,0.166,0.273,0.158,0.439-0.004c0.98-0.949,1.965-1.891,2.898-2.888c1.025-1.1,2.02-2.225,2.787-3.53
		C236.089,223.586,236.3,223.118,236.433,222.624z M241.142,217.78c0-0.661-0.213-1.284-0.566-1.774
		c-0.154-0.215-0.264-0.198-0.434-0.025c-0.701,0.711-1.402,1.419-2.113,2.117c-0.152,0.147-0.148,0.246-0.008,0.385
		c0.529,0.518,1.059,1.035,1.572,1.568c0.193,0.2,0.34,0.177,0.521,0.005C240.777,219.44,241.148,218.697,241.142,217.78z
		 M220.459,238.719c0.029-0.041,0.059-0.086,0.088-0.127c-0.607-0.58-1.216-1.154-1.821-1.734c-0.12-0.115-0.208-0.061-0.302,0.033
		c-0.425,0.426-0.852,0.854-1.277,1.283c-0.062,0.062-0.141,0.121-0.102,0.227c0.04,0.105,0.14,0.088,0.228,0.094
		c0.394,0.031,0.789,0.061,1.183,0.088C219.123,238.627,219.792,238.674,220.459,238.719z M226.539,227.907
		c-0.452-0.451-0.85-0.832-1.23-1.23c-0.154-0.162-0.265-0.15-0.413,0c-0.511,0.521-1.03,1.036-1.544,1.556
		c-0.081,0.08-0.225,0.167-0.154,0.288c0.074,0.131,0.233,0.059,0.352,0.033c0.464-0.097,0.925-0.203,1.389-0.303
		C225.447,228.139,225.957,228.032,226.539,227.907z M226.13,229.52c0.364-0.078,0.76-0.16,1.154-0.248
		c0.144-0.033,0.36-0.023,0.402-0.139c0.049-0.136-0.164-0.215-0.256-0.321c-0.109-0.126-0.239-0.235-0.355-0.355
		c-0.08-0.081-0.146-0.077-0.225,0.003c-0.285,0.287-0.572,0.572-0.858,0.857c-0.044,0.045-0.084,0.096-0.052,0.156
		C225.974,229.538,226.041,229.522,226.13,229.52z"/>
</g>
<g id="GIT_x2F_GITHUB" display="none">
	<path display="inline" fill="#0C5666" d="M226.295,206.571c-11.05,0-20,8.799-20,19.653c0,8.686,5.729,16.051,13.675,18.647
		c1,0.185,1.367-0.424,1.367-0.944c0-0.468-0.017-1.704-0.025-3.343c-5.563,1.187-6.737-2.637-6.737-2.637
		c-0.91-2.268-2.225-2.875-2.225-2.875c-1.812-1.218,0.141-1.193,0.141-1.193c2.008,0.138,3.064,2.025,3.064,2.025
		c1.782,3.006,4.681,2.137,5.825,1.636c0.18-1.273,0.695-2.137,1.265-2.63c-4.441-0.491-9.109-2.18-9.109-9.711
		c0-2.146,0.774-3.898,2.058-5.274c-0.225-0.496-0.9-2.495,0.175-5.202c0,0,1.676-0.525,5.5,2.016c1.601-0.436,3.3-0.653,5-0.664
		c1.7,0.011,3.401,0.228,5,0.664c3.801-2.541,5.477-2.016,5.477-2.016c1.073,2.708,0.399,4.707,0.199,5.202
		c1.275,1.376,2.05,3.128,2.05,5.274c0,7.55-4.675,9.213-9.125,9.694c0.7,0.59,1.351,1.796,1.351,3.638
		c0,2.63-0.025,4.744-0.025,5.382c0,0.515,0.351,1.131,1.374,0.933c8.003-2.58,13.728-9.95,13.728-18.622
		C246.295,215.371,237.34,206.571,226.295,206.571z"/>
</g>
</svg>
