<?xml version="1.0" encoding="utf-8"?>
<!-- Generator: Adobe Illustrator 16.0.0, SVG Export Plug-In . SVG Version: 6.00 Build 0)  -->
<!DOCTYPE svg PUBLIC "-//W3C//DTD SVG 1.1//EN" "http://www.w3.org/Graphics/SVG/1.1/DTD/svg11.dtd">
<svg version="1.1" xmlns="http://www.w3.org/2000/svg" xmlns:xlink="http://www.w3.org/1999/xlink" x="0px" y="0px"
	 width="109.695px" height="87.04px" viewBox="0 0 109.695 87.04" enable-background="new 0 0 109.695 87.04" xml:space="preserve">
<g id="WEB_1_" display="none">
	<g display="inline">
		<path fill="none" stroke="#FFFFFF" stroke-width="2" stroke-linecap="round" stroke-linejoin="round" stroke-miterlimit="10" d="
			M6.283,44.982V5.827c0-0.892,0.723-1.614,1.615-1.614h16.481h26.306"/>
		<path fill="none" stroke="#FFFFFF" stroke-width="2" stroke-linecap="round" stroke-linejoin="round" stroke-miterlimit="10" d="
			M100.94,48.076v20.722c0,0.892-0.722,1.614-1.614,1.614H38.038"/>
		
			<line fill="none" stroke="#FFFFFF" stroke-width="2" stroke-linecap="round" stroke-linejoin="round" stroke-miterlimit="10" x1="38.71" y1="55.073" x2="100.67" y2="55.073"/>
		
			<line fill="none" stroke="#FFFFFF" stroke-width="2" stroke-linecap="round" stroke-linejoin="round" stroke-miterlimit="10" x1="35.75" y1="84.54" x2="71.473" y2="84.54"/>
		<path fill="none" stroke="#FFFFFF" stroke-width="2" stroke-linecap="round" stroke-linejoin="round" stroke-miterlimit="10" d="
			M43.755,70.614c0,0,5.248,9.756,0,13.521"/>
		<path fill="none" stroke="#FFFFFF" stroke-width="2" stroke-linecap="round" stroke-linejoin="round" stroke-miterlimit="10" d="
			M63.849,70.614c0,0-5.248,9.756,0,13.521"/>
		<g>
			<path fill="none" stroke="#0C5666" stroke-width="2" stroke-miterlimit="10" d="M105.581,42.292c0,0.777-0.722,1.409-1.614,1.409
				H56.538c-0.892,0-1.614-0.632-1.614-1.409V0.909c0-0.778,0.723-1.409,1.614-1.409h47.429c0.893,0,1.614,0.631,1.614,1.409V42.292
				z"/>
			<line fill="none" stroke="#0C5666" stroke-width="2" stroke-miterlimit="10" x1="54.452" y1="12.417" x2="105.515" y2="12.417"/>
			
				<line fill="none" stroke="#0C5666" stroke-width="2" stroke-linecap="round" stroke-linejoin="round" stroke-miterlimit="10" x1="60.104" y1="5.151" x2="64.746" y2="5.151"/>
			
				<line fill="none" stroke="#0C5666" stroke-width="2" stroke-linecap="round" stroke-linejoin="round" stroke-miterlimit="10" x1="68.177" y1="5.151" x2="72.819" y2="5.151"/>
			<path fill="#0C5666" d="M84.581,25.799c1.519,0.576,2.988,1.277,4.631,1.992c-1.69,0.723-3.236,1.383-4.781,2.047
				c-1.32,0.566-1.319,0.566-1.07,2.151c2.35-1.073,4.668-2.163,7.015-3.188c0.569-0.251,0.577-0.615,0.595-1.106
				c0.017-0.493-0.102-0.769-0.604-0.99c-2.183-0.949-4.338-1.963-6.508-2.938c-0.17-0.076-0.355-0.297-0.489-0.18
				C82.881,24.894,83.534,25.404,84.581,25.799z"/>
			<path fill="#0C5666" d="M68.781,28.596c2.26,1.072,4.536,2.113,6.806,3.167c0.162,0.074,0.328,0.203,0.464-0.047
				c0.268-0.489-0.083-1.474-0.62-1.71c-1.666-0.733-3.33-1.46-5.16-2.262c1.624-0.707,3.079-1.348,4.536-1.981
				c1.368-0.598,1.369-0.597,1.182-2.226c-2.424,1.133-4.83,2.243-7.222,3.384C68.189,27.197,68.201,28.319,68.781,28.596z"/>
			<path fill="#0C5666" d="M78.122,32.639c0.347-0.046,0.762,0.165,0.939-0.457c1.002-3.527,2.054-7.042,3.088-10.559
				c0.059-0.194,0.237-0.402-0.043-0.569c-0.493-0.295-1.435,0.106-1.607,0.692c-0.995,3.366-1.965,6.741-2.998,10.096
				C77.291,32.531,77.343,32.792,78.122,32.639z"/>
		</g>
		<path fill="none" stroke="#0C5666" stroke-width="2" stroke-miterlimit="10" d="M36.312,58.521
			c-1.273-0.159-2.045-0.733-2.436-1.806c-0.397-1.104-0.173-2.065,0.684-2.936c0.242-0.245,0.797-0.813,0.738-1.681
			c-0.004-0.467-0.161-0.896-0.472-1.272c-0.831-1.014-1.749-1.933-2.732-2.728c-0.933-0.762-2.058-0.72-3.018,0.129
			c-1.019,0.899-2.057,1.087-3.231,0.59c-1.094-0.461-1.611-1.316-1.627-2.69c-0.018-1.26-0.793-2.048-2.121-2.152
			c-1.005-0.082-2.042-0.086-3.394-0.007c-1.477,0.089-2.289,0.935-2.281,2.377c0.004,0.557-0.177,1.075-0.559,1.579
			c-0.557,0.738-1.367,1.163-2.223,1.163c-0.664,0-1.307-0.247-1.87-0.722c-0.381-0.322-0.977-0.747-1.746-0.747
			c-0.609,0-1.184,0.262-1.756,0.801c-0.761,0.727-1.374,1.341-1.928,1.928c-1.09,1.165-1.111,2.328-0.075,3.573
			c0.642,0.771,0.855,1.727,0.583,2.629c-0.267,0.896-0.957,1.566-1.89,1.851c-0.32,0.097-0.699,0.135-1.062,0.167
			c-1.114,0.104-1.817,0.739-2.038,1.853c-0.173,0.882-0.157,1.722-0.145,2.536L1.717,63.1c0.038,2.193,0.624,2.848,2.843,3.187
			c0.145,0.023,0.302,0.07,0.46,0.13c0.936,0.349,1.61,1.087,1.85,2.027c0.232,0.913,0.006,1.854-0.623,2.58
			c-1.024,1.192-1,2.371,0.07,3.511c0.658,0.697,1.376,1.44,2.192,2.146c1.025,0.883,2.082,0.867,3.085-0.044
			c1.023-0.929,2.071-1.157,3.19-0.676c1.086,0.474,1.624,1.32,1.645,2.596c0.021,1.394,0.894,2.281,2.28,2.312
			c0.589,0.021,1.178,0.023,1.766,0.023l1.237-0.003c1.468-0.004,2.381-0.894,2.449-2.377c0.059-1.276,0.61-2.089,1.732-2.552
			c1.107-0.457,2.118-0.239,3.125,0.654c0.504,0.454,1.041,0.685,1.594,0.685c0.526,0,1.036-0.208,1.513-0.611
			c0.855-0.715,1.65-1.507,2.429-2.415c0.903-1.043,0.873-2.185-0.076-3.129c-0.497-0.488-0.756-1.011-0.795-1.59
			c-0.122-1.907,0.912-3.106,2.837-3.282c2.1-0.193,2.341-1.638,2.3-2.486c-0.019-0.376-0.002-0.766,0.012-1.182
			c0.017-0.445,0.034-0.908,0.009-1.383C38.746,59.352,38.176,58.75,36.312,58.521z"/>
		<circle fill="none" stroke="#0C5666" stroke-width="2" stroke-miterlimit="10" cx="20.281" cy="62.4" r="5.18"/>
	</g>
</g>
<g id="MORE" display="none">
	
		<circle display="inline" fill="none" stroke="#DCDDDC" stroke-linecap="round" stroke-linejoin="round" stroke-miterlimit="10" cx="52.208" cy="56.463" r="28.347"/>
	<g display="inline">
		<path fill="none" stroke="#DCDDDC" stroke-linecap="round" stroke-linejoin="round" stroke-miterlimit="10" d="M68.583,48.479
			c0,0.406-0.448,0.734-1,0.734h-19.25c-0.552,0-1-0.328-1-0.734v-4.033c0-0.404,0.448-0.732,1-0.732h19.25c0.552,0,1,0.328,1,0.732
			V48.479z"/>
		<path fill="none" stroke="#DCDDDC" stroke-linecap="round" stroke-linejoin="round" stroke-miterlimit="10" d="M68.583,58.479
			c0,0.406-0.448,0.734-1,0.734h-19.25c-0.552,0-1-0.328-1-0.734v-4.033c0-0.404,0.448-0.732,1-0.732h19.25c0.552,0,1,0.328,1,0.732
			V58.479z"/>
		<path fill="none" stroke="#DCDDDC" stroke-linecap="round" stroke-linejoin="round" stroke-miterlimit="10" d="M68.583,68.479
			c0,0.406-0.448,0.734-1,0.734h-19.25c-0.552,0-1-0.328-1-0.734v-4.033c0-0.404,0.448-0.732,1-0.732h19.25c0.552,0,1,0.328,1,0.732
			V68.479z"/>
		<circle fill="none" stroke="#B21350" stroke-miterlimit="10" cx="39.583" cy="46.463" r="3.75"/>
		<circle fill="none" stroke="#B21350" stroke-miterlimit="10" cx="39.583" cy="56.463" r="3.75"/>
		<circle fill="none" stroke="#B21350" stroke-miterlimit="10" cx="39.583" cy="66.463" r="3.75"/>
	</g>
</g>
<g id="UX_1_">
	<g>
		<path fill="none" stroke="#0C5666" stroke-width="2" stroke-miterlimit="10" d="M45.378,44.379c0,1.399-1.084,2.531-2.421,2.531
			h-35.4c-1.336,0-2.42-1.132-2.42-2.531V16.538c0-1.399,1.083-2.531,2.42-2.531h35.4c1.337,0,2.421,1.132,2.421,2.531V44.379z"/>
		<path fill="none" stroke="#0C5666" stroke-width="2" stroke-miterlimit="10" d="M102.904,13.93c0,0.595-0.372,1.077-0.83,1.077
			H89.949c-0.458,0-0.829-0.482-0.829-1.077V2.078C89.12,1.483,89.491,1,89.949,1h12.125c0.458,0,0.83,0.483,0.83,1.078V13.93z"/>
		<path fill="none" stroke="#0C5666" stroke-width="2" stroke-miterlimit="10" d="M103.469,41.233c0,0.68-0.592,1.23-1.322,1.23
			H82.785c-0.73,0-1.323-0.551-1.323-1.23V27.688c0-0.682,0.593-1.23,1.323-1.23h19.362c0.73,0,1.322,0.549,1.322,1.23V41.233z"/>
		
			<line fill="none" stroke="#0C5666" stroke-width="2" stroke-linecap="round" stroke-linejoin="round" stroke-miterlimit="10" x1="81.239" y1="47.578" x2="103.692" y2="47.578"/>
		
			<line fill="none" stroke="#0C5666" stroke-width="2" stroke-linecap="round" stroke-linejoin="round" stroke-miterlimit="10" x1="81.239" y1="54.692" x2="103.692" y2="54.692"/>
		
			<line fill="none" stroke="#0C5666" stroke-width="2" stroke-linecap="round" stroke-linejoin="round" stroke-miterlimit="10" x1="81.239" y1="61.807" x2="103.692" y2="61.807"/>
		
			<polygon fill="none" stroke="#0C5666" stroke-width="2" stroke-linecap="round" stroke-linejoin="round" stroke-miterlimit="10" points="
			20.229,64.632 15.117,67.585 10.006,70.536 10.006,64.632 10.006,58.731 15.117,61.681 		"/>
		
			<circle fill="none" stroke="#0C5666" stroke-width="2" stroke-linecap="round" stroke-linejoin="round" stroke-miterlimit="10" cx="58.911" cy="34.016" r="7.336"/>
		<path fill="none" stroke="#0C5666" stroke-width="2" stroke-linecap="round" stroke-linejoin="round" stroke-miterlimit="10" d="
			M47.383,62.696c0,0-1.771-17.326,11.338-17.786c12.672-0.445,11.783,14.007,11.783,17.786"/>
		<path fill="none" stroke="#A9B7C1" stroke-width="2" stroke-linejoin="round" stroke-miterlimit="10" d="M29.234,73.749
			c0,0.982-0.796,1.778-1.778,1.778H2.778C1.796,75.527,1,74.731,1,73.749V55.517c0-0.983,0.796-1.778,1.778-1.778h24.678
			c0.982,0,1.778,0.795,1.778,1.778V73.749z"/>
		<path fill="none" stroke="#A9B7C1" stroke-width="2" stroke-linecap="round" stroke-linejoin="round" stroke-miterlimit="10" d="
			M82.921,71.573v12.688c0,0.983-0.796,1.778-1.778,1.778H36.678c-0.982,0-1.778-0.795-1.778-1.778v-34.46"/>
		<path fill="none" stroke="#A9B7C1" stroke-width="2" stroke-linecap="round" stroke-linejoin="round" stroke-miterlimit="10" d="
			M34.9,10.888V7.114c0-0.983,0.796-1.778,1.778-1.778h44.465c0.982,0,1.778,0.795,1.778,1.778v11.342"/>
		<path fill="none" stroke="#A9B7C1" stroke-width="2" stroke-linejoin="round" stroke-miterlimit="10" d="M108.695,67.365
			c0,0.982-0.796,1.778-1.778,1.778H78.015c-0.982,0-1.779-0.796-1.779-1.778V23.123c0-0.983,0.797-1.778,1.779-1.778h28.901
			c0.982,0,1.778,0.795,1.778,1.778V67.365z"/>
		
			<circle fill="none" stroke="#A9B7C1" stroke-width="2" stroke-linejoin="round" stroke-miterlimit="10" cx="58.911" cy="76.146" r="5.669"/>
		
			<line fill="none" stroke="#A9B7C1" stroke-width="2" stroke-linecap="round" stroke-linejoin="round" stroke-miterlimit="10" x1="11.807" y1="23.123" x2="39.152" y2="23.123"/>
		
			<line fill="none" stroke="#A9B7C1" stroke-width="2" stroke-linecap="round" stroke-linejoin="round" stroke-miterlimit="10" x1="11.807" y1="30.237" x2="39.152" y2="30.237"/>
		
			<line fill="none" stroke="#A9B7C1" stroke-width="2" stroke-linecap="round" stroke-linejoin="round" stroke-miterlimit="10" x1="11.807" y1="37.351" x2="31.371" y2="37.351"/>
		
			<line fill="none" stroke="#A9B7C1" stroke-width="2" stroke-linecap="round" stroke-linejoin="round" stroke-miterlimit="10" x1="48.239" y1="12.895" x2="69.582" y2="12.895"/>
		<circle fill="#A9B7C1" cx="96.012" cy="8.003" r="1.667"/>
	</g>
</g>
<g id="GRAPHISME_1_" display="none">
	<g display="inline">
		<path fill="none" stroke="#A9B7C1" stroke-width="2" stroke-linecap="round" stroke-linejoin="round" stroke-miterlimit="10" d="
			M38.896,57.129c2.494,3.555,2.51,4.781,0.477,9.254c-5.229,11.505,2.66,19.215,14.606,19.215c18.689,0,35.564-19.417,35.564-43.47
			c0-21.893-17.407-38.197-39.515-38.197c-8.398,0-17.548,3.354-23.723,8.885c-6.919,6.198-9.528,14.387-6.633,23.653
			c0.553,1.764,1.511,3.226,3.337,4.947"/>
		
			<circle fill="none" stroke="#A9B7C1" stroke-width="2" stroke-linejoin="round" stroke-miterlimit="10" cx="39.305" cy="22.196" r="5.309"/>
		
			<circle fill="none" stroke="#A9B7C1" stroke-width="2" stroke-linejoin="round" stroke-miterlimit="10" cx="57.895" cy="68.673" r="5.311"/>
		
			<circle fill="none" stroke="#A9B7C1" stroke-width="2" stroke-linejoin="round" stroke-miterlimit="10" cx="75.159" cy="48.755" r="5.312"/>
		<path fill="none" stroke="#A9B7C1" stroke-width="2" stroke-linejoin="round" stroke-miterlimit="10" d="M64.533,30.164
			c2.936,0,5.314-2.377,5.314-5.312c0-2.931-2.378-5.309-5.314-5.309c-2.931,0-5.31,2.378-5.31,5.309
			C59.223,27.787,61.603,30.164,64.533,30.164z"/>
	</g>
	<g display="inline">
		<circle fill="#0C5666" cx="10.374" cy="3.865" r="2.854"/>
		<path fill="#0C5666" d="M59.31,4.023c0,1.574-1.277,2.853-2.854,2.853c-1.577,0-2.854-1.279-2.854-2.853
			c0-1.581,1.277-2.856,2.854-2.856C58.033,1.167,59.31,2.442,59.31,4.023z"/>
		
			<line fill="none" stroke="#0C5666" stroke-width="2" stroke-linecap="round" stroke-linejoin="round" stroke-miterlimit="10" x1="10.247" y1="3.943" x2="55.881" y2="3.943"/>
	</g>
	<g display="inline">
		<path fill="#0C5666" d="M100.656,25.347c-1.451-0.603-2.141-2.276-1.536-3.732c0.608-1.452,2.276-2.142,3.733-1.537
			c1.455,0.606,2.143,2.276,1.536,3.733C103.786,25.264,102.114,25.954,100.656,25.347z"/>
		<circle fill="#0C5666" cx="83.866" cy="65.271" r="2.853"/>
		
			<line fill="none" stroke="#0C5666" stroke-width="2" stroke-linecap="round" stroke-linejoin="round" stroke-miterlimit="10" x1="101.737" y1="23.069" x2="84.195" y2="65.196"/>
	</g>
	
		<path display="inline" fill="none" stroke="#0C5666" stroke-width="2" stroke-linecap="round" stroke-linejoin="round" stroke-miterlimit="10" d="
		M20.829,64.339l4.148,6.918l17.577-27.494L10.108,46.37l4.11,6.867c0.002,0,0.002,0,0.003,0.009
		c0.658,1.104,0.292,2.532-0.813,3.186l-9.106,5.42L8.53,68.96l9.112-5.419c0.532-0.317,1.165-0.409,1.764-0.257
		C20,63.436,20.511,63.812,20.829,64.339z"/>
</g>
</svg>
