<?xml version="1.0" encoding="utf-8"?>
<!-- Generator: Adobe Illustrator 16.0.0, SVG Export Plug-In . SVG Version: 6.00 Build 0)  -->
<!DOCTYPE svg PUBLIC "-//W3C//DTD SVG 1.1//EN" "http://www.w3.org/Graphics/SVG/1.1/DTD/svg11.dtd">
<svg version="1.1" id="Calque_1" xmlns="http://www.w3.org/2000/svg" xmlns:xlink="http://www.w3.org/1999/xlink" x="0px" y="0px"
	 width="130px" height="113.471px" viewBox="7.417 11.197 130 113.471" enable-background="new 7.417 11.197 130 113.471"
	 xml:space="preserve">
<g id="Calque_2" display="none">
	<rect x="-174" y="-263.5" display="inline" fill="#B5396B" width="511" height="444"/>
</g>
<g id="Calque_1_1_" display="none">
	<g display="inline" opacity="0.1">
		<path fill="#2592D1" d="M71.752,1.634c21.83,0,43.66,0,65.489,0c3.627,0,5.356,1.716,5.356,5.322c0,31.868,0,63.735-0.007,95.604
			c0,0.553-0.044,1.114-0.147,1.658c-0.42,2.211-1.825,3.512-4.075,3.648c-1.587,0.098-3.185,0.047-4.778,0.047
			c-20.195,0.002-40.393-0.006-60.589,0.023c-0.996,0.002-1.455-0.152-1.301-1.264c0.141-1.016-0.409-2.354,0.198-2.999
			c0.613-0.653,1.956-0.2,2.975-0.2c20.635-0.014,41.27-0.02,61.904,0.016c1.072,0.002,1.352-0.245,1.351-1.338
			c-0.032-31.59-0.034-63.18,0.003-94.77c0.001-1.139-0.346-1.322-1.378-1.321C93.412,6.088,50.071,6.089,6.729,6.059
			C5.613,6.058,5.285,6.271,5.287,7.458c0.038,31.589,0.037,63.179,0,94.769c-0.001,1.096,0.312,1.271,1.312,1.264
			c7.33-0.043,14.66-0.008,21.989-0.043c0.864-0.006,1.238,0.154,1.126,1.094c-0.131,1.093,0.455,2.562-0.234,3.195
			c-0.592,0.543-2.038,0.177-3.106,0.179c-6.732,0.006-13.464,0.005-20.196,0.002c-3.684-0.001-5.311-1.631-5.311-5.315
			c0-31.908,0-63.815,0-95.725c0-3.539,1.715-5.242,5.277-5.242C28.013,1.634,49.882,1.634,71.752,1.634z"/>
		<path fill="#2592D1" d="M71.681,10.479c18.127,0,36.254,0,54.381,0c2.324,0,2.768,0.325,3.307,2.523
			c0.264,1.072,0.811,1.699,1.988,1.874c1.791,0.266,2.394,1.081,2.395,2.952c0.004,24.661,0.004,49.32-0.001,73.982
			c0,1.781-0.569,2.535-2.255,2.803c-1.361,0.215-1.971,1.025-2.225,2.273c-0.317,1.559-0.916,2.071-2.488,2.182
			c-0.238,0.018-0.479,0.004-0.717,0.004c-16.215,0-32.43-0.012-48.645,0.029c-1.08,0.002-1.396-0.285-1.271-1.315
			c0.125-1.017-0.422-2.366,0.201-2.981c0.621-0.615,1.963-0.174,2.987-0.175c14.899-0.011,29.8-0.015,44.7,0.013
			c0.861,0.002,1.348-0.188,1.718-1.029c0.524-1.189,1.474-2.106,2.669-2.618c0.809-0.347,0.84-0.88,0.84-1.591
			c-0.012-16.135-0.009-32.271-0.009-48.404c0-7.012-0.012-14.023,0.017-21.035c0.004-0.725-0.168-1.105-0.867-1.425
			c-1.213-0.557-2.223-1.444-2.719-2.719c-0.311-0.795-0.801-0.905-1.551-0.903c-9.84,0.021-19.68,0.014-29.521,0.014
			c-25.019,0-50.038,0.005-75.057-0.02c-0.919-0.001-1.486,0.128-1.904,1.078c-0.5,1.137-1.408,2.059-2.596,2.521
			c-0.785,0.306-0.913,0.767-0.912,1.524c0.02,18.525,0.005,37.051,0.042,55.576c0.002,1.093-0.27,1.484-1.361,1.341
			c-1.01-0.136-2.373,0.435-2.958-0.231c-0.499-0.57-0.155-1.894-0.156-2.884C9.709,55.271,9.71,36.705,9.711,18.14
			c0-2.355,0.399-2.875,2.646-3.32c0.993-0.197,1.475-0.797,1.682-1.749c0.476-2.186,1.008-2.592,3.261-2.592
			C35.427,10.479,53.554,10.479,71.681,10.479z"/>
		<path fill="#2592D1" d="M36.279,113.83c0-3.027-0.04-6.055,0.025-9.081c0.019-0.896-0.318-1.2-1.119-1.269
			c-0.432-0.037-0.854-0.174-1.285-0.233c-1.339-0.187-1.978-1.031-2.227-2.287c-0.31-1.558-0.758-3.095-0.951-4.665
			c-0.344-2.797-2.17-4.795-3.555-7.038c-0.104-0.168-0.243-0.313-0.353-0.479c-2.091-3.156-2.08-3.166,0.136-6.264
			c0.948-1.324,1.845-2.686,2.765-4.029c0.702-1.026,0.703-2.264,0.998-3.408c0.386-1.499,0.652-3.028,0.967-4.545
			c0.25-1.2,0.893-1.975,2.162-2.221c2.258-0.438,4.498-0.967,6.757-1.396c0.606-0.114,1.135-0.311,1.645-0.637
			c1.939-1.24,3.893-2.461,5.829-3.708c0.963-0.62,1.891-0.702,2.877-0.039c0.821,0.553,1.767,0.943,2.517,1.573
			c3.061,2.568,6.783,3.317,10.55,3.957c2.777,0.474,3.001,0.646,3.643,3.394c0.262,1.12,0.574,2.243,0.686,3.382
			c0.304,3.1,2.306,5.325,3.865,7.782c0.362,0.569,0.748,1.126,1.127,1.685c0.682,1.004,0.646,2.01-0.01,3.002
			c-0.635,0.957-1.194,1.986-1.95,2.838c-2.336,2.631-2.928,5.905-3.567,9.178c-0.068,0.35-0.147,0.695-0.228,1.043
			c-0.549,2.352-0.946,2.803-3.26,3.07c-1.179,0.137-1.583,0.518-1.567,1.77c0.075,5.895,0.014,11.789,0.052,17.684
			c0.007,1.039-0.162,1.934-1.101,2.454c-0.977,0.541-1.892,0.203-2.787-0.358c-2.822-1.77-5.677-3.486-8.491-5.271
			c-0.622-0.396-1.058-0.388-1.684,0.009c-2.852,1.803-5.727,3.57-8.625,5.297c-2.186,1.301-3.841,0.316-3.842-2.225
			C36.278,119.805,36.279,116.816,36.279,113.83z M49.534,66.936c-0.253,0.15-0.496,0.285-0.729,0.437
			c-1.136,0.729-2.253,1.487-3.407,2.187c-1.012,0.613-1.938,1.396-3.157,1.625c-1.754,0.328-3.493,0.752-5.257,1.012
			c-1.032,0.154-1.268,0.729-1.478,1.623c-0.654,2.787-0.754,5.748-2.743,8.125c-0.958,1.145-2.202,2.481-2.292,3.804
			c-0.097,1.403,1.472,2.608,2.304,3.905c0.837,1.304,1.718,2.55,1.947,4.152c0.202,1.41,0.568,2.797,0.834,4.199
			c0.135,0.713,0.376,1.207,1.227,1.305c1.019,0.116,2.033,0.344,3.027,0.606c1.445,0.382,3.005,0.358,4.313,1.245
			c1.018,0.691,2.172,1.216,3.084,2.021c1.625,1.434,3.005,1.391,4.721,0.045c2.053-1.609,4.295-2.984,7.025-3.276
			c1.179-0.126,2.327-0.515,3.502-0.693c0.724-0.108,0.914-0.454,1.083-1.139c0.741-3.011,0.873-6.214,3.006-8.792
			c0.906-1.096,2.34-2.305,2.146-3.66c-0.189-1.316-1.49-2.467-2.28-3.704c-0.615-0.963-1.427-1.823-1.696-2.974
			c-0.407-1.739-0.893-3.473-1.111-5.236c-0.141-1.132-0.697-1.434-1.645-1.585c-3.747-0.597-7.397-1.45-10.401-3.998
			c-0.42-0.354-0.933-0.603-1.407-0.894C49.947,67.15,49.733,67.044,49.534,66.936z M58.454,112.021c-0.003,0-0.005,0-0.008,0
			c0-1.989,0.016-3.979-0.012-5.969c-0.006-0.443,0.286-1.068-0.261-1.297c-0.453-0.188-0.873,0.27-1.269,0.52
			c-1.775,1.127-3.58,2.213-5.305,3.412c-1.396,0.972-2.639,0.972-4.043,0c-1.857-1.285-3.81-2.431-5.713-3.649
			c-0.803-0.515-1.107-0.334-1.102,0.63c0.022,4.178,0.037,8.355-0.008,12.533c-0.013,1.182,0.385,1.014,1.122,0.55
			c1.979-1.25,4.006-2.426,5.966-3.704c1.224-0.798,2.331-0.755,3.536,0.018c2.07,1.324,4.19,2.57,6.264,3.889
			c0.701,0.445,0.854,0.283,0.843-0.486C58.434,116.318,58.454,114.17,58.454,112.021z"/>
		<path fill="#2592D1" d="M71.614,37.06c-4.222,0-8.445-0.031-12.666,0.019c-1.258,0.016-1.999-0.51-2.748-1.493
			c-1.772-2.327-2.251-4.854-2.342-7.759c-0.095-3.029,1.195-5.245,2.764-7.494c0.484-0.695,1.216-0.985,2.07-0.985
			c8.683,0.004,17.367,0.003,26.049,0.001c0.528,0,1.131,0.021,1.452,0.417c1.457,1.794,3.248,3.426,3.248,6.011
			c0,0.956-0.105,1.927,0.021,2.865c0.365,2.713-0.503,4.951-2.258,6.992c-0.786,0.914-1.557,1.459-2.807,1.444
			C80.139,37.029,75.875,37.06,71.614,37.06z M71.817,23.845c-3.621,0-7.241-0.001-10.861,0c-1.389,0-2.444,0.957-2.484,2.332
			c-0.04,1.352-0.041,2.706,0,4.058c0.042,1.415,1.14,2.434,2.539,2.434c7.241,0,14.481,0,21.721,0c1.182,0,2.219-0.889,2.258-2.048
			c0.052-1.55,0.051-3.104,0-4.653c-0.04-1.202-1.098-2.122-2.312-2.122C79.059,23.844,75.438,23.845,71.817,23.845z"/>
		<path fill="#2592D1" d="M71.879,45.889c11.348,0,22.695,0.019,34.043-0.03c1.09-0.004,1.372,0.297,1.268,1.316
			c-0.106,1.019,0.317,2.404-0.205,2.987c-0.611,0.682-2.019,0.215-3.078,0.216c-22.098,0.013-44.195,0.003-66.293,0.03
			c-1.009,0.001-1.522-0.136-1.375-1.306c0.128-1.015-0.327-2.407,0.195-2.991c0.608-0.68,2.018-0.212,3.076-0.213
			C50.299,45.882,61.089,45.889,71.879,45.889z"/>
		<path fill="#2592D1" d="M85.006,59.224c7.01,0,14.02,0.021,21.028-0.024c0.975-0.007,1.231,0.285,1.151,1.196
			c-0.093,1.023,0.32,2.396-0.201,2.999c-0.605,0.699-2.014,0.224-3.069,0.226c-13.263,0.017-26.524,0.001-39.786,0.03
			c-0.967,0.002-1.496-0.11-1.326-1.256c0.15-1.011-0.421-2.359,0.215-2.982c0.632-0.619,1.966-0.178,2.991-0.181
			C72.341,59.216,78.674,59.224,85.006,59.224z"/>
		<path fill="#2592D1" d="M91.671,76.936c-4.854,0-9.709-0.019-14.563,0.021c-0.785,0.006-1.035-0.202-0.974-0.981
			c0.069-0.869,0.069-1.754,0-2.623c-0.062-0.775,0.248-0.908,0.952-0.906c9.709,0.021,19.418,0.023,29.127-0.004
			c0.783-0.002,1.039,0.203,0.975,0.984c-0.069,0.829-0.078,1.676,0,2.504c0.084,0.881-0.276,1.03-1.074,1.024
			C101.301,76.918,96.486,76.936,91.671,76.936z"/>
		<path fill="#2592D1" d="M21.555,99.072c-1.553,0-3.105,0.016-4.658-0.006c-1.814-0.022-2.398-0.519-2.767-2.272
			c-0.323-1.539-0.735-1.915-2.378-2.175c-1.264-0.198-2.016-0.965-2.028-2.242c-0.032-3.424,0.004-6.85-0.027-10.271
			c-0.006-0.66,0.235-0.811,0.832-0.783c0.914,0.039,1.834,0.056,2.746-0.004c0.758-0.049,0.939,0.248,0.928,0.961
			c-0.039,2.429,0.003,4.857-0.026,7.285c-0.008,0.656,0.105,1.076,0.788,1.383c1.344,0.605,2.363,1.621,2.93,2.998
			c0.244,0.595,0.595,0.697,1.171,0.689c2.508-0.029,5.017,0.012,7.525-0.029c0.683-0.01,0.888,0.189,0.848,0.861
			c-0.068,1.149,0.376,2.646-0.193,3.362c-0.602,0.757-2.162,0.177-3.301,0.235C23.15,99.105,22.352,99.072,21.555,99.072z"/>
		<path fill="#2592D1" d="M45.185,26.008c1.234,0,2.47,0.026,3.703-0.012c0.578-0.019,0.76,0.173,0.733,0.744
			c-0.056,1.189,0.382,2.71-0.199,3.479c-0.554,0.73-2.163,0.185-3.307,0.214c-1.512,0.039-3.027-0.025-4.539,0.025
			c-0.7,0.023-0.892-0.219-0.854-0.884c0.066-1.145-0.375-2.654,0.199-3.343c0.604-0.724,2.166-0.15,3.307-0.22
			C44.546,25.991,44.866,26.008,45.185,26.008z"/>
		<path fill="#2592D1" d="M98.219,30.439c-1.195,0-2.392-0.034-3.585,0.015c-0.635,0.025-0.823-0.18-0.792-0.802
			c0.049-0.994,0.041-1.992,0.002-2.987c-0.021-0.529,0.156-0.673,0.674-0.668c2.51,0.024,5.021,0.024,7.529,0
			c0.523-0.006,0.689,0.146,0.671,0.672c-0.038,1.034-0.034,2.072-0.001,3.106c0.018,0.52-0.154,0.688-0.674,0.675
			C100.77,30.418,99.493,30.439,98.219,30.439z"/>
		<path fill="#2592D1" d="M23.012,39.13c0-2.096,0-2.096,2.095-2.096c2.318,0,2.318,0,2.318,2.347c0,2.155,0,2.155-2.153,2.155
			C23.012,41.536,23.012,41.536,23.012,39.13z"/>
		<path fill="#2592D1" d="M120.411,39.269c0,2.268,0,2.268-2.28,2.268c-2.136,0-2.136,0-2.136-2.175c0-2.327,0-2.327,2.341-2.327
			C120.411,37.034,120.411,37.034,120.411,39.269z"/>
		<path fill="#2592D1" d="M120.411,83.615c0,2.166,0,2.166-2.138,2.166c-2.278,0-2.278,0-2.278-2.277c0-2.186,0-2.186,2.138-2.186
			C120.411,81.318,120.411,81.318,120.411,83.615z"/>
		<path fill="#2592D1" d="M49.585,99.059c-7.289,0.026-13.266-5.916-13.321-13.248c-0.055-7.238,5.939-13.252,13.269-13.311
			c7.309-0.059,13.299,5.969,13.301,13.385C62.835,93.098,56.867,99.031,49.585,99.059z M40.759,85.725
			c0.035,5.02,3.881,8.903,8.807,8.896c4.818-0.008,8.902-4.046,8.872-8.771c-0.032-4.904-4.024-8.914-8.873-8.91
			C44.694,76.943,40.726,80.902,40.759,85.725z"/>
	</g>
</g>
<g id="Calque_3">
	<path opacity="0.15" fill="#FFFFFF" enable-background="new    " d="M7.417,105.742V13.514c0-1.277,1.04-2.317,2.317-2.317H135.1
		c1.277,0,2.317,1.04,2.317,2.317v92.228c0,1.278-1.04,2.317-2.317,2.317h-22.091c-0.769,0-1.391-0.623-1.391-1.391
		s0.622-1.391,1.391-1.391h21.628V13.978H10.198v91.301H77.67c0.769,0,1.391,0.623,1.391,1.391s-0.622,1.391-1.391,1.391H9.734
		C8.457,108.06,7.417,107.021,7.417,105.742z"/>
	<path opacity="0.15" fill="#FFFFFF" enable-background="new    " d="M55.81,37.331v-3.915c0-3.692,3.106-6.694,6.925-6.694H82.1
		c3.818,0,6.925,3.003,6.925,6.694v3.915c0,3.692-3.106,6.694-6.925,6.694H62.734C58.916,44.025,55.811,41.023,55.81,37.331z
		 M62.734,29.503c-2.286,0-4.144,1.755-4.144,3.914v3.915c0,2.158,1.858,3.914,4.144,3.914H82.1c2.286,0,4.145-1.756,4.145-3.914
		v-3.915c0-2.158-1.858-3.914-4.145-3.914H62.734z"/>
	<path opacity="0.15" fill="#FFFFFF" enable-background="new    " d="M38.662,53.603c0-0.768,0.622-1.39,1.39-1.39h64.575
		c0.769,0,1.391,0.623,1.391,1.39s-0.622,1.391-1.391,1.391H40.053C39.284,54.994,38.662,54.371,38.662,53.603z"/>
	<path opacity="0.15" fill="#FFFFFF" enable-background="new    " d="M38.662,65.962c0-0.768,0.622-1.391,1.39-1.391h40.939
		c0.769,0,1.39,0.623,1.39,1.391s-0.621,1.391-1.39,1.391H40.053C39.284,67.353,38.662,66.729,38.662,65.962z"/>
	<path opacity="0.15" fill="#FFFFFF" enable-background="new    " d="M38.662,78.476c0-0.768,0.622-1.391,1.39-1.391h28.426
		c0.769,0,1.391,0.623,1.391,1.391s-0.622,1.39-1.391,1.39H40.053C39.284,79.865,38.662,79.243,38.662,78.476z"/>
	<g opacity="0.15">
		<polygon fill="#FFFFFF" points="98.287,33.528 100.347,33.828 98.856,35.28 99.208,37.33 97.367,36.361 95.525,37.33 
			95.877,35.28 94.387,33.828 96.446,33.528 97.367,31.662 		"/>
		<path fill="#FFFFFF" d="M95.252,37.706c-0.143-0.103-0.213-0.279-0.185-0.453l0.312-1.809l-1.316-1.283
			c-0.125-0.123-0.171-0.308-0.115-0.475c0.054-0.169,0.199-0.292,0.374-0.316l1.817-0.264l0.813-1.647
			c0.154-0.315,0.674-0.315,0.83,0l0.812,1.647l1.818,0.264c0.175,0.026,0.319,0.147,0.373,0.316
			c0.056,0.167,0.011,0.352-0.115,0.475l-1.316,1.283l0.312,1.809c0.029,0.174-0.042,0.35-0.185,0.453
			c-0.145,0.105-0.334,0.12-0.489,0.036l-1.625-0.856l-1.626,0.855c-0.068,0.036-0.143,0.053-0.216,0.053
			C95.43,37.793,95.334,37.764,95.252,37.706z M97.582,35.951l1.011,0.531l-0.194-1.124c-0.024-0.151,0.025-0.304,0.134-0.411
			l0.818-0.797l-1.13-0.165c-0.151-0.022-0.281-0.117-0.349-0.253l-0.505-1.023l-0.507,1.024c-0.066,0.136-0.197,0.231-0.348,0.253
			l-1.13,0.164l0.817,0.797c0.109,0.106,0.159,0.259,0.133,0.41l-0.191,1.125l1.01-0.531c0.067-0.036,0.142-0.054,0.216-0.054
			S97.516,35.917,97.582,35.951z"/>
	</g>
	<g opacity="0.15">
		<polygon fill="#FFFFFF" points="48.234,33.528 50.293,33.828 48.803,35.28 49.154,37.33 47.313,36.361 45.472,37.33 45.823,35.28 
			44.333,33.828 46.393,33.528 47.313,31.662 		"/>
		<path fill="#FFFFFF" d="M45.199,37.706c-0.143-0.103-0.213-0.279-0.185-0.453l0.312-1.809l-1.316-1.283
			c-0.126-0.123-0.171-0.308-0.116-0.475c0.054-0.169,0.199-0.292,0.374-0.316l1.817-0.264l0.813-1.647
			c0.155-0.315,0.674-0.315,0.83,0l0.813,1.647l1.818,0.264c0.175,0.026,0.319,0.147,0.374,0.316
			c0.056,0.167,0.01,0.352-0.116,0.475l-1.316,1.283l0.311,1.809c0.029,0.174-0.042,0.35-0.185,0.453
			c-0.144,0.105-0.333,0.12-0.489,0.036l-1.625-0.856l-1.626,0.855c-0.068,0.036-0.142,0.053-0.215,0.053
			C45.376,37.793,45.28,37.764,45.199,37.706z M47.529,35.951l1.01,0.531l-0.194-1.124c-0.024-0.151,0.025-0.304,0.134-0.411
			l0.818-0.797l-1.13-0.165c-0.151-0.022-0.281-0.117-0.349-0.253l-0.505-1.023l-0.506,1.024c-0.067,0.136-0.197,0.231-0.348,0.253
			l-1.13,0.164l0.817,0.797c0.109,0.106,0.159,0.259,0.133,0.41l-0.192,1.125l1.01-0.531c0.067-0.036,0.142-0.054,0.216-0.054
			S47.462,35.917,47.529,35.951z"/>
	</g>
</g>
<g id="Calque_4">
	<g opacity="0.15">
		<path fill="#FFFFFF" d="M83.964,124.551c-0.293-0.165-0.476-0.475-0.476-0.81v-19.466c0-0.512,0.416-0.927,0.927-0.927
			c0.513,0,0.927,0.415,0.927,0.927v17.809l9.402-5.776c0.289-0.177,0.652-0.183,0.946-0.015l9.427,5.388v-17.25
			c0-0.514,0.414-0.927,0.927-0.927c0.512,0,0.927,0.413,0.927,0.927v18.848c0,0.331-0.177,0.635-0.462,0.802
			c-0.285,0.165-0.638,0.166-0.925,0.003l-10.337-5.907L84.9,124.532c-0.148,0.09-0.315,0.136-0.485,0.136
			C84.26,124.668,84.104,124.629,83.964,124.551z"/>
		<g>
			<path fill="#FFFFFF" d="M101.562,105.587c-0.623,0.624-1.214,1.218-1.807,1.81c-0.594,0.594-1.187,1.185-1.781,1.777
				c-1.673,1.659-3.851,1.65-5.521-0.022c-1.086-1.086-2.182-2.166-3.249-3.27c-0.25-0.257-0.933-0.867-1.439-0.843l-1.347,0.013
				c-1.223,0-2.565-0.012-3.907,0.006c-0.867,0.008-1.658-0.189-2.352-0.722c-0.991-0.761-1.463-1.787-1.479-3.017
				c-0.017-1.366-0.012-3.079-0.012-4.506c-0.028-1.637-0.521-1.982-0.521-1.982c-0.604-0.599-1.189-1.178-1.771-1.76
				c-0.592-0.594-1.162-1.209-1.773-1.783c-1.695-1.59-1.652-3.986-0.008-5.55c1.306-1.238,2.541-2.553,3.818-3.822
				c0.189-0.19,0.271-0.377,0.27-0.646c-0.012-1.817-0.005-3.634-0.008-5.452c0-0.39,0.043-0.773,0.149-1.146
				c0.481-1.693,1.832-2.691,3.668-2.699c1.801-0.008,3.603-0.011,5.403,0.003c0.333,0.002,0.572-0.083,0.812-0.325
				c1.388-1.4,2.765-2.813,4.202-4.161c1.226-1.151,3.305-1.159,4.567-0.055c1.506,1.322,2.86,2.802,4.274,4.221
				c0.227,0.225,0.446,0.324,0.767,0.32c1.784-0.013,3.571-0.003,5.356-0.005c0.405,0,0.81,0.03,1.196,0.14
				c1.681,0.474,2.684,1.814,2.697,3.624c0.014,1.817,0.011,3.634-0.004,5.449c-0.003,0.32,0.081,0.549,0.312,0.773
				c1.292,1.279,2.571,2.564,3.848,3.859c1.595,1.615,1.586,3.804-0.02,5.412c-1.106,1.11-2.211,2.224-3.337,3.314
				c-0.255,0.247-0.74,0.671-0.747,0.997l-0.05,1.676c0,1.301-0.005,2.624,0.001,3.951c0.003,0.726-0.119,1.421-0.495,2.049
				c-0.656,1.095-1.599,1.779-2.898,1.814c-1.484,0.039-2.972,0.011-4.4,0.011C103.979,105.04,102.454,104.66,101.562,105.587z
				 M101.681,73.978c-0.299,0.007-0.514-0.074-0.73-0.295c-1.459-1.483-2.931-2.953-4.399-4.427
				c-0.866-0.873-1.769-0.88-2.635-0.014c-1.461,1.458-2.924,2.917-4.368,4.393c-0.251,0.256-0.502,0.348-0.851,0.346
				c-2.005-0.014-4.009,0.035-6.011-0.021c-1.493-0.041-2.064,0.843-2.046,2.037c0.031,2.031,0.004,4.066,0.015,6.103
				c0.004,0.284-0.08,0.485-0.283,0.688c-1.479,1.465-2.945,2.94-4.415,4.415c-0.861,0.862-0.859,1.763,0.009,2.634
				c1.478,1.485,2.955,2.974,4.439,4.455c0.18,0.177,0.25,0.354,0.25,0.607c-0.009,2.066-0.007,4.13-0.005,6.195
				c0,1.359,0.633,1.986,2.001,1.986c2.018,0.004,4.036,0.011,6.056-0.005c0.35-0.002,0.6,0.088,0.852,0.344
				c1.425,1.451,2.867,2.886,4.309,4.321c0.931,0.923,1.811,0.916,2.741-0.017c1.438-1.442,2.878-2.878,4.306-4.325
				c0.224-0.228,0.442-0.326,0.767-0.324c2.064,0.015,4.13,0.01,6.195,0.005c1.271,0,1.919-0.647,1.919-1.92
				c0.002-2.051,0.009-4.102-0.007-6.15c-0.004-0.342,0.104-0.566,0.344-0.803c1.445-1.429,2.879-2.873,4.312-4.316
				c0.934-0.941,0.934-1.807,0-2.744c-1.456-1.465-2.917-2.928-4.385-4.379c-0.192-0.19-0.27-0.377-0.269-0.647
				c0.011-2.065,0.006-4.131,0.006-6.195c-0.001-1.352-0.601-1.949-1.964-1.951c-0.994,0-1.988,0-2.981,0
				C103.794,73.972,102.738,73.964,101.681,73.978z"/>
			<path fill="#FFFFFF" d="M84.571,88.515c0-5.878,4.781-10.659,10.659-10.659s10.659,4.781,10.659,10.659
				c0,5.877-4.781,10.659-10.659,10.659S84.571,94.392,84.571,88.515z M86.425,88.515c0,4.855,3.95,8.806,8.806,8.806
				s8.806-3.95,8.806-8.806s-3.95-8.806-8.806-8.806S86.425,83.659,86.425,88.515z"/>
		</g>
	</g>
	<path opacity="0.15" fill="#FFFFFF" enable-background="new    " d="M22.094,99.484c0-2.001-0.522-3.514-1.551-4.498
		c-1.527-1.461-3.761-1.383-3.775-1.374c-0.387,0.013-0.756-0.114-1.035-0.377c-0.278-0.264-0.436-0.628-0.436-1.012V26.491
		c0-0.769,0.622-1.39,1.391-1.39c4.838,0,5.295-4.657,5.332-5.181c0.044-0.734,0.653-1.308,1.389-1.308h97.79
		c0.632,0,1.187,0.427,1.346,1.039c1.478,5.669,5.053,5.501,5.438,5.459c0.396-0.047,0.792,0.076,1.09,0.34
		c0.297,0.265,0.468,0.644,0.468,1.041v65.734c0,0.374-0.151,0.732-0.419,0.993c-0.269,0.263-0.612,0.396-1.004,0.397
		c-0.016-0.003-2.357-0.014-3.932,1.525c-1.011,0.987-1.522,2.449-1.522,4.345c0,0.768-0.622,1.391-1.391,1.391h-3.977
		c-0.769,0-1.391-0.623-1.391-1.391s0.622-1.391,1.391-1.391h2.663c0.234-2.029,0.999-3.688,2.281-4.942
		c1.468-1.434,3.282-1.981,4.519-2.19V27.819c-2.18-0.364-5.103-1.982-6.599-6.426H24.605c-0.556,2.503-2.36,5.791-6.529,6.393
		v63.142c1.202,0.18,2.929,0.675,4.355,2.021c1.341,1.268,2.136,2.996,2.369,5.146h48.814c0.769,0,1.391,0.623,1.391,1.391
		s-0.622,1.391-1.391,1.391H23.483C22.715,100.876,22.093,100.253,22.094,99.484z"/>
	<path opacity="0.15" fill="#FFFFFF" enable-background="new    " d="M28.543,86.432c0-0.725,0.588-1.313,1.313-1.313h1.313
		c0.726,0,1.313,0.589,1.313,1.313v1.312c0,0.726-0.588,1.313-1.313,1.313h-1.313c-0.726,0-1.313-0.588-1.313-1.313V86.432z"/>
	<g opacity="0.15">
		<path fill="#FFFFFF" d="M113.434,48.196v-1.468c0-0.81,0.656-1.467,1.468-1.467h1.467c0.812,0,1.468,0.657,1.468,1.467v1.468
			c0,0.811-0.656,1.467-1.468,1.467H114.9C114.09,49.664,113.433,49.007,113.434,48.196L113.434,48.196z"/>
		<path fill="#FFFFFF" d="M26.998,46.728c0-0.81,0.656-1.467,1.467-1.467h1.467c0.81,0,1.467,0.657,1.467,1.467v1.468
			c0,0.811-0.656,1.467-1.467,1.467h-1.467c-0.81,0-1.467-0.657-1.467-1.467V46.728z"/>
	</g>
</g>
</svg>
