<?xml version="1.0" encoding="utf-8"?>
<!-- Generator: Adobe Illustrator 16.0.0, SVG Export Plug-In . SVG Version: 6.00 Build 0)  -->
<!DOCTYPE svg PUBLIC "-//W3C//DTD SVG 1.1//EN" "http://www.w3.org/Graphics/SVG/1.1/DTD/svg11.dtd">
<svg version="1.1" xmlns="http://www.w3.org/2000/svg" xmlns:xlink="http://www.w3.org/1999/xlink" x="0px" y="0px"
	 width="48.188px" height="48.185px" viewBox="0 0 48.188 48.185" enable-background="new 0 0 48.188 48.185" xml:space="preserve">
<g id="WEB_1_" display="none">
	<g display="inline">
		<path fill="none" stroke="#E1E8ED" stroke-width="2" stroke-linecap="round" stroke-linejoin="round" stroke-miterlimit="10" d="
			M-32.65,16.838v-39.155c0-0.892,0.723-1.614,1.615-1.614h16.481h26.306"/>
		<path fill="none" stroke="#E1E8ED" stroke-width="2" stroke-linecap="round" stroke-linejoin="round" stroke-miterlimit="10" d="
			M62.007,19.932v20.722c0,0.892-0.722,1.614-1.614,1.614H-0.895"/>
		
			<line fill="none" stroke="#E1E8ED" stroke-width="2" stroke-linecap="round" stroke-linejoin="round" stroke-miterlimit="10" x1="-0.223" y1="26.929" x2="61.737" y2="26.929"/>
		
			<line fill="none" stroke="#E1E8ED" stroke-width="2" stroke-linecap="round" stroke-linejoin="round" stroke-miterlimit="10" x1="-3.184" y1="56.396" x2="32.54" y2="56.396"/>
		<path fill="none" stroke="#E1E8ED" stroke-width="2" stroke-linecap="round" stroke-linejoin="round" stroke-miterlimit="10" d="
			M4.822,42.47c0,0,5.248,9.756,0,13.521"/>
		<path fill="none" stroke="#E1E8ED" stroke-width="2" stroke-linecap="round" stroke-linejoin="round" stroke-miterlimit="10" d="
			M24.916,42.47c0,0-5.248,9.756,0,13.521"/>
		<g>
			<path fill="none" stroke="#0C5666" stroke-width="2" stroke-miterlimit="10" d="M66.647,14.148c0,0.777-0.722,1.409-1.614,1.409
				H17.604c-0.892,0-1.614-0.632-1.614-1.409v-41.383c0-0.778,0.723-1.409,1.614-1.409h47.429c0.893,0,1.614,0.631,1.614,1.409
				V14.148z"/>
			
				<line fill="none" stroke="#0C5666" stroke-width="2" stroke-miterlimit="10" x1="15.519" y1="-15.727" x2="66.582" y2="-15.727"/>
			
				<line fill="none" stroke="#0C5666" stroke-width="2" stroke-linecap="round" stroke-linejoin="round" stroke-miterlimit="10" x1="21.17" y1="-22.993" x2="25.812" y2="-22.993"/>
			
				<line fill="none" stroke="#0C5666" stroke-width="2" stroke-linecap="round" stroke-linejoin="round" stroke-miterlimit="10" x1="29.244" y1="-22.993" x2="33.886" y2="-22.993"/>
			<path fill="#0C5666" d="M45.647-2.345c1.519,0.576,2.988,1.277,4.631,1.992c-1.69,0.723-3.236,1.383-4.781,2.047
				c-1.32,0.566-1.319,0.566-1.07,2.151c2.35-1.073,4.668-2.163,7.015-3.188c0.569-0.251,0.577-0.615,0.595-1.106
				c0.017-0.493-0.102-0.769-0.604-0.99c-2.183-0.949-4.338-1.963-6.508-2.938c-0.17-0.076-0.355-0.297-0.489-0.18
				C43.948-3.25,44.601-2.74,45.647-2.345z"/>
			<path fill="#0C5666" d="M29.848,0.452c2.26,1.072,4.536,2.113,6.806,3.167c0.162,0.074,0.328,0.203,0.464-0.047
				c0.268-0.489-0.083-1.474-0.62-1.71c-1.666-0.733-3.33-1.46-5.16-2.262c1.624-0.707,3.079-1.348,4.536-1.981
				c1.368-0.598,1.369-0.597,1.182-2.226c-2.424,1.133-4.83,2.243-7.222,3.384C29.256-0.947,29.268,0.175,29.848,0.452z"/>
			<path fill="#0C5666" d="M39.189,4.495c0.347-0.046,0.762,0.165,0.939-0.457c1.002-3.527,2.054-7.042,3.088-10.559
				c0.059-0.194,0.237-0.402-0.043-0.569c-0.493-0.295-1.435,0.106-1.607,0.692c-0.995,3.366-1.965,6.741-2.998,10.096
				C38.357,4.387,38.41,4.648,39.189,4.495z"/>
		</g>
		<path fill="none" stroke="#0C5666" stroke-width="2" stroke-miterlimit="10" d="M-2.621,30.377
			c-1.273-0.159-2.045-0.733-2.436-1.806c-0.397-1.104-0.173-2.065,0.684-2.936c0.242-0.245,0.797-0.813,0.738-1.681
			c-0.004-0.467-0.161-0.896-0.472-1.272c-0.831-1.014-1.749-1.933-2.732-2.728c-0.933-0.762-2.058-0.72-3.018,0.129
			c-1.019,0.899-2.057,1.087-3.231,0.59c-1.094-0.461-1.611-1.316-1.627-2.69c-0.018-1.26-0.793-2.048-2.121-2.152
			c-1.005-0.082-2.042-0.086-3.394-0.007c-1.477,0.089-2.289,0.935-2.281,2.377c0.004,0.557-0.177,1.075-0.559,1.579
			c-0.557,0.738-1.367,1.163-2.223,1.163c-0.664,0-1.307-0.247-1.87-0.722c-0.381-0.322-0.977-0.747-1.746-0.747
			c-0.609,0-1.184,0.262-1.756,0.801c-0.761,0.727-1.374,1.341-1.928,1.928c-1.09,1.165-1.111,2.328-0.075,3.573
			c0.642,0.771,0.855,1.727,0.583,2.629c-0.267,0.896-0.957,1.566-1.89,1.851c-0.32,0.097-0.699,0.135-1.062,0.167
			c-1.114,0.104-1.817,0.739-2.038,1.853c-0.173,0.882-0.157,1.722-0.145,2.536l0.001,0.145c0.038,2.193,0.624,2.848,2.843,3.187
			c0.145,0.023,0.302,0.07,0.46,0.13c0.936,0.349,1.61,1.087,1.85,2.027c0.232,0.913,0.006,1.854-0.623,2.58
			c-1.024,1.192-1,2.371,0.07,3.511c0.658,0.697,1.376,1.44,2.192,2.146c1.025,0.883,2.082,0.867,3.085-0.044
			c1.023-0.929,2.071-1.157,3.19-0.676c1.086,0.474,1.624,1.32,1.645,2.596c0.021,1.394,0.894,2.281,2.28,2.312
			c0.589,0.021,1.178,0.023,1.766,0.023l1.237-0.003c1.468-0.004,2.381-0.894,2.449-2.377c0.059-1.276,0.61-2.089,1.732-2.552
			c1.107-0.457,2.118-0.239,3.125,0.654c0.504,0.454,1.041,0.685,1.594,0.685c0.526,0,1.036-0.208,1.513-0.611
			c0.855-0.715,1.65-1.507,2.429-2.415c0.903-1.043,0.873-2.185-0.076-3.129c-0.497-0.488-0.756-1.011-0.795-1.59
			c-0.122-1.907,0.912-3.106,2.837-3.282c2.1-0.193,2.341-1.638,2.3-2.486c-0.019-0.376-0.002-0.766,0.012-1.182
			c0.017-0.445,0.034-0.908,0.009-1.383C-0.188,31.208-0.757,30.605-2.621,30.377z"/>
		<circle fill="none" stroke="#0C5666" stroke-width="2" stroke-miterlimit="10" cx="-18.652" cy="34.256" r="5.18"/>
	</g>
</g>
<g id="MORE" display="none">
	
		<circle display="inline" fill="none" stroke="#DCDDDC" stroke-linecap="round" stroke-linejoin="round" stroke-miterlimit="10" cx="13.275" cy="28.319" r="28.347"/>
	<g display="inline">
		<path fill="none" stroke="#DCDDDC" stroke-linecap="round" stroke-linejoin="round" stroke-miterlimit="10" d="M29.65,20.335
			c0,0.406-0.448,0.734-1,0.734H9.4c-0.552,0-1-0.328-1-0.734v-4.033c0-0.404,0.448-0.732,1-0.732h19.25c0.552,0,1,0.328,1,0.732
			V20.335z"/>
		<path fill="none" stroke="#DCDDDC" stroke-linecap="round" stroke-linejoin="round" stroke-miterlimit="10" d="M29.65,30.335
			c0,0.406-0.448,0.734-1,0.734H9.4c-0.552,0-1-0.328-1-0.734v-4.033c0-0.404,0.448-0.732,1-0.732h19.25c0.552,0,1,0.328,1,0.732
			V30.335z"/>
		<path fill="none" stroke="#DCDDDC" stroke-linecap="round" stroke-linejoin="round" stroke-miterlimit="10" d="M29.65,40.335
			c0,0.406-0.448,0.734-1,0.734H9.4c-0.552,0-1-0.328-1-0.734v-4.033c0-0.404,0.448-0.732,1-0.732h19.25c0.552,0,1,0.328,1,0.732
			V40.335z"/>
		<circle fill="none" stroke="#B21350" stroke-miterlimit="10" cx="0.65" cy="18.319" r="3.75"/>
		<circle fill="none" stroke="#B21350" stroke-miterlimit="10" cx="0.65" cy="28.319" r="3.75"/>
		<circle fill="none" stroke="#B21350" stroke-miterlimit="10" cx="0.65" cy="38.319" r="3.75"/>
	</g>
</g>
<g id="UX_1_" display="none">
	<g display="inline">
		<path fill="none" stroke="#0C5666" stroke-width="2" stroke-miterlimit="10" d="M6.445,16.235c0,1.399-1.084,2.531-2.421,2.531
			h-35.4c-1.336,0-2.42-1.132-2.42-2.531v-27.842c0-1.399,1.083-2.531,2.42-2.531h35.4c1.337,0,2.421,1.132,2.421,2.531V16.235z"/>
		<path fill="none" stroke="#0C5666" stroke-width="2" stroke-miterlimit="10" d="M63.971-14.214c0,0.595-0.372,1.077-0.83,1.077
			H51.016c-0.458,0-0.829-0.482-0.829-1.077v-11.852c0-0.595,0.371-1.078,0.829-1.078h12.125c0.458,0,0.83,0.483,0.83,1.078V-14.214
			z"/>
		<path fill="none" stroke="#0C5666" stroke-width="2" stroke-miterlimit="10" d="M64.536,13.089c0,0.68-0.592,1.23-1.322,1.23
			H43.852c-0.73,0-1.323-0.551-1.323-1.23V-0.456c0-0.682,0.593-1.23,1.323-1.23h19.362c0.73,0,1.322,0.549,1.322,1.23V13.089z"/>
		
			<line fill="none" stroke="#0C5666" stroke-width="2" stroke-linecap="round" stroke-linejoin="round" stroke-miterlimit="10" x1="42.306" y1="19.434" x2="64.759" y2="19.434"/>
		
			<line fill="none" stroke="#0C5666" stroke-width="2" stroke-linecap="round" stroke-linejoin="round" stroke-miterlimit="10" x1="42.306" y1="26.548" x2="64.759" y2="26.548"/>
		
			<line fill="none" stroke="#0C5666" stroke-width="2" stroke-linecap="round" stroke-linejoin="round" stroke-miterlimit="10" x1="42.306" y1="33.663" x2="64.759" y2="33.663"/>
		
			<polygon fill="none" stroke="#0C5666" stroke-width="2" stroke-linecap="round" stroke-linejoin="round" stroke-miterlimit="10" points="
			-18.704,36.488 -23.816,39.441 -28.927,42.392 -28.927,36.488 -28.927,30.587 -23.816,33.537 		"/>
		
			<circle fill="none" stroke="#0C5666" stroke-width="2" stroke-linecap="round" stroke-linejoin="round" stroke-miterlimit="10" cx="19.978" cy="5.872" r="7.336"/>
		<path fill="none" stroke="#0C5666" stroke-width="2" stroke-linecap="round" stroke-linejoin="round" stroke-miterlimit="10" d="
			M8.45,34.552c0,0-1.771-17.326,11.338-17.786c12.672-0.445,11.783,14.007,11.783,17.786"/>
		<path fill="none" stroke="#E1E8ED" stroke-width="2" stroke-linejoin="round" stroke-miterlimit="10" d="M-9.699,45.604
			c0,0.982-0.796,1.778-1.778,1.778h-24.678c-0.982,0-1.778-0.796-1.778-1.778V27.373c0-0.983,0.796-1.778,1.778-1.778h24.678
			c0.982,0,1.778,0.795,1.778,1.778V45.604z"/>
		<path fill="none" stroke="#E1E8ED" stroke-width="2" stroke-linecap="round" stroke-linejoin="round" stroke-miterlimit="10" d="
			M43.988,43.429v12.688c0,0.983-0.796,1.778-1.778,1.778H-2.255c-0.982,0-1.778-0.795-1.778-1.778v-34.46"/>
		<path fill="none" stroke="#E1E8ED" stroke-width="2" stroke-linecap="round" stroke-linejoin="round" stroke-miterlimit="10" d="
			M-4.033-17.256v-3.773c0-0.983,0.796-1.778,1.778-1.778H42.21c0.982,0,1.778,0.795,1.778,1.778v11.342"/>
		<path fill="none" stroke="#E1E8ED" stroke-width="2" stroke-linejoin="round" stroke-miterlimit="10" d="M69.762,39.221
			c0,0.982-0.796,1.778-1.778,1.778H39.082c-0.982,0-1.779-0.796-1.779-1.778V-5.021c0-0.983,0.797-1.778,1.779-1.778h28.901
			c0.982,0,1.778,0.795,1.778,1.778V39.221z"/>
		
			<circle fill="none" stroke="#E1E8ED" stroke-width="2" stroke-linejoin="round" stroke-miterlimit="10" cx="19.978" cy="48.002" r="5.669"/>
		
			<line fill="none" stroke="#E1E8ED" stroke-width="2" stroke-linecap="round" stroke-linejoin="round" stroke-miterlimit="10" x1="-27.126" y1="-5.021" x2="0.219" y2="-5.021"/>
		
			<line fill="none" stroke="#E1E8ED" stroke-width="2" stroke-linecap="round" stroke-linejoin="round" stroke-miterlimit="10" x1="-27.126" y1="2.093" x2="0.219" y2="2.093"/>
		
			<line fill="none" stroke="#E1E8ED" stroke-width="2" stroke-linecap="round" stroke-linejoin="round" stroke-miterlimit="10" x1="-27.126" y1="9.207" x2="-7.562" y2="9.207"/>
		
			<line fill="none" stroke="#E1E8ED" stroke-width="2" stroke-linecap="round" stroke-linejoin="round" stroke-miterlimit="10" x1="9.306" y1="-15.25" x2="30.649" y2="-15.25"/>
		<circle fill="#E1E8ED" cx="57.079" cy="-20.141" r="1.667"/>
	</g>
</g>
<g id="GRAPHISME_1_" display="none">
	<g display="inline">
		<path fill="none" stroke="#A9B7C1" stroke-width="2" stroke-linecap="round" stroke-linejoin="round" stroke-miterlimit="10" d="
			M-0.038,28.985c2.494,3.555,2.51,4.781,0.477,9.254c-5.229,11.505,2.66,19.215,14.606,19.215c18.689,0,35.564-19.417,35.564-43.47
			c0-21.893-17.407-38.197-39.515-38.197c-8.398,0-17.548,3.354-23.723,8.885c-6.919,6.198-9.528,14.387-6.633,23.653
			c0.553,1.764,1.511,3.226,3.337,4.947"/>
		
			<circle fill="none" stroke="#A9B7C1" stroke-width="2" stroke-linejoin="round" stroke-miterlimit="10" cx="0.372" cy="-5.948" r="5.309"/>
		
			<circle fill="none" stroke="#A9B7C1" stroke-width="2" stroke-linejoin="round" stroke-miterlimit="10" cx="18.962" cy="40.529" r="5.311"/>
		
			<circle fill="none" stroke="#A9B7C1" stroke-width="2" stroke-linejoin="round" stroke-miterlimit="10" cx="36.226" cy="20.611" r="5.312"/>
		<path fill="none" stroke="#A9B7C1" stroke-width="2" stroke-linejoin="round" stroke-miterlimit="10" d="M25.6,2.02
			c2.936,0,5.314-2.377,5.314-5.312c0-2.931-2.378-5.309-5.314-5.309c-2.931,0-5.31,2.378-5.31,5.309
			C20.29-0.357,22.669,2.02,25.6,2.02z"/>
	</g>
	<g display="inline">
		<circle fill="#0C5666" cx="-28.559" cy="-24.279" r="2.854"/>
		<path fill="#0C5666" d="M20.377-24.121c0,1.574-1.277,2.853-2.854,2.853c-1.577,0-2.854-1.279-2.854-2.853
			c0-1.581,1.277-2.856,2.854-2.856C19.1-26.978,20.377-25.702,20.377-24.121z"/>
		
			<line fill="none" stroke="#0C5666" stroke-width="2" stroke-linecap="round" stroke-linejoin="round" stroke-miterlimit="10" x1="-28.686" y1="-24.201" x2="16.948" y2="-24.201"/>
	</g>
	<g display="inline">
		<path fill="#0C5666" d="M61.723-2.797c-1.451-0.603-2.141-2.276-1.536-3.732c0.608-1.452,2.276-2.142,3.733-1.537
			c1.455,0.606,2.143,2.276,1.536,3.733C64.853-2.88,63.181-2.19,61.723-2.797z"/>
		<circle fill="#0C5666" cx="44.933" cy="37.126" r="2.853"/>
		
			<line fill="none" stroke="#0C5666" stroke-width="2" stroke-linecap="round" stroke-linejoin="round" stroke-miterlimit="10" x1="62.804" y1="-5.075" x2="45.262" y2="37.052"/>
	</g>
	
		<path display="inline" fill="none" stroke="#0C5666" stroke-width="2" stroke-linecap="round" stroke-linejoin="round" stroke-miterlimit="10" d="
		M-18.104,36.195l4.148,6.918L3.621,15.619l-32.446,2.606l4.11,6.867c0.002,0,0.002,0,0.003,0.009
		c0.658,1.104,0.292,2.532-0.813,3.186l-9.106,5.42l4.229,7.109l9.112-5.419c0.532-0.317,1.165-0.409,1.764-0.257
		C-18.933,35.292-18.422,35.668-18.104,36.195z"/>
</g>
<g id="TOOL">
	<g>
		<path fill-rule="evenodd" clip-rule="evenodd" fill="#A9B7C1" d="M17.053,22.759c-1.348-1.354-2.701-2.699-4.044-4.058
			c-0.177-0.179-0.329-0.232-0.59-0.159c-4.548,1.285-8.965-0.581-11.163-4.771C0.063,11.5-0.085,9.096,0.664,6.646
			c0.219-0.719,0.915-0.854,1.481-0.297c1.112,1.101,2.213,2.213,3.318,3.318c1.035,1.032,2.016,1.032,3.044,0.007
			C9,9.186,9.493,8.7,9.976,8.206c0.902-0.923,0.894-1.937-0.018-2.85c-1.104-1.109-2.213-2.212-3.315-3.32
			C5.92,1.312,6.086,0.687,7.071,0.4c5.524-1.611,11.237,2.094,11.994,7.775c0.184,1.375,0.094,2.727-0.317,4.051
			c-0.073,0.232-0.045,0.382,0.129,0.558c2.11,2.099,4.217,4.2,6.312,6.315l3.886,3.885c2.114,2.099,4.217,4.204,6.315,6.316
			c0.188,0.189,0.349,0.206,0.597,0.133c4.39-1.282,8.922,0.596,11.077,4.638c1.215,2.274,1.438,4.682,0.687,7.158
			c-0.258,0.847-0.895,1.013-1.525,0.389c-1.133-1.119-2.255-2.251-3.382-3.377c-0.932-0.926-1.947-0.93-2.886-0.007
			c-0.523,0.519-1.049,1.036-1.562,1.564c-0.878,0.903-0.868,1.922,0.023,2.818c1.1,1.109,2.212,2.212,3.317,3.32
			c0.729,0.734,0.576,1.348-0.407,1.64c-5.28,1.581-10.837-1.789-11.911-7.221c-0.306-1.551-0.241-3.078,0.216-4.585
			c0.06-0.203,0.089-0.355-0.085-0.528c-1.431-1.414-2.852-2.842-4.366-4.357L17.053,22.759z M8.614,1.697
			c0.189,0.199,0.299,0.318,0.412,0.435c0.78,0.79,1.59,1.558,2.334,2.381c1.197,1.325,1.191,3.229-0.007,4.55
			c-0.666,0.733-1.368,1.438-2.105,2.102c-1.375,1.235-3.37,1.159-4.68-0.14c-0.78-0.77-1.552-1.55-2.331-2.324
			c-0.09-0.089-0.149-0.229-0.312-0.232c-0.086,0.326-0.116,0.658-0.1,0.986c0.02,0.448,0.035,0.903,0.109,1.345
			c0.824,4.812,5.748,7.727,10.346,6.103c0.674-0.238,1.11-0.116,1.592,0.379c1.62,1.674,3.279,3.311,4.922,4.961
			c0.164,0.166,0.272,0.312,0.533,0.066c0.948-0.894,2.014-1.013,3.183-0.389c0.183,0.1,0.287,0.09,0.423-0.054
			c0.355-0.368,0.704-0.743,1.087-1.079c0.277-0.242,0.236-0.385-0.008-0.627c-2.21-2.191-4.396-4.403-6.613-6.588
			c-0.434-0.425-0.536-0.82-0.329-1.397c1.146-3.214,0.232-6.575-2.389-8.75C12.957,1.992,10.952,1.438,8.614,1.697z M46.461,39.573
			c0.176-0.907,0.129-1.717-0.033-2.514c-0.989-4.864-5.755-7.573-10.453-5.935c-0.542,0.192-0.922,0.104-1.325-0.306
			c-2.208-2.236-4.439-4.447-6.654-6.676c-0.216-0.22-0.342-0.253-0.561-0.01c-0.339,0.382-0.709,0.736-1.081,1.085
			c-0.174,0.167-0.181,0.283-0.061,0.499c0.591,1.053,0.466,2.218-0.349,3.078c-0.241,0.252-0.211,0.375,0.018,0.601
			c1.695,1.683,3.369,3.39,5.072,5.069c0.397,0.389,0.485,0.758,0.299,1.285c-1.521,4.271,0.594,8.703,4.861,10.19
			c1.141,0.398,2.321,0.538,3.604,0.315c-0.898-0.9-1.744-1.747-2.593-2.594c-1.375-1.374-1.411-3.449-0.073-4.854
			c0.612-0.642,1.24-1.269,1.882-1.883c0.753-0.721,1.658-1.039,2.712-0.953c0.938,0.076,1.673,0.528,2.316,1.176
			C44.827,37.936,45.61,38.72,46.461,39.573z M24.665,22.394c-0.249,0.249-0.699,0.468-0.676,0.78
			c0.02,0.269,0.452,0.484,0.657,0.761c0.281,0.368,0.461,0.278,0.754-0.014 M21.162,23.154c-0.276,0-0.523,0.086-0.726,0.288
			c-0.223,0.227-0.437,0.459-0.676,0.664c-0.201,0.177-0.169,0.293,0.008,0.465c1.292,1.283,2.577,2.567,3.859,3.859
			c0.156,0.156,0.264,0.209,0.433,0.017c0.217-0.249,0.47-0.465,0.692-0.711c0.4-0.444,0.405-1.029-0.015-1.457
			c-0.936-0.957-1.889-1.896-2.834-2.843C21.7,23.233,21.451,23.15,21.162,23.154z"/>
		<path fill-rule="evenodd" clip-rule="evenodd" fill="#F5F8FA" d="M8.614,1.697c0.189,0.199,0.299,0.318,0.412,0.435
			c0.78,0.79,1.59,1.558,2.334,2.381c1.197,1.325,1.191,3.229-0.007,4.55c-0.666,0.733-1.368,1.438-2.105,2.102
			c-1.375,1.235-3.37,1.159-4.68-0.14c-0.78-0.77-1.552-1.55-2.331-2.324c-0.09-0.089-0.149-0.229-0.312-0.232
			c-0.086,0.326-0.116,0.658-0.1,0.986c0.02,0.448,0.035,0.903,0.109,1.345c0.824,4.812,5.748,7.727,10.346,6.103
			c0.674-0.238,1.11-0.116,1.592,0.379c1.62,1.674,3.279,3.311,4.922,4.961c0.164,0.166,0.272,0.312,0.533,0.066
			c0.948-0.894,2.014-1.013,3.183-0.389c0.183,0.1,0.287,0.09,0.423-0.054c0.355-0.368,0.704-0.743,1.087-1.079
			c0.277-0.242,0.236-0.385-0.008-0.627c-2.21-2.191-4.396-4.403-6.613-6.588c-0.434-0.425-0.536-0.82-0.329-1.397
			c1.146-3.214,0.232-6.575-2.389-8.75C12.957,1.992,10.952,1.438,8.614,1.697z M46.461,39.573c0.176-0.907,0.129-1.717-0.033-2.514
			c-0.989-4.864-5.755-7.573-10.453-5.935c-0.542,0.192-0.922,0.104-1.325-0.306c-2.208-2.236-4.439-4.447-6.654-6.676
			c-0.216-0.22-0.342-0.253-0.561-0.01c-0.339,0.382-0.709,0.736-1.081,1.085c-0.174,0.167-0.181,0.283-0.061,0.499
			c0.591,1.053,0.466,2.218-0.349,3.078c-0.241,0.252-0.211,0.375,0.018,0.601c1.695,1.683,3.369,3.39,5.072,5.069
			c0.397,0.389,0.485,0.758,0.299,1.285c-1.521,4.271,0.594,8.703,4.861,10.19c1.141,0.398,2.321,0.538,3.604,0.315
			c-0.898-0.9-1.744-1.747-2.593-2.594c-1.375-1.374-1.411-3.449-0.073-4.854c0.612-0.642,1.24-1.269,1.882-1.883
			c0.753-0.721,1.658-1.039,2.712-0.953c0.938,0.076,1.673,0.528,2.316,1.176C44.827,37.936,45.61,38.72,46.461,39.573z
			 M24.665,22.394c-0.249,0.249-0.699,0.468-0.676,0.78c0.02,0.269,0.452,0.484,0.657,0.761c0.281,0.368,0.461,0.278,0.754-0.014
			 M21.162,23.154c-0.276,0-0.523,0.086-0.726,0.288c-0.223,0.227-0.437,0.459-0.676,0.664c-0.201,0.177-0.169,0.293,0.008,0.465
			c1.292,1.283,2.577,2.567,3.859,3.859c0.156,0.156,0.264,0.209,0.433,0.017c0.217-0.249,0.47-0.465,0.692-0.711
			c0.4-0.444,0.405-1.029-0.015-1.457c-0.936-0.957-1.889-1.896-2.834-2.843C21.7,23.233,21.451,23.15,21.162,23.154z"/>
		<g>
			<path fill="#0C5666" d="M18.932,22.268c0.224,0.073,0.136,0.285,0.396,0.04c0.948-0.894,2.014-1.013,3.183-0.389
				c0.183,0.1,0.287,0.09,0.423-0.054l2.784-2.782c3.841-3.852,7.693-7.699,11.542-11.545c0.166-0.166,0.226-0.328,0.208-0.558
				c-0.053-0.688-0.076-1.379-0.14-2.066c-0.043-0.441,0.098-0.757,0.488-0.973c2.286-1.269,4.571-2.533,6.853-3.803
				c0.412-0.23,0.771-0.171,1.1,0.162c0.7,0.702,1.397,1.406,2.104,2.104c0.335,0.325,0.411,0.684,0.182,1.096
				c-1.274,2.301-2.549,4.597-3.827,6.894c-0.205,0.372-0.521,0.502-0.941,0.465c-0.703-0.06-1.407-0.086-2.112-0.143
				c-0.216-0.017-0.363,0.047-0.516,0.199c-3.856,3.861-7.712,7.72-11.577,11.575l-1.648,1.644
				c-0.339,0.382-0.709,0.736-1.081,1.085c-0.174,0.167-0.181,0.283-0.061,0.499c0.591,1.053,0.466,2.218-0.349,3.078
				c-0.241,0.252-0.163,0.458-0.106,0.737c0,0,0,0.918-0.654,1.353c0.085,1.196-0.47,1.97-1.202,2.697
				c-4.529,4.506-9.042,9.031-13.559,13.547c-1.403,1.4-3.038,1.407-4.434,0.014c-1.649-1.65-3.297-3.298-4.942-4.944
				c-1.399-1.401-1.395-3.028,0.012-4.433c4.527-4.529,9.062-9.051,13.58-13.594c0.717-0.72,1.482-1.258,2.545-1.172
				C17.182,23.001,18.011,21.959,18.932,22.268z"/>
			<path fill="#F5F8FA" stroke="#0C5666" stroke-width="0" stroke-linecap="round" stroke-linejoin="round" d="M1.98,40.854
				c0.09,0.103,0.204,0.183,0.282,0.292c0.248,0.342,0.433,0.342,0.752,0.021c3.621-3.649,7.262-7.278,10.897-10.915
				c0.138-0.136,0.275-0.277,0.423-0.403c1.449-1.242,3.695-0.721,4.451,1.034c0.49,1.14,0.229,2.309-0.747,3.288
				c-3.664,3.669-7.333,7.334-10.998,11c-0.086,0.086-0.167,0.173-0.256,0.256c-0.101,0.093-0.078,0.169,0.007,0.266
				c0.749,0.847,1.535,1.302,2.608,0.219c4.499-4.535,9.026-9.041,13.543-13.557c0.106-0.106,0.214-0.213,0.312-0.325
				c0.47-0.552,0.463-1.232-0.048-1.747c-1.758-1.769-3.528-3.528-5.291-5.296c-0.257-0.259-0.561-0.395-0.971-0.382
				c-0.448-0.026-0.757,0.286-1.069,0.598c-4.377,4.381-8.755,8.756-13.135,13.136c-0.266,0.266-0.543,0.521-0.789,0.807
				C1.486,39.676,1.506,40.33,1.98,40.854z"/>
			<path fill="#F5F8FA" stroke="#0C5666" stroke-width="0" stroke-linecap="round" stroke-linejoin="round" d="M25.4,23.921
				c4.718-4.741,9.45-9.466,14.179-14.194c0.116-0.116,0.237-0.229,0.354-0.349c0.234-0.242,0.511-0.329,0.853-0.296
				c0.57,0.057,1.14,0.077,1.778,0.116c0.373,0.146,0.572-0.1,0.765-0.458c0.756-1.397,1.543-2.783,2.309-4.181
				c0.247-0.455,0.762-0.934,0.664-1.372c-0.096-0.435-0.681-0.757-1.038-1.146c-0.174-0.192-0.31-0.238-0.562-0.096
				c-1.804,1.016-3.617,2.019-5.437,3.012c-0.234,0.129-0.312,0.278-0.291,0.537c0.051,0.598,0.055,1.2,0.126,1.798
				c0.053,0.448-0.096,0.764-0.408,1.075c-4.681,4.669-9.356,9.347-14.026,14.025c-0.249,0.249-0.699,0.468-0.676,0.78
				c0.02,0.269,0.452,0.484,0.657,0.761C24.927,24.303,25.108,24.213,25.4,23.921z"/>
			<path fill="#F5F8FA" stroke="#0C5666" stroke-width="0" stroke-linecap="round" stroke-linejoin="round" d="M4.013,42.92
				c0.408,0.378,0.812,0.764,1.179,1.182c0.25,0.286,0.396,0.266,0.659,0c3.679-3.702,7.372-7.388,11.061-11.076
				c0.073-0.073,0.154-0.143,0.219-0.226c0.309-0.402,0.39-0.847,0.169-1.31c-0.217-0.461-0.604-0.693-1.071-0.727
				c-0.516,0-0.847,0.269-1.162,0.587C12,34.43,8.93,37.504,5.861,40.579c-0.617,0.614-1.226,1.241-1.855,1.843
				C3.797,42.621,3.813,42.733,4.013,42.92z"/>
			<path fill="#F5F8FA" stroke="#0C5666" stroke-width="0" stroke-linecap="round" stroke-linejoin="round" d="M23.627,28.431
				c0.156,0.156,0.264,0.209,0.433,0.017c0.217-0.249,0.47-0.465,0.692-0.711c0.4-0.444,0.405-1.029-0.015-1.457
				c-0.936-0.957-1.889-1.896-2.834-2.843c-0.204-0.203-0.453-0.286-0.742-0.282c-0.276,0-0.523,0.086-0.726,0.288
				c-0.223,0.227-0.437,0.459-0.676,0.664c-0.201,0.177-0.169,0.293,0.008,0.465C21.06,25.854,22.346,27.139,23.627,28.431z"/>
		</g>
	</g>
</g>
</svg>
