<?xml version="1.0" encoding="utf-8"?>
<!-- Generator: Adobe Illustrator 16.0.0, SVG Export Plug-In . SVG Version: 6.00 Build 0)  -->
<!DOCTYPE svg PUBLIC "-//W3C//DTD SVG 1.1//EN" "http://www.w3.org/Graphics/SVG/1.1/DTD/svg11.dtd">
<svg version="1.1" xmlns="http://www.w3.org/2000/svg" xmlns:xlink="http://www.w3.org/1999/xlink" x="0px" y="0px"
	 width="105.872px" height="87.04px" viewBox="0 0 105.872 87.04" enable-background="new 0 0 105.872 87.04" xml:space="preserve">
<g id="WEB_1_">
	<g>
		<path fill="none" stroke="#A9B7C1" stroke-width="2" stroke-linecap="round" stroke-linejoin="round" stroke-miterlimit="10" d="
			M5.574,46.482V7.327c0-0.892,0.723-1.614,1.615-1.614h16.481h26.306"/>
		<path fill="none" stroke="#A9B7C1" stroke-width="2" stroke-linecap="round" stroke-linejoin="round" stroke-miterlimit="10" d="
			M100.231,49.576v20.722c0,0.892-0.722,1.614-1.614,1.614H37.33"/>
		
			<line fill="none" stroke="#A9B7C1" stroke-width="2" stroke-linecap="round" stroke-linejoin="round" stroke-miterlimit="10" x1="38.001" y1="56.573" x2="99.962" y2="56.573"/>
		
			<line fill="none" stroke="#A9B7C1" stroke-width="2" stroke-linecap="round" stroke-linejoin="round" stroke-miterlimit="10" x1="35.041" y1="86.04" x2="70.765" y2="86.04"/>
		<path fill="none" stroke="#A9B7C1" stroke-width="2" stroke-linecap="round" stroke-linejoin="round" stroke-miterlimit="10" d="
			M43.047,72.114c0,0,5.248,9.756,0,13.521"/>
		<path fill="none" stroke="#A9B7C1" stroke-width="2" stroke-linecap="round" stroke-linejoin="round" stroke-miterlimit="10" d="
			M63.14,72.114c0,0-5.248,9.756,0,13.521"/>
		<g>
			<path fill="none" stroke="#0C5666" stroke-width="2" stroke-miterlimit="10" d="M104.872,43.792c0,0.777-0.722,1.409-1.614,1.409
				H55.829c-0.892,0-1.614-0.632-1.614-1.409V2.409C54.215,1.631,54.938,1,55.829,1h47.429c0.893,0,1.614,0.631,1.614,1.409V43.792z
				"/>
			<line fill="none" stroke="#0C5666" stroke-width="2" stroke-miterlimit="10" x1="53.744" y1="13.917" x2="104.807" y2="13.917"/>
			
				<line fill="none" stroke="#0C5666" stroke-width="2" stroke-linecap="round" stroke-linejoin="round" stroke-miterlimit="10" x1="59.395" y1="6.651" x2="64.037" y2="6.651"/>
			
				<line fill="none" stroke="#0C5666" stroke-width="2" stroke-linecap="round" stroke-linejoin="round" stroke-miterlimit="10" x1="67.469" y1="6.651" x2="72.111" y2="6.651"/>
			<path fill="#0C5666" d="M83.872,27.299c1.519,0.576,2.988,1.277,4.631,1.992c-1.69,0.723-3.236,1.383-4.781,2.047
				c-1.32,0.566-1.319,0.566-1.07,2.151c2.35-1.073,4.668-2.163,7.015-3.188c0.569-0.251,0.577-0.615,0.595-1.106
				c0.017-0.493-0.102-0.769-0.604-0.99c-2.183-0.949-4.338-1.963-6.508-2.938c-0.17-0.076-0.355-0.297-0.489-0.18
				C82.173,26.394,82.825,26.904,83.872,27.299z"/>
			<path fill="#0C5666" d="M68.073,30.096c2.26,1.072,4.536,2.113,6.806,3.167c0.162,0.074,0.328,0.203,0.464-0.047
				c0.268-0.489-0.083-1.474-0.62-1.71c-1.666-0.733-3.33-1.46-5.16-2.262c1.624-0.707,3.079-1.348,4.536-1.981
				c1.368-0.598,1.369-0.597,1.182-2.226c-2.424,1.133-4.83,2.243-7.222,3.384C67.481,28.697,67.492,29.819,68.073,30.096z"/>
			<path fill="#0C5666" d="M77.414,34.139c0.347-0.046,0.762,0.165,0.939-0.457c1.002-3.527,2.054-7.042,3.088-10.559
				c0.059-0.194,0.237-0.402-0.043-0.569c-0.493-0.295-1.435,0.106-1.607,0.692c-0.995,3.366-1.965,6.741-2.998,10.096
				C76.582,34.031,76.635,34.292,77.414,34.139z"/>
		</g>
		<path fill="none" stroke="#0C5666" stroke-width="2" stroke-miterlimit="10" d="M35.604,60.021
			c-1.273-0.159-2.045-0.733-2.436-1.806c-0.397-1.104-0.173-2.065,0.684-2.936c0.242-0.245,0.797-0.813,0.738-1.681
			c-0.004-0.467-0.161-0.896-0.472-1.272c-0.831-1.014-1.749-1.933-2.732-2.728c-0.933-0.762-2.058-0.72-3.018,0.129
			c-1.019,0.899-2.057,1.087-3.231,0.59c-1.094-0.461-1.611-1.316-1.627-2.69c-0.018-1.26-0.793-2.048-2.121-2.152
			c-1.005-0.082-2.042-0.086-3.394-0.007c-1.477,0.089-2.289,0.935-2.281,2.377c0.004,0.557-0.177,1.075-0.559,1.579
			c-0.557,0.738-1.367,1.163-2.223,1.163c-0.664,0-1.307-0.247-1.87-0.722c-0.381-0.322-0.977-0.747-1.746-0.747
			c-0.609,0-1.184,0.262-1.756,0.801C6.8,50.646,6.187,51.26,5.633,51.847c-1.09,1.165-1.111,2.328-0.075,3.573
			c0.642,0.771,0.855,1.727,0.583,2.629c-0.267,0.896-0.957,1.566-1.89,1.851c-0.32,0.097-0.699,0.135-1.062,0.167
			c-1.114,0.104-1.817,0.739-2.038,1.853c-0.173,0.882-0.157,1.722-0.145,2.536L1.008,64.6c0.038,2.193,0.624,2.848,2.843,3.187
			c0.145,0.023,0.302,0.07,0.46,0.13c0.936,0.349,1.61,1.087,1.85,2.027c0.232,0.913,0.006,1.854-0.623,2.58
			c-1.024,1.192-1,2.371,0.07,3.511c0.658,0.697,1.376,1.44,2.192,2.146c1.025,0.883,2.082,0.867,3.085-0.044
			c1.023-0.929,2.071-1.157,3.19-0.676c1.086,0.474,1.624,1.32,1.645,2.596c0.021,1.394,0.894,2.281,2.28,2.312
			c0.589,0.021,1.178,0.023,1.766,0.023l1.237-0.003c1.468-0.004,2.381-0.894,2.449-2.377c0.059-1.276,0.61-2.089,1.732-2.552
			c1.107-0.457,2.118-0.239,3.125,0.654c0.504,0.454,1.041,0.685,1.594,0.685c0.526,0,1.036-0.208,1.513-0.611
			c0.855-0.715,1.65-1.507,2.429-2.415c0.903-1.043,0.873-2.185-0.076-3.129c-0.497-0.488-0.756-1.011-0.795-1.59
			c-0.122-1.907,0.912-3.106,2.837-3.282c2.1-0.193,2.341-1.638,2.3-2.486c-0.019-0.376-0.002-0.766,0.012-1.182
			c0.017-0.445,0.034-0.908,0.009-1.383C38.037,60.852,37.467,60.25,35.604,60.021z"/>
		<circle fill="none" stroke="#0C5666" stroke-width="2" stroke-miterlimit="10" cx="19.572" cy="63.9" r="5.18"/>
	</g>
</g>
<g id="MORE" display="none">
	
		<circle display="inline" fill="none" stroke="#DCDDDC" stroke-linecap="round" stroke-linejoin="round" stroke-miterlimit="10" cx="51.5" cy="57.963" r="28.347"/>
	<g display="inline">
		<path fill="none" stroke="#DCDDDC" stroke-linecap="round" stroke-linejoin="round" stroke-miterlimit="10" d="M67.875,49.979
			c0,0.406-0.448,0.734-1,0.734h-19.25c-0.552,0-1-0.328-1-0.734v-4.033c0-0.404,0.448-0.732,1-0.732h19.25c0.552,0,1,0.328,1,0.732
			V49.979z"/>
		<path fill="none" stroke="#DCDDDC" stroke-linecap="round" stroke-linejoin="round" stroke-miterlimit="10" d="M67.875,59.979
			c0,0.406-0.448,0.734-1,0.734h-19.25c-0.552,0-1-0.328-1-0.734v-4.033c0-0.404,0.448-0.732,1-0.732h19.25c0.552,0,1,0.328,1,0.732
			V59.979z"/>
		<path fill="none" stroke="#DCDDDC" stroke-linecap="round" stroke-linejoin="round" stroke-miterlimit="10" d="M67.875,69.979
			c0,0.406-0.448,0.734-1,0.734h-19.25c-0.552,0-1-0.328-1-0.734v-4.033c0-0.404,0.448-0.732,1-0.732h19.25c0.552,0,1,0.328,1,0.732
			V69.979z"/>
		<circle fill="none" stroke="#B21350" stroke-miterlimit="10" cx="38.875" cy="47.963" r="3.75"/>
		<circle fill="none" stroke="#B21350" stroke-miterlimit="10" cx="38.875" cy="57.963" r="3.75"/>
		<circle fill="none" stroke="#B21350" stroke-miterlimit="10" cx="38.875" cy="67.963" r="3.75"/>
	</g>
</g>
<g id="UX_1_" display="none">
	<g display="inline">
		<path fill="none" stroke="#0C5666" stroke-width="2" stroke-miterlimit="10" d="M44.669,45.879c0,1.399-1.084,2.531-2.421,2.531
			h-35.4c-1.336,0-2.42-1.132-2.42-2.531V18.038c0-1.399,1.083-2.531,2.42-2.531h35.4c1.337,0,2.421,1.132,2.421,2.531V45.879z"/>
		<path fill="none" stroke="#0C5666" stroke-width="2" stroke-miterlimit="10" d="M102.195,15.43c0,0.595-0.372,1.077-0.83,1.077
			H89.24c-0.458,0-0.829-0.482-0.829-1.077V3.578c0-0.595,0.371-1.078,0.829-1.078h12.125c0.458,0,0.83,0.483,0.83,1.078V15.43z"/>
		<path fill="none" stroke="#0C5666" stroke-width="2" stroke-miterlimit="10" d="M102.761,42.733c0,0.68-0.592,1.23-1.322,1.23
			H82.076c-0.73,0-1.323-0.551-1.323-1.23V29.188c0-0.682,0.593-1.23,1.323-1.23h19.362c0.73,0,1.322,0.549,1.322,1.23V42.733z"/>
		
			<line fill="none" stroke="#0C5666" stroke-width="2" stroke-linecap="round" stroke-linejoin="round" stroke-miterlimit="10" x1="80.53" y1="49.078" x2="102.983" y2="49.078"/>
		
			<line fill="none" stroke="#0C5666" stroke-width="2" stroke-linecap="round" stroke-linejoin="round" stroke-miterlimit="10" x1="80.53" y1="56.192" x2="102.983" y2="56.192"/>
		
			<line fill="none" stroke="#0C5666" stroke-width="2" stroke-linecap="round" stroke-linejoin="round" stroke-miterlimit="10" x1="80.53" y1="63.307" x2="102.983" y2="63.307"/>
		
			<polygon fill="none" stroke="#0C5666" stroke-width="2" stroke-linecap="round" stroke-linejoin="round" stroke-miterlimit="10" points="
			19.521,66.132 14.409,69.085 9.297,72.036 9.297,66.132 9.297,60.231 14.409,63.181 		"/>
		
			<circle fill="none" stroke="#0C5666" stroke-width="2" stroke-linecap="round" stroke-linejoin="round" stroke-miterlimit="10" cx="58.202" cy="35.516" r="7.336"/>
		<path fill="none" stroke="#0C5666" stroke-width="2" stroke-linecap="round" stroke-linejoin="round" stroke-miterlimit="10" d="
			M46.675,64.196c0,0-1.771-17.326,11.338-17.786c12.672-0.445,11.783,14.007,11.783,17.786"/>
		<path fill="none" stroke="#A9B7C1" stroke-width="2" stroke-linejoin="round" stroke-miterlimit="10" d="M28.526,75.249
			c0,0.982-0.796,1.778-1.778,1.778H2.07c-0.982,0-1.778-0.796-1.778-1.778V57.017c0-0.983,0.796-1.778,1.778-1.778h24.678
			c0.982,0,1.778,0.795,1.778,1.778V75.249z"/>
		<path fill="none" stroke="#A9B7C1" stroke-width="2" stroke-linecap="round" stroke-linejoin="round" stroke-miterlimit="10" d="
			M82.213,73.073v12.688c0,0.983-0.796,1.778-1.778,1.778H35.97c-0.982,0-1.778-0.795-1.778-1.778v-34.46"/>
		<path fill="none" stroke="#A9B7C1" stroke-width="2" stroke-linecap="round" stroke-linejoin="round" stroke-miterlimit="10" d="
			M34.191,12.388V8.614c0-0.983,0.796-1.778,1.778-1.778h44.465c0.982,0,1.778,0.795,1.778,1.778v11.342"/>
		<path fill="none" stroke="#A9B7C1" stroke-width="2" stroke-linejoin="round" stroke-miterlimit="10" d="M107.986,68.865
			c0,0.982-0.796,1.778-1.778,1.778H77.307c-0.982,0-1.779-0.796-1.779-1.778V24.623c0-0.983,0.797-1.778,1.779-1.778h28.901
			c0.982,0,1.778,0.795,1.778,1.778V68.865z"/>
		
			<circle fill="none" stroke="#A9B7C1" stroke-width="2" stroke-linejoin="round" stroke-miterlimit="10" cx="58.202" cy="77.646" r="5.669"/>
		
			<line fill="none" stroke="#A9B7C1" stroke-width="2" stroke-linecap="round" stroke-linejoin="round" stroke-miterlimit="10" x1="11.098" y1="24.623" x2="38.444" y2="24.623"/>
		
			<line fill="none" stroke="#A9B7C1" stroke-width="2" stroke-linecap="round" stroke-linejoin="round" stroke-miterlimit="10" x1="11.098" y1="31.737" x2="38.444" y2="31.737"/>
		
			<line fill="none" stroke="#A9B7C1" stroke-width="2" stroke-linecap="round" stroke-linejoin="round" stroke-miterlimit="10" x1="11.098" y1="38.851" x2="30.663" y2="38.851"/>
		
			<line fill="none" stroke="#A9B7C1" stroke-width="2" stroke-linecap="round" stroke-linejoin="round" stroke-miterlimit="10" x1="47.531" y1="14.395" x2="68.874" y2="14.395"/>
		<circle fill="#A9B7C1" cx="95.304" cy="9.503" r="1.667"/>
	</g>
</g>
<g id="GRAPHISME_1_" display="none">
	<g display="inline">
		<path fill="none" stroke="#A9B7C1" stroke-width="2" stroke-linecap="round" stroke-linejoin="round" stroke-miterlimit="10" d="
			M38.187,58.629c2.494,3.555,2.51,4.781,0.477,9.254c-5.229,11.505,2.66,19.215,14.606,19.215c18.689,0,35.564-19.417,35.564-43.47
			c0-21.893-17.407-38.197-39.515-38.197c-8.398,0-17.548,3.354-23.723,8.885c-6.919,6.198-9.528,14.387-6.633,23.653
			c0.553,1.764,1.511,3.226,3.337,4.947"/>
		
			<circle fill="none" stroke="#A9B7C1" stroke-width="2" stroke-linejoin="round" stroke-miterlimit="10" cx="38.596" cy="23.696" r="5.309"/>
		
			<circle fill="none" stroke="#A9B7C1" stroke-width="2" stroke-linejoin="round" stroke-miterlimit="10" cx="57.187" cy="70.173" r="5.311"/>
		
			<circle fill="none" stroke="#A9B7C1" stroke-width="2" stroke-linejoin="round" stroke-miterlimit="10" cx="74.45" cy="50.255" r="5.312"/>
		<path fill="none" stroke="#A9B7C1" stroke-width="2" stroke-linejoin="round" stroke-miterlimit="10" d="M63.825,31.664
			c2.936,0,5.314-2.377,5.314-5.312c0-2.931-2.378-5.309-5.314-5.309c-2.931,0-5.31,2.378-5.31,5.309
			C58.515,29.287,60.894,31.664,63.825,31.664z"/>
	</g>
	<g display="inline">
		<circle fill="#0C5666" cx="9.665" cy="5.365" r="2.854"/>
		<path fill="#0C5666" d="M58.602,5.523c0,1.574-1.277,2.853-2.854,2.853c-1.577,0-2.854-1.279-2.854-2.853
			c0-1.581,1.277-2.856,2.854-2.856C57.324,2.667,58.602,3.942,58.602,5.523z"/>
		
			<line fill="none" stroke="#0C5666" stroke-width="2" stroke-linecap="round" stroke-linejoin="round" stroke-miterlimit="10" x1="9.539" y1="5.443" x2="55.172" y2="5.443"/>
	</g>
	<g display="inline">
		<path fill="#0C5666" d="M99.947,26.847c-1.451-0.603-2.141-2.276-1.536-3.732c0.608-1.452,2.276-2.142,3.733-1.537
			c1.455,0.606,2.143,2.276,1.536,3.733C103.077,26.764,101.405,27.454,99.947,26.847z"/>
		<circle fill="#0C5666" cx="83.157" cy="66.771" r="2.853"/>
		
			<line fill="none" stroke="#0C5666" stroke-width="2" stroke-linecap="round" stroke-linejoin="round" stroke-miterlimit="10" x1="101.028" y1="24.569" x2="83.486" y2="66.696"/>
	</g>
	
		<path display="inline" fill="none" stroke="#0C5666" stroke-width="2" stroke-linecap="round" stroke-linejoin="round" stroke-miterlimit="10" d="
		M20.121,65.839l4.148,6.918l17.577-27.494L9.399,47.87l4.11,6.867c0.002,0,0.002,0,0.003,0.009
		c0.658,1.104,0.292,2.532-0.813,3.186l-9.106,5.42l4.229,7.109l9.112-5.419c0.532-0.317,1.165-0.409,1.764-0.257
		C19.292,64.936,19.803,65.312,20.121,65.839z"/>
</g>
</svg>
