<?xml version="1.0" encoding="utf-8"?>
<!-- Generator: Adobe Illustrator 16.0.0, SVG Export Plug-In . SVG Version: 6.00 Build 0)  -->
<!DOCTYPE svg PUBLIC "-//W3C//DTD SVG 1.1//EN" "http://www.w3.org/Graphics/SVG/1.1/DTD/svg11.dtd">
<svg version="1.1" xmlns="http://www.w3.org/2000/svg" xmlns:xlink="http://www.w3.org/1999/xlink" x="0px" y="0px"
	 width="85.043px" height="85.04px" viewBox="0 0 85.043 85.04" enable-background="new 0 0 85.043 85.04" xml:space="preserve">
<g id="WEB_1_" display="none">
	<g display="inline">
		<path fill="none" stroke="#E1E8ED" stroke-width="2" stroke-linecap="round" stroke-linejoin="round" stroke-miterlimit="10" d="
			M-33.997,39.91V0.755c0-0.892,0.723-1.614,1.615-1.614H-15.9h26.306"/>
		<path fill="none" stroke="#E1E8ED" stroke-width="2" stroke-linecap="round" stroke-linejoin="round" stroke-miterlimit="10" d="
			M60.66,43.004v20.722c0,0.892-0.722,1.614-1.614,1.614H-2.242"/>
		
			<line fill="none" stroke="#E1E8ED" stroke-width="2" stroke-linecap="round" stroke-linejoin="round" stroke-miterlimit="10" x1="-1.57" y1="50.001" x2="60.391" y2="50.001"/>
		
			<line fill="none" stroke="#E1E8ED" stroke-width="2" stroke-linecap="round" stroke-linejoin="round" stroke-miterlimit="10" x1="-4.53" y1="79.468" x2="31.193" y2="79.468"/>
		<path fill="none" stroke="#E1E8ED" stroke-width="2" stroke-linecap="round" stroke-linejoin="round" stroke-miterlimit="10" d="
			M3.476,65.542c0,0,5.248,9.756,0,13.521"/>
		<path fill="none" stroke="#E1E8ED" stroke-width="2" stroke-linecap="round" stroke-linejoin="round" stroke-miterlimit="10" d="
			M23.569,65.542c0,0-5.248,9.756,0,13.521"/>
		<g>
			<path fill="none" stroke="#0C5666" stroke-width="2" stroke-miterlimit="10" d="M65.301,37.221c0,0.777-0.722,1.409-1.614,1.409
				H16.258c-0.892,0-1.614-0.632-1.614-1.409V-4.163c0-0.778,0.723-1.409,1.614-1.409h47.429c0.893,0,1.614,0.631,1.614,1.409
				V37.221z"/>
			<line fill="none" stroke="#0C5666" stroke-width="2" stroke-miterlimit="10" x1="14.172" y1="7.345" x2="65.235" y2="7.345"/>
			
				<line fill="none" stroke="#0C5666" stroke-width="2" stroke-linecap="round" stroke-linejoin="round" stroke-miterlimit="10" x1="19.824" y1="0.08" x2="24.466" y2="0.08"/>
			
				<line fill="none" stroke="#0C5666" stroke-width="2" stroke-linecap="round" stroke-linejoin="round" stroke-miterlimit="10" x1="27.897" y1="0.08" x2="32.54" y2="0.08"/>
			<path fill="#0C5666" d="M44.301,20.728c1.519,0.576,2.988,1.277,4.631,1.992c-1.69,0.723-3.236,1.383-4.781,2.047
				c-1.32,0.566-1.319,0.566-1.07,2.151c2.35-1.073,4.668-2.163,7.015-3.188c0.569-0.251,0.577-0.615,0.595-1.106
				c0.017-0.493-0.102-0.769-0.604-0.99c-2.183-0.949-4.338-1.963-6.508-2.938c-0.17-0.076-0.355-0.297-0.489-0.18
				C42.602,19.822,43.254,20.332,44.301,20.728z"/>
			<path fill="#0C5666" d="M28.501,23.524c2.26,1.072,4.536,2.113,6.806,3.167c0.162,0.074,0.328,0.203,0.464-0.047
				c0.268-0.489-0.083-1.474-0.62-1.71c-1.666-0.733-3.33-1.46-5.16-2.262c1.624-0.707,3.079-1.348,4.536-1.981
				c1.368-0.598,1.369-0.597,1.182-2.226c-2.424,1.133-4.83,2.243-7.222,3.384C27.91,22.125,27.921,23.247,28.501,23.524z"/>
			<path fill="#0C5666" d="M37.842,27.567c0.347-0.046,0.762,0.165,0.939-0.457c1.002-3.527,2.054-7.042,3.088-10.559
				c0.059-0.194,0.237-0.402-0.043-0.569c-0.493-0.295-1.435,0.106-1.607,0.692c-0.995,3.366-1.965,6.741-2.998,10.096
				C37.011,27.459,37.063,27.721,37.842,27.567z"/>
		</g>
		<path fill="none" stroke="#0C5666" stroke-width="2" stroke-miterlimit="10" d="M-3.967,53.449
			c-1.273-0.159-2.045-0.733-2.436-1.806C-6.8,50.54-6.576,49.578-5.72,48.708c0.242-0.245,0.797-0.813,0.738-1.681
			c-0.004-0.467-0.161-0.896-0.472-1.272c-0.831-1.014-1.749-1.933-2.732-2.728c-0.933-0.762-2.058-0.72-3.018,0.129
			c-1.019,0.899-2.057,1.087-3.231,0.59c-1.094-0.461-1.611-1.316-1.627-2.69c-0.018-1.26-0.793-2.048-2.121-2.152
			c-1.005-0.082-2.042-0.086-3.394-0.007c-1.477,0.089-2.289,0.935-2.281,2.377c0.004,0.557-0.177,1.075-0.559,1.579
			c-0.557,0.738-1.367,1.163-2.223,1.163c-0.664,0-1.307-0.247-1.87-0.722c-0.381-0.322-0.977-0.747-1.746-0.747
			c-0.609,0-1.184,0.262-1.756,0.801c-0.761,0.727-1.374,1.341-1.928,1.928c-1.09,1.165-1.111,2.328-0.075,3.573
			c0.642,0.771,0.855,1.727,0.583,2.629c-0.267,0.896-0.957,1.566-1.89,1.851c-0.32,0.097-0.699,0.135-1.062,0.167
			c-1.114,0.104-1.817,0.739-2.038,1.853c-0.173,0.882-0.157,1.722-0.145,2.536l0.001,0.145c0.038,2.193,0.624,2.848,2.843,3.187
			c0.145,0.023,0.302,0.07,0.46,0.13c0.936,0.349,1.61,1.087,1.85,2.027c0.232,0.913,0.006,1.854-0.623,2.58
			c-1.024,1.192-1,2.371,0.07,3.511c0.658,0.697,1.376,1.44,2.192,2.146c1.025,0.883,2.082,0.867,3.085-0.044
			c1.023-0.929,2.071-1.157,3.19-0.676c1.086,0.474,1.624,1.32,1.645,2.596c0.021,1.394,0.894,2.281,2.28,2.312
			c0.589,0.021,1.178,0.023,1.766,0.023l1.237-0.003c1.468-0.004,2.381-0.894,2.449-2.377c0.059-1.276,0.61-2.089,1.732-2.552
			c1.107-0.457,2.118-0.239,3.125,0.654c0.504,0.454,1.041,0.685,1.594,0.685c0.526,0,1.036-0.208,1.513-0.611
			c0.855-0.715,1.65-1.507,2.429-2.415c0.903-1.043,0.873-2.185-0.076-3.129c-0.497-0.488-0.756-1.011-0.795-1.59
			c-0.122-1.907,0.912-3.106,2.837-3.282c2.1-0.193,2.341-1.638,2.3-2.486c-0.019-0.376-0.002-0.766,0.012-1.182
			c0.017-0.445,0.034-0.908,0.009-1.383C-1.534,54.28-2.104,53.678-3.967,53.449z"/>
		<circle fill="none" stroke="#0C5666" stroke-width="2" stroke-miterlimit="10" cx="-19.999" cy="57.328" r="5.18"/>
	</g>
</g>
<g id="Calque_5">
	<g id="TOOL">
		<g>
			<path fill="#E1E8ED" d="M32.168,40.559c-1.982-1.991-3.973-3.968-5.948-5.968c-0.26-0.263-0.483-0.341-0.868-0.233
				c-6.688,1.889-13.184-0.855-16.417-7.017C7.18,24,6.963,20.466,8.065,16.861c0.322-1.058,1.346-1.255,2.177-0.437
				c1.636,1.619,3.254,3.255,4.88,4.88c1.522,1.518,2.964,1.518,4.477,0.01c0.726-0.717,1.45-1.434,2.16-2.159
				c1.327-1.357,1.315-2.848-0.027-4.19c-1.624-1.632-3.253-3.253-4.875-4.884c-1.062-1.064-0.818-1.982,0.629-2.406
				c8.125-2.369,16.527,3.08,17.64,11.434c0.271,2.022,0.14,4.012-0.465,5.959c-0.108,0.342-0.066,0.562,0.189,0.82
				c3.102,3.087,6.201,6.178,9.28,9.288l5.718,5.713c3.107,3.087,6.202,6.184,9.286,9.288c0.279,0.278,0.515,0.304,0.879,0.197
				c6.457-1.886,13.121,0.876,16.29,6.822c1.786,3.342,2.116,6.885,1.011,10.526c-0.379,1.245-1.315,1.489-2.244,0.572
				c-1.665-1.646-3.314-3.311-4.971-4.967c-1.37-1.361-2.864-1.368-4.245-0.01c-0.771,0.763-1.543,1.523-2.298,2.3
				c-1.291,1.327-1.276,2.825,0.033,4.144c1.617,1.633,3.255,3.253,4.878,4.885c1.074,1.078,0.847,1.981-0.597,2.411
				c-7.765,2.324-15.938-2.631-17.518-10.62c-0.451-2.28-0.356-4.526,0.315-6.743c0.09-0.299,0.134-0.523-0.122-0.776
				c-2.106-2.081-4.197-4.181-6.424-6.408L32.168,40.559z M19.756,9.583c0.278,0.293,0.44,0.468,0.605,0.64
				c1.148,1.161,2.34,2.292,3.433,3.502c1.761,1.947,1.752,4.748-0.01,6.692c-0.979,1.077-2.012,2.114-3.095,3.091
				c-2.022,1.817-4.957,1.704-6.884-0.205c-1.146-1.134-2.282-2.279-3.428-3.419c-0.132-0.13-0.219-0.336-0.458-0.342
				c-0.127,0.48-0.171,0.969-0.147,1.45c0.029,0.661,0.05,1.329,0.159,1.979c1.213,7.077,8.454,11.363,15.216,8.977
				c0.992-0.35,1.633-0.172,2.342,0.557c2.383,2.463,4.822,4.869,7.239,7.297c0.242,0.243,0.399,0.459,0.784,0.097
				c1.393-1.315,2.961-1.489,4.681-0.573c0.267,0.148,0.422,0.133,0.62-0.08c0.523-0.541,1.037-1.091,1.601-1.585
				c0.408-0.355,0.348-0.566-0.011-0.922c-3.252-3.223-6.465-6.477-9.728-9.688c-0.637-0.626-0.788-1.207-0.483-2.056
				c1.686-4.727,0.342-9.67-3.513-12.87C26.144,10.017,23.195,9.203,19.756,9.583z M75.419,65.288
				c0.259-1.335,0.19-2.525-0.048-3.697c-1.457-7.155-8.467-11.138-15.375-8.729c-0.798,0.283-1.355,0.153-1.949-0.449
				c-3.247-3.289-6.527-6.54-9.785-9.819c-0.317-0.324-0.505-0.371-0.827-0.015c-0.497,0.562-1.043,1.083-1.589,1.596
				c-0.255,0.245-0.266,0.416-0.087,0.733c0.865,1.551,0.683,3.264-0.516,4.527c-0.352,0.37-0.31,0.552,0.026,0.886
				c2.493,2.474,4.954,4.983,7.459,7.453c0.584,0.572,0.714,1.116,0.439,1.891c-2.236,6.281,0.874,12.8,7.15,14.987
				c1.678,0.584,3.412,0.792,5.3,0.462c-1.322-1.323-2.565-2.569-3.812-3.814c-2.023-2.021-2.077-5.073-0.109-7.138
				c0.901-0.945,1.823-1.868,2.769-2.771c1.107-1.06,2.438-1.529,3.987-1.401c1.382,0.111,2.462,0.775,3.406,1.729
				C73.015,62.881,74.167,64.032,75.419,65.288z M43.362,40.023c-0.366,0.365-1.029,0.688-0.995,1.146
				c0.03,0.396,0.664,0.711,0.966,1.119c0.414,0.54,0.679,0.408,1.108-0.021 M38.211,41.141c-0.407,0-0.77,0.126-1.068,0.424
				c-0.328,0.333-0.642,0.675-0.994,0.977c-0.296,0.26-0.248,0.431,0.011,0.683c1.9,1.889,3.79,3.776,5.677,5.677
				c0.229,0.229,0.388,0.308,0.635,0.023c0.318-0.365,0.692-0.682,1.02-1.045c0.587-0.654,0.595-1.512-0.023-2.143
				c-1.375-1.408-2.777-2.79-4.167-4.181C39.001,41.257,38.637,41.135,38.211,41.141z"/>
			<path fill="#F5F8FA" d="M19.756,9.583c0.278,0.293,0.44,0.468,0.605,0.64c1.148,1.161,2.34,2.292,3.433,3.502
				c1.761,1.947,1.752,4.748-0.01,6.692c-0.979,1.077-2.012,2.114-3.095,3.091c-2.022,1.817-4.957,1.704-6.884-0.205
				c-1.146-1.134-2.282-2.279-3.428-3.419c-0.132-0.13-0.219-0.336-0.458-0.342c-0.127,0.48-0.171,0.969-0.147,1.45
				c0.029,0.661,0.05,1.329,0.159,1.979c1.213,7.077,8.454,11.363,15.216,8.977c0.992-0.35,1.633-0.172,2.342,0.557
				c2.383,2.463,4.822,4.869,7.239,7.297c0.242,0.243,0.399,0.459,0.784,0.097c1.393-1.315,2.961-1.489,4.681-0.573
				c0.267,0.148,0.422,0.133,0.62-0.08c0.523-0.541,1.037-1.091,1.601-1.585c0.408-0.355,0.348-0.566-0.011-0.922
				c-3.252-3.223-6.465-6.477-9.728-9.688c-0.637-0.626-0.788-1.207-0.483-2.056c1.686-4.727,0.342-9.67-3.513-12.87
				C26.144,10.017,23.195,9.203,19.756,9.583z M75.419,65.288c0.259-1.335,0.19-2.525-0.048-3.697
				c-1.457-7.155-8.467-11.138-15.375-8.729c-0.798,0.283-1.355,0.153-1.949-0.449c-3.247-3.289-6.527-6.54-9.785-9.819
				c-0.317-0.324-0.505-0.371-0.827-0.015c-0.497,0.562-1.043,1.083-1.589,1.596c-0.255,0.245-0.266,0.416-0.087,0.733
				c0.865,1.551,0.683,3.264-0.516,4.527c-0.352,0.37-0.31,0.552,0.026,0.886c2.493,2.474,4.954,4.983,7.459,7.453
				c0.584,0.572,0.714,1.116,0.439,1.891c-2.236,6.281,0.874,12.8,7.15,14.987c1.678,0.584,3.412,0.792,5.3,0.462
				c-1.322-1.323-2.565-2.569-3.812-3.814c-2.023-2.021-2.077-5.073-0.109-7.138c0.901-0.945,1.823-1.868,2.769-2.771
				c1.107-1.06,2.438-1.529,3.987-1.401c1.382,0.111,2.462,0.775,3.406,1.729C73.015,62.881,74.167,64.032,75.419,65.288z
				 M43.362,40.023c-0.366,0.365-1.029,0.688-0.995,1.146c0.03,0.396,0.664,0.711,0.966,1.119c0.414,0.54,0.679,0.408,1.108-0.021
				 M38.211,41.141c-0.407,0-0.77,0.126-1.068,0.424c-0.328,0.333-0.642,0.675-0.994,0.977c-0.296,0.26-0.248,0.431,0.011,0.683
				c1.9,1.889,3.79,3.776,5.677,5.677c0.229,0.229,0.388,0.308,0.635,0.023c0.318-0.365,0.692-0.682,1.02-1.045
				c0.587-0.654,0.595-1.512-0.023-2.143c-1.375-1.408-2.777-2.79-4.167-4.181C39.001,41.257,38.637,41.135,38.211,41.141z"/>
			<g>
				<path fill="#0C5666" d="M34.931,39.838c0.329,0.106,0.2,0.418,0.583,0.059c1.393-1.315,2.961-1.49,4.679-0.573
					c0.27,0.147,0.422,0.133,0.623-0.079l4.093-4.092c5.651-5.664,11.315-11.324,16.978-16.979c0.244-0.244,0.33-0.482,0.304-0.82
					c-0.077-1.012-0.112-2.027-0.203-3.038c-0.063-0.647,0.144-1.113,0.714-1.432c3.364-1.865,6.725-3.725,10.081-5.592
					c0.606-0.339,1.135-0.253,1.617,0.237c1.031,1.033,2.057,2.068,3.097,3.096c0.491,0.478,0.604,1.005,0.267,1.61
					c-1.873,3.385-3.748,6.763-5.63,10.141c-0.302,0.547-0.763,0.739-1.381,0.684c-1.035-0.089-2.071-0.125-3.108-0.211
					c-0.317-0.024-0.534,0.071-0.759,0.293c-5.669,5.679-11.344,11.354-17.025,17.023l-2.425,2.418
					c-0.499,0.562-1.043,1.083-1.591,1.595c-0.256,0.247-0.264,0.417-0.09,0.734c0.87,1.55,0.688,3.264-0.514,4.527
					c-0.353,0.371-0.237,0.674-0.154,1.084c0,0,0,1.35-0.963,1.99c0.126,1.759-0.689,2.897-1.767,3.967
					c-6.66,6.625-13.298,13.282-19.94,19.924c-2.064,2.059-4.469,2.069-6.522,0.021c-2.424-2.427-4.848-4.851-7.267-7.271
					c-2.059-2.061-2.052-4.453,0.018-6.519c6.658-6.661,13.328-13.312,19.972-19.994c1.055-1.06,2.18-1.85,3.743-1.725
					C32.358,40.914,33.577,39.382,34.931,39.838z"/>
				<path fill="#F5F8FA" d="M10,67.172c0.132,0.151,0.3,0.269,0.415,0.431c0.365,0.502,0.636,0.502,1.105,0.029
					c5.326-5.365,10.68-10.703,16.027-16.053c0.203-0.199,0.404-0.406,0.622-0.592c2.131-1.827,5.433-1.062,6.546,1.52
					c0.72,1.678,0.335,3.396-1.099,4.836c-5.389,5.396-10.785,10.786-16.175,16.178c-0.126,0.127-0.246,0.254-0.376,0.377
					c-0.15,0.138-0.115,0.25,0.01,0.391c1.101,1.246,2.258,1.915,3.834,0.323c6.617-6.671,13.275-13.298,19.918-19.938
					c0.154-0.156,0.315-0.313,0.459-0.479c0.689-0.811,0.682-1.812-0.072-2.569c-2.584-2.6-5.187-5.188-7.78-7.788
					c-0.378-0.381-0.826-0.582-1.429-0.561c-0.657-0.04-1.113,0.421-1.571,0.879C23.999,50.597,17.56,57.03,11.118,63.473
					c-0.392,0.393-0.8,0.768-1.16,1.188C9.273,65.438,9.302,66.401,10,67.172z"/>
				<path fill="#F5F8FA" d="M44.441,42.268c6.941-6.973,13.899-13.921,20.854-20.874c0.17-0.172,0.348-0.339,0.52-0.515
					c0.345-0.355,0.754-0.483,1.256-0.436c0.839,0.086,1.68,0.114,2.613,0.172c0.549,0.213,0.842-0.146,1.127-0.674
					c1.112-2.056,2.27-4.094,3.396-6.148c0.364-0.669,1.12-1.375,0.977-2.018c-0.141-0.641-0.999-1.113-1.525-1.686
					c-0.256-0.282-0.456-0.352-0.828-0.142c-2.653,1.495-5.32,2.969-7.996,4.429c-0.344,0.189-0.457,0.41-0.428,0.79
					c0.074,0.879,0.079,1.765,0.188,2.644c0.076,0.661-0.143,1.126-0.602,1.583c-6.885,6.866-13.759,13.745-20.628,20.627
					c-0.368,0.366-1.027,0.688-0.993,1.146c0.028,0.396,0.663,0.711,0.965,1.12C43.747,42.829,44.014,42.697,44.441,42.268z"/>
				<path fill="#F5F8FA" d="M12.99,70.209c0.601,0.556,1.195,1.125,1.734,1.739c0.368,0.422,0.583,0.391,0.97,0
					c5.41-5.443,10.842-10.866,16.268-16.289c0.106-0.107,0.226-0.212,0.322-0.333c0.454-0.592,0.573-1.245,0.249-1.928
					c-0.319-0.675-0.889-1.018-1.576-1.067c-0.758,0-1.246,0.396-1.709,0.864c-4.51,4.529-9.026,9.05-13.54,13.572
					c-0.906,0.903-1.802,1.826-2.727,2.71C12.672,69.771,12.695,69.936,12.99,70.209z"/>
				<path fill="#F5F8FA" d="M41.837,48.902c0.229,0.228,0.388,0.307,0.635,0.023c0.318-0.364,0.692-0.683,1.02-1.045
					c0.587-0.653,0.595-1.514-0.023-2.143c-1.375-1.408-2.777-2.79-4.167-4.182c-0.299-0.299-0.666-0.42-1.09-0.416
					c-0.407,0-0.77,0.127-1.068,0.425c-0.328,0.333-0.642,0.676-0.994,0.979c-0.296,0.258-0.249,0.429,0.011,0.682
					C38.061,45.112,39.952,47.002,41.837,48.902z"/>
			</g>
		</g>
	</g>
</g>
<g id="MORE" display="none">
	
		<circle display="inline" fill="none" stroke="#DCDDDC" stroke-linecap="round" stroke-linejoin="round" stroke-miterlimit="10" cx="11.928" cy="51.392" r="28.347"/>
	<g display="inline">
		<path fill="none" stroke="#DCDDDC" stroke-linecap="round" stroke-linejoin="round" stroke-miterlimit="10" d="M28.303,43.407
			c0,0.406-0.448,0.734-1,0.734H8.053c-0.552,0-1-0.328-1-0.734v-4.033c0-0.404,0.448-0.732,1-0.732h19.25c0.552,0,1,0.328,1,0.732
			V43.407z"/>
		<path fill="none" stroke="#DCDDDC" stroke-linecap="round" stroke-linejoin="round" stroke-miterlimit="10" d="M28.303,53.407
			c0,0.406-0.448,0.734-1,0.734H8.053c-0.552,0-1-0.328-1-0.734v-4.033c0-0.404,0.448-0.732,1-0.732h19.25c0.552,0,1,0.328,1,0.732
			V53.407z"/>
		<path fill="none" stroke="#DCDDDC" stroke-linecap="round" stroke-linejoin="round" stroke-miterlimit="10" d="M28.303,63.407
			c0,0.406-0.448,0.734-1,0.734H8.053c-0.552,0-1-0.328-1-0.734v-4.033c0-0.404,0.448-0.732,1-0.732h19.25c0.552,0,1,0.328,1,0.732
			V63.407z"/>
		<circle fill="none" stroke="#B21350" stroke-miterlimit="10" cx="-0.697" cy="41.392" r="3.75"/>
		<circle fill="none" stroke="#B21350" stroke-miterlimit="10" cx="-0.697" cy="51.392" r="3.75"/>
		<circle fill="none" stroke="#B21350" stroke-miterlimit="10" cx="-0.697" cy="61.392" r="3.75"/>
	</g>
</g>
<g id="UX_1_" display="none">
	<g display="inline">
		<path fill="none" stroke="#0C5666" stroke-width="2" stroke-miterlimit="10" d="M5.097,39.308c0,1.399-1.084,2.531-2.421,2.531
			h-35.4c-1.336,0-2.42-1.132-2.42-2.531V11.466c0-1.399,1.083-2.531,2.42-2.531h35.4c1.337,0,2.421,1.132,2.421,2.531V39.308z"/>
		<path fill="none" stroke="#0C5666" stroke-width="2" stroke-miterlimit="10" d="M62.623,8.858c0,0.595-0.372,1.077-0.83,1.077
			H49.668c-0.458,0-0.829-0.482-0.829-1.077V-2.994c0-0.595,0.371-1.078,0.829-1.078h12.125c0.458,0,0.83,0.483,0.83,1.078V8.858z"
			/>
		<path fill="none" stroke="#0C5666" stroke-width="2" stroke-miterlimit="10" d="M63.188,36.161c0,0.68-0.592,1.23-1.322,1.23
			H42.504c-0.73,0-1.323-0.551-1.323-1.23V22.616c0-0.682,0.593-1.23,1.323-1.23h19.362c0.73,0,1.322,0.549,1.322,1.23V36.161z"/>
		
			<line fill="none" stroke="#0C5666" stroke-width="2" stroke-linecap="round" stroke-linejoin="round" stroke-miterlimit="10" x1="40.958" y1="42.506" x2="63.411" y2="42.506"/>
		
			<line fill="none" stroke="#0C5666" stroke-width="2" stroke-linecap="round" stroke-linejoin="round" stroke-miterlimit="10" x1="40.958" y1="49.62" x2="63.411" y2="49.62"/>
		
			<line fill="none" stroke="#0C5666" stroke-width="2" stroke-linecap="round" stroke-linejoin="round" stroke-miterlimit="10" x1="40.958" y1="56.735" x2="63.411" y2="56.735"/>
		
			<polygon fill="none" stroke="#0C5666" stroke-width="2" stroke-linecap="round" stroke-linejoin="round" stroke-miterlimit="10" points="
			-20.052,59.561 -25.164,62.514 -30.275,65.464 -30.275,59.561 -30.275,53.659 -25.164,56.609 		"/>
		
			<circle fill="none" stroke="#0C5666" stroke-width="2" stroke-linecap="round" stroke-linejoin="round" stroke-miterlimit="10" cx="18.63" cy="28.944" r="7.336"/>
		<path fill="none" stroke="#0C5666" stroke-width="2" stroke-linecap="round" stroke-linejoin="round" stroke-miterlimit="10" d="
			M7.103,57.624c0,0-1.771-17.326,11.338-17.786c12.672-0.445,11.783,14.007,11.783,17.786"/>
		<path fill="none" stroke="#E1E8ED" stroke-width="2" stroke-linejoin="round" stroke-miterlimit="10" d="M-11.046,68.677
			c0,0.982-0.796,1.778-1.778,1.778h-24.678c-0.982,0-1.778-0.796-1.778-1.778V50.445c0-0.983,0.796-1.778,1.778-1.778h24.678
			c0.982,0,1.778,0.795,1.778,1.778V68.677z"/>
		<path fill="none" stroke="#E1E8ED" stroke-width="2" stroke-linecap="round" stroke-linejoin="round" stroke-miterlimit="10" d="
			M42.641,66.501v12.688c0,0.983-0.796,1.778-1.778,1.778H-3.603c-0.982,0-1.778-0.795-1.778-1.778v-34.46"/>
		<path fill="none" stroke="#E1E8ED" stroke-width="2" stroke-linecap="round" stroke-linejoin="round" stroke-miterlimit="10" d="
			M-5.381,5.816V2.042c0-0.983,0.796-1.778,1.778-1.778h44.465c0.982,0,1.778,0.795,1.778,1.778v11.342"/>
		<path fill="none" stroke="#E1E8ED" stroke-width="2" stroke-linejoin="round" stroke-miterlimit="10" d="M68.414,62.293
			c0,0.982-0.796,1.778-1.778,1.778H37.734c-0.982,0-1.779-0.796-1.779-1.778V18.051c0-0.983,0.797-1.778,1.779-1.778h28.901
			c0.982,0,1.778,0.795,1.778,1.778V62.293z"/>
		
			<circle fill="none" stroke="#E1E8ED" stroke-width="2" stroke-linejoin="round" stroke-miterlimit="10" cx="18.63" cy="71.074" r="5.669"/>
		
			<line fill="none" stroke="#E1E8ED" stroke-width="2" stroke-linecap="round" stroke-linejoin="round" stroke-miterlimit="10" x1="-28.474" y1="18.051" x2="-1.128" y2="18.051"/>
		
			<line fill="none" stroke="#E1E8ED" stroke-width="2" stroke-linecap="round" stroke-linejoin="round" stroke-miterlimit="10" x1="-28.474" y1="25.165" x2="-1.128" y2="25.165"/>
		
			<line fill="none" stroke="#E1E8ED" stroke-width="2" stroke-linecap="round" stroke-linejoin="round" stroke-miterlimit="10" x1="-28.474" y1="32.279" x2="-8.91" y2="32.279"/>
		
			<line fill="none" stroke="#E1E8ED" stroke-width="2" stroke-linecap="round" stroke-linejoin="round" stroke-miterlimit="10" x1="7.958" y1="7.823" x2="29.301" y2="7.823"/>
		<circle fill="#E1E8ED" cx="55.731" cy="2.932" r="1.667"/>
	</g>
</g>
<g id="GRAPHISME_1_" display="none">
	<g display="inline">
		<path fill="none" stroke="#E1E8ED" stroke-width="2" stroke-linecap="round" stroke-linejoin="round" stroke-miterlimit="10" d="
			M-1.385,52.058c2.494,3.555,2.51,4.781,0.477,9.254c-5.229,11.505,2.66,19.215,14.606,19.215c18.689,0,35.564-19.417,35.564-43.47
			c0-21.893-17.407-38.197-39.515-38.197c-8.398,0-17.548,3.354-23.723,8.885c-6.919,6.198-9.528,14.387-6.633,23.653
			c0.553,1.764,1.511,3.226,3.337,4.947"/>
		
			<circle fill="none" stroke="#E1E8ED" stroke-width="2" stroke-linejoin="round" stroke-miterlimit="10" cx="-0.976" cy="17.125" r="5.309"/>
		
			<circle fill="none" stroke="#E1E8ED" stroke-width="2" stroke-linejoin="round" stroke-miterlimit="10" cx="17.614" cy="63.602" r="5.311"/>
		
			<circle fill="none" stroke="#E1E8ED" stroke-width="2" stroke-linejoin="round" stroke-miterlimit="10" cx="34.878" cy="43.684" r="5.312"/>
		<path fill="none" stroke="#E1E8ED" stroke-width="2" stroke-linejoin="round" stroke-miterlimit="10" d="M24.252,25.092
			c2.936,0,5.314-2.377,5.314-5.312c0-2.931-2.378-5.309-5.314-5.309c-2.931,0-5.31,2.378-5.31,5.309
			C18.942,22.715,21.322,25.092,24.252,25.092z"/>
	</g>
	<g display="inline">
		<circle fill="#0C5666" cx="-29.907" cy="-1.207" r="2.854"/>
		<path fill="#0C5666" d="M19.029-1.049c0,1.574-1.277,2.853-2.854,2.853c-1.577,0-2.854-1.279-2.854-2.853
			c0-1.581,1.277-2.856,2.854-2.856C17.752-3.905,19.029-2.63,19.029-1.049z"/>
		
			<line fill="none" stroke="#0C5666" stroke-width="2" stroke-linecap="round" stroke-linejoin="round" stroke-miterlimit="10" x1="-30.034" y1="-1.129" x2="15.6" y2="-1.129"/>
	</g>
	<g display="inline">
		<path fill="#0C5666" d="M60.375,20.275c-1.451-0.603-2.141-2.276-1.536-3.732c0.608-1.452,2.276-2.142,3.733-1.537
			c1.455,0.606,2.143,2.276,1.536,3.733C63.505,20.192,61.833,20.882,60.375,20.275z"/>
		<circle fill="#0C5666" cx="43.585" cy="60.199" r="2.853"/>
		
			<line fill="none" stroke="#0C5666" stroke-width="2" stroke-linecap="round" stroke-linejoin="round" stroke-miterlimit="10" x1="61.456" y1="17.997" x2="43.914" y2="60.124"/>
	</g>
	
		<path display="inline" fill="none" stroke="#0C5666" stroke-width="2" stroke-linecap="round" stroke-linejoin="round" stroke-miterlimit="10" d="
		M-19.452,59.268l4.148,6.918L2.273,38.691l-32.446,2.606l4.11,6.867c0.002,0,0.002,0,0.003,0.009
		c0.658,1.104,0.292,2.532-0.813,3.186l-9.106,5.42l4.229,7.109l9.112-5.419c0.532-0.317,1.165-0.409,1.764-0.257
		C-20.281,58.364-19.77,58.74-19.452,59.268z"/>
</g>
</svg>
