<?xml version="1.0" encoding="utf-8"?>
<!-- Generator: Adobe Illustrator 16.0.0, SVG Export Plug-In . SVG Version: 6.00 Build 0)  -->
<!DOCTYPE svg PUBLIC "-//W3C//DTD SVG 1.1//EN" "http://www.w3.org/Graphics/SVG/1.1/DTD/svg11.dtd">
<svg version="1.1" xmlns="http://www.w3.org/2000/svg" xmlns:xlink="http://www.w3.org/1999/xlink" x="0px" y="0px"
	 width="101.308px" height="85.588px" viewBox="0 0 101.308 85.588" enable-background="new 0 0 101.308 85.588"
	 xml:space="preserve">
<g id="WEB_1_" display="none">
	<g display="inline">
		<path fill="none" stroke="#E1E8ED" stroke-width="2" stroke-linecap="round" stroke-linejoin="round" stroke-miterlimit="10" d="
			M2.981,43.972V4.816c0-0.892,0.723-1.614,1.615-1.614h16.481h26.306"/>
		<path fill="none" stroke="#E1E8ED" stroke-width="2" stroke-linecap="round" stroke-linejoin="round" stroke-miterlimit="10" d="
			M97.638,47.065v20.722c0,0.892-0.722,1.614-1.614,1.614H34.736"/>
		
			<line fill="none" stroke="#E1E8ED" stroke-width="2" stroke-linecap="round" stroke-linejoin="round" stroke-miterlimit="10" x1="35.408" y1="54.062" x2="97.369" y2="54.062"/>
		
			<line fill="none" stroke="#E1E8ED" stroke-width="2" stroke-linecap="round" stroke-linejoin="round" stroke-miterlimit="10" x1="32.448" y1="83.529" x2="68.171" y2="83.529"/>
		<path fill="none" stroke="#E1E8ED" stroke-width="2" stroke-linecap="round" stroke-linejoin="round" stroke-miterlimit="10" d="
			M40.454,69.604c0,0,5.248,9.756,0,13.521"/>
		<path fill="none" stroke="#E1E8ED" stroke-width="2" stroke-linecap="round" stroke-linejoin="round" stroke-miterlimit="10" d="
			M60.547,69.604c0,0-5.248,9.756,0,13.521"/>
		<g>
			<path fill="none" stroke="#0C5666" stroke-width="2" stroke-miterlimit="10" d="M102.279,41.282c0,0.777-0.722,1.409-1.614,1.409
				H53.236c-0.892,0-1.614-0.632-1.614-1.409V-0.101c0-0.778,0.723-1.409,1.614-1.409h47.429c0.893,0,1.614,0.631,1.614,1.409
				V41.282z"/>
			<line fill="none" stroke="#0C5666" stroke-width="2" stroke-miterlimit="10" x1="51.15" y1="11.407" x2="102.213" y2="11.407"/>
			
				<line fill="none" stroke="#0C5666" stroke-width="2" stroke-linecap="round" stroke-linejoin="round" stroke-miterlimit="10" x1="56.802" y1="4.141" x2="61.444" y2="4.141"/>
			
				<line fill="none" stroke="#0C5666" stroke-width="2" stroke-linecap="round" stroke-linejoin="round" stroke-miterlimit="10" x1="64.875" y1="4.141" x2="69.518" y2="4.141"/>
			<path fill="#0C5666" d="M81.279,24.789c1.519,0.576,2.988,1.277,4.631,1.992c-1.69,0.723-3.236,1.383-4.781,2.047
				c-1.32,0.566-1.319,0.566-1.07,2.151c2.35-1.073,4.668-2.163,7.015-3.188c0.569-0.251,0.577-0.615,0.595-1.106
				c0.017-0.493-0.102-0.769-0.604-0.99c-2.183-0.949-4.338-1.963-6.508-2.938c-0.17-0.076-0.355-0.297-0.489-0.18
				C79.58,23.884,80.232,24.394,81.279,24.789z"/>
			<path fill="#0C5666" d="M65.479,27.586c2.26,1.072,4.536,2.113,6.806,3.167c0.162,0.074,0.328,0.203,0.464-0.047
				c0.268-0.489-0.083-1.474-0.62-1.71c-1.666-0.733-3.33-1.46-5.16-2.262c1.624-0.707,3.079-1.348,4.536-1.981
				c1.368-0.598,1.369-0.597,1.182-2.226c-2.424,1.133-4.83,2.243-7.222,3.384C64.888,26.187,64.899,27.309,65.479,27.586z"/>
			<path fill="#0C5666" d="M74.82,31.629c0.347-0.046,0.762,0.165,0.939-0.457c1.002-3.527,2.054-7.042,3.088-10.559
				c0.059-0.194,0.237-0.402-0.043-0.569c-0.493-0.295-1.435,0.106-1.607,0.692c-0.995,3.366-1.965,6.741-2.998,10.096
				C73.989,31.521,74.042,31.782,74.82,31.629z"/>
		</g>
		<path fill="none" stroke="#0C5666" stroke-width="2" stroke-miterlimit="10" d="M33.011,57.511
			c-1.273-0.159-2.045-0.733-2.436-1.806c-0.397-1.104-0.173-2.065,0.684-2.936c0.242-0.245,0.797-0.813,0.738-1.681
			c-0.004-0.467-0.161-0.896-0.472-1.272c-0.831-1.014-1.749-1.933-2.732-2.728c-0.933-0.762-2.058-0.72-3.018,0.129
			c-1.019,0.899-2.057,1.087-3.231,0.59c-1.094-0.461-1.611-1.316-1.627-2.69c-0.018-1.26-0.793-2.048-2.121-2.152
			c-1.005-0.082-2.042-0.086-3.394-0.007c-1.477,0.089-2.289,0.935-2.281,2.377c0.004,0.557-0.177,1.075-0.559,1.579
			c-0.557,0.738-1.367,1.163-2.223,1.163c-0.664,0-1.307-0.247-1.87-0.722c-0.381-0.322-0.977-0.747-1.746-0.747
			c-0.609,0-1.184,0.262-1.756,0.801c-0.761,0.727-1.374,1.341-1.928,1.928c-1.09,1.165-1.111,2.328-0.075,3.573
			c0.642,0.771,0.855,1.727,0.583,2.629c-0.267,0.896-0.957,1.566-1.89,1.851c-0.32,0.097-0.699,0.135-1.062,0.167
			c-1.114,0.104-1.817,0.739-2.038,1.853c-0.173,0.882-0.157,1.722-0.145,2.536l0.001,0.145c0.038,2.193,0.624,2.848,2.843,3.187
			c0.145,0.023,0.302,0.07,0.46,0.13c0.936,0.349,1.61,1.087,1.85,2.027c0.232,0.913,0.006,1.854-0.623,2.58
			c-1.024,1.192-1,2.371,0.07,3.511c0.658,0.697,1.376,1.44,2.192,2.146c1.025,0.883,2.082,0.867,3.085-0.044
			c1.023-0.929,2.071-1.157,3.19-0.676c1.086,0.474,1.624,1.32,1.645,2.596c0.021,1.394,0.894,2.281,2.28,2.312
			c0.589,0.021,1.178,0.023,1.766,0.023l1.237-0.003c1.468-0.004,2.381-0.894,2.449-2.377c0.059-1.276,0.61-2.089,1.732-2.552
			c1.107-0.457,2.118-0.239,3.125,0.654c0.504,0.454,1.041,0.685,1.594,0.685c0.526,0,1.036-0.208,1.513-0.611
			c0.855-0.715,1.65-1.507,2.429-2.415c0.903-1.043,0.873-2.185-0.076-3.129c-0.497-0.488-0.756-1.011-0.795-1.59
			c-0.122-1.907,0.912-3.106,2.837-3.282c2.1-0.193,2.341-1.638,2.3-2.486c-0.019-0.376-0.002-0.766,0.012-1.182
			c0.017-0.445,0.034-0.908,0.009-1.383C35.444,58.342,34.874,57.739,33.011,57.511z"/>
		<circle fill="none" stroke="#0C5666" stroke-width="2" stroke-miterlimit="10" cx="16.979" cy="61.39" r="5.18"/>
	</g>
</g>
<g id="MORE" display="none">
	
		<circle display="inline" fill="none" stroke="#DCDDDC" stroke-linecap="round" stroke-linejoin="round" stroke-miterlimit="10" cx="48.907" cy="55.453" r="28.347"/>
	<g display="inline">
		<path fill="none" stroke="#DCDDDC" stroke-linecap="round" stroke-linejoin="round" stroke-miterlimit="10" d="M65.282,47.469
			c0,0.406-0.448,0.734-1,0.734h-19.25c-0.552,0-1-0.328-1-0.734v-4.033c0-0.404,0.448-0.732,1-0.732h19.25c0.552,0,1,0.328,1,0.732
			V47.469z"/>
		<path fill="none" stroke="#DCDDDC" stroke-linecap="round" stroke-linejoin="round" stroke-miterlimit="10" d="M65.282,57.469
			c0,0.406-0.448,0.734-1,0.734h-19.25c-0.552,0-1-0.328-1-0.734v-4.033c0-0.404,0.448-0.732,1-0.732h19.25c0.552,0,1,0.328,1,0.732
			V57.469z"/>
		<path fill="none" stroke="#DCDDDC" stroke-linecap="round" stroke-linejoin="round" stroke-miterlimit="10" d="M65.282,67.469
			c0,0.406-0.448,0.734-1,0.734h-19.25c-0.552,0-1-0.328-1-0.734v-4.033c0-0.404,0.448-0.732,1-0.732h19.25c0.552,0,1,0.328,1,0.732
			V67.469z"/>
		<circle fill="none" stroke="#B21350" stroke-miterlimit="10" cx="36.282" cy="45.453" r="3.75"/>
		<circle fill="none" stroke="#B21350" stroke-miterlimit="10" cx="36.282" cy="55.453" r="3.75"/>
		<circle fill="none" stroke="#B21350" stroke-miterlimit="10" cx="36.282" cy="65.453" r="3.75"/>
	</g>
</g>
<g id="UX_1_" display="none">
	<g display="inline">
		<path fill="none" stroke="#0C5666" stroke-width="2" stroke-miterlimit="10" d="M42.076,43.369c0,1.399-1.084,2.531-2.421,2.531
			h-35.4c-1.336,0-2.42-1.132-2.42-2.531V15.527c0-1.399,1.083-2.531,2.42-2.531h35.4c1.337,0,2.421,1.132,2.421,2.531V43.369z"/>
		<path fill="none" stroke="#0C5666" stroke-width="2" stroke-miterlimit="10" d="M99.602,12.92c0,0.595-0.372,1.077-0.83,1.077
			H86.647c-0.458,0-0.829-0.482-0.829-1.077V1.068c0-0.595,0.371-1.078,0.829-1.078h12.125c0.458,0,0.83,0.483,0.83,1.078V12.92z"/>
		<path fill="none" stroke="#0C5666" stroke-width="2" stroke-miterlimit="10" d="M100.167,40.223c0,0.68-0.592,1.23-1.322,1.23
			H79.483c-0.73,0-1.323-0.551-1.323-1.23V26.678c0-0.682,0.593-1.23,1.323-1.23h19.362c0.73,0,1.322,0.549,1.322,1.23V40.223z"/>
		
			<line fill="none" stroke="#0C5666" stroke-width="2" stroke-linecap="round" stroke-linejoin="round" stroke-miterlimit="10" x1="77.937" y1="46.567" x2="100.39" y2="46.567"/>
		
			<line fill="none" stroke="#0C5666" stroke-width="2" stroke-linecap="round" stroke-linejoin="round" stroke-miterlimit="10" x1="77.937" y1="53.682" x2="100.39" y2="53.682"/>
		
			<line fill="none" stroke="#0C5666" stroke-width="2" stroke-linecap="round" stroke-linejoin="round" stroke-miterlimit="10" x1="77.937" y1="60.797" x2="100.39" y2="60.797"/>
		
			<polygon fill="none" stroke="#0C5666" stroke-width="2" stroke-linecap="round" stroke-linejoin="round" stroke-miterlimit="10" points="
			16.927,63.622 11.815,66.575 6.704,69.525 6.704,63.622 6.704,57.721 11.815,60.671 		"/>
		
			<circle fill="none" stroke="#0C5666" stroke-width="2" stroke-linecap="round" stroke-linejoin="round" stroke-miterlimit="10" cx="55.609" cy="33.006" r="7.336"/>
		<path fill="none" stroke="#0C5666" stroke-width="2" stroke-linecap="round" stroke-linejoin="round" stroke-miterlimit="10" d="
			M44.082,61.686c0,0-1.771-17.326,11.338-17.786c12.672-0.445,11.783,14.007,11.783,17.786"/>
		<path fill="none" stroke="#E1E8ED" stroke-width="2" stroke-linejoin="round" stroke-miterlimit="10" d="M25.933,72.738
			c0,0.982-0.796,1.778-1.778,1.778H-0.523c-0.982,0-1.778-0.796-1.778-1.778V54.507c0-0.983,0.796-1.778,1.778-1.778h24.678
			c0.982,0,1.778,0.795,1.778,1.778V72.738z"/>
		<path fill="none" stroke="#E1E8ED" stroke-width="2" stroke-linecap="round" stroke-linejoin="round" stroke-miterlimit="10" d="
			M79.62,70.562v12.688c0,0.983-0.796,1.778-1.778,1.778H33.376c-0.982,0-1.778-0.795-1.778-1.778v-34.46"/>
		<path fill="none" stroke="#E1E8ED" stroke-width="2" stroke-linecap="round" stroke-linejoin="round" stroke-miterlimit="10" d="
			M31.598,9.877V6.104c0-0.983,0.796-1.778,1.778-1.778h44.465c0.982,0,1.778,0.795,1.778,1.778v11.342"/>
		<path fill="none" stroke="#E1E8ED" stroke-width="2" stroke-linejoin="round" stroke-miterlimit="10" d="M105.393,66.354
			c0,0.982-0.796,1.778-1.778,1.778H74.713c-0.982,0-1.779-0.796-1.779-1.778V22.112c0-0.983,0.797-1.778,1.779-1.778h28.901
			c0.982,0,1.778,0.795,1.778,1.778V66.354z"/>
		
			<circle fill="none" stroke="#E1E8ED" stroke-width="2" stroke-linejoin="round" stroke-miterlimit="10" cx="55.609" cy="75.136" r="5.669"/>
		
			<line fill="none" stroke="#E1E8ED" stroke-width="2" stroke-linecap="round" stroke-linejoin="round" stroke-miterlimit="10" x1="8.505" y1="22.112" x2="35.851" y2="22.112"/>
		
			<line fill="none" stroke="#E1E8ED" stroke-width="2" stroke-linecap="round" stroke-linejoin="round" stroke-miterlimit="10" x1="8.505" y1="29.227" x2="35.851" y2="29.227"/>
		
			<line fill="none" stroke="#E1E8ED" stroke-width="2" stroke-linecap="round" stroke-linejoin="round" stroke-miterlimit="10" x1="8.505" y1="36.341" x2="28.069" y2="36.341"/>
		
			<line fill="none" stroke="#E1E8ED" stroke-width="2" stroke-linecap="round" stroke-linejoin="round" stroke-miterlimit="10" x1="44.938" y1="11.884" x2="66.28" y2="11.884"/>
		<circle fill="#E1E8ED" cx="92.71" cy="6.993" r="1.667"/>
	</g>
</g>
<g id="GRAPHISME_1_">
	<g>
		<path fill="none" stroke="#A9B7C1" stroke-width="2" stroke-linecap="round" stroke-linejoin="round" stroke-miterlimit="10" d="
			M35.594,56.119c2.494,3.555,2.51,4.781,0.477,9.254c-5.229,11.505,2.66,19.215,14.606,19.215c18.689,0,35.564-19.417,35.564-43.47
			c0-21.893-17.407-38.197-39.515-38.197c-8.398,0-17.548,3.354-23.723,8.885c-6.919,6.198-9.528,14.387-6.633,23.653
			c0.553,1.764,1.511,3.226,3.337,4.947"/>
		
			<circle fill="none" stroke="#A9B7C1" stroke-width="2" stroke-linejoin="round" stroke-miterlimit="10" cx="36.003" cy="21.186" r="5.309"/>
		
			<circle fill="none" stroke="#A9B7C1" stroke-width="2" stroke-linejoin="round" stroke-miterlimit="10" cx="54.593" cy="67.663" r="5.311"/>
		
			<circle fill="none" stroke="#A9B7C1" stroke-width="2" stroke-linejoin="round" stroke-miterlimit="10" cx="71.857" cy="47.745" r="5.312"/>
		<path fill="none" stroke="#A9B7C1" stroke-width="2" stroke-linejoin="round" stroke-miterlimit="10" d="M61.231,29.153
			c2.936,0,5.314-2.377,5.314-5.312c0-2.931-2.378-5.309-5.314-5.309c-2.931,0-5.31,2.378-5.31,5.309
			C55.921,26.776,58.301,29.153,61.231,29.153z"/>
	</g>
	<g>
		<circle fill="#0C5666" cx="7.072" cy="2.855" r="2.854"/>
		<path fill="#0C5666" d="M56.008,3.013c0,1.574-1.277,2.853-2.854,2.853c-1.577,0-2.854-1.279-2.854-2.853
			c0-1.581,1.277-2.856,2.854-2.856C54.731,0.156,56.008,1.432,56.008,3.013z"/>
		
			<line fill="none" stroke="#0C5666" stroke-width="2" stroke-linecap="round" stroke-linejoin="round" stroke-miterlimit="10" x1="6.945" y1="2.933" x2="52.579" y2="2.933"/>
	</g>
	<g>
		<path fill="#0C5666" d="M97.354,24.337c-1.451-0.603-2.141-2.276-1.536-3.732c0.608-1.452,2.276-2.142,3.733-1.537
			c1.455,0.606,2.143,2.276,1.536,3.733C100.484,24.254,98.812,24.943,97.354,24.337z"/>
		<circle fill="#0C5666" cx="80.564" cy="64.26" r="2.853"/>
		
			<line fill="none" stroke="#0C5666" stroke-width="2" stroke-linecap="round" stroke-linejoin="round" stroke-miterlimit="10" x1="98.435" y1="22.059" x2="80.893" y2="64.186"/>
	</g>
	<path fill="none" stroke="#0C5666" stroke-width="2" stroke-linecap="round" stroke-linejoin="round" stroke-miterlimit="10" d="
		M17.527,63.329l4.148,6.918l17.577-27.494L6.806,45.359l4.11,6.867c0.002,0,0.002,0,0.003,0.009
		c0.658,1.104,0.292,2.532-0.813,3.186L1,60.841l4.229,7.109l9.112-5.419c0.532-0.317,1.165-0.409,1.764-0.257
		C16.698,62.426,17.209,62.802,17.527,63.329z"/>
</g>
<g id="TOOL" display="none">
	<g display="inline">
		<path fill-rule="evenodd" clip-rule="evenodd" fill="#657786" d="M53.513,50.05c-1.189-1.195-2.383-2.382-3.568-3.58
			c-0.157-0.158-0.29-0.205-0.521-0.141c-4.012,1.134-7.91-0.513-9.849-4.21c-1.052-2.004-1.182-4.125-0.521-6.287
			c0.193-0.633,0.807-0.753,1.307-0.261c0.981,0.97,1.953,1.951,2.928,2.927c0.913,0.911,1.778,0.911,2.686,0.006
			c0.434-0.431,0.869-0.858,1.295-1.295c0.795-0.814,0.788-1.708-0.016-2.514c-0.974-0.979-1.953-1.951-2.925-2.93
			c-0.637-0.639-0.491-1.191,0.378-1.443c4.874-1.421,9.915,1.848,10.583,6.86c0.163,1.213,0.083,2.405-0.28,3.574
			c-0.064,0.205-0.04,0.337,0.114,0.492c1.862,1.852,3.721,3.706,5.569,5.572l3.429,3.428c1.865,1.852,3.721,3.709,5.572,5.572
			c0.166,0.167,0.308,0.182,0.527,0.117c3.873-1.131,7.873,0.526,9.773,4.092c1.071,2.007,1.268,4.131,0.605,6.316
			c-0.228,0.747-0.789,0.894-1.346,0.343c-1-0.987-1.989-1.986-2.984-2.979c-0.822-0.817-1.717-0.82-2.546-0.006
			c-0.461,0.457-0.926,0.914-1.378,1.38c-0.775,0.797-0.766,1.696,0.021,2.487c0.971,0.979,1.953,1.951,2.927,2.93
			c0.643,0.647,0.508,1.188-0.359,1.446c-4.658,1.395-9.562-1.578-10.509-6.371c-0.27-1.368-0.212-2.716,0.19-4.046
			c0.053-0.179,0.079-0.313-0.075-0.466c-1.263-1.248-2.517-2.508-3.853-3.844L53.513,50.05z M46.067,31.467
			c0.167,0.176,0.264,0.281,0.363,0.384c0.688,0.697,1.403,1.374,2.06,2.101c1.056,1.169,1.051,2.848-0.006,4.014
			c-0.587,0.647-1.207,1.269-1.857,1.854c-1.213,1.09-2.973,1.022-4.129-0.123c-0.688-0.68-1.37-1.368-2.057-2.051
			c-0.079-0.079-0.132-0.202-0.275-0.205c-0.076,0.287-0.103,0.58-0.088,0.87c0.018,0.396,0.031,0.797,0.097,1.187
			c0.727,4.245,5.071,6.817,9.128,5.385c0.594-0.211,0.979-0.103,1.404,0.334c1.43,1.477,2.893,2.921,4.343,4.377
			c0.145,0.146,0.24,0.275,0.47,0.059c0.836-0.788,1.777-0.894,2.808-0.343c0.161,0.088,0.253,0.079,0.374-0.047
			c0.313-0.325,0.621-0.656,0.959-0.952c0.245-0.214,0.208-0.34-0.007-0.554c-1.95-1.934-3.879-3.885-5.834-5.812
			c-0.382-0.375-0.473-0.724-0.29-1.233c1.011-2.836,0.205-5.801-2.108-7.72C49.899,31.728,48.13,31.238,46.067,31.467z
			 M79.46,64.885c0.155-0.8,0.113-1.515-0.029-2.218c-0.873-4.292-5.078-6.682-9.223-5.235c-0.479,0.17-0.813,0.091-1.169-0.27
			c-1.948-1.974-3.917-3.925-5.871-5.891c-0.19-0.193-0.302-0.223-0.495-0.009c-0.299,0.337-0.625,0.65-0.954,0.958
			c-0.154,0.146-0.16,0.249-0.054,0.439c0.521,0.929,0.412,1.957-0.308,2.716c-0.212,0.223-0.186,0.331,0.016,0.53
			c1.496,1.484,2.972,2.99,4.475,4.473c0.35,0.343,0.428,0.668,0.264,1.134c-1.342,3.768,0.524,7.679,4.29,8.991
			c1.006,0.352,2.048,0.475,3.18,0.278c-0.792-0.794-1.54-1.541-2.288-2.288c-1.213-1.213-1.245-3.044-0.064-4.283
			c0.541-0.565,1.094-1.119,1.661-1.661c0.665-0.636,1.463-0.917,2.392-0.841c0.828,0.067,1.477,0.466,2.044,1.037
			C78.018,63.44,78.709,64.132,79.46,64.885z M60.229,49.728c-0.22,0.22-0.617,0.413-0.596,0.688
			c0.018,0.237,0.398,0.428,0.58,0.671c0.248,0.325,0.407,0.246,0.665-0.012 M57.138,50.398c-0.243,0-0.461,0.076-0.64,0.255
			c-0.196,0.199-0.385,0.404-0.596,0.586c-0.177,0.155-0.149,0.258,0.007,0.41c1.14,1.131,2.273,2.265,3.404,3.404
			c0.138,0.138,0.233,0.185,0.382,0.015c0.192-0.22,0.415-0.41,0.611-0.627c0.353-0.393,0.357-0.908-0.013-1.286
			c-0.826-0.844-1.667-1.673-2.5-2.508C57.613,50.469,57.393,50.396,57.138,50.398z"/>
		<path fill-rule="evenodd" clip-rule="evenodd" fill="#F5F8FA" d="M46.067,31.467c0.167,0.176,0.264,0.281,0.363,0.384
			c0.688,0.697,1.403,1.374,2.06,2.101c1.056,1.169,1.051,2.848-0.006,4.014c-0.587,0.647-1.207,1.269-1.857,1.854
			c-1.213,1.09-2.973,1.022-4.129-0.123c-0.688-0.68-1.37-1.368-2.057-2.051c-0.079-0.079-0.132-0.202-0.275-0.205
			c-0.076,0.287-0.103,0.58-0.088,0.87c0.018,0.396,0.031,0.797,0.097,1.187c0.727,4.245,5.071,6.817,9.128,5.385
			c0.594-0.211,0.979-0.103,1.404,0.334c1.43,1.477,2.893,2.921,4.343,4.377c0.145,0.146,0.24,0.275,0.47,0.059
			c0.836-0.788,1.777-0.894,2.808-0.343c0.161,0.088,0.253,0.079,0.374-0.047c0.313-0.325,0.621-0.656,0.959-0.952
			c0.245-0.214,0.208-0.34-0.007-0.554c-1.95-1.934-3.879-3.885-5.834-5.812c-0.382-0.375-0.473-0.724-0.29-1.233
			c1.011-2.836,0.205-5.801-2.108-7.72C49.899,31.728,48.13,31.238,46.067,31.467z M79.46,64.885c0.155-0.8,0.113-1.515-0.029-2.218
			c-0.873-4.292-5.078-6.682-9.223-5.235c-0.479,0.17-0.813,0.091-1.169-0.27c-1.948-1.974-3.917-3.925-5.871-5.891
			c-0.19-0.193-0.302-0.223-0.495-0.009c-0.299,0.337-0.625,0.65-0.954,0.958c-0.154,0.146-0.16,0.249-0.054,0.439
			c0.521,0.929,0.412,1.957-0.308,2.716c-0.212,0.223-0.186,0.331,0.016,0.53c1.496,1.484,2.972,2.99,4.475,4.473
			c0.35,0.343,0.428,0.668,0.264,1.134c-1.342,3.768,0.524,7.679,4.29,8.991c1.006,0.352,2.048,0.475,3.18,0.278
			c-0.792-0.794-1.54-1.541-2.288-2.288c-1.213-1.213-1.245-3.044-0.064-4.283c0.541-0.565,1.094-1.119,1.661-1.661
			c0.665-0.636,1.463-0.917,2.392-0.841c0.828,0.067,1.477,0.466,2.044,1.037C78.018,63.44,78.709,64.132,79.46,64.885z
			 M60.229,49.728c-0.22,0.22-0.617,0.413-0.596,0.688c0.018,0.237,0.398,0.428,0.58,0.671c0.248,0.325,0.407,0.246,0.665-0.012
			 M57.138,50.398c-0.243,0-0.461,0.076-0.64,0.255c-0.196,0.199-0.385,0.404-0.596,0.586c-0.177,0.155-0.149,0.258,0.007,0.41
			c1.14,1.131,2.273,2.265,3.404,3.404c0.138,0.138,0.233,0.185,0.382,0.015c0.192-0.22,0.415-0.41,0.611-0.627
			c0.353-0.393,0.357-0.908-0.013-1.286c-0.826-0.844-1.667-1.673-2.5-2.508C57.613,50.469,57.393,50.396,57.138,50.398z"/>
		<g>
			<path fill="#0C5666" d="M55.171,49.616c0.198,0.064,0.12,0.252,0.35,0.035c0.836-0.788,1.777-0.894,2.808-0.343
				c0.161,0.088,0.253,0.079,0.374-0.047l2.457-2.455c3.39-3.398,6.788-6.794,10.184-10.187c0.146-0.146,0.199-0.29,0.183-0.492
				c-0.047-0.606-0.067-1.216-0.123-1.822c-0.038-0.39,0.086-0.668,0.431-0.858c2.017-1.119,4.033-2.235,6.046-3.356
				c0.364-0.202,0.68-0.149,0.971,0.144c0.618,0.62,1.233,1.241,1.856,1.856c0.296,0.287,0.363,0.604,0.16,0.967
				c-1.124,2.03-2.248,4.055-3.376,6.082c-0.182,0.328-0.461,0.442-0.831,0.41c-0.621-0.053-1.242-0.076-1.863-0.126
				c-0.19-0.015-0.321,0.041-0.456,0.176c-3.403,3.407-6.805,6.812-10.215,10.213l-1.455,1.45c-0.299,0.337-0.625,0.65-0.954,0.958
				c-0.154,0.146-0.16,0.249-0.054,0.439c0.521,0.929,0.412,1.957-0.308,2.716c-0.212,0.223-0.144,0.404-0.094,0.65
				c0,0,0,0.811-0.577,1.194c0.075,1.055-0.415,1.737-1.061,2.379c-3.996,3.976-7.978,7.969-11.963,11.953
				c-1.238,1.235-2.68,1.241-3.912,0.012c-1.455-1.456-2.909-2.909-4.361-4.362c-1.235-1.236-1.23-2.672,0.01-3.911
				c3.995-3.996,7.996-7.985,11.981-11.993c0.633-0.636,1.308-1.11,2.246-1.034C53.627,50.264,54.358,49.344,55.171,49.616z"/>
			<path fill="#F5F8FA" stroke="#0C5666" stroke-width="0" stroke-linecap="round" stroke-linejoin="round" d="M40.214,66.016
				c0.079,0.091,0.18,0.161,0.249,0.258c0.218,0.302,0.382,0.302,0.664,0.018c3.195-3.22,6.407-6.422,9.614-9.63
				c0.122-0.12,0.243-0.245,0.374-0.356c1.279-1.096,3.261-0.636,3.927,0.913c0.432,1.005,0.202,2.036-0.659,2.9
				c-3.233,3.237-6.47,6.472-9.704,9.706c-0.076,0.076-0.148,0.152-0.226,0.226c-0.089,0.082-0.069,0.149,0.006,0.234
				c0.661,0.747,1.354,1.148,2.301,0.193c3.969-4.002,7.964-7.978,11.95-11.962c0.094-0.094,0.189-0.188,0.275-0.287
				c0.415-0.486,0.409-1.087-0.042-1.541c-1.551-1.561-3.113-3.113-4.668-4.672c-0.227-0.229-0.495-0.349-0.857-0.337
				c-0.396-0.023-0.668,0.252-0.943,0.527c-3.862,3.864-7.725,7.725-11.589,11.589c-0.234,0.234-0.479,0.46-0.696,0.712
				C39.778,64.976,39.795,65.553,40.214,66.016z"/>
			<path fill="#F5F8FA" stroke="#0C5666" stroke-width="0" stroke-linecap="round" stroke-linejoin="round" d="M60.878,51.075
				c4.163-4.184,8.338-8.353,12.51-12.524c0.103-0.103,0.209-0.202,0.312-0.308c0.207-0.214,0.451-0.29,0.753-0.261
				c0.502,0.05,1.005,0.067,1.567,0.103c0.33,0.129,0.505-0.088,0.675-0.404c0.667-1.233,1.361-2.455,2.037-3.688
				c0.218-0.401,0.672-0.823,0.586-1.21c-0.085-0.384-0.601-0.668-0.916-1.011c-0.153-0.17-0.273-0.211-0.496-0.085
				c-1.592,0.896-3.191,1.781-4.797,2.657c-0.207,0.114-0.275,0.246-0.256,0.475c0.045,0.527,0.048,1.058,0.111,1.585
				c0.047,0.396-0.085,0.674-0.36,0.949c-4.13,4.119-8.255,8.247-12.375,12.375c-0.22,0.22-0.617,0.413-0.596,0.688
				c0.018,0.237,0.398,0.428,0.58,0.671C60.46,51.412,60.62,51.333,60.878,51.075z"/>
			<path fill="#F5F8FA" stroke="#0C5666" stroke-width="0" stroke-linecap="round" stroke-linejoin="round" d="M42.007,67.838
				c0.36,0.334,0.716,0.674,1.04,1.043c0.221,0.252,0.349,0.234,0.582,0c3.246-3.267,6.504-6.519,9.759-9.773
				c0.064-0.064,0.136-0.126,0.193-0.199c0.272-0.354,0.344-0.747,0.149-1.154c-0.192-0.407-0.533-0.612-0.945-0.642
				c-0.456,0-0.747,0.237-1.025,0.519c-2.707,2.716-5.415,5.429-8.123,8.142c-0.543,0.542-1.081,1.096-1.636,1.626
				C41.817,67.574,41.832,67.674,42.007,67.838z"/>
			<path fill="#F5F8FA" stroke="#0C5666" stroke-width="0" stroke-linecap="round" stroke-linejoin="round" d="M59.313,55.054
				c0.138,0.138,0.233,0.185,0.382,0.015c0.192-0.22,0.415-0.41,0.611-0.627c0.353-0.393,0.357-0.908-0.013-1.286
				c-0.826-0.844-1.667-1.673-2.5-2.508c-0.18-0.179-0.4-0.252-0.655-0.249c-0.243,0-0.461,0.076-0.64,0.255
				c-0.196,0.199-0.385,0.404-0.596,0.586c-0.177,0.155-0.149,0.258,0.007,0.41C57.049,52.78,58.183,53.914,59.313,55.054z"/>
		</g>
	</g>
</g>
</svg>
